<svg xmlns="http://www.w3.org/2000/svg" viewBox="0 0 300 146.91"><path fill="#fff" d="M297.65 89.96c-1.2-7.3-6-18.01-22.13-27.66a75 75 0 0 0-3.41-1.9l6.13-2.07-17.87-6.96a84 84 0 0 0-4.75-1.66l2.42-2.47-13.7-1.92a92 92 0 0 0-14.17-.97 25 25 0 0 0-.14-1.58l-2.29-17.16-5.83 7.95a36 36 0 0 0-3.87-5.3l-14.78-16.71 1.07 8.84a89 89 0 0 0-15.9-8.83c-23.78-10.2-53.85-12.32-82.5-5.82-23.97 5.44-58.58 19.6-87.32 56.25L2.02 83.13 27 73.2c.2-.08 19.48-7.6 35.02-9.79 5.8-.82 10.24-.88 6.64 7.06-2.84 6.27-9.3 15.41-9.36 15.5l-12.5 18.19 20.85-7.24c10.03-3.5 19.04-5.21 23.6-5.37 1.62.03 1.92 1.1 1.4 2.27-.14.4-.23.62-1.35 2.35l-13.1 18.65 21.45-7.68c15.57-5.59 36.03-9.26 43.36-6.47.6.23 2.53 1.26.6 4.07l-8.42 13.4 14.21-2.16c.98 12.24 7.12 18.92 7.87 19.69l9.04 9.27 3.17-12.55c2.28-9.03 6.57-13.96 10.4-16.64l.74 5.16 8.38-3.02c7.04-2.55 12.62-5.6 16.63-9.1 5.31-.42 18.28-1.19 30.74.04 21.47 2.13 35.88-.73 39.78-1.65 5.22-1.24 9.63.99 9.67 1.02l6.39 3.47 3.44-6.47c.41-.77 2.36-4.81 2.36-10.8q0-2.23-.37-4.44"/><path fill="#9a7611" d="M294.66 91.2c-1.07-6.46-5.44-16.02-20.27-24.89a87 87 0 0 0-12.63-6.1l5.25-1.77-7.22-2.81a87 87 0 0 0-11.2-3.48c.75-.75 1.55-1.58 1.55-1.58l-5.52-.77c-8.52-1.2-14.4-1.06-17.86-.74a55 55 0 0 0 .06-2.33c0-1.11-.04-2.2-.16-3.1l-.93-6.92-3.84 5.25a33 33 0 0 0-6.27-10.68l-5.97-6.76.68 5.64c-5.37-4.99-12.8-10.23-22.99-14.6-23.1-9.91-52.4-11.96-80.37-5.62-23.43 5.31-57.28 19.18-85.41 55.05l-7.1 9.04 10.68-4.26c.2-.07 20.06-7.94 36.2-10.1 6.33-.84 10.7-.1 12.3 2.12 1.5 2.07 1.01 6.16-1.3 10.96-3.18 6.58-9.67 16.03-9.73 16.13l-5.35 7.77 8.92-3.1c11.75-4.08 26.56-7.1 30-4.85a3 3 0 0 1 1.39 1.98c.55 2.86-1.91 7.19-2.81 8.48l-5.6 7.98 9.17-3.28C113 98.6 139.28 92.57 147.4 98.8c3.76 2.88.25 8.57.1 8.81l-3.61 5.75 6.69-1.03 3.28-.5q-.05.79-.06 1.55c0 12.96 6.56 19.85 6.87 20.18l3.87 3.97 1.36-5.38c3.8-15.08 12.8-20.3 17.82-22.08l.84 5.89 3.58-1.3c8.79-3.16 13.7-6.64 16.4-9.25 4.05-.36 18.85-1.48 33.07-.07 20.93 2.07 34.84-.68 38.61-1.58a19.4 19.4 0 0 1 12.64 1.4l2.76 1.5 1.48-2.78c.1-.17 1.87-3.64 1.87-8.88q0-1.77-.3-3.8"/><path d="M272.55 69.44c-6.2-4.38-14.53-7.57-22.63-9.84 3.37-1.1 6.75-1.02 6.75-1.02a77 77 0 0 0-15.64-4l1.89-1.7c-9.23-1.57-15.66-1.45-19.48-1.05.48-1.89.87-4.78.37-8.63 0 0-1.12 3.32-3.83 5.39-.36-4.32-1.73-10.55-6.41-14.79l.86 7.62c-4.12-6.21-11.97-14.15-26.8-21.1C147.31 1.49 76.26 8.63 37.25 59c0 0 15.17-7.58 36.18-8.08 11.01-.26 13.69 5.9 9.67 16.3C79.07 77.66 72 86.82 72 86.82s47.55-16.85 32.54 6.56c0 0 35.9-10.75 46.67 1.86 5 5.85-.83 14.03-.83 14.03l10.19-2.2c-3.3 12.93 2.48 21.2 2.48 21.2 4.2-16.91 18.85-21.42 24.04-22.27l1.12 4.58c8.7-3.14 12.78-6.49 15.12-9.24 18.41-2.9 30.91-.42 45.1.35 20.68 1.13 31.37-2.47 34.78-2.45 2.5.02 5.48 2.21 5.48 2.21s8.59-14.5-16.14-32.01"/><path fill="#24135f" d="M176.44 21.95C130.67 8.29 82.92 21.5 56.42 46.88c0 0 26.68-8.4 34.68-.15 9.3 9.6-4.8 32.15-4.8 32.15l9.23-1.45-1.04.13c7.2-25.21 13.7-34.05 18.06-38.37 2.59-3.16 7.16-5.3 10.83-6.55-24.66 1.18-48.63 6.25-48.63 6.25 15.5-12.03 51.45-20.44 72.18-18.33 20.72 2.12 19.31 10.53 17.18 15.32-1.73 3.87-10.2 9.13-18.15 10.82 8.24 1.08 12.9 7.44 9.95 13.79a15 15 0 0 1-.86 1.58 89 89 0 0 0-23 9.02l-.67.39-.9.52-.68.4-.82.52-.68.43q-.4.24-.78.5l-.66.43-.73.5c-5.26 3.62-9.08 7.24-11.07 10.05 0 0 53.9-10.92 44.56 16.23l13.92-3.82a38 38 0 0 1-4.65 6.04c-6.58 7.3-6.12 14.25-6.12 14.25s1.93-7.6 14.38-12.81c11.36-4.75 13.97-12.81 13.97-12.81s3.79 5.59.7 13.42c0 0 5.22-1.31 9.9-7.73 1.9-3.41-.04-7.47-.85-9.46-7.12-3.79-18.78-11.03-8.88-13.4-6.17-.92-24.96-2.77-48.5 3.95 0 0 21.77-14.54 63.62-7.7-11.3-6.76-36.09-6.48-36.09-6.48 8.63-2.15 17.92-2.18 26.7-1.21a119 119 0 0 0-13.96-2.98 81 81 0 0 0-24.4.84c8.52-8.84 24.03-7.68 24.03-7.68-10.34-6.97-23.83-4.74-23.83-4.74 15.12-7.83 31.93-5.18 31.93-5.18-5.28-6.98-17.77-8.52-17.77-8.52 24.75-1 33.42 12 33.42 12-6.17-2.68-10.56-2.27-10.56-2.27s5.94.96 9.97 8.49c4.27 7.97 7.88 7.74 7.88 7.74s6.78-25.7-38-39.05"/><path fill="#fff" d="M140.73 20.24c-21.08-.18-51.93 7.75-65.98 18.65 0 0 23.97-5.07 48.64-6.25-3.67 1.25-8.25 3.39-10.84 6.55-4.35 4.32-10.86 13.16-18.06 38.37l1.04-.13c3.1-.39 12.39-1.5 17.9-1.79l9.27-.53a57 57 0 0 0 3.09-.1l.35-.23.72-.5.67-.44 1.45-.93.83-.5.68-.41.9-.53.66-.38a89 89 0 0 1 23.01-9.02 15 15 0 0 0 .86-1.58c2.95-6.35-1.72-12.72-9.96-13.79 7.96-1.7 16.43-6.95 18.16-10.82 2.13-4.8 3.54-13.2-17.19-15.32a67 67 0 0 0-6.2-.32m.9 11.68c4 .43 5.9 3.54 3.43 7.87-1.13 1.96-3.43 3.6-6.4 4.48q.54-.75 1.02-1.8c2.56-5.5.6-7.91-4.24-7.95a13 13 0 0 1 2.03-2.59zM127.14 51.1h6.13c4.93 0 7.68 2.78 4.6 9.4-1.87 4.02-5.26 5.9-8.4 6.67 1.2-1 2.24-2.3 3.03-4 3.07-6.61.33-9.39-4.6-9.39h-2.08q.63-1.33 1.32-2.68"/><path fill="#24135f" d="M135.44 34.52a69 69 0 0 0-5.42 10.45h3.72q2.67-.01 4.92-.7.54-.75 1.02-1.8c2.56-5.5.6-7.91-4.25-7.95m-9.61 19.25a128 128 0 0 0-5.55 13.87h5.3c1.14 0 2.5-.12 3.9-.48a11.5 11.5 0 0 0 3.03-4c3.07-6.61.33-9.39-4.6-9.39z"/><path fill="#9a7611" d="M138.72 23.32a84 84 0 0 0-10.82.72c-4.26.57-24.96 2.68-42.58 11.28 15.41-3.75 33.63-5.13 45.16-5.55 4.85-.17 10.17-.02 10.17-.02 3.45 0 6.65 1.02 7.87 3.03 1.27 2.09 1.63 4.58-.76 7.63-1.32 1.68-2.86 3.45-7.35 5.28l5.17-1.1c7.72-1.65 14.74-6 16.35-9.36q1.73-3.67.29-5.98c-1.94-3.19-6.67-5.07-15.07-5.5 0 0-3.32-.45-8.43-.43m-6.96 10.63A26.7 26.7 0 0 0 115.4 41c-5.7 5.04-11.86 18.14-16.76 33.73a348 348 0 0 1 16.07-1.29l8.01-.34a59 59 0 0 0 6.56-.37 89 89 0 0 1 22.6-9.84 13 13 0 0 0 1.42-2.35c.88-1.89.98-4.24.35-6.1-.95-2.82-2.83-4.7-8.78-6.1-7.83-1.82-19.27-1.02-19.27-1.02a91 91 0 0 1 6.57-13.36zm-6.92 14.98h8.51c4.4 0 6.41 1.8 7.34 3.32 1.45 2.37 1.19 5.57-.6 9.58-3.47 7.73-11.86 8.43-14.38 8.43l-9.66.37c4.19-13.28 8.8-21.7 8.8-21.7"/><path fill="#c8102e" d="M194.66 47.59a8 8 0 0 0-2.63.36c-3.46 1.12-5.23 4.5-3.95 7.54s5.14 4.6 8.6 3.47c3.47-1.13 5.24-4.5 3.95-7.54-.96-2.28-3.37-3.73-5.97-3.83m2.36 3.4c1.45.06 2.78.91 3.3 2.28.7 1.82-.3 3.86-2.23 4.55a3.7 3.7 0 0 1-4.76-2.05c-.7-1.82.3-3.85 2.23-4.54a4 4 0 0 1 1.46-.23"/><path fill="#fff" d="M195 49.17a6 6 0 0 0-1.93.29c-2.69.87-4.08 3.43-3.11 5.73a4.8 4.8 0 0 0 3.52 2.72 4.5 4.5 0 0 1-1.76-2.02c-.96-2.28.43-4.85 3.11-5.72a6 6 0 0 1 3.09-.16 5.7 5.7 0 0 0-2.92-.84m32.05 10.99 6.4 5.16-11.9-1.03 9.42 6.81c-10.12-3.3-37.37-12.23-59.94-6.59 0 0 24.77-.27 36.08 6.47-41.85-6.83-63.62 7.7-63.62 7.7 23.54-6.71 42.33-4.86 48.5-3.94-9.9 2.37 1.76 9.61 8.88 13.4.8 1.99 2.76 6.05.85 9.46 0 0 2.15-2.73 3.7-6.74l5.8 4.65c17.29-2.14 30.04 1.5 44.36 1.44 10.3-.06 18-.99 24.06-2.4-22.37-9.59-66.17-13.69-72.95-13.14 0 0-3.7 1.05.56 5.15-5.97-2.35-11.93-6.83-12.34-9.1-.43-2.41 3.92-3.08 14.25-1.87 38.65 4.57 72.1 11.04 76.63 20.5 0 0 2.36-11.85-16.91-23.14-16.5-11-41.83-12.8-41.83-12.8"/></svg>