<svg xmlns="http://www.w3.org/2000/svg" xml:space="preserve" viewBox="0 0 191.07 103.82"><path stroke="#000" stroke-width=".31" d="m174.93 10.72.1-.3.07-.22v-.01c-.28-.8-.83-.85-1.99-.76a52 52 0 0 1-4.56.66l-.2.02-.16.01-.57.05-.08.01a42 42 0 0 1-2.76.14 13 13 0 0 1 4.83 8.34l.22-.2c3.32-2.4 5.1-7.74 5.1-7.74"/><path fill="#bfc0bf" d="M130.01 37.6c2.15 6.31-1.46 14.77-1.46 14.77 4.74-4.06 8.46-12.4 8.46-12.4 7.78-1.58 12.07 0 12.07 0a21 21 0 0 1-1.25 11.05c4.52-3.61 6.55-13.2 6.55-13.2s-1.8-1.69-9.81-2.25S130 37.6 130 37.6m5.85 24.15s-2.36 6.55-4.77 8.97c0 0 3.12 1.7 8.55 1.2s6.75-2.51 7.26-4.53 0-4.83-.9-6.95c0 0 .4 5.34-3.33 8.06 0 0-4.02.84-6.64.03 0 0 1.03-2.15-.17-6.78m-12.82-50.88.16.04zc-3.29-.62-4.67 1.86-4.67 1.86-1.04 1.54-.64 2.27-.64 2.27 10.11-.17 15.56 1.46 15.56 1.46s-3.77-4.12-9.84-5.5zm40.41 5.2c-1.33-1.24-4.17-2.84-7.28-2.22-3.1.62-3.28 4-3.28 4 3.37-3.11 10.56-1.78 10.56-1.78"/><path fill="#0085ca" d="M88.17 22.7s16.67-3.18 35.73 1.32a25 25 0 0 1 2.4-1.87s-17.49-4.85-38.13.56m.1 6.51s14.6-3.64 32.41-1.19q.5-1 1.4-2.12a82 82 0 0 0-33.82 3.31m.37 6.3s13.8-4.26 31.22-3.06a7 7 0 0 1 .07-2.2 82 82 0 0 0-31.29 5.26M47.92 79l.09.01 1.33.12 1.82.2q3.55.4 7.2 1c5.46-19.99 20.82-30.67 20.82-30.67C58.4 59.7 49.66 76.07 47.92 78.99m98-27.69c-1.3-6.03 2.14-10.16 2.14-10.16-7.8 6.85-3.08 13.7-.72 19.03 2.37 5.32 1.42 9.22-.94 11.94-2.37 2.72-8.87 2.95-13.24 2.13s-6.62-5.44-7.8-10.88c-1.19-5.44.94-15.01.94-15.01-3.2 4.84-3.2 14.77-.7 22.81 2.47 8.04 8.98 10.05 13.7 10.05s13.24-4.02 11.93-13.59-4-10.29-5.3-16.32m-50.85 4.9c-8.16-8.27-8.4-17.6-8.4-17.6s-2.8 10.89 3.85 19.04 22.83 9.05 22.83 9.05-10.12-2.24-18.28-10.5m41.25-35.74c9.59 3.73 9.48 9.48 9.48 9.48 1.46-5.53 8.23-8.46 8.23-8.46s-3.5-1.7-8.35-2.03a30 30 0 0 0-9.36 1.01m-13.3-9.58c-5.77-1.14-11.31 1.17-11.6 1.3 5.32.09 6.94.56 6.94.56s1.38-2.48 4.67-1.86M141.8 85.9a16 16 0 0 1-7.65.47s5.55 5.37 11.2 17.12v.02l.22-.01c-.55-5.36-2.83-14.33-3.36-15.99z"/><path stroke="#000" stroke-width=".31" d="M147.84 51.02s2.25-4.96 1.24-11.05c0 0-4.29-1.58-12.07 0 0 0-3.72 8.34-8.46 12.4 0 0 3.61-8.46 1.47-14.77 0 0 6.54-2.6 14.55-2.03 8 .56 9.8 2.25 9.8 2.25s-2.02 9.6-6.53 13.2zm-5.17 17.48c3.72-2.72 3.32-8.06 3.32-8.06.9 2.12 1.4 4.94.9 6.95-.5 2.02-1.8 4.03-7.25 4.54-5.43.5-8.55-1.21-8.55-1.21 2.41-2.42 4.76-8.97 4.76-8.97 1.21 4.64.18 6.78.18 6.78 2.62.81 6.64-.03 6.64-.03zm8.56-.88c1.31 9.57-7.2 13.6-11.93 13.6s-11.23-2.02-13.7-10.06c-2.5-8.04-2.5-17.97.7-22.81 0 0-2.13 9.57-.94 15.01 1.18 5.44 3.42 10.05 7.8 10.88 4.37.82 10.87.59 13.24-2.13 2.36-2.72 3.3-6.62.94-11.94s-7.09-12.18.72-19.03c0 0-3.43 4.13-2.14 10.16 1.3 6.03 4 6.75 5.31 16.32zm-30.55-39.59c-17.8-2.45-32.42 1.2-32.42 1.2a82 82 0 0 1 33.82-3.32 12 12 0 0 0-1.4 2.12zm-.83 4.43a95 95 0 0 0-31.22 3.06 82 82 0 0 1 31.29-5.27 7 7 0 0 0-.07 2.21zM90.53 57.64c-6.65-8.16-3.85-19.05-3.85-19.05s.24 9.34 8.4 17.6 18.28 10.5 18.28 10.5-16.19-.9-22.83-9.05zm35.76-35.5a25 25 0 0 0-2.39 1.88c-19.06-4.5-35.73-1.31-35.73-1.31 20.64-5.42 38.13-.57 38.13-.57zm-14.86-9.98c.3-.12 6.1-2.55 12.02-1.2 6.08 1.38 9.84 5.5 9.84 5.5s-5.45-1.63-15.56-1.46c0 0-.4-.73.64-2.27 0 0-1.62-.48-6.94-.57zm44.75 1.69c3.1-.62 5.94.98 7.27 2.22 0 0-7.18-1.33-10.56 1.77 0 0 .18-3.37 3.29-3.99zM166.4 29.6a7 7 0 0 0-.52-1.66s-.18-.46-.73-1.17c-.47-.6-.99-1.06-1.46-1.5a9 9 0 0 0-2.91-1.57c1.3.99 2.3 2.41 2.4 4.45.3 6.29-6.2 8.83-6.2 8.83a9.5 9.5 0 0 0 3.56-8.93c-.71-4.46-6.5-6.58-6.5-6.58s-6.77 2.93-8.23 8.46c0 0 .1-5.76-9.48-9.48 0 0 4.51-1.35 9.36-1.01s8.35 2.03 8.35 2.03.9-2.37 5.66-3.18c4.76-.8 9.9.36 9.9.36-.94-1.73-2.04-4.26-6.83-6.22-4.78-1.95-9.07-.18-9.07-.18s-.3-2.31-3.79-4.56c-5.65-3.66-20.6-5.84-23.48-6-2.88-.15 2.16 1.7 4.18 2.86 2.3 1.3 4.86 3.53 5.08 5.64a2.3 2.3 0 0 1-.33 1.47 8 8 0 0 0-1.37-2.3c-4.1-5.26-14.49-7.54-22.28-7.02S97.73 5.81 97.73 5.81c.08.72-2.88 3.23-11.05 4.13-7.79.86-13.28-.57-15.26-.86l-.15-.03c-.8-.1-1.4-.06-1.66.52l-.02.08-.02.1c-.03.4.21.96.21.96l-.11-.22c.55 1.07 3.87 7.17 8.23 10.3 0 0 2.61-.55 5.7-.88 0 0-47.83 23.28-67.21 59.66 8.45-1 19.56-1.63 31.62-.57h-.09c1.74-2.93 10.48-19.3 31.26-29.35 0 0-15.36 10.68-20.83 30.68 6.95 1.18 14.05 3 21 5.7 22.34 8.72 41.17 17.82 62.4 17.63l3.61-.16v-.02c-5.65-11.75-11.2-17.12-11.2-17.12 4.2.75 7.59-.44 7.65-.47q.48-.16.82-.33c6.94-3.74 8.1-10.08 8.67-14.62.65-5.25-.28-8.6-.28-8.6s12.02-15.78 15.07-28.2c0 0 .7-2.24.3-4.54"/><path fill="#0085ca" stroke="#0085ca" stroke-width=".31" d="M190.43 37.57c-7.02-3.83-14.99-5.03-21.1-5.26h-.04.04c.23-.78.51-1.76.78-2.82l.23-.02c12.25-.4 18.72 2.84 18.72 2.84l-.62-.47c-5.96-2.77-12.27-3.78-17.73-3.93h-.22c.19-.85.43-2.58.48-2.57h.13c9.42.1 14.56 2.33 14.56 2.33l-.62-.48a43 43 0 0 0-13.93-3.2 9 9 0 0 0-.92-4.42c3.45-3 4.73-7.56 4.91-9.37l.05-.26.02-.1v-.28l-.01-.15-.01-.08-.04-.14-.03-.07-.06-.12q0-.03-.03-.05l-.07-.1-.04-.05-.08-.09-.05-.04-.09-.07-.04-.03-.1-.05-.05-.03-.1-.04-.04-.02-.1-.04h-.04l-.12-.04-.08-.02h-.02l-.07-.02h-.09c-5.97.06-10.87-1.97-10.87-1.97l-.4-.14C149.27 1.34 135.49-.05 123.23.18V.16c-5.48.05-9.48.5-9.48.5-17.6 1.5-30.23 5.7-30.23 5.7s-4.8 1.36-11.17 1.04c0 0-2.37-.04-2.84 1.47-.4.96-.46 2.1.45 4.6 1.04 2.9 5.2 8.31 5.23 8.36-12.6 5.1-45.4 23.5-74.78 60.49 0 0 6.21-1.61 15.98-2.76C35.77 43.2 83.6 19.91 83.6 19.91a64 64 0 0 0-5.7.88c-4.37-3.13-7.68-9.24-8.24-10.3l.12.21s-.25-.55-.22-.95l.02-.1.03-.09c.25-.58.85-.61 1.65-.51l.15.03c1.98.29 7.48 1.71 15.26.86 8.18-.9 11.14-3.42 11.05-4.14 0 0 6.2-2.95 13.99-3.46 7.79-.52 18.18 1.75 22.27 7.01a8 8 0 0 1 1.38 2.3q.39-.6.33-1.47c-.22-2.1-2.8-4.33-5.09-5.64-2.02-1.15-7.06-3-4.18-2.85 2.89.15 17.83 2.33 23.48 6 3.48 2.24 3.8 4.55 3.8 4.55s4.28-1.77 9.07.19 5.88 4.48 6.83 6.22c0 0-.5-5.06-4.83-8.33 0 0 1.07-.01 2.77-.15h.08l.57-.05.15-.02.21-.02a52 52 0 0 0 4.56-.66c1.16-.09 1.7-.03 1.98.76v.01l-.06.23-.1.29s-1.79 5.34-5.1 7.75l-.23.19s-5.15-1.17-9.9-.36c-4.77.8-5.67 3.17-5.67 3.17s5.79 2.12 6.5 6.58a9.5 9.5 0 0 1-3.55 8.93s6.5-2.54 6.19-8.82a5.7 5.7 0 0 0-2.4-4.45s1.87.58 2.91 1.56c.48.45 1 .91 1.46 1.5a6.5 6.5 0 0 1 1.24 2.83c.41 2.3-.3 4.55-.3 4.55-3.05 12.42-15.06 28.19-15.06 28.19 9.08-7.75 15.14-21.47 17.8-28.37 14.31.15 22.14 4.14 22.14 4.14l-.53-.54"/></svg>