<svg xmlns="http://www.w3.org/2000/svg" viewBox="0 0 298 175.55"><path fill="#0a2343" d="M151.14 172.57c0 .11-.13.87-.42 1.2-.3.33-.75.45-1.17.55a2.3 2.3 0 0 1-1.94-.42 2 2 0 0 1-.78-1.3v-.02l-5.19-16.87c-2.9-8.65-7.29-17.94-15.8-26.15-10.29-9.92-25.45-16.78-46.35-20.97-18.22-3.65-30.21-6.78-38.88-10.17a59 59 0 0 1-18.05-10.7C10.3 77.33 1.76 64.09 1.2 47.42c0 0 12.2 17.23 25.6 9 6.34-3.9 10.9-3.34 10.9-3.34a31.4 31.4 0 0 1-7.98-16.95c-.65-5.18-.23-10.91 1.26-17.06C33.5 8.61 40.85.95 40.92.83c0 0-2.89 25.13 9.13 34.04 7.4 4.17 15 2.49 15 2.49S55.09 32.74 53.7 17.9c-.62-6.52.34-11.65.6-12.96 0 0 13.17 18.6 26.36 10.96 2.95-1.7 18.53-9.76 25.24-11.54a58.6 58.6 0 0 1 29-.55 65 65 0 0 1 22.6 10.59c12.84 9.19 21.16 21.12 24.14 25.83 0 0 25.87-1.14 40.03 16.95l.02.03 32.73 14.45-3.7 2.37-.17.1.17.11c10.6 6.74 29.13 18.67 34.17 22.97l.01.01.02.02 9.38 4.46-1.71 4.53c-.11.31-2.66 7.59 2.14 11.2l2.42 1.8.05.04-.03.06-7.37 19.53-1.86-2.51c-10.29-14.17-20-16.8-24.9-16.9-5.52-.11-5.9 2.84-5.22 4.1 2.22 4.11 14.61 6.24 19.2 6.7l3.13.41-11.94 10.7-21.64-1.36h-.08v-.1l.37-4.24v-.03c-.11-.8-1.58-8.06-19.27-15.35l-.05-.01-.05.02a47 47 0 0 1-16.75 4.2 39 39 0 0 1-25.16-7.32l-.05-.03-.06.01a63 63 0 0 0-15.02 7.5c-11.12 7.63-17.18 17.63-18.03 29.7 0 0-.97 9.95-1.27 18.2"/><path fill="#fff" d="M183.74 45.65c7.71 2.38 10.06 4.72 10.66 6.29.4 1.04 0 1.7-.02 1.72l-.04.07-.08-.02C107 29.9 35.6 84.65 32.61 86.99c3.42 3.46 11.13 8.12 38.81 14.27 6.18-4.83 35.63-25.77 80.08-24.54l-7.21-10.9s27.53 7.16 43.25 15.9a24.77 24.77 0 0 0 40.7 21.38l19.74 12.6-18.94-7.35a32.24 32.24 0 0 1-51.01-23.06c-42.66-10.71-74.1 16.26-80.4 22.2a108 108 0 0 1 14.03 5.47 77 77 0 0 1 13.94 8.51c3.16-3.85 15.75-17.09 39.9-17.29 0 0-23.71 6.14-31.27 25.45 6.71 7.78 10.17 16 12.83 23.85.6-7.46 3-14.3 7.12-20.35a51 51 0 0 1 13.48-13.15 67 67 0 0 1 18.88-8.82l.06-.02.04.04c19.21 15.49 40.37 3.29 40.58 3.16l.04-.02.05.02c5.92 2.26 10.92 4.79 14.85 7.53a31 31 0 0 1 7.37 6.92c2.71 3.73 2.79 6.4 2.77 6.96l14.33.94 4.2-3.59c-13.02-1.69-16.97-5.73-17.77-9.2-1.4-8.36 7.14-9.4 11.03-8.89 9.07 1.18 20.1 9.31 24.25 14.97l3.08-8.26c-4.19-3.18-5.04-7.73-5-10.98.03-3.2.88-5.81 1.06-6.31l-5.58-2.61h-.02l-.01-.02c-3.45-3.73-40.78-27.2-41.15-27.44l-.14-.1.14-.08 2.75-1.84-25.29-10.71-.03-.02-.02-.02c-10.26-15.36-30.5-15.97-34.38-15.94zm14.42 4.5s9.01 1.38 14.25 9.73c-4.94-1.9-10.35-3.7-14.35-4.68 12.52.25.1-5.06.1-5.06m17.7 18.74s5 .71 14.59 5.42a3.25 3.25 0 0 0 1.97 5.6 3.25 3.25 0 0 0 3.46-2.76c7.62 4.23 17.34 10.58 29 20.1l-29.33-16.37L232.4 83s-4.95-6.43-16.56-14.13m16.35 6.3q1.12.57 2.31 1.22l-3.2 2.35zm45.61 29.28c2.03 0 4.47.65 4.47.65-6.9 2.76 2 10.68 2 10.68-12.1-9.55-9.86-11.34-6.47-11.33"/><path fill="#fc4c02" d="M121 7.72q-6.79.06-13.7 1.91c-5.96 1.6-19.42 8.22-24.47 10.83C69.57 27.34 61 18.44 57.77 15.1l-.15-.15c.3 1.82.91 5.13 2.38 8.52 1.84 4.22 4.5 7.33 7.9 9.23 6.08 3.4 14.56 2.92 25.18-1.43 11.82-4.85 21.74-6.33 29.48-4.4 6.97 1.72 13.39 7.28 17.17 14.86a173 173 0 0 1 38.2 2.71C171.5 34.5 163.74 26 155.48 19.82c-6.74-5.05-13.84-8.56-21.1-10.44A51 51 0 0 0 121 7.72m-84.07 7.55c-4.67 14.57-2.43 26.12 4.34 33.86 5.37 6.15 14.53 10.22 24.5 10.9 19.88-9.13 40.34-14.93 60.8-17.27-5.57-9.48-21.87-10.63-45.97-3.23-15.51 4.76-26.5 4.7-33.62-.16-6.06-4.16-9.72-11.53-10.05-24.1m1.18 43.29c-2.53.05-5.5.86-9.37 2.85-12.25 6.28-19.53-.66-19.53-.66s5.6 28.91 47.16 5.03c-8.27-2.61-11.81-7.37-18.26-7.22M230.44 74.3a3.25 3.25 0 0 0 1.98 5.6 3.25 3.25 0 0 0 3.46-2.76l-1.37-.74-3.2 2.35.89-3.57q-.9-.47-1.76-.88"/></svg>