<svg xmlns="http://www.w3.org/2000/svg" viewBox="0 0 1279.04 540"><path fill-rule="evenodd" d="M67.88 478q.2 3.3 0 6.6a50 50 0 0 1-.9 8.4 30 30 0 0 1-3.3 8.6q-2.6 4.2-7 6.7a24 24 0 0 1-12 2.8H32.4v-51.5H43q7.3-.3 13.9 3a20 20 0 0 1 7.59 7q2.6 3.8 3.4 8.4m596.42-20.3h-15.19v21h21.8a20 20 0 0 0 4.6-1.4q2.1-1.2 3.5-3.2a10 10 0 0 0 1.4-5.7 10 10 0 0 0-3.3-7.8 22 22 0 0 0-12.8-3m225.43 4.4a20 20 0 0 0-6.8-4.5 20 20 0 0 0-13.9 0q-4 1.5-6.8 4.5a30 30 0 0 0-5.19 8.7 50 50 0 0 0 0 29.1 30 30 0 0 0 5.2 8.8q3 3 6.8 4.4a20 20 0 0 0 14 0q3.8-1.5 6.69-4.4 3.6-3.8 5.3-8.8a50 50 0 0 0 0-29 24 24 0 0 0-5.3-8.8M418.48 300a31.99 32 0 0 0 31.79-31.1V116a33.69 33.7 0 0 0-32-33.3A33 33 0 0 0 387.2 116v153a31.4 31.4 0 0 0 31.29 31M235.13 192.3a182.85 182.9 0 1 0 365.6 0 182.85 182.9 0 0 0-365.6 0M100.97 485.2a69.98 70 0 0 0-2.6-19.6 50 50 0 0 0-8.1-16.8 40 40 0 0 0-14.7-11.8 50 50 0 0 0-22.29-4.5H0v105.6h46.99a69.98 70 0 0 0 23.99-3.7 44 44 0 0 0 17-10.4 40 40 0 0 0 9.9-16.7 69.98 70 0 0 0 3.3-22M214.13 155H108.87v-50h129.06l-7-105H0v383.7h107.97v-124h106.17zm89.27 356.2h-56.48v-14h49.78v-24.3h-49.78v-13h54.98v-27.3h-87.57v105.6h88.97zm201.64-78.6h-91.77v27.1h29.59v78.5h32.59v-78.5h29.6zM716.4 538.2a20 20 0 0 1-1.8-4.8c0-2 0-4.1-1-6.4-1-2.2 0-4.3 0-6.4v-5a40 40 0 0 0-4.9-17 20 20 0 0 0-10.7-9.4q4-1.5 7.1-4.3t4.9-6.3q2-3.6 3-7.6t.9-8.2a30 30 0 0 0-2.8-14 30 30 0 0 0-7.5-9.2 30 30 0 0 0-11-5.7 50 50 0 0 0-13.89-2h-61.98v105.6h32.49v-36h17.3q4-.4 7.6 1.6 2.7 1.8 4.2 4.7 1.5 3.2 2 6.7v7.4c0 2.5 0 5.5 1 8.2q.6 4 1.8 8zm57.28-155h119.57L777.57 184 882.54 0H766.87L718.9 83.4 671.8 0H552.24L659.2 184.8 545.84 383.3h116.17l55.68-97.4zm156.06 102.1a59.98 60 0 0 0-3.8-22.2 50 50 0 0 0-11-18 50 50 0 0 0-16.8-11.5 59.98 60 0 0 0-21.99-4.2 59.98 60 0 0 0-21.79 4.2 50 50 0 0 0-17 11.4 50 50 0 0 0-10.8 17.5 65.98 66 0 0 0 0 44.5 50 50 0 0 0 27.8 29q10.5 4 21.8 4a59.98 60 0 0 0 21.99-4 50 50 0 0 0 16.8-11.6q7.19-7.6 10.99-17.4 3.8-10.6 3.8-21.7m145.96-52.8h-33v105.6h32.5zm203.33 0h-91.87v27.1h29.6v78.5h32.58v-78.5h29.7zm0-142h-170.95c71.18-43.4 165.56-73.8 165.56-170.5 0-80.2-62.39-118.7-154.16-118.7-101.47 0-165.95 59.6-159.95 163.2h101.87c-1-46 13.9-77.6 56.98-77.6 25.6 0 45.69 12 45.69 46.2 0 27.8-31.5 42.8-51.19 54.8-48.18 29.3-102.47 58.1-133.96 102a142.96 143 0 0 0-27.79 93.4h327.9z"/></svg>