<svg xmlns="http://www.w3.org/2000/svg" viewBox="0 0 192.54 202.57"><path fill="#fff" d="M96.25 201.1c-19.22.08-33.96-5.4-41.02-9.13a100 100 0 0 1-35-30.19c-14.1-19.1-16.82-34.5-17.94-42.87-.66-4.36-1.45-14.85.03-24.26C3.98 81.08 7.07 74.32 9.27 67.7 11 63 16.52 51.68 19.81 46.5c2.79-4.07 7.88-11.57 9.96-14.22.57-.83-.17-.43-.48-.43-.76.2-1.15.24-1.74.2a8 8 0 0 1-1.81-.3 8.24 8.24 0 0 1-6.18-8.92c-.1-1.18 1.18-11.27 2.16-14.4 1.27-4.41 3.92-6.47 8.62-6.87 2.35 0 12.25-.2 16.75.5 9 .9 15.6 3.52 19.51 11.46 3.14 6.96 2.06 17.84-2.25 26.17-1.47 2.83-4.42 8.13-6.96 11.56a82 82 0 0 0-5.4 9.01c-2.05 4.02-8.91 19.02-11.26 28.81-4.48 18.3-1.96 28.82 6.66 43.13 6.37 9.5 13.82 16.37 19.6 19.5 9.51 5.98 22.5 7.64 29.26 7.64s19.74-1.66 29.25-7.64c5.78-3.13 13.23-10 19.6-19.5 8.62-14.31 11.13-24.84 6.66-43.12-2.35-9.8-9.21-24.8-11.27-28.81a81 81 0 0 0-5.39-9.02c-2.55-3.43-5.48-8.72-6.96-11.56-4.3-8.33-5.38-19.21-2.25-26.17 3.92-7.94 10.51-10.56 19.52-11.45 4.49-.7 14.39-.5 16.74-.5 4.7.39 7.35 2.45 8.62 6.85.99 3.14 2.26 13.23 2.16 14.4a8.24 8.24 0 0 1-6.18 8.93c-.48.14-1.37.3-1.81.3-.58.04-.98 0-1.74-.2-.32 0-1.05-.4-.48.44 2.07 2.64 7.17 10.14 9.97 14.2 3.28 5.2 8.82 16.52 10.53 21.22 2.2 6.62 5.3 13.38 6.96 26.95 1.47 9.41.69 19.9.03 24.26-1.13 8.38-3.85 23.76-17.95 42.87a100 100 0 0 1-35 30.19c-7.06 3.72-21.8 9.04-41.01 9.12"/><path fill="#013369" d="M96.14 182.2a2.3 2.3 0 1 0 0-4.6 2.3 2.3 0 0 0 0 4.6M34.73 153a2.3 2.3 0 0 0 0-4.61 2.3 2.3 0 0 0 0 4.61M21.04 99.7a2.3 2.3 0 0 0 2.3-2.31 2.3 2.3 0 1 0-4.6 0 2.3 2.3 0 0 0 2.3 2.3m27.05-62.71a2.3 2.3 0 0 0 0-4.62 2.3 2.3 0 1 0 0 4.61M160.06 150.7a2.3 2.3 0 0 0-2.3-2.31 2.3 2.3 0 0 0 0 4.61 2.3 2.3 0 0 0 2.3-2.3m13.72-53.31a2.3 2.3 0 0 0-2.3-2.3 2.3 2.3 0 1 0 0 4.6 2.3 2.3 0 0 0 2.3-2.3m-27.04-62.72a2.3 2.3 0 0 0-4.62 0 2.3 2.3 0 0 0 4.62 0M53.27 185.5c-12.54-7.45-23.91-16.86-34.89-34.96-4.9-8.95-16.27-27.96-10.66-61.08C14.19 59.2 27.2 43.9 34.65 33.41c3.53-5.1-.1-8.03-2.94-6.96-2.38.9-4.02.97-4.02.97-4.21-.57-3.62-3.32-2.84-10.47l.98-5.88c.88-5.2 3.23-5.1 9.4-4.98 9.8.2 11.57.27 16.87 1.25 7.05 1.57 16.26 8.63 9 28.03-4.5 10.39-9.2 13.91-14.3 24.7-5.49 11.95-18.81 38.8-9.8 61.74 12.35 30.77 36.26 41.74 59 42.14 22.73-.3 49-13.72 59.5-42.14 9.02-22.94-4.3-49.79-9.8-61.74-5.1-10.79-9.8-14.31-14.3-24.7-7.25-19.4 1.96-26.46 9.01-28.03 5.3-.98 7.06-1.06 16.86-1.25 6.17-.12 8.52-.22 9.4 4.98l.99 5.88c.78 7.15 1.37 9.9-2.85 10.47 0 0-1.63-.06-4.01-.97-2.84-1.07-6.47 1.87-2.94 6.96 7.44 10.49 20.46 25.78 26.93 56.06 5.6 33.12-5.77 52.13-10.67 61.08-10.97 18.1-22.34 27.51-34.89 34.96-17.16 11.96-49.3 11.27-43.13 10.88 6.46.49-23.62 1.27-42.83-10.88"/></svg>