<svg xmlns="http://www.w3.org/2000/svg" xml:space="preserve" viewBox="0 0 127 156.03"><path fill="#fff" d="M125.66 102.22c-.34-2.04-2.18-3.81-3.61-4.13l-.38-.09c.37-1.35.55-2.42.64-3.17a54 54 0 0 1 2.21-.94l1.42-.57-.28-1.5a18 18 0 0 0-3.13-6.9 9 9 0 0 0 .53-2.32q0-1.79-2.82-3.6c-.15-.1-.32-.37-.32-1.65 0-.02-.02-1.23-.34-2.46a7.4 7.4 0 0 0 2.91-3.58c.63-1.78.86-3.35.95-4.26.05-.5-.02-1.69-.02-1.69l-.19-2.3-1.8 1.42-.36.26-.3.2c-.46.28-.98.5-1.2.62-.51.27-1.27.56-2.11.8-1.2-6.25-5.63-17.17-16.32-26.8-12.86-11.59-34.1-13.74-35-13.83l-1.99-.18s-.04 2.98-.23 3.83l-.02.1q-.1.61-.25 1.16c-2.42-1.51-4.1-3.04-4.92-4.5-1.51-2.66-2-5.11-2.47-7.48a24 24 0 0 0-1.3-4.8A28 28 0 0 0 47.6 3.61c-.58-.49-1.16-1-2.06-1-.35 0-.89.09-1.43.52-.38.32-1.53 1.48-.25 3.39.02.03 2.12 3.87 2.9 9.37.27 1.81.32 4.04.38 6.4.12 4.78.26 10.2 2.15 14.3.83 1.8 1.9 3.41 3.03 4.82.1.13.54.58.61.67l.58.67a13 13 0 0 1-5.6-1.71l-.07-.05c-5.43-2.73-9.6-9.13-10.36-15.92l-.1-.89c-.15-1.2-.16-2.42-.18-3.7l-.05-2.25a45 45 0 0 0-.63-5.73 39 39 0 0 0-.5-2.4v-.05a14 14 0 0 0-.4-1.58l-.32-1a11 11 0 0 0-1.1-2.37 16 16 0 0 0-1.81-2.44 9 9 0 0 0-1.47-1.31l-.07-.05a3 3 0 0 0-1.48-.45 2.3 2.3 0 0 0-1.06.26l-.2.13c-.83.57-1.32 1.84-.58 3.36l.07.12.1.21q.07.16.13.36.05.17.1.43c.24 1.32.47 4.47-.72 10.78l-.07.32a56 56 0 0 1-.38 2.77 73 73 0 0 0-1.15 10.48l.01.56.01.19c-.03 2.55.36 24.67 22.2 32.35h.02l-.07.03c-1 6.36-1.07 10.28-1 12.2a106 106 0 0 0-13.85 6.63 91 91 0 0 0-19.2 14.1 104 104 0 0 0-3.43 3.46l-.76.8-.07.08a84 84 0 0 0-7.7 9.56c-.06.1-.26.42-.34.62-.26.58-.53 1.71 0 2.3.32.36.95.67 2.14.16.06-.02.3-.11.38-.16l.68-.42c7.23-5.54 23.84-8.6 28.69-8.88 4.06-.24 8.1-.83 9.59-1.06.81.38 2.4 1.05 4.19 1.44q1.13.25 2.43.25 1.14 0 2.05-.15c1.24 3.92 3.7 6.6 4.98 7.8-.08 2.37.32 6.8 2.1 9.67a20 20 0 0 0 4.64 5.05c0 1.13.1 2.94.67 4.47a13 13 0 0 0 1.98 3.43 9 9 0 0 0-.55 2.5 5 5 0 0 0 .5 2.66 6 6 0 0 0-.64 1.7c-.14.83.04 1.74.23 2.4a8 8 0 0 0-.5 1.47 4.4 4.4 0 0 0 .12 2.03c-.57 1.66-1.2 4.96.92 6.75a3.4 3.4 0 0 0 2.22.82c1.63 0 2.96-1.16 3.6-1.83a7 7 0 0 0 2.71-2.3 6 6 0 0 0 .84-2.03 8 8 0 0 0 1.46-2.01c.42-.8.6-1.47.69-1.98.92-1.1 2.97-3.82 3.85-7.2l.21-.94.06-.35c.49-3.06.09-5.93-.16-7.26.72-1.3 2.14-4.24 2.3-7.65a56 56 0 0 1 7.63-4.23c.13 2.04.17 4.13-.45 7.32-.77 3.89-3.6 7.1-5.03 8.51-.5.49-1.72 1.87-1.72 1.87s-.47.4-.38 1.2l.08.3.14.19c.68.65 2.55.41 2.55.41 8.02-.86 13.46-7.6 15.77-13.17a100 100 0 0 0 3.52-10.93c4.65-.84 8.96-1.26 11.88-1.55 1.3-.13 2.33-.23 3-.34 1.79-.26 5.1-.76 5.3-3.9a22 22 0 0 0-.45-4.8"/><path d="M123.83 102.47c-.22-1.31-1.53-2.48-2.19-2.62l-2.33-.59c1.24-3.5 1.24-5.68 1.24-5.68 1.1-.59 3.28-1.46 3.28-1.46a16 16 0 0 0-3.36-6.86c.22-.8.74-2.18.74-2.7s-.95-1.38-1.97-2.04-1.17-1.82-1.17-3.2-.58-3.14-.8-3.21 2.6-.97 3.48-3.45.9-4.49.9-4.49c-1.17 1.7-5.73 2.4-5.73 2.4-.36-3.87-3.47-16.34-16-27.64C87.36 29.63 66 27.6 66 27.6q.04.96-.24 2.2a11 11 0 0 1-1.02 3.33l-.12.2c-2.95-1.6-6.04-3.74-7.47-6.25-2.75-4.86-2.4-9.04-3.86-12.47a26 26 0 0 0-6.86-9.55c-.59-.52-.78-.69-1.09-.44-.3.24-.1.59.15.95.23.34 2.37 4.48 3.17 10.1s-.26 14.47 2.37 20.16a26 26 0 0 0 6.15 7.95l.18.17.59.58c-3.75.35-7.24.22-10.94-1.86-5.96-3-10.53-9.98-11.37-17.37l-.1-.89c-.24-2.02-.14-4.04-.23-6.07a42 42 0 0 0-.6-5.5 36 36 0 0 0-.5-2.38v-.03q-.15-.72-.37-1.42l-.3-.94a10 10 0 0 0-.92-1.98q-.7-1.16-1.6-2.15a7 7 0 0 0-1.17-1.06s-.4-.25-.67-.11c0 0-.36.25.02 1.03 0 0 .1.16.21.42a5 5 0 0 1 .34 1.18c.3 1.6.51 5.05-.75 11.63l-.01.03a52 52 0 0 1-.4 2.86 71 71 0 0 0-1.12 10.2l.02.73c-.04 3.24.58 24.41 22.48 31.09l-.27 1.31c-1.48 9.34-.93 13.28-.93 13.28l.01.1a104 104 0 0 0-14.89 7.01 89 89 0 0 0-18.8 13.8 100 100 0 0 0-3.37 3.4l-.77.81q-.01.03-.05.06a81 81 0 0 0-7.7 9.63c9.9-7.15 25.35-9.3 30.08-9.57 4.96-.29 9.98-1.14 9.98-1.14s1.96 1.05 4.3 1.56c2.65.59 5.43-.25 5.43-.25 1 5.13 4.6 8.43 5.55 9.18-.24 1.54 0 6.64 1.74 9.47 1.87 3.05 4.96 5.1 4.96 5.1s-.22 2.76.51 4.74 2.41 3.77 2.41 3.77-.76 1.3-.87 2.92.87 2.52.87 2.52-.88 1.14-1.03 2.02c-.14.89.4 2.21.4 2.21s-.53.98-.68 1.72c-.16.76.28 1.68.28 1.68-.35.7-1.42 3.99.15 5.3 1.56 1.32 3.5-1.14 3.5-1.14.6-.17 1.73-.92 2.26-1.75.66-1.02.66-1.97.66-1.97s.84-.55 1.56-1.93c.6-1.13.51-1.87.51-1.87s3.4-3.56 4.1-8.01c.6-3.8-.29-7.3-.29-7.3s2.55-3.87 2.43-8.3a56 56 0 0 1 11.14-5.96c.15 2.99.62 5.58-.32 10.38-1.17 5.99-6.5 10.36-6.5 10.36 7.45-.8 12.4-7.36 14.37-12.1 1.61-3.87 3.07-9.34 3.75-11.82 7.26-1.41 13.89-1.78 16.09-2.11 2.91-.44 3.65-1.1 3.72-2.19.07-1.1-.22-3.06-.44-4.38z"/><path fill="#fff" d="M50.93 15.5c.57 2.55.7 6.64.7 6.64a35 35 0 0 0-1.26-5.26c.17 1.14.3 2.2.42 3.08.37 3.04-.35 8.48 1.8 14.18 1.4 3.69 4.43 6.39 6.24 7.75 1.5-2.12 3.44-4.84 4.74-6.85-7.34-4.54-9.17-8.84-10.28-15.01a26 26 0 0 0-.69-2.84c.21 2.34.03 4.53.03 4.53-.29-2.26-1.7-6.22-1.7-6.22m-19.14.4q.02.74-.03 1.46c-.05 1.26-.34 2.76-.46 4.01-.13 1.26-.34 2.5-.53 3.75-.05.35-.13 1.04-.14.93v-.08a69 69 0 0 1-.25-6.05v-.58l-.06.33c-.46 2.7-1 6.46-1.06 10.52l.01.64c-.02 1.26.02 6.5 2.28 12.29 3.43 8.8 10.08 14.64 19.76 17.36 4.8 1.36 10.2 2.38 13.96 3.51v-.01s4.16 1.22 6.66 3.15c0 0-2.72-.55-5.5-.9a11.1 11.1 0 0 0 9.24 4.94 11 11 0 0 0 7.56-2.97 10 10 0 0 1-1.28.76c-.95.46-1.88.62-2.59.67-1.59.5-3.19.28-3.6.2l.1-.01c4.8-.83 9.26-4.5 8.75-10.08-.21-2.38-.94-4.93-2.44-6.53a9.7 9.7 0 0 1 3.39 6.51 10 10 0 0 1-.4 3.74c.61-1.31.97-2.76.99-4.3a8 8 0 0 1-.17 4.24 11 11 0 0 0 .77-3.82l.08.46v-.03q0-1.2-.25-2.35v-.1a13.5 13.5 0 0 0-7.59-9.89c-1.16-.6-4.7-1.9-8.54-2.25-1.74-.2-3.6-.18-5.88.06q-1.52.17-2.98.36c-5.2.67-10.12 1.3-15.38-1.65-6.53-3.3-11.36-10.64-12.28-18.7l-.1-.88c-.13-1.1-.18-2.28-.24-3.42-.1-1-.28-1.55-.3-1.42l.01.24c0 .86-.2 1.71-.34 2.55-.15 1-.36 2.9-.37 2.84l-.05-.24a6 6 0 0 1-.06-.83l-.04-1.69c-.07-1.4-.31-5.52-.42-6.05-.03-.13-.09-.6-.23-.68z"/><path fill="#e9bf9b" d="M99.86 69.37c-.68.02-3.14.32-3.84.36-.01.04-.26.08-.64.12v.22s-1.03 7.95-4.8 13.13c.99.55 3.47 1.3 4.35 2.1a5.6 5.6 0 0 1 1.64 4.47c-.08.85-.2 2.37-.98 5.37 0 0-.2-4.32-.58-5.6s-1.83-2.44-3.22-2.86a45 45 0 0 0-3.07-.79c-2.48 2.84-4.98 4.8-7.33 6.9.25.38.6.7 1.1.83 1.4.37 3.2-.47 3.2-.47s-1.14 5.25 1.87 9.73c2.25 3.34 6.6 2.49 6.6 2.49s.93-6.6 5.05-11.9c3.8-4.87 8.42-7.4 11.66-8.34-.12-.6-.32-1.84-.09-2.44.3-.81 1.2-1.55 2.28-1.55s2.3.58 2.3.58c-.57-.11-2.07-.19-2.84.62-.6.62-.32 1.88-.17 2.43 2.98-.54 5.71-.17 6.24-.04.56.14 1.07.04 1.26-.66s.19-1.54-.19-1.82c-.37-.29-.98-.38-1.59-.85s-1.12-1.6-1.07-3.23c.04-1.64-.94-3.88-.94-3.88-2.25.89-7.5-.7-10.77-.94s-5.57 1.3-5.57 1.3c-.89-2.24.14-5.28.14-5.28m8.73 5.08c1.5.03 2.52.42 2.52.42a7 7 0 0 0-2.7.7 6 6 0 0 1 1.12 1.8v.27l-.02.1c-.05.54-.3 3.02-.88 3.71a2 2 0 0 1-.3.4c-.65.6-1.8 1.2-3.97 2.7-2.39 1.65-4.28 5.04-4.28 5.04s.68-3.2 2.16-5.03a19 19 0 0 1 5.7-4.55l.65-2.96a5 5 0 0 0-1.76-.8c-1.28-.22-3.44-.2-4.76-.62l.02-.03c1.58-.2 2.5-.66 4.86-1.04a9 9 0 0 1 1.64-.11m9.86 20.23s-8.72 3.76-11.22 10.68c0 0 5.23.14 8.16.49s4.84.36 5.5.4c.65.03 2 .11 1.57-2.28-.42-2.4-1.08-2.82-2.23-3.28s-3.12-.35-3.12-.35 1.5-3.66 1.34-5.66m-39.16.08q-.3.29-.58.59s1.75 2.43 2.82 7c.82 3.48-1.36 9.14-1.36 9.14s1.13 2.84 1.63 6.3l.2-.13s6.07-3.22 9.33-4.58q.78-.32 1.89-.69c.07-1.36.2-3.23.47-4.97l-1.69.03c-3.35 0-5.44-1.95-7-4.23s-2.62-6.86-2.62-6.86-1.94-.04-3.09-1.6m26.83 12.36h-.06c-.4.63-.72 1.3-1.07 2.25a72 72 0 0 1 3.2-.56c5.5-.83 10.02-.98 10.75-1.07s2.04-.05 2.52-.44c0 0-1.52.12-3.17.07s-8.14-.25-12.17-.25"/><path fill="#ffc62f" d="M67.53 29.76s-.16 1.92-1.32 4.38q-.6 1.33-1.65 2.76a168 168 0 0 0-4.88 6.95l-.41.54 2.1-.26q1.48-.19 3.02-.36a29.3 29.3 0 0 1 15.04 2.2 15.3 15.3 0 0 1 8.92 11.59h-.01l.07.4.03.16q.04.26.06.53c1.15-.13 7.18-.81 12.21-.78 4.49.03 8.47.5 10.38.81a44 44 0 0 0-9.6-13.88c-10.4-9.84-23.24-14.54-33.96-15.04m-15.78 32.6-.12.64a48 48 0 0 0-.32 2.35 87 87 0 0 1 6.57-1.46l.15-.03-.1-.03-1.17-.3-2.38-.56q-1.32-.3-2.63-.62m68.28 6.19s-1 .46-3.24.96c-2.23.5-6.74-.2-8.1-.35s-5.39-.46-6.55.31c-1.15.77-.88 3.09-.88 3.09s.92-.97 3.2-1.54 5.28-.16 5.28-.16c-1.73.35-2.7.93-2.7.93 3.24.42 3.82 1.46 8.14 1.15 4.31-.3 4.86-4.4 4.86-4.4zm-26.75 1.69c-1.18.1-2.3.25-3.44.36l-.02.12c-1.14 3.8-3.35 6.55-6.85 8.15-4.57 4.66-11.39 7.9-15.2 10.34-6.7 4.3-7.8 12.8-7.8 12.8.73-13.04 8.72-14.72 17.45-21.12.18-.13.62-.38.8-.52l-.28.11c-1.09 0-3.32-.2-4.34-.44a32 32 0 0 1-2.75 1.7c-4.56 2.5-7.73 6.56-7.73 6.56 1.23-4.13 4.12-5.86 8.45-8.91a16 16 0 0 1-4.68-3.03c-2.55 1.31-8.2 4.74-11.95 8.29-3 2.84-8.57 6.86-15.16 9.97 5.18-3.42 13.9-11.12 16.97-14.03 0 0-11.48 6.62-14.76 8.85 0 0 4.27-4.71 9.55-7.62 0 0-11.68 4.79-18.4 9.37-3.48 2.38-8.8 7.22-11.88 10.5 1.26-.27 6.06-1.23 7.34-1.37 8.64-.88 18.08-.21 26.35-10.17l.4-.47c-.73 2.46-1.03 5.91-.9 9.76.3 8.32 6.76 11.6 9.26 13.35-.06-1.03-.21-2.05.7-5.64a17.6 17.6 0 0 1 4.38-7.68s-4.24 5.65-3.01 14.53c0 0 1.17-7.27 6.65-14.42 5.49-7.14 10.76-10.48 15.12-15.82a25 25 0 0 0 5.73-13.52m-28.31 3.62c-1.19.24-17.13 2.33-36.41 15.29-6.4 4.3-14.23 11.92-18.1 16.17a88 88 0 0 1 8.06-3.1c2.88-2.96 7.62-7.76 11.96-10.8 10.06-7.05 27.27-14.34 35.34-16.54l-.5-.72zm51.35 11.99a16 16 0 0 0-6.58 1.48c-5.17 2.35-10.09 7.04-12.21 11.9-2.12 4.85-2.29 10-2.52 13.77-.23 3.78.4 9.43-1.08 14.51 0 0 2.43-3.6 3.32-13.77.8-9.23 3.08-15.58 7.32-18.55 0 0-3.39 4.7-4.55 12.41s-.92 10.72-2.35 17.12l-.35 1.2s3.4-4.54 5.23-16.38c1.61-10.36 4.64-15 8.8-17.43 0 0-5.56 6.05-6.84 14.73 0 0 3.16-7.82 8.13-11.1s9.28-4.36 9.28-4.36-.17-2.7-2.9-5.25c0 0-1.02-.29-2.7-.28m-63.06 8.15s-3.86 4.62-8.13 5.68l-.16.02s2.45 1.28 4.48 1.28 3.7-.65 3.7-.65-.35-4.77.1-6.33m23.64 2.67s-4.97 5.44-6.92 9.87c-1.74 3.95-2.35 7.14-2.44 8.83a77 77 0 0 1 5.97 3.96q.5-1.22 1.09-2.37c2.22-4.38 4.4-5.94 5.26-10.5a11.2 11.2 0 0 0-2.96-9.8M60 112.52s-.02 4.41 2.14 7.78c1.6 2.51 6 4.8 8.86 6.52.25-.94.91-3.33 1.88-5.91a72 72 0 0 0-6.56-4.52c-2.51-1.39-5.25-2.92-6.32-3.87m18.76 1.38c-.37.6-.96 1.5-1.3 1.97-1.09 1.47-3.77 7.3-4.91 11.88q.52.33.9.6a14 14 0 0 1 2.44 2.06c.54-.98 1.62-1.97 2.05-2.75 1.57-2.86 2.78-6.23 2.39-9.3-.27-2.11-1.22-3.8-1.57-4.46m-11.5 12.95c0 .94.1 3.3 1.44 5.23 1.7 2.45 4.14 3.71 4.14 3.71l2.3-4.06a25 25 0 0 0-3.05-2.2c-1.15-.71-3.11-1.69-4.83-2.68m10.56 3.38s-2 2.69-3.39 5.2a39 39 0 0 0-2.28 5.28l.26.16c.92.62 2.09 2.26 2.09 2.26s2.5-2.79 3.52-5.95-.2-6.95-.2-6.95m-7.91 5c-.44.57-1.2 1.23-.7 2.95.32 1.05 1.1 1.6 1.88 2a89 89 0 0 1 1.14-3.34c-1.18-.6-2.32-1.6-2.32-1.6m-.64 4.95s-.75 1.01-.47 2.2c.27 1.2 1.39 1.72 2.57 2.32s1.62 1.8 1.62 1.8c.84-.59 1.26-1.49.8-2.47a5.3 5.3 0 0 0-2.61-2.41 6 6 0 0 1-1.91-1.44m-.44 3.95c-1.21 2.1-.62 2.59 1.05 3.83 1.15.85.94 1.96.94 1.96s1.57-.8 1.47-1.81c-.07-.67-1.04-2.05-1.95-2.67-.92-.62-1.5-1.3-1.5-1.3m-.3 3.97c-.7.85-1 2.57-.57 3.08s1.04.45 1.42.02c.38-.42.49-1.1-.04-1.8-.42-.58-.81-1.3-.81-1.3"/><path fill="#4f2683" stroke="#000" stroke-width=".2" d="M111.96 60.4a70 70 0 0 0-11.25-.96c-4.97-.03-10.96.6-12.14.72v.02c0 7.4-6.36 12.67-12.29 12.75-8.94.14-12.24-7.07-12.3-7.5l-2.03-.56a72 72 0 0 0-3.8.56 94 94 0 0 0-7.07 1.59l-.27 3c-.3 6.22.1 5.79.1 5.79 1.8-.7 8.46-2.41 8.46-2.41q2.91-.69 6.97-1.45a11.6 11.6 0 0 0 10.44 6.48c5.71 0 10.46-4.11 11.45-9.54 12.49-1.35 18.4-1.39 26.1-.36-.8-4.3-2.37-8.13-2.37-8.13"/></svg>