<svg xmlns="http://www.w3.org/2000/svg" viewBox="0 0 193.09 94.08"><path fill="#fff" d="M189.61 12.2c-24.04 5.68-25.1-8.25-61.26-10.8C79.68-2.04 38.77 19.17 6.08 21.89c-7.1.59-6.18 6.5-1.08 7.5 12.33 2.88 25.04 2.51 36.67.95-.39.94-.78 2.38.52 3.49 4.61 3.92 23.14 4.25 31.27 3.78 2.76-.15 8.66-.71 8.66-.71-1.68.16-4.31 5.28 1.24 6.73 34.33 9.6 50.48 25.12 69.02 49.57 7.54-.96 14.63-10.03 11.6-16.95l1.51-3.71 5.55-2.58-1.59-12.4 8.46-3.97s13.18-35.42 13.95-38-.83-3.73-2.25-3.4"/><path fill="#024" d="M98.34 30.84c9.64-1.04 18.15-.71 27.43 4.95-19.35-2.1-28.82 3.3-40.88 4.5 42.6 11.18 58.2 35.07 68.76 48.3 7.38-3.14 7.78-9.55 5.9-11.84l1.9-4.07.09-2.62 5.09-2.38L165.02 55l9.53-3.9 12.63-34.57c-21.4 4.43-28.33-9.4-58.77-11.29a175 175 0 0 0-34.05 1.18L96.07 17c7-.24 13.6.65 19.86 3.5a77 77 0 0 0-19.11 1.26z"/><path fill="#c60c30" d="M92.4 6.69c-29.96 4.24-54.53 14.9-86.76 19.25 36.36 6 64.92-7.45 88.72-8.86zm2.9 15.38c-15.64 3.12-29.85 9.48-48.85 10 22.04 4.15 37.31.47 50.48-1.09z"/><path fill="#b0b7bc" d="M131.19 60c11.5 8.06 17.42 17 23.42 24.82 3.05-1.27 4.01-4.81 3-6.07l-2.9-3.57 3.3.2 1.52-2.64-4.1-.25-4.63.84 4.69-3.22 3.57.21.14-2.03-3.65-1.75 1.25-1.37 6.75.42-1.94-15.04c-2.67-.33-4.91 1.07-5.88 4.93l-11.97-.7c1.68-3.82 4.3-5.54 9.29-4.9-2.8-3.91-16.4-4.28-18.33 1.86l10.57 8.66 1.36 7.92-4.34-6.3c-3.9-3.38-8-5.75-11.12-2.02"/><path fill="#fff" d="m166.61 21.23.85 7.55 8.5 3.19-7.97 2 .78 10.18-6.9-8.6-10.3 2.43 6.37-7.43-5.26-6.96 8.8 3.02z"/></svg>