<svg xmlns="http://www.w3.org/2000/svg" xml:space="preserve" id="Layer_1" x="0" y="0" version="1.1" viewBox="0 0 1423.9 646.8"><style>.st0{fill:#fff}</style><path d="M0 3.8h1423.9v642.9H0z" class="st0"/><path d="M15 18.8h911v479.6H15zm921.9 0h472v479.7h-472zM15 514.9h1393.9v116.8H15z" style="fill:#15327d"/><path d="M908.4 18.8h-75.7L928 498.5h8.9zm-246.6.2 247.8 479.5h10.5L753.3 19zM74 18.8 45.4 498.5h9l92.8-479.7zm155.1.2L62.3 498.5h10.5L320.6 19z" class="st0"/><path d="M319.7 311.4h-82.2l.2 96H154V110.5h178.8l3.5 51 .4 6.3.4 6.4 1.2 17.5H238.2v38.8h81.5zM743.6 407l-18.7-33.9-9.4-17.1-13.2-23.8-7.3 13.3-2.5 4.8-2.7 4.8-28.3 52.1-92-.2 50.4-87.8 2.7-4.7 2.7-4.7 19.9-35 2.7-4.7 2.8-4.8 6.5-11.3-35.9-61.9-9.9-17.1v-.1l-9.9-17.1-27.1-46.8h94.7l29.6 55.1 4.8 8.9.7-1.4 34.3-62.6 91.5.1-75.2 131.4-2.9 5.2-3 5.2-.1.1 61.3 105.6 20 34.4 3.9 6.9 4.2 7.1z" class="st0"/><path d="M474.6 115c-78.1 0-141.5 64.6-141.5 144.3s63.3 144.3 141.5 144.3c78.1 0 141.5-64.6 141.5-144.3S552.7 115 474.6 115M500 318.3c0 13.5-11 24.5-24.5 24.5s-24.5-11-24.5-24.5V198.9c0-13.5 11-24.5 24.5-24.5s24.5 11 24.5 24.5zM134.3 537.2h21.3l7.6 40.5 11.2-40.5h21.1l11.2 40.4 7.7-40.4h21.1l-16 72.3h-21.9L185 564l-12.7 45.5h-21.9zm120.1 0h41.8c7 0 12.3 1.7 16.1 5.2s5.6 7.7 5.6 12.8c0 4.3-1.3 7.9-4 11-1.8 2-4.4 3.7-7.8 4.8 5.2 1.2 9 3.4 11.5 6.4 2.4 3 3.7 6.9 3.7 11.5 0 3.7-.9 7.1-2.6 10.1s-4.1 5.4-7.2 7.1c-1.9 1.1-4.7 1.9-8.5 2.4-5 .7-8.4 1-10 1h-38.6zm22.6 28.4h9.7c3.5 0 5.9-.6 7.3-1.8s2-2.9 2-5.2c0-2.1-.7-3.7-2-4.9s-3.7-1.8-7.1-1.8H277zm0 28.4h11.4c3.8 0 6.6-.7 8.1-2 1.6-1.4 2.4-3.2 2.4-5.5 0-2.1-.8-3.9-2.3-5.2s-4.3-1.9-8.2-1.9H277zm67.7-56.8h55.2v15.5h-32.8v12.7h28V580h-28v29.5h-22.4zm79 0h55.2v15.5h-32.8v12.7h28V580h-28v29.5h-22.4zm124.2 0h41.8c7 0 12.3 1.7 16.1 5.2s5.6 7.7 5.6 12.8c0 4.3-1.3 7.9-4 11-1.8 2-4.4 3.7-7.8 4.8 5.2 1.2 9 3.4 11.5 6.4 2.4 3 3.7 6.9 3.7 11.5 0 3.7-.9 7.1-2.6 10.1s-4.1 5.4-7.2 7.1c-1.9 1.1-4.7 1.9-8.5 2.4-5 .7-8.4 1-10 1h-38.6zm22.5 28.4h9.7c3.5 0 5.9-.6 7.3-1.8s2-2.9 2-5.2c0-2.1-.7-3.7-2-4.9s-3.7-1.8-7.1-1.8h-9.9zm0 28.4h11.4c3.8 0 6.6-.7 8.1-2 1.6-1.4 2.4-3.2 2.4-5.5 0-2.1-.8-3.9-2.3-5.2s-4.3-1.9-8.2-1.9h-11.3V594zm110.3 3.6h-25.4l-3.5 11.9H629l27.2-72.3h24.4l27.2 72.3h-23.4zm-4.6-15.7-8-26-7.9 26zm50.4-44.7h22.3v54.5h34.9v17.8h-57.2zm68.7 0h67.9v17.9h-22.7v54.4H818v-54.4h-22.8zm90.6 0h22.4v72.3h-22.4zm49.7 0h29.4l11.3 44 11.3-44h29.4v72.3h-18.3v-55.1l-14.1 55.1h-16.6l-14.1-55.1v55.1h-18.3zm104.4 36.2q0-17.7 9.9-27.6c6.6-6.6 15.7-9.9 27.5-9.9 12 0 21.3 3.2 27.8 9.7s9.8 15.5 9.8 27.1c0 8.4-1.4 15.4-4.3 20.8-2.8 5.4-7 9.6-12.3 12.6q-8.1 4.5-20.1 4.5c-8.2 0-14.9-1.3-20.2-3.9s-9.7-6.7-13-12.3q-5.1-8.25-5.1-21m22.4.1c0 7.3 1.4 12.5 4.1 15.7q4.05 4.8 11.1 4.8c4.8 0 8.5-1.6 11.1-4.7q3.9-4.65 3.9-16.8c0-6.8-1.4-11.8-4.1-14.9s-6.5-4.7-11.2-4.7q-6.75 0-10.8 4.8c-2.8 3.2-4.1 8.4-4.1 15.8m76.5 36v-72.3h37.2c6.9 0 12.2.6 15.8 1.8s6.6 3.4 8.8 6.6 3.4 7.1 3.4 11.7c0 4-.9 7.5-2.6 10.4s-4.1 5.3-7.1 7.1c-1.9 1.2-4.5 2.1-7.8 2.9 2.7.9 4.6 1.8 5.8 2.7.8.6 2 1.9 3.6 3.8s2.6 3.4 3.1 4.5l10.8 20.9h-25.2l-11.9-22.1c-1.5-2.9-2.9-4.7-4-5.6-1.6-1.1-3.4-1.7-5.5-1.7h-2v29.3zm22.4-43h9.4c1 0 3-.3 5.9-1 1.5-.3 2.7-1.1 3.6-2.3s1.4-2.6 1.4-4.2c0-2.3-.7-4.1-2.2-5.4-1.5-1.2-4.3-1.9-8.3-1.9h-9.8zm67.4-29.3h59.9v15.4H1251v11.5h34.8v14.8H1251v14.2h38.6v16.4h-61zM1062 278.9l116.4-212.4h-78.9l-121.3 222c-12.3 26.4 4 56.6 36 56.6h116.4l-4.1 17.9h69.6l14.7-84H1062z" class="st0"/><path d="m1170.3 107.6-26.2 147h67.4c35.4 0 64.1 28.7 64.1 64.1s-28.7 64.1-64.1 64.1h-90.3l-12.1 67.5h106.5c63.1 0 123-52.1 129.2-121.3 5.6-62.4-14-124.8-122.9-124.8l4.7-28.8h86c30.7 0 56.9-22.1 62.1-52.3l2.7-15.5z" class="st0"/></svg>