<svg xmlns="http://www.w3.org/2000/svg" xml:space="preserve" viewBox="0 0 388 343"><path fill="#fff" d="M170.3 0C76.23 0 0 76.89 0 171.73s76.24 171.73 170.3 171.73 170.28-76.89 170.28-171.73S264.34 0 170.3 0"/><path fill="#1258f3" d="M170.3 9.7C81.5 9.7 9.51 82.3 9.51 171.83S81.5 333.96 170.29 333.96s160.78-72.59 160.78-162.13S259.08 9.7 170.29 9.7"/><path fill="#fff" fill-rule="evenodd" d="M187.93 123.34c-57.44 0-80 36.93-80 36.93-5.4-49.24 12.3-117.96 60.51-117.96 23.6 0 33.85 17.44 33.3 33.92-.3 8.89-1.38 17.22-1.38 17.22L270 124.37c1.83-8.2-5.13-100.52-100.52-100.52-72.85 0-132.97 70.02-136.42 148.73-4.04 92.3 57.44 151.93 138.47 151.8s120-63.6 120-107.7-46.15-93.34-103.59-93.34M166.4 303.86c-31.41 0-52.23-33.64-52.23-77.23s18.5-79.74 52.23-79.7 55.1 35.87 55.1 79.46c0 43.6-23.68 77.47-55.1 77.47" clip-rule="evenodd"/><path fill="#07111e" d="M286.98 132.25c-55.89 0-101.19 45.3-101.19 101.18s45.3 101.18 101.19 101.18 101.18-45.3 101.18-101.18-45.3-101.18-101.18-101.18"/><path fill="#f0f0f0" fill-rule="evenodd" d="M287.02 205.64a22.5 22.5 0 0 0-12.35 3.79v-17.46h-15.73v41.05c0 13.57 9.63 25.4 22.99 27.71 17.75 3.08 33.16-10.34 33.16-27.33 0-15.33-12.57-27.76-28.07-27.76m-.17 40.04a12.21 12.21 0 1 1 0-24.42 12.21 12.21 0 0 1 0 24.42m-60.66-40.13a27.9 27.9 0 0 0-26.43 26.42 27.8 27.8 0 0 0 27.83 29.08 18.6 18.6 0 0 0 12.56-5.13v4.66h15.3v-27.3a27.8 27.8 0 0 0-29.25-27.73m1.24 40.12a12.21 12.21 0 1 1 0-24.42 12.21 12.21 0 0 1 0 24.42m118.16-.17a12.26 12.26 0 1 1 12.47-15.95h15.91a27.9 27.9 0 0 0-27.6-24.16 27.88 27.88 0 0 0 0 55.75 27.9 27.9 0 0 0 27.6-24.16h-15.9a12.3 12.3 0 0 1-12.48 8.52" clip-rule="evenodd"/></svg>