<svg xmlns="http://www.w3.org/2000/svg" xml:space="preserve" viewBox="0 0 1000 695.73"><path fill="#003380" fill-rule="evenodd" d="M265.49 314.16H158.06l107.43-146.2zm-265.45.59V441.5h265.6v93.22h145.69v-95.16h54.49l14.28-123.55h-69.24V-.05H244.37z"/><path fill="#003380" fill-rule="evenodd" d="M868.87 691.29v-112.7l68 64.74v-60.65h22.03v112.28l-67.85-65.98v62.3zM741.7 637.64q0-23.84 16.14-40.89 16.22-17.05 39.72-17.05 23.7 0 40.47 16.5 16.77 16.42 16.77 39.99 0 23.98-16.21 41.03-16.15 17.05-39.58 17.05-23.84 0-40.61-16.43-16.7-16.5-16.7-40.2m21.83.28q0 14.49 10.46 24.33 10.54 9.77 25.3 9.77 14.2 0 23.7-10.74t9.5-25.65q0-14.2-10.47-24.05-10.4-9.84-25.02-9.84-14.2 0-23.84 10.81-9.63 10.75-9.63 25.37m-93.7-35.9v-19.34h64.87v19.34h-22.04v89.13H690.7v-89.13zm-100.89 36.04q0-24.12 15.6-40.75 16.14-17.33 40.75-17.33 8.66 0 15.8 2.15 9.35 2.84 14.28 8.66v22.6q-7.84-6.8-14.14-9.43t-15.8-2.63q-15.32 0-25.23 10.12-9.84 10.11-9.84 26.6 0 11.51 8.24 21.56 10.54 12.9 28.56 12.96 7.97 0 11.3-1.17 3.32-1.25 3.46-2.7v-22.95h-18.44v-17.74h40.83v52.74q-8.53 6.52-17.54 10.05-9 3.47-19.75 3.47-23.29 0-40.34-15.74-17.74-16.5-17.74-40.47m-104.19 53.23v-112.7l68 64.74v-60.65h22.03v112.28l-67.85-65.98v62.3zm-36.23-.15V582.68h22.18v108.46zm-100.6 0V582.68h22.04v44.01h42.56v-44.01h22.17v108.46h-22.17V645.9h-42.56v45.25zm-75.83-79.63q0-13.65 10.05-22.73 10.12-9.08 24.19-9.08 5.4 0 11.16 1.66 5.75 1.6 11.09 4.92v21.14q-6.38-4.09-9.78-5.68-6.23-2.98-11.09-2.98-6.37 0-10.53 3.95-4.09 3.95-4.09 8.8 0 5.96 11.1 11.78 17.46 9.22 20.85 12.06 11.23 9.5 11.23 24.4 0 11.78-7.55 21.62-10.05 13.17-29.04 13.17h-4.02q-8.94-.97-20.73-7.07v-23.56q5.69 6.1 13.24 9.21 5.82 2.43 10.05 2.43 6.8 0 11.37-4.64 4.57-4.72 4.57-11.44 0-6.51-10.81-12.34-17.19-9.21-20.3-11.78-10.96-9.22-10.96-23.84m-111.37 79.63 52.95-113.1 53.7 113.1h-23.55l-8.67-19.89h-42.07l-8.31 19.9zm40.89-37.77h25.57l-13.51-29.66ZM7.72 582h25.36l27.11 60.82 28.92-65.83 28.8 65.83 26.8-60.82h25.26l-52.06 113.6-28.8-64.33-28.92 64.47Z" font-family="NBC Futura" font-size="8" letter-spacing="0" paint-order="markers stroke fill" style="line-height:.9;-inkscape-font-specification:&quot;NBC Futura&quot;;text-align:end" text-anchor="end" word-spacing="0"/><path fill="#fff" d="M807.43 235.32a62 62 0 0 0-55 34.01 62 62 0 0 0-54.58-34.01 67 67 0 0 0-15.42 1.66c-36.77 8.22-53.44 45-45.8 75.38a63 63 0 0 0-31.07-9.2c-15.48-.33-30.94 4.92-42.8 15.64l-.02.02c-11.18 10.14-19.2 25.94-19.98 44.43-.75 17.23 5.26 32.64 19.4 46.12-25.55 1.88-47.63 20.95-54.2 42.98v.02c-6.3 21.17-2.41 42.35 9.5 57.59s31.31 24.25 53.24 24.25h363.56c21.96 0 41.37-9 53.27-24.25 11.9-15.27 15.77-36.43 9.47-57.6-6.56-22.06-28.86-41.17-54.15-43.03 15.43-14.76 20.02-30.7 19.35-46.08-.8-18.5-8.8-34.29-19.99-44.43l-.01-.02c-11.87-10.7-27.32-15.97-42.8-15.64a63 63 0 0 0-31.07 9.2c7.63-30.39-9.04-67.16-45.8-75.38a67 67 0 0 0-15.1-1.66"/><path fill="#6e55dc" d="m852.48 315.79-67.6 154.39L765.6 336c-2.47-18.21 28.55-29.48 28.55-29.48-2.86-6.33-12.65-6.18-12.65-6.18h-21c-3.3-33.02 26.62-57 58.95-49.68 31.79 7.1 43.37 41.67 33.03 65.12"/><path fill="#fccc12" d="m726.95 520.17-131.79-87.8c-33.56-22.37-66.73.47-73.75 24-10.34 34.8 12.88 63.8 49.3 63.8z"/><path fill="#ef1541" d="M744.22 302.52c4.85-34.1-25.7-59.33-58.71-51.85-31.8 7.1-43.37 41.67-33.03 65.13l67.59 154.38 24.15-167.74z"/><path fill="#ff7112" d="m714.67 495.56-64.89-147.9c-15.2-34.26-55.4-38.5-77.61-18.45-15.67 14.2-27.78 52.78 7.17 76.16z"/><path fill="#05ac3f" d="M934.26 520.17c36.5 0 59.64-29 49.3-63.8-7.02-23.6-40.2-46.45-73.75-24l-131.79 87.8z"/><path fill="#069de0" d="M925.63 405.37c34.94-23.38 22.83-61.96 7.17-76.16-22.23-20.05-62.42-15.81-77.62 18.44l-64.9 147.91z"/></svg>