<svg xmlns="http://www.w3.org/2000/svg" xml:space="preserve" viewBox="0 0 179.31 161.49"><path d="M178.19 129.94c.42-21.83-16.73-37.33-16.73-37.33-1.85-13.8-6.87-33.76-33.59-48.5C87.3 21.75 64.85 40 .9.83 2.2 8.16 6.43 18.3 11.8 24.6l-6.61-2.17c4.8 10.13 12.5 19.33 16.54 22.31L14.3 42.4c7.86 19.27 23.2 30.69 23.2 30.69 3.5 29.5 25.14 34.52 26.89 52.67 28.19 4.37 57.99 34.56 57.99 34.56 15.6-26.82 37.36-32.02 55.8-30.38"/><path fill="#97233f" d="M124.49 47.8c-29.4-16.1-65.32-5.64-111.23-34.08 4.55 13.59 32.96 29.5 32.96 29.5l-25.14-8.17c6.4 11.11 32.61 25.04 32.61 25.04L30.25 52.5c9.7 16.13 31.74 27.01 31.74 27.01l-13.54-.98c1.75 15.17 22.7 28.23 23.82 39.93 9.48 3.63 21.69 9.94 31.21 18.13 18.2-8.95 13.18-39.22-21.52-82.16 47.73 2.88 46.41 38.27 73.8 33.18-2-9.5-3.3-24.47-31.27-39.82"/><path fill="#fff" d="M142.09 91.97c-6.14 9.87-16.5 7.12-20.2-5.19l7.48.46c-6.55-3.92-12.5-9.7-17.1-15.38-1.36 27.19 24.22 39.39 32.68 20.3a25 25 0 0 1-2.86-.2"/><path fill="#ffb612" d="M155.9 95.4c-3.38 6.94-11.66 11.4-18.93 13.42 17.07 2.05 31.1 8.84 37.79 15.49-1.54-11.23-11.62-24.33-18.85-28.9m-17.17 19.73q-1.42.04-2.82.17s5.11 8.7 2.3 18.27c11.1-6.23 25.4-9.24 35.85-7.14-6.26-5.3-21.17-11.73-35.33-11.3"/></svg>