<svg xmlns="http://www.w3.org/2000/svg" viewBox="0 0 250 237.36"><path fill="#a5acaf" d="M233.91 51.35C200.51 30.27 124 14.14 66.93.87L1.3 71.41l56.32-1.21C29.6 115.5 35.3 222.06 106.23 236.22c-3.66-7-10-19.85-1.78-35.77 5.85-11.32 38.4-73.57 38.4-73.57h7.78c10.55 0 14.02 3.97 9.35 9.56 28.11-.36 45.38-10.99 53.12-22.35-5.9-10.8-24.66-23.5-32.26-28.64h39.34c11.28 0 13.82 4.72 11.17 9.87 18.4-3.62 27.82-28.03 2.56-43.97"/><path fill="#fff" d="M229.42 53.5C183.92 27.98 71.27 10.98 71.27 10.98L23 62.67h50.03C36.1 111.48 44.28 210.02 98.61 230.5c-3.85-9.16-5.8-19.8 1.14-33.33 7.84-15.26 20.31-40.9 38.18-75.14h14.59c12.1 0 15.97 5.11 14.32 9.06 9.96 0 28.16-.98 41.36-17-11-15.37-47.37-33.29-47.37-33.29h62.4c9.16 0 13.74 3.26 12.48 8.79 15.93-7.78 11.79-25.94-6.3-36.09"/><path d="m68.08 18.18 4.4 5.6-28.1 30.24 98.8 7.56-.55 1.09H76.29l5.13 4.84a112 112 0 0 0-10.76 18.97l55.49-11.34-.9 1.34-66.1 22.03 5.8 3.3a141 141 0 0 0-5.34 27.87l56.16-34.1-.47 1.55-61.95 48.88 5.71 1.43c.32 10.6 1.81 20.93 4.4 30.52l50.42-59.44q.12.71.28 1.42L64.2 193.22l4.7.32c5.78 13.03 14 23.71 24.48 30.35-4.04-9-2.75-19.78 1.94-29.4 4.07-8.32 57.01-113.75 57.01-113.75l-8.84-4.73h82.27c8.42 0 13.09 3.53 13 8.29 5.2-4.4 6.37-17.71-11.24-27.37C189.27 35.94 68.08 18.18 68.08 18.18m142.7 37.1c4.21 1.4 13.67 6.68 17.26 10.81h-6.8c-2.68-4.4-10.45-10.81-10.45-10.81m21.09 9.23c7.37 3.77 8.28 11.3 7.3 14.1-.67-2.05-3.85-5.62-11.37-5.62h-18.96l.54-1.08c3.6-.29 16.34-1.37 23.54-2.73zm-76.3 17.97 1.14 3.41a6447 6447 0 0 0-15.81 31.33h25.24c.34 4.47 4.78 8.26 9.4 9.27-2.74-3.65-1.66-7.27.38-9.27h11.92c3.32 0 2.3 3.97-3.1 8.1 8.44-1.92 14.74-5.75 18.86-11.23-7.82-11.94-48.04-31.6-48.04-31.6"/><path fill="#a71930" d="m78.14 33.67-8.02 8.7L201.25 60.5l.7-1.4c-26.81-7.82-79.64-18.61-123.8-25.44zm44.09 35.42-35.61.81a91 91 0 0 0-4.98 7.61l39.54-7.06q.51-.68 1.05-1.36m-12.59 20.87-38.9 13.97a124 124 0 0 0-2.2 9.74l40.42-22.07zm43.18 17.48-2.9 5.63h30.87l.67-1.35zm-48.54 8.43-37.6 31.96q.38 5.32 1.18 10.48l36.48-40.7zm6.65 25.31L78.1 190.67a71 71 0 0 0 5.7 9.11l27.88-57.18z"/></svg>