<svg xmlns="http://www.w3.org/2000/svg" xml:space="preserve" viewBox="0 0 189.33 126.39"><path fill="#fff" d="M19.97 89.71c13.16-8.4 17.3-17.87 17.3-17.87L0 77.19l15.84-28.13 31.82-2.68S60.04 35.33 79.22 27.4c0 0 2-3.48 12.94-9.78 0 0 10.04-5.92 21.48-9.7 0 0 7.75-2.66 10.04-2.8L123 2.66l14.6-1.26.4-1.4s7.62.52 12 2.45l.86-1.14s10.21 4.7 17.8 16.22c0 0 7.38-.4 13.98 2.75 0 0 6.99 2.78 6.67 10.9 0 0-.05 10.35-3.14 20.61 0 0-.48 1.6-.92 2.57 0 0-.64 1.3-1.88 2.95 0 0-3.46 3.57-4.8 6.7 0 0-.73 2.1-2.18 5.89 0 0-1.11 5.21-8.69 5.5 0 0-7.38 9.34-10.45 12.02l-.26-2.27s-5.15 4.77-9.61 7.58l1.5-13.21s.37-2.36-1.12-2.53l-3.86-.1s1.26 7.96-.26 11.64c0 0-.97 5.77-9.93 8.52 0 0-6.92 2.2-14.84 2.82l-1.7-.27-12.46 5.11 3.64-13.07s-4.67.47-5.07-.11L89.4 97.48l5.45-15.64 3.74-2.07-1.2-1.62-7.66.07-2.83 2.2c-6.52-1.7-12.85-1.24-12.85-1.24l-32.26 26.18-8.08 17.86-9.65-12.9 3.02-3.95-1.15-.87-4.37 3.45-6.48 17.44-9.54-13.46L8 107.46l-.55-3.36c2.84-1.87 4.68-3.13 6.12-4.74.78-1.01 1.21-1.36 2.12-3.06.86-2.07.89-4.32 1.84-5.03 1.2-.81 2.12-1.36 2.44-1.56"/><path fill="#c60c3d" d="M17.65 51.88 5.32 73.6l159.13-23.72s-5.53-4.2 2.48-10.85z"/><g fill="#00338d"><path d="M179.18 36.01s-12.42 8.5-8.12 15.82c0 0-4.5 2.5.48 6.02 0 0-7.7 3.46-5.67-6.05L40.77 70.73S38.08 82.06 20.34 92.8c0 0-1.3.76-1.42 2.19 0 0 .12 1.77-1.5 3.92 0 0-2 3.5-6.63 6.46l.33 2.32-2.17 4.98 5.32 7.63 4.8-12.98 9.53-7.31s9.32-14.58 24.64-20.29c0 0 13.52-5.77 33.26-2.5l1.8-1.73 22.86-.5s.86.2.28.66c0 0-4.5 3.46-9.43 3.9l.46 1.41s.13.5-.24.61l-4.79 1.9-3.16 8.78 8.98-3.91.5.38s7.82.48 19.58-1.9c0 0 8.16-1.61 10.43-12.18l15.53-.68s3.24.7 2.83 3.7l-1.11 8.8 7.1-6.33.5 1.66s5.37-5.82 6.75-9.16c0 0 5.91.12 7.37-2.27 0 0 .67-.67 2.56-5.86 0 0 .88-3.66 4.53-7.25 0 0 2.82-2.64 4.4-9.6 0 0 1.89-10.06 1.87-11.98 0 0 2.04-9.95-4.78-12.89 0 0-5.08-2.8-14.57-2.02 0 0-1.9-6.6-14.98-15.66l-.95 1.41s-4.47-3.08-10.8-3l-.32.87s-3.85-.02-12.24.85l.78 2.32s-17.3.8-41.85 17.24l-.45 1.35-3.12 1.47 1.67.91s-18.76 6.77-32.4 17.94z"/><path d="m135.34 76.58 5.37-.06s1.08 7.09.44 10.25c0 0-1.06 4.7-5.85 6.54 0 0-7.07 2.99-17.67 3.67l-.5-.44-8.04 3.38 2.64-9.34s10.76-.83 14.02-1.8c0 0 8.34-1.64 9.6-12.2M69.2 79.37s-19.05-.23-32.1 15.14c0 0-.04 5.57-6.8 9.35l.25 1.76-3.21 4.43 5.7 7.64 6.42-14.23z"/></g></svg>