<svg xmlns="http://www.w3.org/2000/svg" xml:space="preserve" fill-rule="evenodd" clip-rule="evenodd" image-rendering="optimizeQuality" shape-rendering="geometricPrecision" text-rendering="geometricPrecision" version="1.0" viewBox="0 0 372.53 247.84"><path fill="#fff" d="M359.69 80.28C300.99-22.7 87.45-24.32 44.76 90.65c-6.25 16.8-25.24 34.41-38.09 39.52 11.61 5.42 25.84 14.8 37.6 36.05 70.04 126.64 306.05 96.6 324.2-26.18h-64.96c-59.86 105.48-208 44.11-208-9.87 0-77.05 124.68-100.28 187-49.89z"/><path fill="#c83803" d="M339.87 68.31C279.23-2.74 106.9-19.65 53.76 94.2q-6.86 18.8-25.4 33.7c11.61 5.35 19.94 15.63 26.36 28.8 69.22 126.28 282.6 77.9 300.77-9.28h-43.95C251.69 251.67 85 196.33 85 127.88 85 43.42 223.84 18.5 286.17 68.31z"/><path fill="#0b162a" fill-rule="nonzero" d="m48.17 89.84-5.43-2.04 4.61-10.58 5.58-9.9 6.48-9.22 7.32-8.5 8.1-7.84 8.78-7.14 9.44-6.45 10.02-5.79 10.54-5.1 11-4.43 11.38-3.78 11.74-3.1 12-2.48 12.25-1.8 12.4-1.17 12.5-.52 12.53.1 12.54.75 12.46 1.4 12.33 2 12.14 2.64 11.89 3.28 11.59 3.88 11.2 4.53 10.8 5.14 10.3 5.77 9.77 6.4 9.16 7 8.48 7.62 7.76 8.26 6.96 8.87 6.1 9.48-5.02 2.88-5.8-9-6.63-8.47-7.4-7.88-8.14-7.3-8.8-6.76-9.42-6.16-9.97-5.57-10.46-4.98-10.9-4.39-11.27-3.8-11.58-3.18-11.83-2.57-12.03-1.97-12.17-1.34-12.24-.74-12.26-.12-12.2.52-12.1 1.14-11.92 1.77-11.7 2.4-11.4 3.02-11.05 3.66-10.65 4.3-10.17 4.93-9.64 5.55-9.05 6.2-8.43 6.83-7.7 7.46-6.96 8.1-6.16 8.74-5.3 9.4zm-39.58 35.4-2.42 5.26.16-5.33 1.12-.46 1.15-.53 1.2-.6 1.23-.68 1.27-.73 1.28-.8 1.3-.84 1.33-.92 1.33-.95 1.35-1.02 1.34-1.07 1.35-1.1 1.34-1.15 1.32-1.19 1.32-1.23 1.3-1.26 1.3-1.3 1.25-1.33 1.25-1.36 1.2-1.38 1.17-1.4 1.14-1.42 1.1-1.44 1.04-1.45 1.02-1.47.95-1.47.9-1.47.84-1.48.78-1.47.72-1.48.66-1.46.57-1.46 5.42 2.04-.67 1.66-.73 1.67-.8 1.64-.87 1.65-.94 1.63-1 1.61-1.03 1.6-1.08 1.6-1.14 1.56-1.18 1.55-1.22 1.53-1.26 1.5-1.3 1.47-1.3 1.44-1.35 1.42-1.36 1.37-1.4 1.35-1.4 1.3-1.42 1.28-1.43 1.22-1.43 1.2-1.44 1.13-1.43 1.08-1.44 1.05-1.44.98-1.42.94-1.42.86-1.4.82-1.4.75-1.35.7-1.36.61-1.32.56zm-2.42 5.26L0 127.64l6.33-2.47zm41.32 31.6-5.07 2.83v-.02l-1.07-1.87-1.1-1.8-1.1-1.77-1.1-1.68-1.14-1.63-1.12-1.56-1.14-1.5-1.14-1.44-1.16-1.4-1.15-1.33-1.16-1.28-1.16-1.22-1.16-1.17-1.17-1.14-1.16-1.08-1.17-1.03-1.16-1-1.17-.93-1.17-.9-1.16-.88-1.15-.83-1.15-.79-1.15-.75-1.13-.72-1.14-.7-1.13-.65-1.1-.62-1.12-.6-1.1-.58-1.08-.54-1.08-.53-1.06-.5 2.42-5.25 1.13.54 1.15.55 1.16.58 1.18.6 1.18.65 1.2.68 1.22.71 1.2.74 1.24.77 1.23.82 1.25.86 1.26.9 1.25.93 1.25.98 1.26 1.03 1.26 1.06 1.26 1.12 1.26 1.17 1.26 1.2 1.25 1.27 1.25 1.33 1.25 1.37 1.24 1.43 1.23 1.48 1.23 1.55 1.2 1.6 1.22 1.67 1.19 1.72 1.18 1.8 1.17 1.84 1.14 1.93zm-5.07 2.83v-.02l20.3 36.27zm326.75-24.4v-5.8l2.87 3.32-2.4 11.44-3.64 10.88-4.81 10.3-5.9 9.7-6.9 9.06-7.85 8.45-8.7 7.81-9.48 7.17-10.2 6.51-10.83 5.86-11.4 5.18-11.9 4.5-12.34 3.8-12.7 3.12-12.97 2.4-13.2 1.68-13.36.95-13.43.2-13.45-.53-13.4-1.32-13.27-2.1-13.08-2.87-12.8-3.7-12.48-4.5-12.08-5.34-11.6-6.18-11.03-7.05-10.42-7.92-9.73-8.8-8.95-9.7-8.12-10.6-7.2-11.52 5.07-2.84 6.9 11.06 7.77 10.18 8.6 9.3 9.35 8.46 10.03 7.62 10.66 6.8 11.2 5.98 11.7 5.18 12.1 4.37 12.46 3.58 12.72 2.81 12.93 2.05 13.06 1.27 13.13.54 13.1-.2 13.05-.93 12.88-1.64 12.66-2.35 12.36-3.03 12-3.7 11.56-4.38 11.06-5.02 10.47-5.65 9.8-6.28 9.13-6.88 8.32-7.47 7.47-8.05 6.55-8.6 5.58-9.17 4.54-9.7 3.42-10.25 2.26-10.78zm0-5.8h3.37l-.5 3.32zm-67.47 1.46 2.52-1.46h64.95v5.8h-64.94zm0 0 .84-1.46h1.68zm-208.36-8.32h5.8l.38 4.54 1.15 4.61 1.89 4.65 2.6 4.67 3.3 4.64 3.95 4.56 4.56 4.46 5.13 4.3 5.65 4.11 6.14 3.9 6.58 3.62 6.96 3.34 7.32 3 7.62 2.65 7.87 2.28 8.1 1.83 8.25 1.4 8.4.9 8.46.4 8.5-.18 8.5-.73 8.45-1.34 8.36-1.96 8.22-2.63 8.05-3.33 7.83-4.05 7.58-4.79 7.3-5.59 6.96-6.4 6.59-7.28 6.19-8.16 5.72-9.1 5.03 2.88-6 9.5-6.48 8.57-6.95 7.65-7.35 6.76-7.7 5.9-8.01 5.1-8.3 4.27-8.5 3.5-8.64 2.77-8.8 2.08-8.86 1.4-8.88.76-8.88.16-8.83-.4-8.73-.94-8.6-1.44-8.4-1.92-8.2-2.34-7.91-2.76-7.61-3.14-7.28-3.48-6.87-3.79-6.44-4.09-5.97-4.34-5.45-4.57-4.9-4.77-4.28-4.96-3.64-5.1-2.93-5.26-2.18-5.38-1.35-5.45zm189.9-52.2v5.8l-1.8-.65-5.86-4.32-6.18-3.94-6.47-3.5-6.76-3.13-6.98-2.72-7.17-2.34-7.34-1.93-7.47-1.55-7.56-1.15-7.62-.76-7.64-.39h-7.65l-7.6.38-7.5.75-7.39 1.11-7.24 1.48-7.05 1.83-6.83 2.2-6.58 2.53-6.29 2.9-5.96 3.21-5.6 3.56-5.23 3.9-4.79 4.2-4.33 4.5-3.85 4.83-3.34 5.13-2.8 5.44-2.23 5.73-1.64 6.06-1 6.36-.35 6.7h-5.8l.38-7.29 1.1-6.97 1.8-6.65 2.46-6.32 3.07-5.96 3.66-5.6 4.2-5.26 4.7-4.9 5.14-4.52 5.56-4.14 5.96-3.78 6.3-3.42 6.63-3.03 6.9-2.67 7.15-2.3 7.37-1.92 7.53-1.54 7.7-1.16 7.8-.77 7.86-.38h7.91l7.94.4 7.91.8 7.86 1.2 7.77 1.6 7.65 2.01 7.5 2.43 7.3 2.85 7.05 3.28 6.82 3.7 6.52 4.14 6.2 4.6zm0 5.8h-1l-.8-.65zm79.65-4.35-2.5 4.34h-77.16v-5.8h77.16zm0 0 2.5 4.34h-5z"/></svg>