<svg xmlns="http://www.w3.org/2000/svg" viewBox="0 0 378.86 266.37"><path fill="#fff" d="M339.98 128.81c-2-1.01-1.75-2.82-.31-3.89 16.97-12.6 28.58-28.83 28.58-53.78C368.25 41.57 347.04.01 264.3.01H50.91L2.62 84.23h35.44a7.14 7.14 0 0 1 7.16 7.15v83.98a7.14 7.14 0 0 1-7.16 7.15H0l48.79 83.86 225.87-.03c72.75 0 104.2-37.94 104.2-78.74 0-26.95-19.22-48.92-38.68-58.78"/><path fill="#fb4f14" d="M213.95 115.08h-35.07V81.39a6.44 6.44 0 0 1 6.44-6.39h28.58q1.8 0 3.43.13c14.25 1.1 19.53 9.23 19.53 19.59 0 11.85-6.24 20.34-22.96 20.34zm0 77.62h-28.58a6.43 6.43 0 0 1-6.44-6.43v-33.69H214c16.85 0 22.96 8.22 22.96 19.72s-6.24 20.34-22.96 20.34zm100.08-61.4c-2.57-.61-2.15-3.76-.27-4.45 23.09-8.76 36.69-24.33 36.69-51.79.22-25.29-15.06-45.16-41.8-55.13-12.18-4.54-26.74-7.02-43.3-7.02H64.43L29.24 75.05h24.21a8.65 8.65 0 0 1 8.66 8.66v100.33a8.65 8.65 0 0 1-8.66 8.66H29.49l35.44 61.9h117.72l26.17-.02h65.75c59.9 0 84.48-39.82 84.48-69.02 0-25.71-18.97-47.92-45.3-54.28"/><path d="M350.45 75.06q0 1.25-.04 2.46c-51.32 41.15-84.26 97.93-96.96 159.42-10.36-73.62 12.65-153.87 55.2-217.01a81 81 0 0 1 6.01 2.49l1.19.56q1.12.54 2.22 1.11a70 70 0 0 1 7 4.12 63 63 0 0 1 4.4 3.2l.02.01c13.66 10.86 21.11 25.92 20.96 43.64M132.69 237.53C95.5 167.65 85.77 87.79 99.62 12.92H64.43L29.24 75.06h24.21a8.65 8.65 0 0 1 8.66 8.66v76.99c18.09 29.33 44.18 57.4 70.51 76.37zM236.91 12.92a534 534 0 0 0-19.58 62.21 47 47 0 0 0-3.43-.13h-28.58a6.44 6.44 0 0 0-6.44 6.39v33.69h30.18a482 482 0 0 0-4.68 37.5h-25.46v33.69a6.43 6.43 0 0 0 6.44 6.43h17.6a375 375 0 0 0 5.86 61.89h-26.17c-20.59-49.79-49.23-133.11-21.03-241.67z"/></svg>