<svg xmlns="http://www.w3.org/2000/svg" viewBox="0 0 387.57 294.38"><path fill="#fff" d="m387.23 290.66-.17.1c.18-.1.33-.25.5-.36zm-181.3-30.31c-.22.57-.42 1.17-.66 1.72q.35-.85.66-1.72m-47.84 31.28c17.68-1.3 33.77-8.07 43.22-22.11h-.03q.66-.96 1.23-1.94l.7-1.1q.37-.7.72-1.43.43-.83.84-1.7.25-.6.46-1.17c-8.38 19-26.75 27.86-47.14 29.46zm201.56-17.24c-.75-.16-1.5-.44-2.23-.63l-.01 1zM57.46 267.9l-.39.13a87 87 0 0 1 9.07-.97 24.4 24.4 0 0 1 13.24 3.62 50 50 0 0 0 1.82-1.11l2 1.68c-.48.32-1.07.66-1.62.98q.83.66 1.65 1.4l-.16.13c.38-.26 1.59-1.12 3.27-2.46-6.5-4.63-15.73-8.02-28.88-3.39z"/><path fill="#ff3c00" d="M177.13 199.04c3.18 2.09 6.75 4.58 6.89 9.23.14 4.77-4 10.35-5.35 12.15-1.74 2.32-7.24 8.84-14.38 4.3 0 0-10.35-6.42-17.65-10.78l-5.2 7.7 57.88 9.94c-1.25-9.23-4.27-17.67-6.12-25.01a112 112 0 0 1 8.4 25.4l4.85.84c-.51-2.51-1.04-4.78-1.47-6.72-.87-3.98-4.42-12.5-7.56-22.85a59 59 0 0 1-13.78-11.15c-.06-.06-7.73-7.36-14.39-14.02l-6.94 11.24 14.83 9.73zm40.38-68.44c8.53-4.6 15.72-7.1 27.26-8.82l3.36-.47c2.3-.34 6.69-1.24 7.94-3.53a10 10 0 0 0 .84-5.1c-14.39 3-29.4 6.6-42.4 11.89a55 55 0 0 0-11.44 6.1c1.05 2.25 2.3 4.93 3.74 7.96a52 52 0 0 1 8.07-6.32 47 47 0 0 1 2.63-1.72zm-41.57 36.53c4.77 5.18 11.74 12.76 17.28 18.27-1.2-7.78-1.48-15.76.13-23.15a45 45 0 0 1 4.7-12.37l-4.76-10.35a394 394 0 0 0-4.18 6.44c0-.01-6.41 10.22-13.18 21.16z"/><path fill="#ff3c00" d="M194.97 121.22a51 51 0 0 1 12.9-7.1c10.07-4.21 28.01-9.04 46.35-12.72l-5.36-15.44c-.2-.5-3.03-6.28-.8-9.75a5.8 5.8 0 0 1 5.08-2.32s-.11.07 6.33.3l.28-.11.13-.07 7.03-3.37c1.65-.5 3.65-.99 3.65-.99a8.7 8.7 0 0 1 8.38 4.91l.77.06c-2.99-5.9-4.7-7.77-6.7-11.1C185.42-61.27-35.43 15.88 8.14 190.22c9.74 35.41 21.12 54.2 33.49 71.81 0 0 .27 8.54 14.19 4.08 13.3-4.27 22.63-3.98 35.46 6.04 17.05 13.31 43.32 21.22 66.81 19.5 20.4-1.6 38.75-10.46 47.14-29.47l.04-.1q.35-.85.66-1.73a43 43 0 0 0 2.07-15.18l-5.22-.89c-1.28 21.97-23.1 43.06-62.06 40.62-16.3-.6-33.7-8.53-44.09-14.18-4.76-3.2-18.23-10.74-24.69-12.17 5.63.3 19.65 7.66 25.55 11.04 12.07 6.22 28.9 12.17 43.24 12.77 26.04 2.44 55.58-10.86 58.86-38.62l-66-11.19a5.7 5.7 0 0 1-3.7 1 7.6 7.6 0 0 1-6.21-3.94 4.6 4.6 0 0 1 .47-4.8l12.4-18.5.53-1.05a7.4 7.4 0 0 1 1.35-5.83c1-1.02 6.65-10.29 7.96-12.89a6 6 0 0 1 4.57-2.8c1.28-2.03 4.46-7.1 9.88-15.9a6.6 6.6 0 0 1 2.45-6.2 7 7 0 0 1 1.64-.9c6.63-10.74 14.07-22.5 16.15-25.58a105 105 0 0 1 6.34-7.86 31 31 0 0 1 3.41-2.98 8 8 0 0 1 3.86-2.69.7.7 0 0 1 .28-.42zM165.6 239.4a7.76 7.76 0 0 1 3.01 14.9 4.94 4.94 0 0 1-8.16-1.35 7.74 7.74 0 0 1 5.14-13.55zm-61.1 24.52a5.8 5.8 0 0 1-4.33 1.13c-1.75 1-4.35.46-6.25-1.54-1.8-1.9-2.26-4.38-1.36-6.08-.37-2.75.38-5.48 2.33-6.84 2.93-2.07 7.4-.8 9.95 2.83s2.43 8.18-.34 10.5m38.25-20.87c-13.02 13.77-38.83 13.68-53.49-5.11 24.81 23 47.95 7.8 53.49 5.1m-23.48-16.2a16 16 0 0 1-5.03.79 18.6 18.6 0 0 1-13.17-5.92c-6.97-7.3-7.42-18.56-1.01-25.1a15.2 15.2 0 0 1 11.06-4.52 18.6 18.6 0 0 1 13.17 5.92 19.8 19.8 0 0 1 5.54 13.25z"/><path fill="#311d00" d="m204.77 263.34-.84 1.7q.45-.84.84-1.7"/><path fill="#311d00" d="M158.1 291.63c-23.5 1.73-49.77-6.17-66.82-19.49-12.84-10.02-22.17-10.3-35.46-6.04-13.91 4.46-14.2-4.08-14.2-4.08-12.36-17.61-23.74-36.39-33.48-71.8C-35.43 15.88 185.42-61.27 273.02 63.5c2 3.33 3.7 5.2 6.7 11.1l3.1.25C200.83-71.26-51.37 9.8 9.35 203.33a215 215 0 0 0 14.56 35.04q.22-.85.32-1.3s.53 1.51 1.55 3.86l.05-.23a190 190 0 0 0 13.2 21 41 41 0 0 0 2.59 2.49 5.6 5.6 0 0 0 1.52 3.93 8 8 0 0 0 2.32 1.01l.05.02c.3.07.63.04.93.08a27 27 0 0 0 5.54-.4s2.27-.41 5.12-.83l.39-.12c13.15-4.63 22.38-1.24 28.88 3.39q1.26.9 2.38 1.82c35.62 27.77 93.88 29.97 115.38-2.92-.96-.2-1.91-.4-2.8-.68-9.45 14.03-25.54 20.82-43.22 22.11z"/><path fill="#311d00" d="M203.2 266.47c-.21.38-.47.73-.69 1.1.22-.36.49-.72.69-1.1m-3.9-34.9q1.15.22 2.28.4a112 112 0 0 0-8.4-25.4c1.85 7.35 4.87 15.78 6.12 25m-58.59 50.8c-14.33-.6-31.17-6.55-43.24-12.78-5.89-3.38-19.92-10.73-25.54-11.03 6.46 1.43 19.92 8.97 24.69 12.16 10.38 5.65 27.78 13.58 44.08 14.19 38.97 2.43 60.79-18.66 62.06-40.62l-3.2-.54c-3.27 27.77-32.82 41.07-58.85 38.63zm-29.6-90.26a15.2 15.2 0 0 0-11.05 4.51c-6.42 6.54-5.96 17.8 1 25.1a18.6 18.6 0 0 0 13.17 5.92 16 16 0 0 0 5.04-.78l10.55-15.58a19.8 19.8 0 0 0-5.53-13.25 18.6 18.6 0 0 0-13.17-5.91z"/><path fill="#311d00" d="M89.25 237.95c14.66 18.79 40.47 18.88 53.49 5.1-5.54 2.7-28.68 17.92-53.49-5.1m71.21 15a5 5 0 0 1-.55-2.24 5.07 5.07 0 1 1 8.7 3.58 7.8 7.8 0 1 0-8.15-1.34m7.83-6.53a4.7 4.7 0 0 0-5.41-.74c-.71.44-1.44-.14-.53-1.06a4.6 4.6 0 0 1 6.58.8c.76 1.13-.06 1.89-.64 1m-2.5-5.62a6.35 6.35 0 0 1 4.36 10.82c1.82-3.94.32-8.94-4.5-9.14-5.02-.2-6.68 4.83-5.8 7.45-1.7-1.58-1.12-9.11 5.94-9.14"/><path fill="#311d00" d="M165 245.54a5.1 5.1 0 0 0-5.09 5.17 5 5 0 0 0 .55 2.24 4.94 4.94 0 0 0 8.16 1.35 5.17 5.17 0 0 0-3.62-8.75zm-.06 9.45a4.27 4.27 0 1 1 4.23-4.27 4.25 4.25 0 0 1-4.23 4.27"/><path fill="#fff" d="M162.34 244.62c-.9.91-.17 1.5.53 1.06a4.7 4.7 0 0 1 5.42.74c.58.89 1.4.13.64-1a4.6 4.6 0 0 0-6.59-.8"/><path fill="#fff" d="M165.65 242.48c4.82.2 6.32 5.2 4.5 9.14a6.35 6.35 0 0 0-4.36-10.83c-7.06.03-7.64 7.56-5.94 9.14-.88-2.63.78-7.66 5.8-7.46"/><path fill="#fff" d="M169.17 250.72a4.23 4.23 0 1 0-4.23 4.27 4.25 4.25 0 0 0 4.23-4.27m-7.64-.04a3.37 3.37 0 1 1 3.37 3.37 3.4 3.4 0 0 1-3.37-3.37"/><path fill="#311d00" d="M168.28 250.68a3.38 3.38 0 1 0-3.37 3.37 3.4 3.4 0 0 0 3.37-3.37m-5.87.11c.1-.43.29-.2.39.1.92 1.47 3.47 1.58 4.26.45.4-.58.39.21.39.21-1.61 3.18-5.28 1.17-5.04-.77z"/><path fill="#fff" d="M167.45 251.56s0-.8-.39-.21c-.78 1.13-3.34 1.02-4.26-.44-.1-.32-.29-.54-.39-.11-.24 1.94 3.43 3.94 5.04.77z"/><path fill="#311d00" d="M94.88 250.6c-1.94 1.35-2.7 4.08-2.32 6.83a3 3 0 0 1 .54-.88c1.68-1.6 4.77-1.07 6.9 1.18s2.51 5.36.82 6.96a4 4 0 0 1-.65.36 5.8 5.8 0 0 0 4.32-1.13c2.78-2.32 2.9-6.86.35-10.5s-7.02-4.9-9.96-2.83m6.5 7.68a6 6 0 0 0-3.12-2.7c-.93-.17-.58-1.7.55-1.3a8 8 0 0 1 3.08 2.39c1.04 1.7-.07 2.56-.51 1.6m1.27 5.32c5.18-6.73-4.9-14.59-8.88-8.34 3.32-10.18 16.7 2.6 8.88 8.34"/><path fill="#311d00" d="M100 257.74c-2.13-2.25-5.22-2.78-6.9-1.19a3 3 0 0 0-.54.89c-.9 1.7-.45 4.17 1.36 6.08 1.9 1.99 4.5 2.54 6.25 1.54a3 3 0 0 0 .65-.36c1.68-1.6 1.31-4.71-.82-6.96m-5.58 5.17c-1.81-1.91-2.13-4.55-.7-5.91s4.05-.9 5.86 1 2.13 4.55.7 5.9-4.05.91-5.86-1z"/><path fill="#fff" d="M98.81 254.27c-1.13-.4-1.48 1.13-.55 1.3a6 6 0 0 1 3.12 2.7c.44.95 1.55.1.52-1.6a8 8 0 0 0-3.09-2.4"/><path fill="#fff" d="M93.77 255.25c3.98-6.25 14.06 1.6 8.88 8.34 7.82-5.75-5.56-18.52-8.88-8.34"/><path fill="#fff" d="M99.58 258c-1.82-1.91-4.44-2.36-5.87-1.01s-1.11 4 .7 5.91 4.44 2.36 5.86 1 1.12-4-.7-5.9zm-.06 5.48c-1.2.88-3.18.17-4.66-1.2-1.58-1.44-1.71-3.68-.61-4.73 1.2-1.18 3.37-.44 4.68 1.05 1.06 1.2 1.96 3.86.6 4.87z"/><path fill="#311d00" d="M94.25 257.56c-1.1 1.04-.97 3.3.61 4.73 1.48 1.36 3.47 2.08 4.66 1.2 1.37-1.02.46-3.67-.6-4.88-1.3-1.48-3.47-2.22-4.68-1.05zm4.27 5.35c-2.43.23-4.6-2.72-3.7-4.04 0 0 .66-.9.78-.05a4.7 4.7 0 0 0 3.18 3.33c.35.1.46.62-.26.75z"/><path fill="#fff" d="M95.6 258.83c-.13-.85-.79.05-.79.05-.9 1.32 1.27 4.27 3.7 4.04.74-.13.62-.67.27-.75a4.7 4.7 0 0 1-3.18-3.34"/><path fill="#311d00" d="M81.58 272.23a79 79 0 0 1-30.32 9.73c-12.57 2.02-19.55-6.78-17.13-13.52l-.7-1.68c-.67-1.67-9.25-19.2-7.67-25.83a66 66 0 0 1-1.55-3.85l-.32 1.3a20.5 20.5 0 0 0-.06 9.4c1.65 6.18 3.02 9.99 8.02 20.98-2.01 7.43 4.95 18.39 21.82 15.13 19.67-2.78 28.56-9.48 29.38-10.14l.17-.12q-.81-.76-1.66-1.4z"/><path fill="#311d00" d="M43.11 268.13a5.6 5.6 0 0 1-1.51-3.92 41 41 0 0 1-2.59-2.5l.72 1.01a7.5 7.5 0 0 0 3.37 5.42zm2.33 1.03.05.01z"/><path fill="#311d00" d="M50.74 269.2c-3.03 6.21-14.93 2.88-12.63-5.2-1.71-2.1-5.83-8.77-5.83-8.77-.19.04.2 1.98.17 1.86l3.8 7.85c-1.86 11.74 15 12.61 16.19 4 .97-.18.95-.05 1.56-.35-.73 3.5-2.4 5.42-4.39 6.43-3.6 1.82-4.67 5.02.81 4.64 5.58-.4 15.43-2.25 26.93-7.82 0 0 .98-.55 2.02-1.17a24.5 24.5 0 0 0-13.24-3.62 85 85 0 0 0-9.07.97c-2.85.42-5.11.82-5.11.82a27 27 0 0 1-5.55.4 11 11 0 0 0 2.17.2c.53-.06 1.74-.14 2.17-.24"/><path fill="#fff" d="m33.44 266.76.7 1.68c-2.43 6.74 4.56 15.54 17.13 13.52a80 80 0 0 0 30.31-9.73c.56-.33 1.15-.66 1.64-.98l-2.01-1.68c-.5.33-1.17.73-1.82 1.11-1.05.62-2.02 1.17-2.02 1.17-11.5 5.56-21.35 7.42-26.93 7.82-5.49.38-4.42-2.82-.81-4.64 1.98-1.01 3.66-2.93 4.4-6.43-.62.3-.6.16-1.57.34-1.2 8.62-18.05 7.74-16.19-3.99 0 0-2.43-4.97-3.8-7.85.02.12-.36-1.83-.17-1.86 0 0 4.12 6.67 5.82 8.78-2.3 8.06 9.6 11.4 12.64 5.2-.44.1-1.64.17-2.17.24a12 12 0 0 1-2.17-.2c-.3-.04-.64-.01-.92-.08l-.05-.01a8 8 0 0 1-2.33-1.02 7.5 7.5 0 0 1-3.37-5.42l-.72-1.01a190 190 0 0 1-13.21-21l-.05.23c-1.59 6.63 7 24.15 7.68 25.83z"/><path fill="#311d00" d="m207.9 265.76-1.27-.16a45 45 0 0 0 4.16-19.96l-2.8-.48a43 43 0 0 1-2.06 15.2q-.31.85-.66 1.71l-.04.11q-.23.6-.47 1.17c-.24.57-.55 1.13-.83 1.7q-.34.72-.73 1.43c-.2.37-.47.74-.7 1.1q-.58.98-1.22 1.94h.02a29 29 0 0 0 2.8.69c8.6 1.77 19.28.33 19.28.33 11.2-.73 20.22-3.74 27.25-8.4-.88-1.4-1.78-2.76-2.55-4.22-8.98 6.09-21.95 9.34-40.18 7.85zm55.3-28.95q2.68-.26 5.34-.56a63 63 0 0 0 2.03-12.55l-.22-.04-.85-.14-.07-.86c-.57-5.56-.73-8.75-.5-9.47l.32-.9.94.16.26.05a71 71 0 0 0-.34-3.18l-5.08.54c1.1 9.1.74 18.5-1.85 26.96zm-4.69 14.58c.43.8.93 1.52 1.39 2.3a42 42 0 0 0 3.25-4.6l-4.23.44s-.68.2-1.86.44zm-59-60.4c5.89 4.47 12.05 6.94 21.09 8.07l-19.89-43.34c-4.18 11.45-3.5 23.46-1.2 35.28"/><path fill="#311d00" d="M193.22 185.4a150 150 0 0 0 2.99 2.89c-2.27-11.78-2.37-24.17 3.24-35.35l-1.4-3.05a45 45 0 0 0-4.7 12.36c-1.6 7.4-1.33 15.38-.13 23.15m13.22 47.4 4.29.74c7.36-4.53 13.1-12.79 16.22-20.65l-.84-1.81-.32-.03a66 66 0 0 1-22.7-4.9c2 7.58 4.05 14.95 5.19 21.82-1.4-5.89-4.63-13.88-7.57-22.9a50 50 0 0 1-3.3-1.83c3.14 10.35 6.7 18.87 7.57 22.85.43 1.94.96 4.22 1.47 6.72z"/><path fill="#fff" d="m228.13 184.53 6.99 15.28h1.14c7.3-.05 16.67-.68 26.63-1.62a93 93 0 0 0-4.35-13.12c-8.17-19.3-29.73-11.84-30.4-.54zm-17.4 49c13.53 2.34 23.53 4.05 23.53 4.05 1.57.23 2.95.4 4.26.54l-11.58-25.24c-3.1 7.87-8.85 16.12-16.22 20.66m41.1 4.23a519 519 0 0 0 11.38-.95c2.59-8.47 2.94-17.86 1.85-26.97-8.65.87-16.72 1.56-23.25 1.97-.03 0-.52 0-1.28-.04a1164 1164 0 0 1 11.2 26.04l.11-.05zm-45.19 27.84 1.27.16c18.22 1.48 31.2-1.77 40.17-7.86a65 65 0 0 1-3.09-6.66l-.52-.72-.45-.03a150 150 0 0 1-16.31-1.99s-6.9-1.16-16.9-2.86a45 45 0 0 1-4.17 19.96m62.58-127.25c-11.78 1.43-15.06 30.9-8.38 38.27-2.45-11.3.14-32.28 8.38-38.27m-66.12 67.77q-1.2-.5-2.38-1.06c2.95 9.02 6.17 17 7.57 22.9-1.14-6.88-3.19-14.24-5.19-21.83zm-6.88-17.85a54 54 0 0 0 3.3 2.7c-2.29-11.8-2.98-23.82 1.2-35.27l-1.27-2.79c-5.6 11.2-5.51 23.58-3.24 35.35zm25.25-56.73a38 38 0 0 0-8.57 5.45 52 52 0 0 0-4.86 4.27l.47 1.02a65 65 0 0 1 12.96-10.74"/><path fill="#311d00" d="m262.54 99.82.23-.04c-.35-.82-1.14-2.72-2.13-5.39l1.91 5.43zm31.83 8.94-.57-.05c2.18 8.38 1.62 19.69-9.73 22.21 5.74-2.5.92-4.23.47-4.43-12.2-2.8-32.49.94-34.7-.6 12.99-1.25 13.98-7.71 12.92-14.41l-2.03.41c1.22 7.01-1.68 9.66-5.58 11.12a35 35 0 0 1-10.43 2.05l-3.88-.14c1.68-.57 5.01-.7 9.09-1.55 6.24-1.29 9.85-4.04 9.43-11.2q-1.22.26-2.45.5a10 10 0 0 1-.83 5.1c-1.26 2.29-5.64 3.19-7.94 3.53l-3.36.47c-11.54 1.72-18.74 4.22-27.27 8.82 0 0-2.16 1.32-2.63 1.71a52 52 0 0 0-8.08 6.32l1.23 2.63a52 52 0 0 1 4.87-4.27 38 38 0 0 1 8.57-5.44 65 65 0 0 0-12.96 10.73 6892 6892 0 0 1 19.61 42.25c.68-11.3 22.24-18.76 30.41.53a91 91 0 0 1 4.35 13.12q2.58-.24 5.2-.52-.88-3.62-2.03-7.24a87 87 0 0 1-2.12-18.85q-.28-.3-.54-.63a64 64 0 0 1 1.3-16.11l.75 1.03c1.3-6.23 3.5-12.12 7.15-16.69.14-.2.26-.34.4-.52l-.23-.53c1.58-2.03 2.47-4.07 6.86-4.78l.52-.1c3.07-.4 2.28-.48 3.54-.4l.17.4.2-.02a15.7 15.7 0 0 0 11.53-8.14c1.42-2.59 1.78-6.05 1.8-8.96-.12-.21 2.16-1.08 2.72-1.42-2.08-.9-3.97-2.68-5.73-5.92zm-33.54 67.87c-6.67-7.36-3.4-36.84 8.38-38.27-8.24 6-10.83 26.99-8.38 38.27"/><path fill="#311d00" d="m271.98 114.8 10.55-.14c5.4-.93 7.8-3.23 8.5-6.26l-.25-.04c-1.27 5.47-7.33 5.92-8.82 6.11a75 75 0 0 1-11.24 0c-2.49-.19-3.65-2.38-4.15-3.77l-.15.03c1.82 4.36 5.57 4.06 5.57 4.06zm-14.05-28.1 1.05 3a155 155 0 0 1-1.62-5.16 11.4 11.4 0 0 1-.25-6.78c-1.51 4.2.82 8.92.82 8.92zm21.79-12.08-.77-.06a14 14 0 0 1 1.31 3.24l8.32 19.33h.19c-2.74-6.62-8.65-20.13-8.65-20.13l3.23.28a444 444 0 0 1 6.87 19.93l.32.02-6.65-20.42-.33-.98.8-.68.33-.14-1.87-.15z"/><path fill="#fff" d="M259.35 112.18c.42 7.15-3.2 9.9-9.43 11.19-4.08.85-7.4.98-9.09 1.55l3.88.14a35 35 0 0 0 10.43-2.05c3.91-1.45 6.8-4.11 5.58-11.12l-1.38.28zm-8.17-29.97a10 10 0 0 1-.28-5.82s-2.66 2.12-.28 7.78l6.06 16.75 1.28-.25a74 74 0 0 0-1.16-3.15 346 346 0 0 1-5.61-15.31z"/><path fill="#fff" d="M291.02 108.4c-.7 3.03-3.1 5.33-8.5 6.26l-10.55.14s-3.75.3-5.57-4.07l-3.65.75c1.05 6.7.06 13.16-12.93 14.42 2.22 1.53 22.51-2.22 34.7.6.46.18 5.28 1.91-.46 4.42 11.35-2.51 11.9-13.83 9.73-22.21l-1.82-.16-.96-.14zm-7.67-31.12-3.23-.28s5.91 13.51 8.64 20.15l1.46.07c-2.15-6.6-4.94-15-6.87-19.93zM259 89.7l-1.06-3s-2.33-4.72-.82-8.93a7 7 0 0 1 .64-1.47 15 15 0 0 0-2.77-.14c-1.68.14-3.26.22-2.11 4.21.84 2.96 1.16 3.66 1.82 5.49.8 2.19 3.36 8.8 5.23 14.42l2.62-.46-1.91-5.43a120 120 0 0 1-1.65-4.69z"/><path fill="#311d00" d="m256.91 112.68 2.44-.5 1.38-.28 2.03-.4 3.66-.75.15-.02a9 9 0 0 1-.34-1.16c7.73-.98 8.15-3.37 8.15-3.37 2.24-4.63-2.81-6.46-2.81-6.46-2.39-.99-8.57.56-8.57.56l-.21-.5-.23.04-2.62.46-1.97.4-1.28.24-2.46.49c-18.33 3.67-36.27 8.5-46.35 12.72a51 51 0 0 0-12.9 7.1.7.7 0 0 0-.29.41 6 6 0 0 1 1.67-.24 3.5 3.5 0 0 1 3.17 1.79c.12.23 1.44 3.01 3.54 7.48a55 55 0 0 1 11.44-6.1c13.01-5.29 28.02-8.89 42.4-11.9zm-54.64 15.68s-1.69-3.46-2.15-4.56c-.8-1.95-1.3-1.88-2.09-2.32a64 64 0 0 1 10.34-5.14c12.46-5.21 38.28-11.87 60.6-15.47a4 4 0 0 1 4.62 3.02c.23 1.52-.55 3.3-3.47 3.76l-1.37.27c-17.86 3.58-38.12 7.63-55.05 14.5a40 40 0 0 0-11.43 5.94m-12.27 4-.44-.95.08.2zm-.68-1.64a19 19 0 0 1 .03-2.65c.03-.04.06-.06-.01.02a4.4 4.4 0 0 0-.02 2.63"/><path fill="#311d00" d="M181.08 135.17c-2.08 3.08-9.52 14.84-16.15 25.58a5.2 5.2 0 0 1 6.27 1.27c.9.92 2.61 2.8 4.73 5.1a4346 4346 0 0 1 13.18-21.15 405 405 0 0 1 4.18-6.44l-.95-2.07c-.5.7-3.25 4.31-5.14 7.26l-12.61 20.54-3.37-3.71s-1.77-1.5-3.32-1.37c6.82-11.06 12.9-20.62 15-23.77a73 73 0 0 1 6.46-8.33 7 7 0 0 1 .92-3.05 7 7 0 0 1 .54-.7 32 32 0 0 0-3.41 2.98 106 106 0 0 0-6.35 7.87zm189.73 56.85-1.12-2.66c-2.32-6.05-6.52-7.18-13.15-6.36l-5.76.63c-11.57 1.04-30.19 2.94-45.75.31l3.56 8.53a410 410 0 0 0 15.56-2.64l1.07-.36a4.2 4.2 0 0 1 2.23-2.02 9 9 0 0 1 8.28.6l.1.21c3.21-.68 7.46-1.5 17.75-2.95a7 7 0 0 1 2.86.72c.8-.13 1.37-.18 1.37-.18a3.46 3.46 0 0 1 3.13 3.16 3.2 3.2 0 0 1-.91 3.07 4.6 4.6 0 0 1-1.32 3.02s-.18.06-.46.15a138 138 0 0 1 4.8 14.54l1.58 6.5q1.44-.32 2.83-.69h.03a6 6 0 0 0-.77-.11 146 146 0 0 0-6.32-20.94c4.78-3.51 3.05-8.95-.18-9.93 0 0 5.9-1.26 8.62 8.94 9.88 27.7 17.56 65.63 15.37 78.75 0-1.7-2.63-4.83-7.13-5.76a35 35 0 0 0-.04-3.85c-1.13-11.43-5.25-32.22-5.25-32.22 4.2-1.36 5.3-7.44 2.5-11.42a9 9 0 0 1 1.18 3.01c.6 3.3-.55 7.42-4.58 8.62l-1.25.32.27 1.4c1.7 9.21 4.28 23.11 5.25 31.65a8 8 0 0 1-.16 2.1c3.37.68 8.35 2.4 9.33 6.94l.02.1v.08a6 6 0 0 1-1.7 5.37c4.83-3.77 4.6-12.04 4.59-12.46-1.79-24.26-7.24-48.45-16.43-74.14zm-45.8-2.5c-5.06 1.26-16.45 2.52-16.45 2.52l-2.38-5.48a95 95 0 0 0 21.07.7 2.5 2.5 0 0 0-2.25 2.25m10.97-1.55a5.4 5.4 0 0 0-3.1-1.25c3.67.3 15.04-.85 15.04-.85-2.73.77-11.94 2.11-11.94 2.11zm-70.52-32.11-.75-1.03a64 64 0 0 0-1.31 16.11l.54.63a71.7 71.7 0 0 0 32.55 22.63q-.59-1.36-1.16-2.73c-18.4-6.04-31.45-23.38-31.45-23.38a56 56 0 0 1 .91-9.42c11.88 16.37 24.95 22.7 26.6 23.46l-1.18-2.78a14 14 0 0 1-2.6-1.64c-4.15-2.55-14.06-10.2-22.15-21.86z"/><path fill="#311d00" d="m340.87 198.27.33.83c11.18-2.04 15.78-3.42 17.06-3.86l.46-.16a4.6 4.6 0 0 0 1.31-3.02 3 3 0 0 1-1.06.63 16 16 0 0 1-3.4 1.15c-2.54.62-5.4 1.35-9.38 2.1-2.86.54-5.72 1.15-5.48 1-.61-1.31-1.3-3.45-3.05-6.85a258 258 0 0 0 16.04-3.5 25 25 0 0 1 2.75-.57 7 7 0 0 0-2.86-.72 250 250 0 0 0-17.75 2.96zm-20.84 21.61-6.79-16.26-1.85.3a678 678 0 0 0 6.57 15.92zm25.21 49.06-.18-2.51c-15.26-7.88-25.2-24.97-25.2-24.97l7.59-1.41a68 68 0 0 0 16.72 16.67l-.33-2.78a61 61 0 0 1-14.3-14.56 490 490 0 0 1-12.16 2.25c7.25 12.02 17.16 21.5 27.87 27.3zm-35.74-49.6a1957 1957 0 0 1-5.95-14.22l-2.3.34 5.68 13.43zm-29.34-86.12q-.28.04-.53.1c-4.4.71-5.28 2.76-6.86 4.78l.23.53 17.22 40.71q.6 1.39 1.17 2.77l.17.09 3.8 9.27h-.02l1.15 2.73.01.02a720 720 0 0 0 12.1-1.77l-3.56-8.52-21.17-50.71-.17-.41c-1.25-.08-.47 0-3.53.4zm26.34 59.28c-3.46.62-7.6 1.09-7.6 1.09l-24.33-57c2.62-2.85 6.87-2.94 6.87-2.94 1.59 3.23 25.05 58.85 25.05 58.85zm77.85 80.76v-.1l-.02-.08c-.99-4.54-5.96-6.27-9.33-6.94a27 27 0 0 0-3.14-.43 64 64 0 0 1-15.16-4.42q.6 6.37.7 12.46c.75.2 1.49.48 2.24.63l-2.25.37c.02 2.68.05 5.37-.1 7.91a6.6 6.6 0 0 1-2.08 4.66c21.24-4.82 24.84-6.58 26.15-7.77a7 7 0 0 0 1.28-.94 6 6 0 0 0 1.7-5.37zm-27.13 11.63a41 41 0 0 0 .57-8.02c24.87-5.33 1.25-7.59 1.25-7.59 5.48 1.69 5.35 3.66 5.35 3.66a26 26 0 0 1-6.6-1.12c.13-1.55-.28-7.87-.28-7.87 6.46 2.81 7.5 2.01 14.19 3.51 6.89 1.55 3.5 4.36 3.5 4.36-3.5 4.35-16.43 6.18-16.43 6.18 21.64-2.8 19.67-8.71 19.67-8.71 8.86 5.77.14 9.84-4.35 11.1-3.97 1.12-16.87 4.5-16.87 4.5"/><path fill="#311d00" d="M320.04 219.88c-.75 0-1.41-.02-2.08-.04 2.1 4.9 3.58 8.27 3.58 8.27-1.27.56-7.59 1.4-7.59 1.4a258 258 0 0 1-4.45-10.17l-2.57-.45-36.46-6.4-.26-.05-.94-.17-.31.91q-.36 1.1.49 9.47l.07.86.85.14.22.04 39.61 6.68q10.5-1.8 20.7-3.65l4.93-.88c1.11-.4 1.44-1.68.94-3.2l-.97-2.94c-5.97.24-11.45.25-15.75.18zm-9.1 8.6-40.31-6.7a55 55 0 0 0 .18-7.3l37.19 6.79c.7 2.02 2.95 7.2 2.95 7.2m25.3-6.54c1.12 3.8-1.83 3.6-1.83 3.6l-10.82 2.25-2.68-5.91c9.41.14 15.33.06 15.33.06M352.37 235c4.88-.9 14-3.18 17.28-4.01l1.25-.32c4.02-1.2 5.18-5.32 4.57-8.62a9 9 0 0 0-1.17-3.02 8.5 8.5 0 0 0-6.8-3.45h-.03q-1.38.37-2.83.7a130 130 0 0 1-16.43 2.58c1.56 5.2 2.93 10.63 4.17 16.14zm20.92-13.5s1.7 5.12-2.66 6.94c0 0-3.23 1.64-18.13 4.3 0 0-1.22-4.63-1.78-7.02 0 0 12.6-2.62 17.52-4.46 0 0-.1-1.64-2.53-1.59 0 0-12.79 3.23-15.74 3.51l-.7-1.96s10.96-2.1 14.62-2.95c0 0 7.73-2.67 9.4 3.23"/><path fill="#311d00" d="M357.32 282.67c.14-2.55.11-5.23.09-7.91v-1q-.1-6.08-.7-12.46a218 218 0 0 0-4.34-26.3 237 237 0 0 0-4.17-16.14 198 198 0 0 0-7.01-19.76c-.1-.26-.21-.57-.33-.83l-5.02-10.01-.1-.22a9 9 0 0 0-8.29-.6 4.2 4.2 0 0 0-2.23 2.02l-1.06.36c-3.8.75-9.23 1.67-15.57 2.64a720 720 0 0 1-12.1 1.77 850 850 0 0 1-28.4 3.45l-5.2.52c-9.95.93-19.31 1.57-26.63 1.62h-1.14l-7-15.28a7343 7343 0 0 0-19.6-42.24l-.48-1.02-1.23-2.63-3.74-7.96c-2.1-4.47-3.42-7.25-3.54-7.48a3.5 3.5 0 0 0-3.17-1.8 6 6 0 0 0-1.66.25 8 8 0 0 0-3.86 2.7 7 7 0 0 0-.54.68 7 7 0 0 0-.92 3.05q.02 0 0 0a19 19 0 0 0-.02 2.65 4 4 0 0 0 .23.68l.44.95 2.41 4.99-.06.1.95 2.08 4.74 10.35 1.4 3.05 1.29 2.79 19.88 43.33c-9.04-1.11-15.2-3.59-21.08-8.06a54 54 0 0 1-3.31-2.7 130 130 0 0 1-2.99-2.89 599 599 0 0 1-17.28-18.27c-2.12-2.31-3.83-4.18-4.73-5.1a5.2 5.2 0 0 0-6.27-1.28 7 7 0 0 0-1.64.9 6.6 6.6 0 0 0-2.45 6.21l.48-.78s-.07 1.5 2.45 4.17c2.54 2.68 5.94 6.07 5.94 6.07l-.47.77a925 925 0 0 0 14.4 14.01 59 59 0 0 0 13.77 11.15c1.1.65 2.2 1.29 3.29 1.83.8.4 1.59.72 2.38 1.07a65 65 0 0 0 22.7 4.9l.32.03.84 1.82 11.58 25.24a105 105 0 0 1-4.27-.55s-10-1.71-23.53-4.04l-4.29-.74-4.85-.83-2.28-.4-57.88-9.93-1.4 2.06 90.5 15.54c13.84 2.06 21.4.8 21.56.76 29.51-2.11 54.77-6.65 79.18-11.06l5.05-.9.07-.03.08-.03c1.83-.28 3.09 1.59 3.09 1.59.71-1.2-.97-8.08-.97-8.08-.06-.15-4.48-14.16-6.69-19.73l.03.1c-.06-.2-1.21-2.7-3.33-3.13a6 6 0 0 0-.27-2.9 3.8 3.8 0 0 1-2.82 3.25c-22.42 4.5-59.93 9.12-82.81 10.49-.1 0-9.79-.07-17.15-.58-12.43-.7-26.6-3.6-40.32-18.48-.15-.14-15.33-14.6-21.44-21.29a4.17 4.17 0 0 1 .89-5.81c1.13-.89 3.65-1.72 4.92-.26 2.66 3.57 17.14 18.78 24.57 26.55 8.42 6.56 15.41 9.84 27.14 11.31 5.98.77 14.6.86 14.98.85 27.19-.35 69.8-6.73 87.36-9.86 2.1-.28 4.07 1.66 4.07 1.66l-.59-2.48.1-.7a4.5 4.5 0 0 1 1.78-1.37 5 5 0 0 1 5.25.68c11.83 21.78 22.67 62.93 20.8 92.77a4.1 4.1 0 0 1-2.05 3.58s-3.33 2.41-6-1.8c0 0 .67 1.84-2.29 2.81-18.2 4.69-37.68 4.96-54.12.62-14.9-3.94-32.52-12.56-42.3-34.23 2.4-3.23 7.12-3.27 7.12-3.27 15.2 32.51 53.96 38.2 87.52 29.62 0 0 2.34-.46 3.5 1.21.98-1.96 1.05-8.43 1.05-8.43-.04-.94-.44-20.59-4.14-33.91-.04-.47-.86-2.83-2.26-3.26 0 0-.6-3.88-.7-3.16-.39 3.2-4.43 3.43-4.43 3.43-20.69 4.92-52.7 9-77.98 11.56-.04 0-1.96.3-5.38.46l-2.73.06a92 92 0 0 1-20.16-1.6s-89.18-14.62-89.22-14.63a3.1 3.1 0 0 1-1.76-2.12 7.5 7.5 0 0 1 .1-4.1l-3.88 5.75a5 5 0 0 1-1.4 1.38l66.01 11.19 3.2.53 5.21.89 2.8.47 16.9 2.86a148 148 0 0 0 16.32 2l.45.02.52.72a65 65 0 0 0 3.09 6.67c.78 1.47 1.68 2.83 2.56 4.21 8.62 13.53 22.1 23.28 39.41 27.85 17.94 4.74 38.3 4.27 57.9-1.48a6.5 6.5 0 0 0 6.12-.33 6 6 0 0 0 1.16-.83 6.6 6.6 0 0 0 2.09-4.66zm-119.4-70.73 11.42 25.81a31 31 0 0 1-8.43.28c-1.4-3.07-3.06-7.02-10.4-23.04 2.49-3.94 7.4-3.05 7.4-3.05m3.89-.13c6.53-.41 14.6-1.1 23.25-1.97q2.51-.25 5.08-.53a900 900 0 0 0 31.12-3.86l2.3-.33-.14-.35c1.32-.16 7.87-1.13 7.87-1.13l.11.26 1.85-.3c4.96-.81 9.48-1.65 13.29-2.47 0 0 1.7-.3 2.26.12.94.7.98 1.2.98 1.2v.07l.04.05a417 417 0 0 1 6.94 20.06c.5 1.53.17 2.8-.95 3.2l-4.93.89c-6.8 1.22-13.69 2.46-20.7 3.64a661 661 0 0 1-41.63 5.88q-2.65.3-5.35.56-5.57.53-11.37.95l-.1.05a1126 1126 0 0 0-11.22-26.03l1.28.04zm-50.17-81.44a4.5 4.5 0 0 1 .58-4.3 5.2 5.2 0 0 1 4.1-2.52 1.3 1.3 0 0 1 1.2.54l35.1 75.43a42 42 0 0 1-8.84-.51 5251 5251 0 0 0-32.14-68.64m71.53 118.71a900 900 0 0 0 54.2-7.45 491 491 0 0 0 12.16-2.26 269 269 0 0 0 9.68-2.09c.76-.2 1.06.01 1.17.1a2.7 2.7 0 0 1 .78 1.72v.12l.04.1a104 104 0 0 1 2.64 14.62l.33 2.78.28.2c.27 2.52.7 9.55.7 9.55l-.08-.04.18 2.5c.2 2.97.3 4.9.3 4.95a3.8 3.8 0 0 1-1.59 3.45c-31.26 8.47-67.63 4-84.05-23.64-.46-.77-.96-1.49-1.38-2.3l-1.46-1.4c1.18-.24 1.86-.45 1.86-.45l4.23-.44z"/><path fill="#311d00" d="M141.9 211.16c-3.17-1.79-4.43-3.92-4.82-5.88l-.53 1.05-12.4 18.49a4.6 4.6 0 0 0-.47 4.8 7.6 7.6 0 0 0 6.21 3.95 5.7 5.7 0 0 0 3.7-1 5 5 0 0 0 1.4-1.39l3.87-5.74c.3-1.12.7-1.92.8-1.8l.38.06 1.4-2.06 5.2-7.7a304 304 0 0 0-4.73-2.79zm-8.65 18.63a3.2 3.2 0 0 1-3.07 1.38 5.4 5.4 0 0 1-4.33-2.66 2.4 2.4 0 0 1 .3-2.56l11.8-18.02c.74 1.43 6.67 4.98 6.67 4.98zm27.02-13.72a13 13 0 0 0 .79 1.72v-.01a6 6 0 0 0 2.16 2.22c6.5 3.87 10.1-1.07 10.14-1.1.02-.05 3-3.92-1.34-8.17a8.6 8.6 0 0 0-6.36-2.01 7.4 7.4 0 0 0-7.66-5.49h-.07c-4.33.3-5.33 2.65-5.83 4a6.8 6.8 0 0 0 .52 5.51c.03.04 2.13 4.18 7.65 3.33m5.7-6.25c4.87-.14 8.67 4.72 6.23 8.29l-.88.14c-4.25.55-6.64-1.14-7.35-4.9a5.6 5.6 0 0 0 2-3.53m-5.67-5.19c2.4.77 4.17 2.89 4.04 5.07l.28.03c-.2 1.58-1.87 3.73-5.27 3.2a11 11 0 0 1-.23-2.13 5 5 0 0 0 1.84.27 7 7 0 0 1 .08-.97 6 6 0 0 1-1.93-.57 11 11 0 0 1 1.19-4.89zm-5.64 1.04a4.5 4.5 0 0 1 3.59-1.22 9 9 0 0 0-1.05 4.3 7 7 0 0 1-.94-.64v1.17c.2.38.54.5.98.8a10 10 0 0 0 .25 2.5c-.22-.08-.35-.26-.59-.37-3.38-1.9-2.25-6.53-2.25-6.53zm-1.24 1.5c-.56 7.03 5.85 8.04 9.45 6.72.8 5.68 5.73 5.84 8.13 5.45a6.75 6.75 0 0 1-9.84-4.73c-4.54 1.39-9.66-2.28-7.74-7.45z"/><path fill="#311d00" d="M141.9 211.16c1.23.7 2.9 1.67 4.74 2.78 7.3 4.36 17.64 10.78 17.64 10.78 7.15 4.54 12.64-1.97 14.38-4.3 1.35-1.8 5.5-7.38 5.35-12.15-.14-4.66-3.7-7.14-6.89-9.23l-14.83-9.72-.54.86-2-1.05-1.24 1.96c-1.2.97-3.77-.02-5.37-1.55-.36-.35-2.12-2.16-1.07-3.42l.06-.07.04-.06.38-.64-1.97-1.03.36-.57a6 6 0 0 0-4.57 2.8c-1.3 2.6-6.95 11.86-7.96 12.87a7.4 7.4 0 0 0-1.34 5.84c.38 1.96 1.65 4.1 4.81 5.88zm19.76-19.8c5.7 3.67 13.2 8.58 16.43 11.03 5.82 4.41 2.68 9.71 2.68 9.71.58-3.19-.85-6.36-4.57-8.86l-15.88-10.59zm-12.42-4.56c-.24 4.25 6.3 7.67 9.4 6.83l16.54 11.07c2.48 1.79 4.92 4.84 3.47 8.95-.2-3.86-5.01-6.9-5.01-6.9s-17.79-10.46-23.24-13.88c-3.12-1.96-2.81-4.67-1.16-6.08zm-8.27 13.2c3.27-4.6 4.87-7.24 5.58-8.47a8 8 0 0 0 2.88 2.82 753 753 0 0 0 20.4 12.28c3.57 2 4.3 2.95 4.3 2.95 4.16 3.94 3.37 7.85 1.34 10.6-2.3 3.08-6.7 5.04-10.38 2.6l-5-3.07v-.02l-1.8-1.09-15.5-9.5-.06-.04-.04-.02a6.4 6.4 0 0 1-3.23-3.6q-.65-2.4 1.51-5.45z"/><path fill="#311d00" d="m150.59 184.33 1.96 1.03c.84-1.37 3.26-5.36 9.16-14.93a50 50 0 0 0 5.85 6.35l-7.81 12.36 2 1.05.54-.87 6.94-11.24.47-.76s-3.4-3.4-5.94-6.08c-2.52-2.66-2.45-4.16-2.45-4.16l-.48.78c-5.43 8.8-8.6 13.85-9.88 15.9zm132.97-108.5.33.98 6.66 20.42.48.02c5.37.51 12.41 1.54 14.87 2.36l-.21-.05c2.85.4 4.35 3.5 4.13 6.11a6 6 0 0 1-.99 2.67c2.58-2.77 1.63-8.1-2.15-9.2a32 32 0 0 0-6.18-1.1l-10.12-22.77 5.9-2.54 14.48 26.56c8.26 13.12-7.06 17.86-12.92 9.84a18 18 0 0 1 2.61.2 24 24 0 0 0-5.28-.5l-.79-.07c1.76 3.24 3.65 5.02 5.73 5.93a12.4 12.4 0 0 0 5.93.8 10.3 10.3 0 0 0 9.25-6.86c.06-.16 1.34-4.06-2.15-9.9L297.2 69.76l-.86.34-11.63 4.92-.32.14-.81.68zm5 .14 9.55 21.92c-1.4-.28-5.06-.7-5.06-.7l-7.16-20.1z"/><path fill="#311d00" d="m290.76 108.37.26.04.97.14 1.8.17.58.05.79.07a24 24 0 0 1 5.28.5 19 19 0 0 1 3 .65 4.8 4.8 0 0 0 6.36-4.3c.23-2.61-1.27-5.7-4.12-6.1l.2.05c-2.45-.83-9.5-1.85-14.86-2.36l-.49-.03-.32-.01-1.45-.08h-.2l.7 1.6c1.76 4.3 2.02 7.38 1.5 9.63zm14.69-7.04.1.03.1.03c1.47.2 2.34 2.1 2.2 3.67-.08.85-.59 2.78-3.5 2.78a65 65 0 0 0-13.05-1.56c0-2.96-1.8-7.17-1.8-7.17 3.9.38 13.88 1.53 15.94 2.23zm-34.21-27.46s-2.42.56-1.27 4.78l.37.95a13 13 0 0 0 3.29 4.52 14 14 0 0 0 .39 3.74l.07.25a10 10 0 0 0 2.08 4.17c2.8 3.23 5.96 1.41 5.08-2.49-.77-3.44-2.28-4.71-3.8-6.22.29-6.11-3.5-10.5-6.21-9.7m6.42 17.95a9 9 0 0 1-2.72-6.2 4.2 4.2 0 0 1 2.72 6.2m-3.53-9.05c-1.43-.9-3.23-4.4-3.28-6.58 3.35.04 4.31 4.92 3.28 6.58"/><g fill="#fff"><path d="M273.2 72.05c-1.73-.72-5.97-.31-4.92 4.58a6 6 0 0 0 .38 1.17l.85 2.11 3.3 8 .1.28 5.5 12.8a29 29 0 0 1 1.26 4.64h9.35s-.18-2.4-2.3-7.73c-1.58-4.03-7.05-16.51-8.17-19.1-1.27-2.96-2.95-5.76-5.35-6.75m4.25 11.52c1.51 1.5 3.03 2.78 3.8 6.22.88 3.9-2.28 5.72-5.09 2.5a10 10 0 0 1-2.07-4.18l-.07-.25a14 14 0 0 1-.4-3.74 13 13 0 0 1-3.29-4.52l-.37-.95c-1.14-4.22 1.28-4.78 1.28-4.78 2.71-.8 6.5 3.59 6.21 9.69z"/><path d="M270.85 76.2c.04 2.17 1.85 5.66 3.3 6.57 1.02-1.65.06-6.53-3.3-6.57m4.1 9.42a9 9 0 0 0 2.71 6.2 4.2 4.2 0 0 0-2.72-6.2m1.62 16.26c-.9-2.35-7.86-18.41-9.55-22.34a11 11 0 0 1-1.11-4.94c.03-.56.13-.54.13-.54l-2.95 1.54c-2.11 2.67.7 9.7.7 9.7s2.1 6.6 4.78 13.2c7.02-1.82 13.15 10.91-.33 12.05 1.22 5.15 12.84 2.99 8.34-8.67"/><path d="m264.1 99.35 2.53-.47-4.81-13.44s-2.06-4.69-.8-8.9l-2.16 1.02s-1.37 2.63.14 7.17c1.97 5.98 5.1 14.62 5.1 14.62m12.93 13.48c9.37.67 11-3.36 11-3.36-3-.06-8.6-.06-8.6-.06-.15 1.84-2.4 3.42-2.4 3.42M167.9 160.18c1.55-.14 3.32 1.37 3.32 1.37l3.37 3.7 12.61-20.53c1.88-2.95 4.64-6.56 5.14-7.26l.07-.1s-1.53-3.2-2.41-5l-.37-.74c-.04-.07-.04-.14-.08-.2a6 6 0 0 1-.23-.69 4.4 4.4 0 0 1 .02-2.62c.07-.08.04-.06.01-.03a74 74 0 0 0-6.45 8.34 921 921 0 0 0-15 23.77zm164.98 26.53a5.4 5.4 0 0 1 3.09 1.25s9.2-1.34 11.94-2.1c0 0-11.37 1.13-15.03.84zm-62.07 27.77a57 57 0 0 1-.18 7.3l40.32 6.7s-2.25-5.2-2.96-7.21zm52.79 13.3 10.82-2.25s2.95.2 1.83-3.6c0 0-5.91.1-15.32-.05zm-49.02-91.18 24.33 57s4.14-.47 7.6-1.09c0 0-23.46-55.62-25.05-58.85 0 0-4.25.1-6.87 2.94zm39.37 92.91s6.32-.83 7.59-1.4c0 0-1.5-3.37-3.58-8.27-1.9-4.47-4.3-10.2-6.57-15.92l-.1-.26s-6.56.96-7.88 1.13l.14.34c.63 1.52 3.4 8.2 5.94 14.22a245 245 0 0 0 4.46 10.17zm13.49 10.55-7.6 1.4s9.95 17.09 25.21 24.97l.08.04s-.42-7.02-.7-9.55l-.28-.2a68 68 0 0 1-16.72-16.66zm51 29.22s1.98 5.91-19.67 8.72c0 0 12.92-1.84 16.44-6.19 0 0 3.37-2.8-3.51-4.36-6.7-1.5-7.73-.7-14.19-3.5 0 0 .41 6.32.28 7.87a26 26 0 0 0 6.6 1.11s.13-1.96-5.34-3.66c0 0 23.6 2.26-1.26 7.6a41 41 0 0 1-.56 8s12.88-3.38 16.86-4.5c4.5-1.26 13.21-5.33 4.35-11.1zm-129.1-31.53-11.43-25.81s-4.92-.89-7.4 3.05c7.33 16.03 9 19.97 10.4 23.04a32 32 0 0 0 8.42-.28m-16.72-38.23-35.1-75.42a1.3 1.3 0 0 0-1.2-.54 5.2 5.2 0 0 0-4.1 2.52 4.5 4.5 0 0 0-.58 4.3c.02.04 17.54 36.72 32.14 68.64a42 42 0 0 0 8.84.5"/><path d="M138.84 225.44a7.5 7.5 0 0 0-.1 4.1 3.1 3.1 0 0 0 1.76 2.11c.04.03 89.22 14.63 89.22 14.63a93 93 0 0 0 20.17 1.6l2.72-.06a49 49 0 0 0 5.39-.46c25.28-2.55 57.28-6.62 77.97-11.55 0 0 4.04-.23 4.44-3.44.09-.71.7 3.17.7 3.17 1.4.42 2.21 2.79 2.26 3.25 3.7 13.32 4.09 32.98 4.13 33.92 0 0-.07 6.46-1.05 8.43-1.17-1.67-3.5-1.22-3.5-1.22-33.56 8.58-72.33 2.9-87.52-29.62 0 0-4.72.05-7.12 3.28 9.78 21.66 27.4 30.29 42.3 34.22 16.44 4.34 35.92 4.07 54.13-.61 2.95-.98 2.28-2.82 2.28-2.82 2.66 4.21 6 1.8 6 1.8a4.1 4.1 0 0 0 2.06-3.57c1.86-29.85-8.98-70.99-20.8-92.78a5 5 0 0 0-5.26-.68 4.6 4.6 0 0 0-1.78 1.37l-.1.7.59 2.48s-1.96-1.94-4.07-1.65c-17.55 3.12-60.18 9.5-87.36 9.85-.37.01-9-.09-14.97-.84-11.74-1.48-18.73-4.75-27.15-11.3-7.43-7.78-21.9-23-24.57-26.57-1.27-1.47-3.79-.63-4.92.26a4.16 4.16 0 0 0-.89 5.82c6.11 6.69 21.3 21.14 21.45 21.28 13.71 14.89 27.9 17.8 40.32 18.49 7.35.5 17.04.58 17.14.57 22.87-1.37 60.39-5.98 82.8-10.49a3.8 3.8 0 0 0 2.83-3.24 6 6 0 0 1 .27 2.9c2.12.43 3.27 2.92 3.33 3.13l-.03-.1c2.21 5.57 6.63 19.57 6.7 19.72 0 0 1.67 6.9.96 8.08 0 0-1.25-1.86-3.1-1.58l-.07.02-.07.03-5.05.9c-24.41 4.41-49.67 8.95-79.18 11.07-.16.03-7.72 1.3-21.56-.76l-90.5-15.54-.38-.07c-.09-.11-.49.7-.8 1.81z"/><path d="m142.68 209.04.04.03.05.03 15.5 9.51 1.82 1.09v.02l4.99 3.06c3.68 2.45 8.08.48 10.38-2.6 2.04-2.73 2.82-6.65-1.34-10.59 0 0-.73-.95-4.3-2.95a775 775 0 0 1-20.4-12.28 8 8 0 0 1-2.88-2.82c-.7 1.22-2.3 3.86-5.58 8.47q-2.15 3.05-1.5 5.45a6.4 6.4 0 0 0 3.22 3.6zm9.42-1.82c.5-1.34 1.5-3.69 5.83-3.97h.04l.04-.01a7.4 7.4 0 0 1 7.66 5.48 8.6 8.6 0 0 1 6.35 2.01c4.34 4.26 1.37 8.13 1.35 8.17-.04.04-3.64 4.98-10.15 1.1a6 6 0 0 1-2.15-2.21v.01a13 13 0 0 1-.8-1.72c-5.52.85-7.62-3.29-7.64-3.33a6.8 6.8 0 0 1-.53-5.52zm28.66 4.88s3.14-5.29-2.68-9.7c-3.23-2.46-10.73-7.37-16.43-11.04l-1.34 1.3s12.64 8.4 15.88 10.58c3.72 2.5 5.16 5.67 4.57 8.86"/><path d="M150.4 192.88c5.45 3.42 23.24 13.88 23.24 13.88s4.8 3.05 5 6.9c1.46-4.12-1-7.16-3.46-8.95l-16.55-11.07c-3.09.85-9.63-2.58-9.39-6.83-1.65 1.41-1.96 4.13 1.16 6.08zm20.93 25.37.87-.14c2.45-3.56-1.35-8.44-6.23-8.28a5.6 5.6 0 0 1-1.99 3.53c.71 3.77 3.1 5.45 7.35 4.9z"/><path d="M161.17 214.61a6.75 6.75 0 0 0 9.84 4.73c-2.4.38-7.34.23-8.13-5.45-3.6 1.32-10.01.3-9.45-6.72-1.92 5.17 3.2 8.84 7.74 7.45zm176.48-24.53c1.76 3.4 2.45 5.54 3.05 6.86-.24.14 2.63-.47 5.48-1 3.98-.75 6.85-1.48 9.38-2.1a17 17 0 0 0 3.4-1.16 3 3 0 0 0 1.07-.63 3.2 3.2 0 0 0 .92-3.06 3.46 3.46 0 0 0-3.13-3.17s-.58.07-1.37.18a24 24 0 0 0-2.76.57 257 257 0 0 1-16.04 3.5zm12.31 33.1c2.95-.27 15.74-3.5 15.74-3.5 2.44-.04 2.53 1.59 2.53 1.59-4.92 1.84-17.52 4.46-17.52 4.46.56 2.39 1.78 7.02 1.78 7.02 14.9-2.66 18.13-4.3 18.13-4.3 4.36-1.82 2.66-6.93 2.66-6.93-1.68-5.9-9.41-3.24-9.41-3.24-3.66.85-14.62 2.96-14.62 2.96l.7 1.96z"/><path d="M374.3 219.03c2.79 3.99 1.7 10.06-2.5 11.42 0 0 4.12 20.8 5.24 32.22a35 35 0 0 1 .04 3.85c4.5.94 7.13 4.07 7.13 5.76 2.19-13.11-5.49-51.06-15.37-78.74-2.72-10.21-8.62-8.95-8.62-8.95 3.23.98 4.97 6.42.18 9.93a146 146 0 0 1 6.32 20.94c.3 0 .5.1.77.12a8.5 8.5 0 0 1 6.8 3.45m-109.5-60.36a56 56 0 0 0-.91 9.41s13.05 17.35 31.45 23.4h.02l-3.8-9.28-.17-.09c-1.64-.74-14.7-7.08-26.6-23.45zm41.39 27.9 2.38 5.47s11.4-1.25 16.44-2.52a2.5 2.5 0 0 1 2.25-2.25 95 95 0 0 1-21.07-.7m-168.24 21.36-11.8 18.02a2.4 2.4 0 0 0-.3 2.56 5.4 5.4 0 0 0 4.33 2.67 3.2 3.2 0 0 0 3.07-1.39l11.36-16.88s-5.93-3.56-6.67-4.98zm130.8-100 1.38-.28c2.92-.46 3.7-2.23 3.47-3.76a4 4 0 0 0-4.61-3.02c-22.33 3.6-48.15 10.26-60.62 15.47a62 62 0 0 0-10.33 5.14c.78.44 1.29.37 2.1 2.32.45 1.1 2.14 4.56 2.14 4.56a40 40 0 0 1 11.43-5.94c16.93-6.87 37.19-10.92 55.05-14.5m-116.61 78.14-.06.06c-1.06 1.26.7 3.07 1.07 3.42 1.6 1.55 4.15 2.53 5.37 1.56l1.24-1.96 7.81-12.36a49 49 0 0 1-5.85-6.35c-5.9 9.57-8.32 13.56-9.16 14.93l-.37.63zm139.18-79.79a66 66 0 0 1 13.05 1.56c2.9 0 3.42-1.92 3.49-2.78.14-1.57-.73-3.47-2.19-3.67l-.1-.03-.1-.03c-2.06-.7-12.05-1.85-15.95-2.22 0 0 1.8 4.2 1.8 7.16z"/><path d="M303.45 109.98a19 19 0 0 0-3-.66 18 18 0 0 0-2.61-.19c5.86 8.03 21.19 3.28 12.92-9.84l-14.48-26.56-5.9 2.54 10.12 22.76a32 32 0 0 1 6.18 1.12c3.78 1.1 4.74 6.43 2.15 9.19a5.9 5.9 0 0 1-5.38 1.62z"/><path d="m298.12 97.9-9.56-21.93-2.66 1.14 7.16 20.1s3.65.42 5.06.7zM160.97 211.06a5 5 0 0 1-1.84-.27 10 10 0 0 0 .23 2.13c3.4.53 5.07-1.62 5.27-3.2l-.28-.03c.13-2.18-1.62-4.3-4.04-5.07a11 11 0 0 0-1.2 4.9 6 6 0 0 0 1.93.56 8 8 0 0 0-.07.97zm-4.05 1.13c.23.1.36.3.58.38a10 10 0 0 1-.25-2.51c-.43-.3-.77-.41-.98-.8v-1.17a7 7 0 0 0 .93.65 9 9 0 0 1 1.05-4.31 4.6 4.6 0 0 0-3.59 1.22s-1.12 4.63 2.26 6.53zM279.87 74.77h-1.35a12 12 0 0 0-1.2-1.47q-.2-.22-.41-.4l-.41-.37a7 7 0 0 0-.82-.6 7 7 0 0 0-1.73-.81 8 8 0 0 0-2.34-.36 5 5 0 0 0-.86.09l-.32.06a5 5 0 0 0-.68.2h-.02a6 6 0 0 0-.8.35l-1.56.72A134 134 0 0 0 253.64 53a137 137 0 0 0-17.12-16.66C206.96 12.26 165.6-.62 115.9 6.65a161 161 0 0 1 33.23-4.48c40.42-1.18 81.43 13.15 111.6 45.96a150 150 0 0 1 12.34 15.31 56 56 0 0 0 1.56 2.46l1.34 2.03a55 55 0 0 1 2.25 3.75c.5.9 1.05 1.9 1.64 3.09z"/></g><path fill="#311d00" d="M267.37 72.18h-1.1v.55l-3.89 1.95h-12.64C234.44 48.76 204.4 22.23 164.6 12a143 143 0 0 0-59.9-2.2l11.2-3.16c49.7-7.26 91.06 5.63 120.62 29.71a134 134 0 0 1 30.85 35.83"/><path fill="#311d00" d="M254.7 85.86c-.67-1.83-.98-2.52-1.83-5.48-1.14-4 .43-4.07 2.11-4.2a15 15 0 0 1 2.77.13 6 6 0 0 1 2.02-2.21l-.29.11c-6.44-.24-6.32-.3-6.33-.3a5.7 5.7 0 0 0-5.08 2.32c-2.22 3.47.6 9.24.8 9.75 0 0 4.1 11.77 5.36 15.44l2.46-.48-6.06-16.76c-2.39-5.66.28-7.77.28-7.77a10 10 0 0 0 .27 5.81c.78 2.48 3.43 9.73 5.62 15.31a74 74 0 0 1 1.16 3.16q1-.19 1.97-.4c-1.87-5.62-4.43-12.23-5.23-14.42z"/><path fill="#311d00" d="M270.57 69.64s-2 .5-3.66.99L259.9 74l-.13.07a6 6 0 0 0-2.01 2.22 8 8 0 0 0-.64 1.46 11.4 11.4 0 0 0 .25 6.78 155 155 0 0 0 3.27 9.85 124 124 0 0 0 2.35 5.9s6.18-1.56 8.57-.58c0 0 5.05 1.84 2.8 6.47 0 0-.42 2.38-8.14 3.37a10 10 0 0 0 .34 1.15c.5 1.4 1.66 3.58 4.15 3.78a75 75 0 0 0 11.24 0c1.49-.21 7.54-.64 8.81-6.11.53-2.25.26-5.34-1.5-9.64l-.7-1.6-8.31-19.32a14 14 0 0 0-1.31-3.24 8.7 8.7 0 0 0-8.38-4.92zm-11.7 7.92 2.15-1.04c-1.26 4.22.8 8.9.8 8.9l4.82 13.45-2.53.47s-3.13-8.64-5.1-14.62c-1.5-4.54-.14-7.16-.14-7.16m9.36 32.98c13.49-1.13 7.35-13.87.33-12.04-2.68-6.6-4.78-13.21-4.78-13.21s-2.81-7.03-.7-9.7l2.95-1.54s-.1-.01-.13.54a11 11 0 0 0 1.11 4.94c1.7 3.93 8.65 20 9.56 22.34 4.5 11.66-7.12 13.82-8.34 8.67m8.8 2.28s2.26-1.58 2.4-3.42c0 0 5.61 0 8.6.06 0 0-1.63 4.03-11 3.36m1.52-34.04c1.12 2.6 6.58 15.07 8.18 19.1 2.11 5.34 2.3 7.73 2.3 7.73h-9.36a29 29 0 0 0-1.27-4.63l-5.48-12.8-.1-.28-3.3-8-.86-2.11a6 6 0 0 1-.38-1.18c-1.05-4.9 3.2-5.3 4.92-4.58 2.4.98 4.08 3.8 5.35 6.75"/></svg>