<svg xmlns="http://www.w3.org/2000/svg" xml:space="preserve" viewBox="0 0 193.89 148.42"><path fill="#b0b7bc" d="M170.95 47.46s2.38-2.05 4.88-2 4.23.87 5.17 1.88c0 0 2-.28 4.16.32s5.2 2.37 6.4 4.45a6.7 6.7 0 0 1 .08 6.72s.41 1.54-.6 3.45c-1.01 1.9-2.67 2.9-2.67 2.9s-1.14 2.82-4.1 4.13c-2.97 1.32-6.87-.17-6.87-.17s-2.2.43-3.87.43a15 15 0 0 1-4.74-1.06s-1.99 2.92-2.54 3.61c0 0 2.71 2.37 5.68 3.3s5.3 1.35 6.66 2.32c1.35.98 1.87 1.94 1.87 1.94s2.07-.33 4.06.14a11 11 0 0 1 5.85 4.12c1.52 2.07 2.46 4.74 1.82 7.28s-2.09 3.47-2.09 3.47-.7 2.34-2.15 3.77c-1.44 1.45-3.5 1.55-3.5 1.55s-1.12 1.5-4.04 1.97-5.02-1.15-5.02-1.15-2.3.27-5.45-.71c-3.14-.97-5.28-4.18-5.28-4.18s-2.05-.99-5.82-1.16-12.2-1.87-15.95-4.05c0 0-2.2 1.07-8.9 1.41 0 0-.99-3.01-2.93-4.53 0 0-5.74 3.19-7.56 4.03s-5.2 2.32-8.13 2.5c0 0-.77 4.8-2.17 7.38a12 12 0 0 1-6.36 5.26s3.3 1.18 5.05 3.76c1.73 2.6 2.33 5.43 1.14 7.72-1.19 2.28-2.53 2.9-2.53 2.9s-.68 2.32-3.35 3.52c-2.68 1.2-6.05.56-6.05.56s-1.86.98-4.41.96c-2.56-.02-5.76-2.2-5.76-2.2s-8.39.77-10.88.56-5.44-1.23-6.85-4.91c0 0-1.53 1.28-3.82 2.38s-6.62 3.23-9.73 5.44l.1 1.66s4.55 1.71 4.84 6.37-2.24 6.4-2.97 6.89c0 0-.97 2.1-3.04 3.16-2.08 1.05-4.37.57-4.37.57s-5.12 2.27-9.02-1.46-2.8-7.75-2.76-8.73c.04-.97.33-9.52.29-9.91 0 0-1.94-2.6-1.52-5.52.43-2.92 2.67-4.75 3.73-5.63a9 9 0 0 0 2.96-4.62c.64-2.24.68-6.83.9-8.52.21-1.7.3-4.54.3-4.54s-7.67-2.11-11.66-6.56c-3.98-4.45-5.09-7.67-6.1-12.08-1.02-4.4-1.74-8.86-5.79-11.35 0 0-2.65.76-5.7-.47s-4.92-3.69-6.86-6.1c-1.95-2.42-8.9-3.52-11.36-3.65 0 0 5.2-5.76 12.25-8.22 7.03-2.45 10.38-1.48 12.71-.17a10.7 10.7 0 0 1 5.03 6.53 24 24 0 0 0 7.72 5.68 25 25 0 0 1 5.64 10.97c1.02 4.03 2.3 8.91 10.38 10.68 0 0 4.8-4.79 6.61-5.98 1.83-1.18 4.11-1.85 4.77-2.05s3.74-1.2 3.74-1.2 4.84-3.94 5.62-4.73c0 0 1.8-3.2 2.95-5.07 1.15-1.86 2.94-3.7 2.94-3.7s-2.35-4.38-2.22-9.15c0 0 1.15.52 2.19.67 0 0-.07-3.54 2.22-6.8 2.29-3.27 4.6-5.31 4.6-5.31s-.18-4.3 2.43-8.38c0 0-1.99-3.18-2.16-5.21 0 0 3.3-.3 5.8-1.02s3.74-1.22 5.01-2.76c1.27-1.52 4.32-5.25 8.18-7.07a23.5 23.5 0 0 1 11.2-2.24s-1.88-1.62-3.96-2.3c0 0 3.55-2.61 10.55-3.36 0 0 .05-3.54.8-5.4 0 0 9.3 6.35 13.95 8.17 4.67 1.83 8.05 2.42 10.47 3.61 2.4 1.18 4.12 3.37 4.51 4.71 0 0 2.6 1 4.6 2.4s3.14 4.77 3.14 4.77 3.77 1.5 7.67 3.88 8.68 7.37 8.68 7.37-3.02 1.33-5.58 5.03c0 0-1.18 4.1-3.12 6.13"/><path fill="#fff" d="M165.5 49.18s1.75-.04 3.29.39 2.52.94 2.52.94 1.13-.72 1.71-1.22c.57-.51 2.3-1.4 3.83-1.15a4.6 4.6 0 0 1 2.92 1.82s1.31.08 2.53 0a8.4 8.4 0 0 1 5.27 1.8c1.8 1.43 3.44 3.55 1.25 6.38 0 0 .47 1.79-.17 3.08-.65 1.3-2.32 2-2.32 2s-1.02 3.06-3.42 3.84c-2.4.8-5.42-.68-5.42-.68s-2.82.68-4.87.54c-2.04-.15-4.27-1.87-4.27-1.87s-.5.3-.96.97c-.47.68-3.98 5.61-4.8 6.48 0 0 3.44 3.34 6.84 4.74s5.13 1.62 6.03 1.86a5.8 5.8 0 0 1 3.58 3.52s2.2-.55 3.62-.43c1.44.1 2.83.39 5.34 2.97s1.94 4.91 1.54 5.98-1.88 2-1.88 2-.13 2.16-1.42 3.31c-1.29 1.14-3.04.95-3.04.95s-.68 1.3-2.47 1.85c-1.8.54-3.73-.4-4.64-1.12 0 0-3.68.33-6.08-.86-2.4-1.18-3.53-3.5-3.53-3.5s-4.07-1.66-8.3-1.7c-4.23-.03-12.42-2.32-15.1-4.28 0 0-4.07 1.86-7.35 1.9 0 0-1.02-3.06-4.56-5.2 0 0-7.61 4.22-10.33 5.47-2.73 1.26-7.52 1.71-8.22 1.79 0 0 .3 1.15-.06 3.01-.37 1.87-1.5 5.53-2.47 6.74-.98 1.22-3.66 2.72-5.24 3.3-1.57.57-3.54 1.08-5.2 1.9-1.64.82-3.65 2.5-4.53 3.3 0 0 2.54.63 3.3.6s2.13-.79 3.14-1.18c1-.4 3.83-.93 6.09.75s3.44 3.87 3.36 5.53c-.06 1.64-1.13 2.84-2.71 3.66 0 0-.47 2.32-2.44 3.04-1.98.71-5.26.06-5.26.06s-1.56 1.01-3.42 1.12c-1.86.1-4.37-1.5-4.76-1.72-.4-.22-.8-.43-1.48-.43s-8.06.61-10.35.61a5.2 5.2 0 0 1-4.84-2.9c-.97-1.8.4-4.66 1.26-5.8.85-1.16 2.22-2.74 2.4-3.06s.21-.86-.25-1.18-1.97-1.06-1.97-1.06-2.26 4.54-3.12 6.08a11.7 11.7 0 0 1-4.12 4.58c-2.16 1.33-6.71 3.34-9.1 4.8-2.41 1.47-3.84 2.83-3.84 2.83s.03 4.32.16 4.85c0 0 2.16.43 3.03 1.18a4.7 4.7 0 0 1 1.68 3.65c-.03 1.69-.26 3.67-2.36 4.45 0 0-.58 2.18-2.23 2.83s-3.33.07-3.33.07-2.26 1.14-4.62.65a5.9 5.9 0 0 1-4.38-5.42c-.03-2.47.4-11.43.4-12s0-1.19-.43-1.97c-.43-.8-1.44-2.76-1.18-4.02.25-1.25 1.54-2.72 2.72-3.73s2.62-2 3.33-4.01c.72-2 1.33-4.76 1.4-6.88.07-2.11.33-9 .8-10.86 0 0-8.9-1.97-12.91-6.56s-4.7-8.24-5.85-13.15-2.6-8.67-7.28-11.11c0 0-2.5 1.22-5.72-.18-3.23-1.4-4.99-5.06-6.7-6.35-1.73-1.29-6.4-2.03-7.34-2 0 0 5.57-3.87 9.41-5.02s8-1.5 10.61.58c2.62 2.07 3.01 5.66 3.01 5.66s5.38 2.22 8.5 6.05c3.12 3.84 4.04 7.42 4.65 9.82s2.5 7.2 5.54 9.32a18.4 18.4 0 0 0 8.44 3.14s5.24-5.47 7.03-6.65 3.8-1.65 4.65-1.9 3.84-1.24 3.84-1.24 5.28-4.54 6.3-5.32c0 0 3.05-5.3 3.91-6.56s3.17-4.2 3.17-4.2-2.11-2.41-2.08-5.54c0 0 1.24.25 2.03.17 0 0-1.04-1.75-.53-4.23.5-2.47 3.18-6.48 6.77-9.57 0 0-.14-2.61.6-5.08.76-2.48 2.29-4.45 2.29-4.45s-1.64-2.03-1.9-3.61c0 0 3.1-.3 5.25-1 2.14-.73 3.87-2.25 3.87-2.25s4.11-5.68 9.13-7.48c5.02-1.79 10.14-1.23 10.14-1.23s2.54-1.66 3.58-2.02c0 0-1.99-2.24-3.64-2.93 0 0 3.87-1.17 7.43-.9 0 0 .07-2.48.47-3.92 0 0 6.22 4.49 9.05 5.74s8.24 3.04 10.07 3.62c1.83.57 4.93 1.76 5.58 5.07 0 0 3.02 1.27 4.2 1.92a7.4 7.4 0 0 1 2.65 2.83c.25.64.5 1.44.8 1.93.32.5.85.86 1.35 1.04s5.48 2.4 7.78 4.12 5.42 4.7 5.42 4.7-3.11 2.48-3.88 3.62c0 0-.93 3.12-2.43 5.34a9 9 0 0 1-3.76 3.09z"/><path fill="#0076b6" d="M130.84 9.78c-.2 1.62 1.05 3.04 1.05 3.04-1.81-.85-6.76-1.05-6.76-1.05 2.29.86 3.9 2.77 3.9 2.77-1.9 0-4.95 1.81-4.95 1.81 2.48 0 3.52 1.33 3.52 1.33-2.28 1.05-7.25-.48-12.84.38s-9.24 5.24-9.24 5.24c2.38-.86 3.9-.1 3.9-.1-1.9.1-6.85 3.24-8.75 4.28-1.91 1.05-4.67.95-4.67.95.66 1.43 2.47 1.82 2.47 1.82-2.47 1.7-3.8 5.7-3.8 5.7 1.42-1.62 3.52-1.52 4-.56.47.95-.19 2.7-2.1 4.09-1.54 1.11-5.32 4.28-7.33 7.14s-2.3 5.1-2.3 5.1c2.38-.98 3.2-.13 3.02 1.05-.32 2-3.85 3.55-3.85 3.55.86 1.43 4.09 1.53 4.09 1.53s-3.81 4.18-5.34 6.47-4.09 6.86-4.56 7.52c-.48.67-6.1 5.15-6.76 5.81s-6.39 2.1-7.81 2.76c-1.43.67-6.28 5.23-7.9 7.33q-.16.19-.28.38c-2.31-.17-7.7-.87-11.33-3.88-4.75-3.93-5.86-8.6-6.67-11.8a21 21 0 0 0-4.01-7.98c-1.86-2.37-7.56-5.2-8.53-5.8 0 0-.7-4.01-2.66-5.34-2.11-1.43-4.89-1.14-6.06-.84a14 14 0 0 0-1.37.45c1.1.1 2.1.35 2.92.56 2.69.7 2.86 2.59 2.86 2.59s-3.46-3.76-10.44-1.03c.55.09 2.58.5 3.62 1.85 1.17 1.55 1.51 2.68 4.85 4.53 2.98 1.65 5.25-.18 5.25-.18s5.09 2.63 6.75 5.56a40 40 0 0 1 3.93 11.2c.74 3.93 2.3 6.97 5.78 10 3.1 2.71 9.72 4.53 12.8 5.12l-.27.9c-.76 2.46-.76 6.94-1.05 11.8-.28 4.85-1.32 7.6-2.47 9.7-1.14 2.1-4.66 4.1-4.95 5.33-.28 1.25 1.34 2.58 1.52 4.48.2 1.9-.28 9.9-.28 11.04 0 1.15-.29 2.57.38 3.62a3 3 0 0 0 3.14 1.43c1.43-.19 2-1.05 2-1.05s2.1.86 3.05.28c.95-.57.85-2.46.85-2.46s1.43 0 1.8-.48c.4-.48.49-2.2-.18-3.05-.66-.86-4-1.14-4-1.14-.18-.39-.76-6.86-.28-8.29.47-1.42 4.28-3.61 7.24-5.33 2.95-1.7 6.94-3.14 8.37-4.66 1.16-1.24 4.23-7.39 5.33-9.64.07-.14 3.74-9.18 12.52-13.17l.06-.05c-6.42 5.7-6.97 7.85-6.97 7.85s4.28-4.06 11.7-7.2c4.95-2.1 8.74-3.01 11.21-3.25-6.13 1.95-11.36 4.91-16.63 8.08-5.38 3.25-8.8 7.48-9.01 7.73 4.75 1.89 4.39 3.92 3.97 5.08-.47 1.33-3.42 4.29-3.9 5.61-.47 1.34-.29 2.77 2.1 2.96 2.38.19 8.95-.67 11.04-.57s3.43 2.19 5.42 2.19c2 0 2.95-1.34 2.95-1.34 1.43.48 4 .76 5.05.29s.86-2.47.86-2.47c1.71-.3 2.76-1.15 2.47-2.1a5.3 5.3 0 0 0-2.38-3.05 3.9 3.9 0 0 0-3.8-.09c-1.05.47-2.48 1.33-4 1.14-1.53-.18-7.24-1.43-7.24-1.43 1.52-4.18 6.38-7.23 8.57-7.99 2.19-.77 6.38-2.1 8-3.43 1.61-1.33 2.56-6.1 2.66-7.04.1-.96-.76-4-.76-4 1.72-.29 6.18-.2 9.61-1.53 2.02-.79 5.83-2.83 8.62-4.37-6.12-3.53-18.32-2.63-18.32-2.63 12.83-2.67 21.7.72 21.7.72 4.19 1.24 6.28 5.24 6.28 5.24 2.66-.38 6.1-2 6.1-2 7.35-3.97 15.5-12.19 15.5-12.19 2.96-2.66 5.91-8.08 7.33-9.33 1.44-1.24 3.24-.95 3.24-.95s1.34 1.81 3.72 1.9c2.37.1 4.47-.66 4.47-.66s3.53 1.43 4.76.76c1.24-.66 1.9-3.24 1.9-3.24s2-.37 2.1-1.33c.1-.95-.67-2.47-.67-2.47s1.34-.86 1.52-1.43c.2-.57-.47-1.33-1.04-1.81-.57-.47-2.67-1.62-3.71-1.43-1.05.2-4.29-.1-4.29-.1s-.47-1.32-1.33-1.61c-.85-.29-1.8.1-2.39.67-.56.57-2.27 1.7-3.13 1.7s-1.52-.85-4.19-1.32-4.28.76-4.28.76.24-1.97.1-3.34c-.01-.12-.56.02-.58-.1-.07-1.3 0-3.23 0-3.23-.29.76-2.8 4.2-5 3.06-2.19-1.15-1.57-5.24-1.57-5.24 3.43-2.1 8.3-1.81 8.3-1.81.93 2.09-.3 4.18-.3 4.18 4.09-1.33 5.05-6.37 5.53-7.42.47-1.05 2.65-2.28 2.65-2.28s-2.18-2-4.47-3.43a58 58 0 0 0-7.24-3.52c-.75-.29-1.7-1.91-1.9-2.47-.19-.58-.76-2.3-2.18-3.06-1.43-.75-5.52-2.47-5.52-2.47s.56-.86-.39-2.38-4.38-2.19-10-4.1c-5.6-1.9-9.42-5.33-9.42-5.33zm22.42 19.44c.85 0 2.62 1.14 3.85 1.22 0 0-1.08 1.47-1.23 1.85s.46 1.15.46 1.15-2.45-1.84-3.22-2.38c-.78-.54-3.7-1.16-3.7-1.16s3-.69 3.84-.69zm-31.67 8.72a17 17 0 0 1 3.04.28c8.47 1.54 12.23 7.9 12.23 7.9s-6.37-5.13-13.15-5.85c-6.8-.71-13.17 1.84-13.17 1.84s4.3-4.16 11.05-4.17m.96 7.8c4.5.01 7.85 1.42 7.85 1.42-6.03-.9-10.62.66-14.07 2.34-3 1.47-6.55 4.68-12.2 6.02-5.96 1.4-10.64-.74-10.64-.74 8.2-.29 12.08-2.6 20.2-6.91a19 19 0 0 1 8.86-2.12m7.9 6.22c3.65.01 6.7.89 8.78 1.95 3.98 2.04 3.62 5.31 3.55 5.75v.05s2.9-.58 4.94-1.82c.17-2.73 1.73-5.5 4.25-5.35 2.84.16 6.76 2.25 6.76 2.25-5.42 4.38-15.38 8.02-18.9 8.75 0 0 2.43-3.32-.94-6.95-2.72-2.92-11.9-4.73-20.65-1.45a25 25 0 0 1 12.22-3.18m30.3 22.48a82 82 0 0 1-6.48 6.03 72 72 0 0 1-8.52 5.8c5.66 2.7 12.35 3.04 15.45 3.37 3.61.38 7.33 2.09 7.33 2.09s.48 2.1 2.76 3.14c2.28 1.05 5.62.47 5.62.47s1.71 1.72 3.14 1.24c1.42-.47 1.52-2.38 1.52-2.38s1.8.95 2.76.29c.96-.67.67-3.33.67-3.33 1.14 0 2.47-.77 2.18-2-.28-1.24-1.71-3.05-3.23-3.9s-3.23-.1-4.57 0a3.1 3.1 0 0 1-2.76-1.62c-.28-.67-1.15-1.91-2.29-2.1a31 31 0 0 1-7.23-2.47c-2.1-.97-4.64-3.08-6.35-4.63"/></svg>