<svg xmlns="http://www.w3.org/2000/svg" overflow="hidden" viewBox="0 0 888 319"><defs><clipPath id="a"><path d="M196 202h888v319H196z"/></clipPath></defs><g clip-path="url(#a)" transform="translate(-196 -202)"><path fill-rule="evenodd" d="M367.62 475.11a5.3 5.3 0 0 1 2.02 4.44 5.5 5.5 0 0 1-.87 3.29 4.6 4.6 0 0 1-2.02 1.83 7 7 0 0 1-2.7.78q-1.36.13-2.7 0h-9.66v-11.98h8.4c2.62-.3 5.26.28 7.53 1.64m261.47 4.35-5.89 18.45h11.5l-5.41-18.74zM438.08 255.82a19.3 19.3 0 0 0-18.05 19.32v88.4a18.3 18.3 0 0 0 5.2 12.96 18.2 18.2 0 0 0 12.85 5.48 18.44 18.44 0 0 0 18.53-18.25v-88.69a19.3 19.3 0 0 0-18.53-19.22m480.29 224.6a13 13 0 0 0-4.44-4.05 16.3 16.3 0 0 0-8.11-1.74h-5.98v29.75h7.33a14 14 0 0 0 7.05-1.54 12 12 0 0 0 4.05-3.87 13 13 0 0 0 1.84-5.02 22 22 0 0 0 0-4.74 24 24 0 0 0 0-3.96 12.5 12.5 0 0 0-1.74-4.83m-659.05 9.08a37 37 0 0 0-2.22-12.84 29 29 0 0 0-6.37-10.15 28 28 0 0 0-9.65-6.57 32 32 0 0 0-12.65-2.41 31.5 31.5 0 0 0-13.13 2.41 28 28 0 0 0-9.65 6.57 30 30 0 0 0-6.27 10.15 37 37 0 0 0-2.22 12.84 36 36 0 0 0 2.22 12.85 30 30 0 0 0 6.27 9.66 29.5 29.5 0 0 0 9.65 6.67 33 33 0 0 0 12.65 2.32 34 34 0 0 0 12.64-2.32 29 29 0 0 0 9.66-6.67 29 29 0 0 0 6.37-9.66 36 36 0 0 0 2.7-12.85m60.52-191.75h-60.9v-28.99h74.8l-4.15-60.66H196v222.19h62.45v-71.97h61.39zm70.46 222.18a8 8 0 0 1-1.26-2.7 22 22 0 0 1-.58-3.67 27 27 0 0 1 0-3.77v-2.9a26 26 0 0 0-2.8-9.66 12 12 0 0 0-6.17-5.5 11 11 0 0 0 4.05-2.52 12 12 0 0 0 2.8-3.67 17 17 0 0 0 1.74-4.34q.57-2.33.58-4.74a16 16 0 0 0-6.08-13.14 18 18 0 0 0-6.28-3.28 28 28 0 0 0-7.62-1.06h-36v61.05h18.82v-21.25h9.65a8 8 0 0 1 4.44.96 7.5 7.5 0 0 1 2.41 2.8 12 12 0 0 1 1.16 3.77c0 1.45 0 2.9.48 4.35.49 1.45 0 3.19.49 4.73a40 40 0 0 0 1.06 4.64zm47.49-92.64c58.93-.64 106.22-48.92 105.69-107.9 3.84-40.21-15.42-79.12-49.71-100.42s-77.68-21.3-111.97 0-53.55 60.2-49.7 100.41c-.6 59.03 46.71 107.37 105.69 108zm79.72 77.28H490.5v-45.3h-18.82v61.05h45.84zm143.05 15.65-22.3-60.95h-18.34l-22.49 61.05h19.3l2.71-8.7h19.3l2.61 8.7zm52.02-89.94L645.8 314.36l60.62-106.26H640l-28.18 48.3-27.22-48.3h-69.21l61.87 107.23-65.54 114.96h67.57l31.75-56.52 32.44 56.52zm82.92 28.99h-17.76v32.65l-17.96-32.65h-19.3v61.05h17.86V486.7l18.72 33.33h18.34zm110.9-112.64a73.5 73.5 0 0 0-42.66-69.07l46.52-69.46H762.68v41.25h69.1l-44 63.66a48.2 48.2 0 0 1 28.95-8.12 44 44 0 0 1 32.38 11.72 44 44 0 0 1 14.05 31.47 42.4 42.4 0 0 1-13.78 31.27 42.4 42.4 0 0 1-32.36 10.94 57.9 57.9 0 0 1-55.5-39.8l-24.9 33.52a93 93 0 0 0 80.4 45.6c49.52 0 89.38-37.1 89.38-82.98m32.82 142.78a44 44 0 0 0-1.26-10.82 26 26 0 0 0-4.73-9.66 23 23 0 0 0-8.49-6.86 29 29 0 0 0-12.84-2.8h-30.6v61.05h27.22c4.69.11 9.37-.6 13.8-2.13a24.4 24.4 0 0 0 9.66-6.08 25 25 0 0 0 5.79-9.66 40 40 0 0 0 1.44-13.04m143.92 0c.08-4.39-.67-8.75-2.22-12.85a28 28 0 0 0-16.21-16.62 34.6 34.6 0 0 0-25.39 0 28 28 0 0 0-16.02 16.72 35 35 0 0 0-2.22 12.84c-.09 4.39.66 8.75 2.22 12.85a29 29 0 0 0 6.27 9.66 30 30 0 0 0 9.65 6.67 36 36 0 0 0 25.39 0 30 30 0 0 0 9.65-6.67 29 29 0 0 0 6.27-9.66 34 34 0 0 0 2.8-12.85zm.87-281.31H955.24l-33.4 121.23h43.34a42.4 42.4 0 0 1 37.07-13.9c20 .46 36 16.78 36.09 36.8 0 21.64-13.12 36.7-39.28 36.7a36.4 36.4 0 0 1-26.73-9.4 36.4 36.4 0 0 1-11.88-25.75l-43.43 6.85a80.14 80.14 0 0 0 80.11 68.88 78.7 78.7 0 0 0 59.51-20.48 79 79 0 0 0 25.53-57.57 67.7 67.7 0 0 0-30.6-57.97 77.2 77.2 0 0 0-72.3-10.14l9.66-38.06h88.31zm-23.74 267.98a10 10 0 0 0-3.96-2.61 10.3 10.3 0 0 0-7.82 0 9.5 9.5 0 0 0-3.95 2.6 14 14 0 0 0-3 5.03 23 23 0 0 0-1.25 8.4 23 23 0 0 0 1.25 8.4 15 15 0 0 0 3 5.13 10 10 0 0 0 3.95 2.51 10.3 10.3 0 0 0 7.82 0c1.5-.52 2.85-1.38 3.96-2.51a16 16 0 0 0 2.99-5.12 23 23 0 0 0 1.26-8.4c.09-2.86-.33-5.7-1.26-8.41a14 14 0 0 0-2.99-5.02m-824.1 0a10 10 0 0 0-3.87-2.61 13 13 0 0 0-3.96-.77q-2.03.06-3.95.77a10 10 0 0 0-3.96 2.6 15 15 0 0 0-3 5.03 23 23 0 0 0-1.25 8.4 23 23 0 0 0 1.26 8.4 17 17 0 0 0 2.99 5.13 11 11 0 0 0 3.96 2.51q1.91.7 3.95.77a13 13 0 0 0 3.96-.77 11 11 0 0 0 3.86-2.51 15 15 0 0 0 3.1-5.12 25 25 0 0 0 1.25-8.4 26 26 0 0 0-1.26-8.41 14 14 0 0 0-3.09-5.02"/></g></svg>