<svg xmlns="http://www.w3.org/2000/svg" xml:space="preserve" id="Layer_1" x="0" y="0" version="1.1" viewBox="0 0 130 54"><style id="style52" type="text/css">.st0{fill:#fff}</style><g id="g88" style="fill:#000"><g id="g68" style="fill:#000"><path id="path54" d="M4.2 51.4c-1 0-1.9-.2-2.5-.5S.6 50.1.4 49.5c-.1-.3-.2-.8-.2-1.2h3.2v.3c0 .1 0 .2.1.2.1.2.2.3.3.4s.3.1.6.1c.4 0 .7-.1.8-.4 0-.1.1-.2.1-.3v-.3c-.3-.3-.4-.4-.6-.5l-.6-.3c-.2-.1-.5-.2-.7-.2-.3-.1-.5-.1-.8-.2q-.6-.15-1.2-.6c-.4-.3-.7-.6-.9-1-.1-.2-.1-.3-.2-.5 0-.2-.1-.4-.1-.6s0-.4.1-.6c0-.2.1-.4.2-.6.2-.6.7-1 1.3-1.3s1.4-.5 2.3-.5 1.6.1 2.2.4 1.1.7 1.3 1.3c.1.2.2.4.2.6s.1.4.1.7h-3c0-.2 0-.4-.1-.6l-.3-.3c-.1-.1-.3-.1-.5-.1-.4 0-.6.1-.8.4 0 .1-.1.2-.1.3s0 .2.1.3l.3.3c.1.1.3.2.5.2.2.1.4.1.7.2.2.1.5.1.8.2s.5.2.8.3.5.2.7.4c.2.1.4.3.6.5s.3.4.4.6.1.4.2.6c0 .2.1.4.1.7s0 .5-.1.7c0 .2-.1.4-.2.6-.3.6-.8 1.1-1.4 1.4-.7.1-1.5.3-2.4.3" class="st0" style="fill:#000"/><path id="path56" d="M20.6 41.6h6.5v2.3h-3.6v1.3h3.6v2.2h-3.6v1.4h3.6v2.3h-6.5z" class="st0" style="fill:#000"/><path id="path58" d="M46.4 49.5H43l-.5 1.6h-3l3-9.5h4.3l3 9.5h-3zm-.6-2.1-1.1-3.7-1.1 3.7z" class="st0" style="fill:#000"/><path id="path60" d="M63.6 43.9h-1.9v-2.3h6.6v2.3h-1.9v7.2h-2.9v-7.2z" class="st0" style="fill:#000"/><path id="path62" d="M83.8 43.9h-1.9v-2.3h6.6v2.3h-1.9v7.2h-2.9v-7.2z" class="st0" style="fill:#000"/><path id="path64" d="M103.5 41.6h2.9v7h2.3v2.5h-5.2z" class="st0" style="fill:#000"/><path id="path66" d="M123.4 41.6h6.5v2.3h-3.6v1.3h3.6v2.2h-3.6v1.4h3.6v2.3h-6.5z" class="st0" style="fill:#000"/></g><g id="g76" style="fill:#000"><path id="path70" d="M129.9 12.6c0-5.5-4.5-10-10-10h-16.3V12h14c1.1 0 2 .9 2 2s-.9 2-2 2h-9.1v7.8h9.2c1.1 0 1.9.9 1.9 1.9 0 1.1-.9 1.9-1.9 1.9h-11.4L101 37h19c5.5 0 10-4.5 10-10 0-2.8-1.2-5.3-3-7.2 1.8-1.8 2.9-4.4 2.9-7.2" class="st0" style="fill:#000"/><g id="g74" style="fill:#000"><path id="polygon72" d="M90 2.6 84.8 12h4.5v25h10.4V2.6z" class="st0" style="fill:#000"/></g></g><g id="g86" style="fill:#000"><g id="g84" style="fill:#000"><path id="polygon78" d="M81.5 2.6H70.4L66.2 10 62 2.6H50.9l9.7 17.2L50.9 37h11.2l4.1-7.3 4.1 7.3h11.2l-9.7-17.2z" class="st0" style="fill:#000"/><path id="path80" d="M38.9 2.6c-9.5 0-17.2 7.7-17.2 17.2S29.4 37 38.9 37C48.3 37 56 29.3 56 19.8S48.3 2.6 38.9 2.6m3 24.3c0 1.6-1.4 2.9-3 2.9s-2.8-1.3-2.8-2.9V12.8c0-1.6 1.3-3 2.8-3 1.6 0 3 1.4 3 3z" class="st0" style="fill:#000"/><path id="polygon82" d="M10.6 37V25.9h9.5v-9.4h-9.5V12h11.6l-.6-9.4H.2V37z" class="st0" style="fill:#000"/></g></g></g></svg>