<svg xmlns="http://www.w3.org/2000/svg" viewBox="0 0 1300 533.06"><path fill-rule="evenodd" d="M941.4 469.14h-17v-15.88h17q4.1-.1 7.9 1.7c2 1 3.3 3.2 3 5.49a8 8 0 0 1-2.9 7q-3.8 1.8-8 1.7m-250.3-5.7-10 32.16h19.8l-9.4-32.16zm253.5 25.17h-20.2v19.58h18.8q4.7 0 9-2a8 8 0 0 0 3.7-7.89q0-9.69-11.3-9.69M549 456.55a10 10 0 0 0-5-1.2h-19.8v21.18h19a20 19.98 0 0 0 5.5-1.5q2.3-1 4-3.2 1.5-2.99 1.2-5.99a10 10 0 0 0-1.3-5.6 10 10 0 0 0-3.3-3.69Zm-359.4 6.8-10 32.16h19.8l-9.5-32.16Zm256.5-197.61V114.49a33 32.97 0 0 0-31.6-32.77 32.5 32.47 0 0 0-31 32.77v151.35a31.25 31.22 0 0 0 62.5 0zm650 197.6-10 32.18h19.8l-9.5-32.17zM90.9 428.49H0v26.77h29.3v77.63h32.3v-77.63H91zm16-171.43h105v-103.6H108V103.9h128L229 0H0v379.93h107Zm137 275.83-38.2-104.3h-31.5l-38.6 104.4h32.5l4.7-14.09H206l4.4 14.09zm170.4-157.85a183.7 183.52 0 0 0 181.2-184.62 181.15 180.97 0 1 0-362.3 0 183.7 183.52 0 0 0 181.1 184.72m9.9 53.35h-46l-15 61.34-14.9-61.34h-46v104.4h30.3v-67.04l18.1 67.04h24l18.7-67.04v67.04h30.5zm160.1 35.66a40 39.96 0 0 0-2-11.88 30 29.97 0 0 0-6.5-11.5 30 29.97 0 0 0-11.8-8.78 40 39.96 0 0 0-18-3.5h-54v104.4h32.2V501.3h19.1a60 59.94 0 0 0 16.6-2.3 40 39.96 0 0 0 13-6.8q5.5-4.79 8.4-11.58a40 39.96 0 0 0 3-16.49m160.8 68.74-38.6-104.3h-31L637 532.88h32.4l4.6-14.09h33.4l4.3 14.09Zm140.2-153.75-114.5-196.8L874.8 0H760.2l-47.6 81.92L666 0H547.3l106.1 183.52-113 195.9h115.1l55-95.9 55.6 95.6zM988 501.1a30 29.97 0 0 0-1.5-9.99 30 29.97 0 0 0-4.1-7.6 20 19.98 0 0 0-5.8-5.09 30 29.97 0 0 0-6.8-3.3q5.7-2.9 9.5-7.89 3.6-5.69 3.4-12.58a30 29.97 0 0 0-1.3-8.6 20 19.98 0 0 0-5.1-8.49 30 29.97 0 0 0-10.2-6.5 50 49.95 0 0 0-16.8-2.49H892v104.5h59.5q7.3 0 14.2-2 6.4-2 11.7-6a30 29.97 0 0 0 8.3-9.98q3-6.7 2.4-13.99m162.5 31.77-38.1-104.4H1081l-38.5 104.4h32.4l4.7-14.09h33.3l4.4 14.09zm2.7-148.66A142.6 142.46 0 0 0 1297 239.96a144 143.86 0 0 0-67.7-125.07l64-112.9H1091l-41.4 74.44h111.5l-56.6 97.6a77 76.93 0 0 1 74-2 77 76.93 0 0 1 40.6 50.95 68 67.93 0 0 1-5.3 46.56 70 69.93 0 0 1-53.8 37.16 80 79.92 0 0 1-46-8 76 75.93 0 0 1-42.3-68.93l-24.2 40.96V0H967l-42.4 71.73H967v307.6h80.1v-43.26a148 147.85 0 0 0 106.1 48.15m146.8 44.36h-35.3l-18.3 38.46-17-38.46h-36l36.8 65.64v38.36h32.2v-38.36z"/></svg>