<svg xmlns="http://www.w3.org/2000/svg" width="1300" height="470.55"><path fill="#FFF" fill-rule="evenodd" d="M106.741 43.978a4.1 4.1 0 0 1 0 2.515 2 2 0 0 1-.452.764c-.16.18-.365.316-.593.395a1.9 1.9 0 0 1-.594.1 2 2 0 0 1-.593-.1 1.3 1.3 0 0 1-.58-.395 2.2 2.2 0 0 1-.466-.764 4.4 4.4 0 0 1 0-2.515 2.2 2.2 0 0 1 .466-.763 1.6 1.6 0 0 1 .58-.395q.288-.095.593-.1.305.002.594.1c.223.09.425.224.593.395a2 2 0 0 1 .452.763m-80.656-.763a1.5 1.5 0 0 0-.594-.395 1.8 1.8 0 0 0-1.173 0c-.222.09-.424.224-.593.395a2 2 0 0 0-.452.763 4.1 4.1 0 0 0 0 2.515c.091.286.246.546.452.764.16.18.365.316.593.395.38.132.793.132 1.173 0 .232-.072.438-.21.594-.395.206-.22.365-.48.466-.764a4.4 4.4 0 0 0 0-2.515 2.2 2.2 0 0 0-.466-.777zm10.357-33.037a2.826 2.826 0 0 0-2.713 2.826v13.297a2.741 2.741 0 0 0 5.483 0v-13.24a2.91 2.91 0 0 0-2.77-2.883m80.544 11.432a4.62 4.62 0 0 0-4.974 4.14 5.059 5.059 0 0 0 9.891 0 4.62 4.62 0 0 0-4.931-4.14zM8.309 40.63H5.483v3.193H2.826v-3.194H0v9.185h2.826v-3.646h2.657v3.646h2.826zm10.343-24.15H9.496v-4.352H20.8L20.122 3H0v33.376h9.383V25.61h9.27Zm10.909 28.742a5.7 5.7 0 0 0-.325-1.936 4.6 4.6 0 0 0-.975-1.512c-.4-.426-.88-.767-1.413-1.003a4.8 4.8 0 0 0-1.894-.354 4.9 4.9 0 0 0-1.907.354 4.35 4.35 0 0 0-2.417 2.515 5.4 5.4 0 0 0-.339 1.936c-.008.66.107 1.317.34 1.936.205.569.528 1.088.946 1.526.397.425.878.762 1.413.989a4.9 4.9 0 0 0 1.908.367 4.8 4.8 0 0 0 1.95-.41 4.3 4.3 0 0 0 1.484-.989 4.8 4.8 0 0 0 .946-1.526c.201-.61.297-1.25.283-1.893m6.839-9.27c8.862-.1 15.969-7.36 15.883-16.222a15.91 15.91 0 1 0-31.808 0A16.066 16.066 0 0 0 36.4 35.952m13.452 4.677h-2.826v5.723a2 2 0 0 1-.141.678c-.083.203-.22.38-.396.51a1.24 1.24 0 0 1-.777.197 1.3 1.3 0 0 1-.791-.198 1.06 1.06 0 0 1-.424-.509 2 2 0 0 1-.142-.678V40.63H41.53v5.653a3.63 3.63 0 0 0 1.046 2.826 4.56 4.56 0 0 0 3.151.932 4.56 4.56 0 0 0 3.151-.932 3.62 3.62 0 0 0 1.032-2.826zm19.882 6.246a2.4 2.4 0 0 0-.212-1.074 2.2 2.2 0 0 0-.58-.749 4 4 0 0 0-.833-.509 7 7 0 0 0-.961-.325c-.325-.098-.636-.17-.947-.24a9 9 0 0 1-.848-.226 2.7 2.7 0 0 1-.607-.282.55.55 0 0 1-.255-.41.45.45 0 0 1 .1-.311.6.6 0 0 1 .268-.184q.155-.07.325-.099h.325q.218-.02.438 0c.143.032.278.095.395.184.121.07.22.173.283.297a.72.72 0 0 1 0 .438h2.67a2.73 2.73 0 0 0-1.186-2.346 4.1 4.1 0 0 0-1.216-.509 6.7 6.7 0 0 0-1.413-.14 5.7 5.7 0 0 0-1.413.169 3.3 3.3 0 0 0-1.172.55c-.349.24-.634.56-.834.933a2.8 2.8 0 0 0-.311 1.413c-.022.402.077.8.283 1.145.184.294.43.545.72.735q.472.297 1.004.466l1.102.325.975.283q.311.1.607.24c.12.05.227.127.311.226.06.093.09.201.085.31a.7.7 0 0 1-.113.41.65.65 0 0 1-.297.255.9.9 0 0 1-.381.127 1.8 1.8 0 0 1-.382 0 2.6 2.6 0 0 1-.791-.127.83.83 0 0 1-.551-.551 1.6 1.6 0 0 1-.113-.594h-2.826c-.008.432.074.86.24 1.258.133.336.33.643.58.904.238.238.515.434.819.58q.432.226.904.353.416.121.848.17h.65c.513 0 1.025-.057 1.526-.17.498-.09.976-.267 1.413-.523.398-.242.732-.577.975-.975.26-.43.397-.924.396-1.427m7.983-10.555L67.685 19.01 76.813 3h-10.06l-4.24 7.178L58.486 3H48.043l9.312 16.066-9.89 17.225h10.117l4.818-8.478 4.875 8.408Zm19.006-22.27a5.23 5.23 0 0 1-.848 2.586c-4.635 6.048-14.71 18.553-14.809 18.68l-.791.975h23.57v-7.065h-8.677l4.593-5.37A15.1 15.1 0 0 0 104 14.093a12.7 12.7 0 0 0-.551-3.645c-1.413-4.734-6.627-7.857-12.166-7.263a11 11 0 0 0-6.825 3.278 13.47 13.47 0 0 0-3.462 8.648v.636h7.729l-.085-.664a4.82 4.82 0 0 1 .961-3.392 3.89 3.89 0 0 1 3.137-1.06 4.97 4.97 0 0 1 3.504 1.979c.29.427.455.926.48 1.441m-7.8 26.58h-7.984v2.36h2.586v6.824h2.826V42.99h2.572zm20.842 4.592a5.4 5.4 0 0 0-.339-1.936 4.4 4.4 0 0 0-.947-1.512 4.3 4.3 0 0 0-1.413-1.003 4.9 4.9 0 0 0-1.907-.354 4.8 4.8 0 0 0-1.894.354 4.32 4.32 0 0 0-2.43 2.515 5.7 5.7 0 0 0-.325 1.936 5.7 5.7 0 0 0 .325 1.936c.199.563.506 1.081.904 1.526.404.405.884.727 1.413.946.6.25 1.244.374 1.894.368a4.9 4.9 0 0 0 1.964-.368 4.2 4.2 0 0 0 1.413-.989c.413-.44.735-.96.947-1.526a5.3 5.3 0 0 0 .395-1.893m7.207-8.874c6.895 0 12.52-4.833 12.52-10.753 0-5.653-5.045-10.23-11.446-10.711a7477 7477 0 0 0 6.584-11.616h-8.76l-.198.311s-2.558 4.437-4.677 7.687l-.848 1.286c-2.275 3.406-5.652 8.478-5.652 13.043a9.9 9.9 0 0 0 3.01 7.065 13.44 13.44 0 0 0 9.467 3.688M130 40.587h-2.67v4.917l-2.685-4.917h-2.827v9.185h2.53v-4.974l2.826 5.016H130Z" style="fill:#000" transform="matrix(10 0 0 10 0 -30)"/></svg>