<svg xmlns="http://www.w3.org/2000/svg" overflow="hidden" viewBox="0 0 814 294"><defs><clipPath id="a"><path d="M233 216h814v294H233z"/></clipPath></defs><g clip-path="url(#a)" transform="translate(-233 -216)"><path fill-rule="evenodd" d="M831.88 302.49c-30.45 39.8-96.56 121.87-96.56 121.87h141.22v-38.48h-60.9l35.3-41.39c18.36-21.53 33.8-48.1 23.4-83.57-17.66-60.36-131.52-68.4-138.4 29.48h41.75s-4.15-34.33 30.62-33.27c6.36-.53 44.4 10.67 23.57 45.36M292.69 357.2h57.73v-57h-57.28V273h70.6l-4.14-57H234v208.54h58.7zm62.58 94.08h-17.65v19.94h-16.6V451.2h-17.65v57.45h17.66v-22.77h16.5v22.77h17.65zm45.63 0h-17.65v57.45h17.65zm72.2 42.71h-25.42v-42.8h-17.65v57.45h43.16zm155.96-14.12a39 39 0 0 0-1.42-10.59 25 25 0 0 0-4.41-8.82 22 22 0 0 0-7.94-6.45 27 27 0 0 0-12.18-2.47h-29.04V509h25.5a39 39 0 0 0 13.07-2.02 24 24 0 0 0 8.83-5.74 25 25 0 0 0 5.38-8.83 39 39 0 0 0 2.12-12.62zm72.1 14.12h-30.8v-7.15h27.1v-13.76h-27.1v-7.15h29.83v-14.74h-47.57v57.45h48.46zm18.54-69.72L656.77 316l57.02-100h-62.85l-26.47 44.83L599.3 216h-65.2l58.25 100.34-61.78 107.67h63.1l30.19-52.95L654.3 424zM770.1 494h-25.51v-42.8h-17.65v57.45H770zm149.87-42.71H902.3v19.94h-16.68V451.2h-17.65v57.45h17.65v-22.77h16.6v22.77h17.65zm44.12 0v57.45h-17.65v-57.45zm59.94 0 20.91 57.45h-18.8l-2.38-8.2h-18.27l-2.56 8.2h-17.65l21.09-57.45zm-8.22 19.06h-.17l-5.56 17.65h10.85zm-190.9-19.06a22 22 0 0 1 9.88 1.94 20 20 0 0 1 6.53 4.85 18 18 0 0 1 3.62 6.36 22 22 0 0 1 1.06 6.44l-.09-.09a22 22 0 0 1-2.03 8.92 17 17 0 0 1-4.59 6.35 21 21 0 0 1-7.15 3.8 32 32 0 0 1-8.82 1.23H812.9v17.65h-17.65v-57.45Zm-293.3 0 20.92 57.45h-18.88l-2.39-8.2H513l-2.56 8.2h-17.65l21.18-57.45zm-266.5-.09c2.9.1 5.77.75 8.43 1.94a21 21 0 0 1 6.53 4.86 19 19 0 0 1 3.53 6.35 22 22 0 0 1 1.06 6.44h.09a24 24 0 0 1-1.94 9.1 17 17 0 0 1-4.68 6.35 21 21 0 0 1-7.06 3.53 32 32 0 0 1-8.83 1.23h-10.59v17.65H234V451.2Zm332 14.74a15.5 15.5 0 0 1 7.59 1.59 11 11 0 0 1 4.4 3.8v.08a11 11 0 0 1 1.86 4.5 22 22 0 0 1 0 3.7 22 22 0 0 1-.44 4.5 13 13 0 0 1-1.76 4.68 11 11 0 0 1-3.8 3.62 13 13 0 0 1-6.62 1.5h-6.88v-27.97Zm-74.14 4.5h-.18l-5.47 17.65h10.85zm300.97-4.41h-10.95v11.64h10.15a8 8 0 0 0 3-.79 5 5 0 0 0 2.2-1.76 6 6 0 0 0 .9-3.36 6 6 0 0 0-.71-3.09 4.2 4.2 0 0 0-1.86-1.94 8 8 0 0 0-2.73-.7m-561.08 0h-11.2v11.65h10.23a9 9 0 0 0 3-.8 4.6 4.6 0 0 0 2.12-1.76 5.4 5.4 0 0 0 .88-3.36 6 6 0 0 0-.7-3.09 4.2 4.2 0 0 0-1.68-1.94 9 9 0 0 0-2.65-.7M964.98 216c44.74 0 81.02 29.57 81.02 65.75 0 31.86-29.66 68.83-44.04 90.28a1974 1974 0 0 0-32.04 49.95h-49.6l44.66-74.93c-44.66 0-80.85-29.38-80.85-65.57S920.23 216 964.98 216m-503.8 5.2c54.9 0 99.39 44.5 99.39 99.38s-44.5 99.37-99.39 99.37-99.38-44.5-99.38-99.37 44.5-99.37 99.38-99.37m.36 39.97a17.65 17.65 0 0 0-16.95 17.66v83.04a17.1 17.1 0 0 0 16.95 17.2 17.63 17.63 0 0 0 17.65-16.93v-83.31a18.1 18.1 0 0 0-17.65-17.65m503.43-11.48c-21.18 0-38.3 13.86-38.3 30.98s17.12 31.06 38.3 31.06c21.2 0 38.31-13.85 38.31-31.06s-17.12-30.98-38.3-30.98"/></g></svg>