<svg xmlns="http://www.w3.org/2000/svg" viewBox="0 0 1255.05 540"><path fill-rule="evenodd" d="m1200.56 469.3 9.3 32.6h-19.6zm-585.78 0-10.2 32.6h20l-9.5-32.6Zm-560.2 0L44.28 502h20.4Zm406.25-199.8V116a33.6 33.6 0 0 0-31.99-33.3 33 33 0 0 0-31.19 33.3v153.1a31.49 31.5 0 0 0 31.3 31.8 31.99 32 0 0 0 31.98-31.4M109.06 539.7 70.77 434H39L0 539.7h32.79l4.7-15.1h33.68l4.4 15.1zm8.3-279.5h106.36V155.3H118.56v-50H248.1L241.1 0H9.5v384.6h108.16ZM286.3 434h-91.37v27.3h29.59V540h32.59v-79h29.49zm141.94-54.6a184.93 185 0 0 0 183.24-187 183.23 183.3 0 1 0-366.47 0 184.93 185 0 0 0 183.33 187.4zm38.59 132.8h-46.78V434h-32.6v105.7h79.58zm202.63 27.2L631.06 434h-31.78l-38.99 105.7H593l4.79-15.1h33.69l4.4 15.1zm190.93-105.7h-30v57.6L799.32 434h-33.39v105.7h30.79V482l32.49 57.7h31.78zm43.58-50L789 184.5 894.07 0H778.41l-48.18 82.8L683.05 0H562.99l107.36 185.3-113.65 199h116.55l55.48-97.7 56.18 97zm149.94 50h-91.56V461h29.59v78.7h32.58V461h29.6zm201.03 106L1216.35 434h-31.78l-38.79 105.7h32.79l4.7-15.1h33.58l4.5 15.1zm0-300.2c0-38.5-32.79-114.6-111.76-124.6a199.93 200 0 0 0-81.87 2.5l8.8-32.5h168.64l14.7-84.9H990.23l-56.18 220.4h93.16l1.8-3.5a73.97 74 0 0 1 66.58-33.9c48.78 0 70.97 35.6 70.97 60.9a65.58 65.6 0 0 1-66.07 63c-48.59 0-71.68-29.5-77.67-47l-1.7-5-87.97 11 1.3 6.9a129.95 130 0 0 0 27.29 56c20.99 25.2 61.47 55.2 136.45 55.2 61.97 0 106.46-19.8 132.55-58.5a157.94 158 0 0 0 24.29-86.1z"/></svg>