<svg xmlns="http://www.w3.org/2000/svg" width="1300" height="494.71"><path fill="#FFF" fill-rule="evenodd" d="M40.724 12.923V26.77a2.826 2.826 0 1 1-5.653 0V12.923a2.967 2.967 0 0 1 2.826-2.996 3.024 3.024 0 0 1 2.827 2.996m42.108 31.906-.876 2.94h1.808l-.862-2.94Zm43.564-.537a1.65 1.65 0 0 0-.622-.396 1.7 1.7 0 0 0-1.23 0 1.65 1.65 0 0 0-.621.396c-.206.236-.365.51-.467.806a3.7 3.7 0 0 0-.197 1.3c-.012.446.054.89.197 1.314.099.293.258.563.467.79a1.724 1.724 0 0 0 2.473 0c.208-.227.367-.497.466-.79.143-.423.21-.868.198-1.315a3.7 3.7 0 0 0-.198-1.3 2.4 2.4 0 0 0-.467-.805M9.198 47.43H6.373c0 .226-.113.438-.184.636a2.4 2.4 0 0 1-.297.494c-.119.144-.269.26-.438.34a1.5 1.5 0 0 1-.636.127 1.7 1.7 0 0 1-.876-.226 1.75 1.75 0 0 1-.55-.608 2.7 2.7 0 0 1-.297-.848 4.2 4.2 0 0 1-.1-.947 4.3 4.3 0 0 1 .1-.946c.051-.297.151-.584.296-.848.138-.236.326-.439.551-.594a1.56 1.56 0 0 1 .876-.226c.256-.01.51.048.735.17.183.096.342.231.467.396q.163.21.24.466.066.18.099.367h2.826a4.24 4.24 0 0 0-1.258-2.826 4.42 4.42 0 0 0-3.066-1.003 5.2 5.2 0 0 0-1.978.367 4.3 4.3 0 0 0-1.54 1.018A4.5 4.5 0 0 0 .339 44.42a6.27 6.27 0 0 0 0 4.027c.2.586.517 1.124.933 1.583.45.425.978.76 1.554.99a5.2 5.2 0 0 0 2.049.38 4.5 4.5 0 0 0 1.865-.353 4.2 4.2 0 0 0 1.413-.904c.362-.37.65-.807.848-1.286.154-.46.221-.943.198-1.427m10.16-30.96H9.89v-4.55h11.7l-.65-9.48H0v34.703h9.764V25.937h9.595zm10.06 25.124H26.48v3.32h-2.755v-3.32h-2.94v9.552h2.94v-3.758h2.755v3.787h2.94zm8.38-4.903c9.202-.101 16.588-7.627 16.518-16.83a16.532 16.532 0 1 0-33.05 0 16.69 16.69 0 0 0 16.532 16.858zm7.234 4.903h-2.939v9.552h2.94zm21.591 5.808h-2.826a3 3 0 0 1-.183.636 1.6 1.6 0 0 1-.297.494c-.113.15-.264.268-.438.34-.2.09-.417.134-.636.126a1.63 1.63 0 0 1-.862-.226 1.53 1.53 0 0 1-.551-.607 3.2 3.2 0 0 1-.31-.848 5.4 5.4 0 0 1 0-1.893 3.2 3.2 0 0 1 .31-.848 1.6 1.6 0 0 1 .551-.594c.258-.16.558-.239.862-.226.26-.014.52.045.749.17.175.1.328.235.452.395q.168.212.254.467c0 .155.071.282.085.367h2.826a4.24 4.24 0 0 0-1.272-2.826 4.4 4.4 0 0 0-3.052-1.003 5.3 5.3 0 0 0-1.992.367 4.4 4.4 0 0 0-1.526 1.017 4.5 4.5 0 0 0-.99 1.71 6.15 6.15 0 0 0 0 4.027c.206.587.528 1.125.948 1.583.428.45.942.81 1.511 1.06a5.3 5.3 0 0 0 2.063.381 4.5 4.5 0 0 0 1.852-.353 4.1 4.1 0 0 0 1.413-.904 3.9 3.9 0 0 0 1.13-2.713zm3.321-10.33h10.81L70.312 19.099l9.482-16.575H69.35L65 9.983l-4.239-7.46H49.922l9.68 16.702-10.245 17.889H59.87l5.002-8.76zm17.804 14.13-3.476-9.608h-2.826l-3.518 9.552h2.953l.424-1.413h3.038l.41 1.413zm8.167-13.847c4.847 0 9.058-2.515 10.697-5.51a12 12 0 0 0-1.413 4.535v.622h20.673l3.843-6.825H116.83c.212-.283 7.645-7.659 9.086-9.27a20 20 0 0 0 3.222-4.465c.591-1.398.885-2.904.862-4.423a9.7 9.7 0 0 0-3.32-7.065 11.2 11.2 0 0 0-7.985-2.925 12 12 0 0 0-7.955 2.318 11.46 11.46 0 0 0-4.38 8.068v.678h7.333a4.663 4.663 0 0 1 4.466-4.62 3.716 3.716 0 0 1 4.239 4.705 6.16 6.16 0 0 1-1.654 2.826s-2.5 2.713-5.37 5.384a44.3 44.3 0 0 0-7.403 8.238 2 2 0 0 1-.184.31 13.16 13.16 0 0 0 1.286-5.75 12.45 12.45 0 0 0-6.458-11.305l5.808-10.286H90.25l-3.773 6.768h9.892l-5.229 8.874a7.5 7.5 0 0 1 6.98-.184 7.07 7.07 0 0 1 3.703 4.635 6.12 6.12 0 0 1-.48 4.239 6.32 6.32 0 0 1-4.875 3.363 7.2 7.2 0 0 1-4.24-.72 7.36 7.36 0 0 1-4.07-6.345l-3.998 6.471a13.8 13.8 0 0 0 2.12 3.321 12.87 12.87 0 0 0 9.636 4.338m12.336 8.563h-3.914v2.049h1.3a1 1 0 0 1-.198.466 1.2 1.2 0 0 1-.367.325 1.8 1.8 0 0 1-.452.198q-.255.03-.509 0a2 2 0 0 1-1.088-.268 1.9 1.9 0 0 1-.65-.636 2.3 2.3 0 0 1-.325-.792 4 4 0 0 1-.085-.763V45.48q.045-.322.17-.622c.071-.211.181-.408.325-.579.153-.174.34-.313.55-.41a2.1 2.1 0 0 1 .849-.155c.335-.004.66.11.918.325.259.22.43.526.48.862h2.827a4.3 4.3 0 0 0-1.413-2.629 4.4 4.4 0 0 0-2.954-.946 4.9 4.9 0 0 0-1.639.296 4.2 4.2 0 0 0-1.512.89 4.4 4.4 0 0 0-1.116 1.583 5.5 5.5 0 0 0-.438 2.332 5.7 5.7 0 0 0 .31 1.907c.197.573.504 1.101.905 1.555.394.446.874.807 1.413 1.06.597.26 1.243.39 1.894.381a4.2 4.2 0 0 0 1.512-.283 2.83 2.83 0 0 0 1.215-.918l.085.975h1.865zm21.747.48a5.4 5.4 0 0 0-.354-1.978 4.62 4.62 0 0 0-2.473-2.642 5.36 5.36 0 0 0-3.97 0 4.6 4.6 0 0 0-1.526 1.031 4.5 4.5 0 0 0-1.003 1.611 5.4 5.4 0 0 0-.354 2.007c-.009.69.11 1.375.354 2.02a4.5 4.5 0 0 0 .975 1.569c.433.447.952.802 1.526 1.045 1.278.49 2.692.49 3.97 0a4.7 4.7 0 0 0 1.526-1.045 4.5 4.5 0 0 0 .975-1.569c.247-.654.367-1.35.354-2.049" style="fill:#000" transform="matrix(10 0 0 9.99993 0 -20)"/></svg>