<svg xmlns="http://www.w3.org/2000/svg" width="1300" height="487.78"><path fill="#FFF" fill-rule="evenodd" d="M47.351 44.741a1.7 1.7 0 0 0-.608-.395c-.195-.07-.4-.108-.607-.113a2 2 0 0 0-.608.113 1.8 1.8 0 0 0-.607.395c-.206.23-.365.5-.467.792a3.7 3.7 0 0 0-.197 1.3c-.013.437.054.872.197 1.285.099.294.258.563.467.792.164.182.374.319.607.395a1.7 1.7 0 0 0 1.215 0 1.4 1.4 0 0 0 .608-.395 2 2 0 0 0 .48-.792c.138-.414.2-.85.184-1.285a3.7 3.7 0 0 0-.183-1.3 2.15 2.15 0 0 0-.552-.792zm-42.193-.084a1.3 1.3 0 0 0-.438-.114H2.91v1.922h1.682q.255-.036.495-.127a.9.9 0 0 0 .353-.297.96.96 0 0 0 .212-.65 1 1 0 0 0-.113-.494.75.75 0 0 0-.381-.24m3.179.734a3.8 3.8 0 0 0-.184-1.074 2.8 2.8 0 0 0-.593-1.045 3.2 3.2 0 0 0-1.074-.792 3.7 3.7 0 0 0-1.625-.31H0v9.439h2.91v-2.826h1.725a5 5 0 0 0 1.413-.212 3.2 3.2 0 0 0 1.173-.622c.378-.298.666-.694.833-1.145.189-.447.285-.927.283-1.413m20.49-3.278h-2.912v3.278h-2.727v-3.278h-2.897v9.44h2.897v-3.745h2.727v3.744h2.911zm22.043 4.691a5.7 5.7 0 0 0-.34-1.992 4.5 4.5 0 0 0-.975-1.569 4.5 4.5 0 0 0-1.512-.989 5.4 5.4 0 0 0-3.914 0c-.57.23-1.084.577-1.512 1.018-.43.449-.762.983-.975 1.568a6.02 6.02 0 0 0 0 3.985c.216.58.548 1.108.975 1.554s.942.797 1.512 1.032c1.26.49 2.656.49 3.914 0a4.48 4.48 0 0 0 2.487-2.586c.236-.647.35-1.332.34-2.02m20.432 2.304H66.23V47.92h4.423v-2.219H66.23V44.53h4.918v-2.416h-7.814v9.44h7.955zm21.111-7.023h-2.826v5.044l-2.826-5.044h-2.968v9.439h2.742v-5.13l2.826 5.158h2.826zM97.5 3.593h-6.867c-.721 2.346-1.244 5.766-6.147 6.204v6.076h4.239v21.831H97.5Zm10.612 38.52h-2.826v9.44h2.826zm6.84-3.66c8.251 0 15.048-7.941 15.048-17.733S123.203 3 114.895 3c-8.31 0-15.021 7.941-15.021 17.72s6.726 17.733 15.02 17.733zM130 51.553l-3.377-5.003 3.038-4.437h-3.236l-1.413 2.558-1.413-2.558h-3.406l3.11 4.409-3.42 5.03h3.334l1.668-2.826 1.61 2.826zm-15.176-41.149a2.826 2.826 0 0 0-2.953 2.205v16.25a3.08 3.08 0 0 0 5.864 0v-16.18a2.826 2.826 0 0 0-2.911-2.275" style="fill:#000" transform="matrix(10 0 0 9.99997 0 -30)"/><path fill-rule="evenodd" d="m703.368 176.07 95.567 171.239-110.072.192-40.425-72.67-40.417 72.67-110.064-.192 95.567-171.24L497.957 4.24h109.514l40.967 73.42 40.983-73.42h109.514zM379.8 4.35c93.147 0 168.662 76.776 168.662 171.479S472.947 347.308 379.8 347.308c-93.155 0-168.663-76.776-168.663-171.48C211.137 81.126 286.645 4.35 379.8 4.35m29.543 100.975c0-16.066-13.695-30.455-29.08-30.455-15.4 0-27.845 14.389-27.845 30.455l-.032 140.473c0 16.082 12.477 29.104 27.87 29.104 15.392 0 29.087-12.615 29.087-28.689zM0 347.309V4.239h209.81l6.184 93.577H102.136v44.899h92.856v93.872h-92.856V347.31z" class="shp0"/></svg>