<svg xmlns="http://www.w3.org/2000/svg" viewBox="0 0 1212.03 540"><path fill-rule="evenodd" d="M418.4 300a31.5 31.5 0 0 1-31-31.6V115.6a32.7 32.7 0 0 1 31-33.1 33.5 33.5 0 0 1 31.89 33v153.3a32 32 0 0 1-31.9 31.2m652.65-224.9a56 56 0 0 0-40.6 17.1 54 54 0 0 0-16 39.6 57 57 0 0 0 59.3 58.5 55 55 0 0 0 41.89-17.4 57 57 0 0 0 15.79-41.1 53 53 0 0 0-17.3-39.6 60 60 0 0 0-42.98-17m98.47 386a20 20 0 0 0-6-1.2 60 60 0 0 0-7 0h-17.3v21.5h22.5q3.4-.2 6.6-1.3 2.9-1.1 4.9-3.4a10 10 0 0 0 1.8-6.2 10 10 0 0 0-1.5-5.6 10 10 0 0 0-4-3.8M129.87 538.3l-53.29-64 45.79-41.2H74.38l-34.89 36v-36.3H0v105.4h39.49V507l10.8-10 31.29 41.2zM214.05 155H108.67v-49.6h129.27L230.84 0H0v383.6h107.97v-124h105.98zM417.9 379a184.45 184.5 0 0 0 182.75-186.7 182.86 182.9 0 1 0-365.6 0A184.45 184.5 0 0 0 417.9 378.7zm87.77 54H450.2L432 495l-18-62h-55.98v105.4h37.2v-67.8l21.99 67.7h29.2l21.98-67.7v67.7h36.9zM860 504.7a24 24 0 0 0-2.9-12.4 30 30 0 0 0-8.1-8.6 50 50 0 0 0-11.5-5.8q-6.5-2.2-13.2-3.6a179.96 180 0 0 0-13.19-3q-6.3-1-11.6-2.4a40 40 0 0 1-8.3-3.3 6 6 0 0 1-3.5-4.7 5 5 0 0 1 1.4-3.7 10 10 0 0 1 3.6-2q2.2-.8 4.6-1.1h4.4q3-.3 6 0 3 .6 5.5 2.1 2.4 1.3 3.9 3.4 1.4 2.3.8 5h36.89A30 30 0 0 0 850 448a35 35 0 0 0-11.7-10.6 60 60 0 0 0-16.8-5.8 109.97 110 0 0 0-19.59-1.9 89.98 90 0 0 0-19 2.1 60 60 0 0 0-16.29 6.2 40 40 0 0 0-11.5 11 28 28 0 0 0-4.2 16 20 20 0 0 0 4 13.2q4.1 5.3 10 8.4 6.6 3.5 13.8 5.3l15.2 3.8q8.2 1.9 13.2 3.3 4.19 1 8.29 2.7 2.4.8 4.3 2.6a5 5 0 0 1 1.2 3.6 7 7 0 0 1-1.6 4.7 10 10 0 0 1-4 3q-2.6 1-5.3 1.5h-5.2a40 40 0 0 1-11-1.6 11 11 0 0 1-7.7-6.2 20 20 0 0 1-1.5-7h-39.48q-.1 7.6 3.2 14.5 3 6 8.1 10.4a40 40 0 0 0 11.19 6.9q6.5 2.4 13.2 4 5.8 1.3 11.6 1.8 4.6.2 9.1 0a129.97 130 0 0 0 20.99-1.9 69.98 70 0 0 0 19-6 40 40 0 0 0 13.09-11.2 30 30 0 0 0 5.4-16.4zm32.99-121.5L777.3 184.5 882.68 0H766.71l-47.99 82.6L671.83 0H552.06l107.18 184.5-113.38 197.7h116.28l55.28-97 56.19 96.7zm177.16 0 104.37-148 9.2-14 8.7-13.1q8.3-15.5 13.2-32.3 6.2-18.8 6.4-38.6a149.96 150 0 0 0-8.7-51.6 119.97 120 0 0 0-29.6-44.6 146.96 147 0 0 0-101.17-39.6 132.97 133 0 0 0-99.78 40.2 134.97 135 0 0 0-38.69 96.6 122.97 123 0 0 0 34.09 87 116.97 117 0 0 0 88.68 36h4.6l-85.48 122.4zm141.96 85.5a40 40 0 0 0-2.4-12 30 30 0 0 0-8-11.6 40 40 0 0 0-14.3-9 60 60 0 0 0-21.89-3.3h-65.78v105.4h39.59v-32h23a79.98 80 0 0 0 19.99-2.2 50 50 0 0 0 15.7-7 30 30 0 0 0 10.3-11.5 35 35 0 0 0 3.8-16.8"/></svg>