<svg xmlns="http://www.w3.org/2000/svg" width="1300" height="530.23"><path fill="#FFF" fill-rule="evenodd" d="M18.285 46.362a4.9 4.9 0 0 1 0 2.826c-.112.32-.29.615-.523.862a1.65 1.65 0 0 1-.664.438 1.84 1.84 0 0 1-1.413 0 1.65 1.65 0 0 1-.664-.438 2.4 2.4 0 0 1-.523-.862 4.9 4.9 0 0 1 0-2.826c.112-.32.29-.615.523-.862a1.65 1.65 0 0 1 .664-.438 1.84 1.84 0 0 1 1.413 0c.254.09.482.24.664.438.233.247.411.541.523.862m30.663-.283-1.003 3.194h1.964l-.933-3.194ZM7.772 50.262H3.208v-7.659H0V52.99h7.8Zm13.833-2.53a6.1 6.1 0 0 0-.381-2.19 5.1 5.1 0 0 0-1.06-1.71 4.9 4.9 0 0 0-1.667-1.13 5.86 5.86 0 0 0-4.24 0 4.9 4.9 0 0 0-1.667 1.13 5.2 5.2 0 0 0-1.074 1.71 6.7 6.7 0 0 0 0 4.38c.242.64.607 1.226 1.074 1.725a5.1 5.1 0 0 0 1.668 1.116 5.86 5.86 0 0 0 4.239 0 5.1 5.1 0 0 0 1.667-1.116 5.2 5.2 0 0 0 1.06-1.724c.283-.677.44-1.4.466-2.134zm12.365 1.866a2.8 2.8 0 0 0-.24-1.215 2.5 2.5 0 0 0-.665-.848 4.4 4.4 0 0 0-.932-.565 8 8 0 0 0-1.046-.34c-.367-.113-.72-.197-1.074-.282a7 7 0 0 1-.96-.255 2.5 2.5 0 0 1-.68-.31.66.66 0 0 1-.296-.467.55.55 0 0 1 .113-.353.7.7 0 0 1 .297-.212 1.5 1.5 0 0 1 .749-.099q.247-.03.494 0c.158.037.307.104.438.198.136.083.248.2.325.34a.8.8 0 0 1 0 .494h3.024a3.4 3.4 0 0 0-.381-1.597 3.25 3.25 0 0 0-.961-1.046 4.4 4.4 0 0 0-1.413-.579 7.6 7.6 0 0 0-1.47-.07 6.4 6.4 0 0 0-1.568.197c-.479.12-.93.331-1.328.622a3.25 3.25 0 0 0-.947 1.06 3.2 3.2 0 0 0-.353 1.554c-.016.45.096.897.325 1.286.209.334.489.619.82.834.35.224.73.4 1.13.522l1.243.368 1.102.325q.355.11.693.268c.133.06.254.147.353.255a.7.7 0 0 1 .099.353.8.8 0 0 1-.127.466q-.146.176-.34.297a1.6 1.6 0 0 1-.437.141 2 2 0 0 1-.424 0c-.307 0-.613-.047-.905-.141a.95.95 0 0 1-.621-.608 1.8 1.8 0 0 1-.114-.678h-3.207a3.5 3.5 0 0 0 .932 2.445c.27.269.58.493.919.664q.49.243 1.017.395.472.138.961.184h.75a8 8 0 0 0 1.723-.184 4.5 4.5 0 0 0 1.512-.565 3.1 3.1 0 0 0 1.526-2.826zm20.32 3.391-3.774-10.386H47.38L43.564 52.99h3.208l.466-1.413h3.307l.438 1.413zm12.392-10.386h-3.095v5.554l-3.024-5.554h-3.236V52.99h3.024v-5.652l3.18 5.652h3.122zm13.706 4.663h-4.24v2.19h1.414c-.073.364-.3.678-.622.862a2.6 2.6 0 0 1-.494.212q-.272.067-.551.071a2.3 2.3 0 0 1-1.187-.283 2.4 2.4 0 0 1-.707-.692 2.8 2.8 0 0 1-.353-.876 4.6 4.6 0 0 1-.085-.834v-.466a5 5 0 0 1 0-.636q.062-.346.184-.678c.075-.224.195-.431.353-.608.165-.195.373-.35.608-.452.286-.134.602-.197.918-.184.365-.01.72.122.99.368.289.23.477.565.522.932h3.066a4.68 4.68 0 0 0-1.568-2.826 4.86 4.86 0 0 0-3.18-.975 5.4 5.4 0 0 0-1.78.311 4.9 4.9 0 0 0-1.639.975 4.9 4.9 0 0 0-1.215 1.724 5.9 5.9 0 0 0-.48 2.53 6.4 6.4 0 0 0 .31 2.048c.216.62.552 1.192.99 1.682a4.76 4.76 0 0 0 3.63 1.568 4.6 4.6 0 0 0 1.64-.296 3.1 3.1 0 0 0 1.314-1.018l.099 1.074h2.035zm12.633 3.052h-5.554v-1.285h4.904V46.63h-4.904v-1.413h5.398v-2.614H84.26V52.99h8.76zm.537-40.822h5.652v28.26h9.891V0h-7.065a11.6 11.6 0 0 1-8.478 4.607zm11.007 40.822h-4.564v-7.715h-3.193V52.99h7.757zm12.42 0h-5.51v-1.285h4.903V46.63h-4.903v-1.413h5.398v-2.614h-8.606V52.99h8.761zm12.492-.664a2.7 2.7 0 0 0-.24-1.215 2.5 2.5 0 0 0-.664-.848 4 4 0 0 0-.933-.565 7.4 7.4 0 0 0-1.031-.396l-1.088-.282a7 7 0 0 1-.961-.255 2.5 2.5 0 0 1-.678-.31.7.7 0 0 1-.297-.467.5.5 0 0 1 .127-.353.6.6 0 0 1 .283-.212 1.5 1.5 0 0 1 .748-.099q.247-.03.495 0 .243.06.452.198a.9.9 0 0 1 .311.34.72.72 0 0 1 0 .494h3.038a3.6 3.6 0 0 0-.396-1.597 3.1 3.1 0 0 0-.96-1.046 4.2 4.2 0 0 0-1.413-.579 7.4 7.4 0 0 0-1.512-.07c-.525 0-1.047.066-1.555.197a3.8 3.8 0 0 0-1.413.622 3.25 3.25 0 0 0-.947 1.06 3.3 3.3 0 0 0-.353 1.554c-.016.45.097.897.325 1.286.21.334.49.619.82.834a5 5 0 0 0 1.13.522l1.244.368 1.116.325q.347.114.678.268.203.092.354.255c.07.104.105.228.098.353a.8.8 0 0 1-.127.466 1 1 0 0 1-.339.297 1.7 1.7 0 0 1-.424.141 2.4 2.4 0 0 1-.438 0 3 3 0 0 1-.904-.141.95.95 0 0 1-.622-.608 2.1 2.1 0 0 1-.042-.734h-3.25c-.008.484.083.965.268 1.413.156.382.38.731.664 1.031.272.266.581.49.919.664q.49.245 1.017.396.472.137.961.184h.749a8 8 0 0 0 1.724-.184 4.5 4.5 0 0 0 1.54-.594 3.2 3.2 0 0 0 1.116-1.102c.294-.486.45-1.043.453-1.61zM130 0h-7.065a11.62 11.62 0 0 1-8.478 4.607v4.846h5.652v28.261H130Z" style="fill:#000" transform="scale(10 9.96104)"/><path fill-rule="evenodd" d="m895.21 215.08 121.63 214.34-140.09.24-51.45-90.96-51.44 90.96-140.08-.24 121.63-214.34L633.78 0h139.38l52.14 91.9L877.46 0h139.38zM483.4.14c118.55 0 214.66 96.1 214.66 214.64S601.95 429.42 483.4 429.42c-118.56 0-214.66-96.1-214.66-214.64S364.84.14 483.4.14M521 126.53c0-20.11-17.43-38.12-37.01-38.12-19.6 0-35.44 18.01-35.44 38.12l-.04 175.83c0 20.13 15.88 36.43 35.47 36.43S521 323 521 302.88zM.02 429.42V0h267.03l7.87 117.13H130.01v56.2h118.18v117.5H130.01v138.59z" class="shp0" style="fill:#000" transform="matrix(.8641 0 0 .87418 .69 0)"/></svg>