<svg xmlns="http://www.w3.org/2000/svg" viewBox="0 0 172.88 114.26"><path fill="#ffb612" d="M85.76.97C39.66.97.7 26.8.7 57.39c0 31.83 36.56 55.84 85.05 55.84 28.3 0 55.12-9.95 71.76-26.6 9.16-9.17 14.2-19.56 14.2-29.24-.02-15.08-8.89-29.24-24.98-39.88C130.6 6.84 108.94.96 85.76.96"/><path fill="#203731" d="M26.28 94.78C11.5 84.9 3.34 71.63 3.34 57.38 3.34 28.73 41.86 3.6 85.76 3.6c45.92 0 83.3 24.12 83.32 53.78 0 8.99-4.76 18.71-13.42 27.38-16.16 16.17-42.29 25.83-69.9 25.83-23.07 0-44.2-5.62-59.48-15.81"/><path fill="#fff" d="M122.66 42.6c-6.62-9.86-21.12-16.7-38.19-16.7-23.43 0-42.43 12.89-42.43 28.79s13.41 29.85 42.43 29.83c17.43 0 31.44-7.53 37.98-17.42l-49.5.09-.15-12.86 85.92-.03c.11 1.03.23 2.03.23 3.08 0 24.75-32.77 44.8-73.18 44.8s-73.2-20.05-73.2-44.8S47.3 11.8 85.78 11.66c32.02-.12 59.24 13.11 69.17 30.92z"/></svg>