<svg xmlns="http://www.w3.org/2000/svg" viewBox="4.06 39.5 801.54 731.39"><path fill="#fff" d="M595.45 164.11c171.51 130.53 40.99 150.07-92.96 169.13 0 0-56.52-15.6-154.47-64.25-222.13-110.33-152.2-162.31 22.39-193.77C90.99-46.5-141.9 165.44 115.02 371.52l-70.5 50.39c57.9 35.5 177.89 109.97 160.46 224l-59.55 42.57 181.87 82.41 143.5-65.03c1.04-63.15 113.92-95.96 162.49-224.43 267.36-61.33 199.26-296.5-37.84-317.33"/><path fill="#021018" d="m388.64 554.04-51.56-58.64-59.2 8.82 27.37-45.07-51.55-58.68 68.47 30.81 27.3-45.08 14.93 64.1 68.46 30.77-59.22 8.85zm84.58-208.73C137.6 215.68 115.38 109.33 324.86 72.58 62.88 1.41-89.94 191.28 169.28 372.34l-69.55 49.72C173.6 471.4 251.86 544.5 225.3 659.5l-35.04 25.01 134.6 61.02c125.28-137.2 190.8-270.51 148.35-400.23"/><path fill="#ea0028" d="M643.62 184.52c115.18 90.17 35.2 147.79-105.22 163.44 35.53 149.75-73.4 286.9-188.73 393.11l105.74-47.9c7.83-60.86 115.11-92.51 165.94-227.57 238.79-53.27 199.81-224.63 22.27-281.08"/></svg>