<svg xmlns="http://www.w3.org/2000/svg" xml:space="preserve" viewBox="0 0 193 145.06"><path d="M185.08 52.16s-3.1-6.81-11.94-12.62c2.22-2.84 3.07-6.25 2.05-8.94-1.06-2.8-8.5-7.92-11.3-9.38-2.8-1.44-6.67-3.57-6.67-3.57s-9.94-6.03-17.75-9.44c-9.41-4.1-26.37-9.56-44.81-5.67 0 0-11.07-3.62-31.08 2.56-7 1.92-18.88 5.08-25.54 6.2-9.88 1.64-19.9 1.8-27.66 2.63-4.09.43-6.81-.47-8.14 1.83-5.84 10.13 11.58 27.26 17.9 29.97-1.87 10.52.5 22.98 11.55 35.42C43.7 94.7 60.33 97.26 70.08 104.46c10.94 8.08 13.2 18.29 22.34 27.83 8.41 8.79 24.84 16.28 39.57 9.1 15.96-7.78 18.86-20.77 19.44-23.2.19-1.25-.53-2.51-2.14-3.29l-1.5-.76c.63-2.54 2.25-10.2.65-16.86 0 0-4.51 6.6-7.92 10.26-.96-.9-5.34-5.33-4.61-10.59 2-.79 4.32-1.88 6.1-3.21a38 38 0 0 0 2.75-2.3c8.98-2.57 11-6.28 11-6.28a8 8 0 0 0 1.47 2.07c1.32-.74 3.09-2.07 3.09-2.07.17 1.08.15 2.99.15 2.99a6 6 0 0 1 1.32-.3c-.67 3.31-4.56 8.95-4.56 8.95 13.63-3.9 19.37-13.97 19.37-13.97v-.06c.5-.1.87-.24.87-.24s9.15-2.6 13.35-11.57-3.4-17.66-5.74-18.8"/><path fill="#9f792c" stroke="#9f792c" stroke-width=".31" d="M82.32 21.94c.84.36 1.52 1.1 1.98 1.87q-1.83-.13-3.68-.21c.57.2.96.39 1.06.43 0 0-1.01-.15-1.7-.17 0 0 .34.2.53.4 0 0 .04.4-.02.64s-.17.57-.04.96c.14.38.52 1.24.58 1.55 0 0-1.18-.1-1.86-.11 0 0 1.9.92 2.47 1.27 0 0-.38-.02-.63 0 0 0-.65.38-.79.63-.13.25 0 1.38-.63 1.88s-1.48.38-1.74.69c-.27.3.15.73.15.73s-1.38-.31-1.8-.35c0 0 .66.66 1.07.97 0 0-.54-.12-1.1-.05-.55.08-2.28.21-3.2-.51-.92-.73-.44-1.31-.23-1.54s.26-.52-.35-1.23c-.6-.7-.51-.7-.4-1.09 0 0 2.15 0 2.92.22 0 0-2.1-1.18-2.92-1.36 0 0 .04-.26.5-.61s1.08-.62 1.28-1.49c0 0 1.55.3 2.43.43-.96-.36-1.4-.9-2.98-1.34 0 0 1.1-.06 1.51-.1 0 0 .75-.12 1.1-.45q.22-.22.55-.45a43 43 0 0 0-9.07 1.05q-7.17 1.7-14.3 3.48l-.12.03c.8-.5 1.5-1.22 2.15-1.91q-2.12.52-4.28.88c-2.34.42-4.75.78-7.14.64-3.95-.23-7.9-1.13-11.74-2.01l-1.02-.24 1.84 1.14a37 37 0 0 0 5.92 2.9c.62.2 1.24.45 1.87.64a29 29 0 0 0 4.1.93 21 21 0 0 0 7.12-.2 43 43 0 0 0 4.06-.93l.66-.19a34 34 0 0 0 5.35-2.26l1.37-.71.03-.01c-.02.03-3.2 2.66-4.76 3.62l-1.02.6q-.86.48-1.73.93-.75.39-1.5.72l-.8.33-.04.02-.42.22a27 27 0 0 1-2.82 1.55l-.04.02-.98.45-.02.01-.02.01a45 45 0 0 1-2.7 1.06 34 34 0 0 1-2.16.69c-5.18 1.51-8.34 1.48-8.34 1.48.35.16.83.3 1.26.4 1.56.34 5.29.67 5.46.73l.03-.02q0 .02-.3.3c-2.33 2.13-5.31 3.43-8.34 4.26a35 35 0 0 1-5.76 1.06q-.16.05-.2.14c-.83 2.58-.86 5.37-.72 8.05q.13 2.16.52 4.3v.02q.29-.28.66-.6s.77-.63 2.11-.82l-.06-.06-.05-.05a2.3 2.3 0 0 0-1.12-.42q-.15-.04-.3-.05l.26-.04a7 7 0 0 1 2.7-.15 2 2 0 0 1 1.2.87l.06.13.08.18.01.04.06.18.03.17.01.04a1.5 1.5 0 0 1-.13.82c-.31.7-.9 2.05-.9 2.56 0 .23-1.2 1.07-1.52 1.4l-.05.06.1-.01.08-.01c.35-.03.7-.1 1.06-.13l.52-.03h.01s.83 1.53 1.47 2.05a5 5 0 0 1 1.41 2.42h.02l.27-.05.03-.01.1-.05.25-.1.36-.16.34-.18.03-.01s-1.2 1.77-2.61 2.61c.09.02 1.21.18 1.77-.06h.01s.1 2.12-1.97 4.41c-.15.16 1.54 2.16 2.57 3.33l.12.14.09.1.21.24.14.16.94-.79a24 24 0 0 1 1.56-1.14c.5-.34 1.67-.96 1.67-.96l.01-.01a2 2 0 0 1 .38-1.02c.2-.24.5-.3.74-.44q.15-.07.32-.23l.1-.14.07-.1.08-.14.05-.13a3 3 0 0 0 .16-.48c.08-.32.35-.62.35-.62h-.01l-1.13-.38a31 31 0 0 0-3.04-.75c3.18-2.1 6.7-3.67 10.32-4.9 1.2-.4 3.77-1.13 3.77-1.13a4 4 0 0 1-.9-1.1c-.45-.9.32-2.24.64-2.75s-.25-.83-.25-.83c.51-.39.9-1.02.9-1.02h-.04c-1.13.26-2.2.32-2.2.32h-.01a2.5 2.5 0 0 1-.76-2.18c.12-.57.38-1.47.38-1.47h-.02a3 3 0 0 1-.66-.03c-.38-.05-.7-.14-.78-.16 2.42-.32 3.63-1.22 3.63-1.22h-.03c-.64.13-1.75.2-1.75.2v-.01c0-.07.09-.72.57-1.04.18-.12.55-.12 1-.06q.39.06.81.16l.4.1 1.29.39h.02c.96.33 1.41 1.6 1.41 1.6.26.83.67 1.43 1.15 1.88h.02q.33.3.7.52.15.1.3.16l.31.13a7 7 0 0 0 1.5.45l.29.06q.25.06.46.19c.43.24.74.69.95 1.13q2.55-.27 5.08-.43a8 8 0 0 0-.68-.7c-1.7-1.57-4.08-2.58-6.21-3.26 4.25-.57 8.54-.74 12.82-.89q3.67-.13 7.33-.17c-.5-.43-1.22-.68-1.83-.93 1.43-.16 2.93-.02 4.37.08-1.23-.61-2.62-.96-3.92-1.35q-1.39-.4-2.78-.77h.11-.05q.95.07 1.91.17.16 0 .3.03 5.5.56 10.96 1.3 6.89.95 13.7 2.3c4.14.83 8.27 1.85 12.36 2.87a195 195 0 0 1 5.16 1.38 212 212 0 0 0-9.18-2.42c-2.19-2.05-4.34-4.1-6.65-6a247 247 0 0 0-17.53-3.97q-6-1.11-11.15-1.83a245 245 0 0 1 26.22 3.94c-2.5-1.77-5.13-3.25-7.72-4.85a16 16 0 0 1-2.59-1.85c-.39-.37-.8-.83-.86-1.4v-.33q.01-.11.04-.21l.01-.07.02-.04.06-.18.04-.1a4 4 0 0 1 1.04-1.35l.18-.16.13-.1.16-.14.18-.15h.01l.06-.06.04-.03.01-.01.05-.04.14-.3c3.52-6.31 12.34-7.93 12.34-7.93a8 8 0 0 0-1.99-1.97 6.5 6.5 0 0 1 3.25-.03q0-.05-.02-.08c-.19-.77-.1-1.22.1-1.37 0 0 1.28.04 1.66.18a7 7 0 0 1-1.1-.66 102 102 0 0 0-4.46-.97 120 120 0 0 0-18.39-1.85 85 85 0 0 0-3.3-.07zm38.09 6.66a8 8 0 0 0-.96.78v.08c0 .98.7 3.02 2.2 4.24 1.95 1.6 5.57 3.18 5.57 3.18-.17-.61-.09-1.4-.09-1.4a9.5 9.5 0 0 0 3.45 3.17q.16.1.36.18c.54.26 1.26.57 1.97.85a17 17 0 0 0 1.57.51c1.9.4 3.91.71 5.82.24a8 8 0 0 0 3.3-1.66v-.02c-1.98.73-4.1.97-6.14.27l-1.03-.38-.37-.17c-2.04-1.03-3.9-2.51-5.7-3.9a45 45 0 0 0-9.95-5.97zm24.61 2.28c6.25 6.47 1.84 12 1.84 12s-7.88-1.64-13.86-1.3c-2.85.16-6.22 1.45-8.96 2.75l.08.01q.89.03 1.63.18.5.1.93.23 1.32.42 2.18 1.08.3.21.54.44.13.11.24.24a6 6 0 0 1 1.64 2.93l.18-.14q.77-.56 1.65-.97.7-.36 1.44-.67a32 32 0 0 1 5.3-1.76c2.16-1.02 8.4-1.64 9.62-1.54 1.23.11 2.87.31 2.87-.4s-.71-3.28-2.66-7.17a22 22 0 0 0-4.66-5.9zm-13.74 18.56c3.91-.14 6.76 3.92 7.51 4.94h.11c2.26 0 4.55-.1 6.82-.03.25 0 2.49.1 2.61.11l1.96.15q2.13.2 4.24.49l1.05.15s-1.23-1.1-1.82-2.01c-.58-.92-.53-1.88-.53-1.88 1.48-.1 2.33-.77 2.55-1.64.26-1.04-.9-1.88-.9-1.88l-.06-.03c.42.38.59.77.39 1.18-.94 1.95-5.95-.67-11.33-1.15s-12.6 1.6-12.6 1.6zm39.46-18.29c-.32.65-1.73 2.22-7.75 1.23l.11.05a46 46 0 0 1 3.32 1.88c1.47.9 2.8 1.81 3.8 2.69 0 0 2-2.45.8-5.3l-.24-.49z"/><path fill="#fff" d="m31.46 15.92-2.89.17c-5.28.28-10.56.16-15.83.49a38 38 0 0 1-2.35.06h-.03l1.29.33q.86.23 1.72.5a78 78 0 0 1 5.72 1.95q1.4.55 2.78 1.14 1.46.65 2.89 1.36c.26-.4 1.43-.4 1.43-.4l-.15-.3s.33.2.74.18l.08-.01.3-.12c.13-.08.24-.2.5-.28.43-.16 1.03-.1 1.03-.1.17-.29.9-.58.9-.58l-.33-.27c.3-.05.96.09 1.24.12q.31-.02.4-.06l.03-.02c.08-.06.14-.2.06-.31-.14-.13-.44-.23-.66-.32-.24-.11-.26-.27-.27-.31l-.01-.02c-.26.04-.84-.2-.84-.2s.49-.03.62-.11l.32-.15.05-.05.02-.02.05-.04.02-.02s.4-.4.72-.5c.31-.08 2.9-1.28 2.9-1.28s-.71.04-1.35 0c-.66-.05-1.2-.22-1.2-.22-.27-.1-.06-.42.1-.62zM6.91 20.45q-1.26-.03-2.54.1s2.24.54 3.82 2.66c-.5 2.08 2.2 6.68 6.25 10.21a67 67 0 0 0 2.3 1.94l-3.05-.07c2.15 1.4 7.85 3.27 7.85 3.27-1.25.42-3.4.76-3.4.76.14.16 4.25 2.3 11.92 2.62 4.21.17 8.4-.57 12.27-2.21l.09-.05.12-.07c-.17-.05-3.9-.38-5.46-.73a7 7 0 0 1-1.25-.4s3.15.04 8.33-1.47q1.1-.3 2.16-.69a43 43 0 0 0 2.7-1.06h.02l.02-.02q.5-.21.98-.44l.04-.03a27 27 0 0 0 2.82-1.55l.42-.21c-3.3 1.3-6.68 1.76-10.24 2.02A65 65 0 0 1 31 34.8c-7.5-.94-11.47-3.46-11.47-3.46 6.86 1.2 10.48.99 12.13.7-2.5-1.58-4.65-3.58-7.45-5.33-5.85-3.66-11.42-6.12-17.3-6.25zm111.47 3.65c-1.11-.02-3.56.1-5.44 1.45l.2.13.07.04.15.1.06.04.15.1.05.03.18.13h.02l.14.1.05.05.07.05q.02 0 .05.03v.01l.06.04.03.02c-.48-.11-1.48-.25-1.94-.32l-.58.6s-.28.37-.44 1.31c-.05.3.12 1 .42 1.27.31.27 1.27 1.15 1.43 1.57s-.13 1.08-.07 1.37c0 0-.74-.48-1.16-.6.09.09.93.96.46 1.07 0 0-.43-.5-1.2-.84s-2.18-1.04-2.6-1.42a3 3 0 0 1-.69-1.22c.05.06.28.38.5.42.2.03.83.44.91.49a2 2 0 0 0-.5-.8c-.26-.23-.91-.54-1.26-.96l.38-.12s.11-.75-.06-1.5a6.5 6.5 0 0 0-3.25.04s1.08.7 1.99 1.96c0 0-8.82 1.62-12.34 7.94l-.15.29-.04.05.07-.06h.03v-.01c.15-.12 1.54-1.3 2.38-1.78a20 20 0 0 1 3.96-1.52 25 25 0 0 1 4.5-.89 35 35 0 0 1 14.34 1.9c4.44 1.51 8.53 3.82 13.09 5.03q.87.24 1.75.42l.32.07a17 17 0 0 1-1.56-.51 33 33 0 0 1-1.97-.85l-.36-.18a9.5 9.5 0 0 1-3.45-3.18s-.08.8.09 1.41c0 0-3.62-1.59-5.56-3.18a6.4 6.4 0 0 1-2.21-4.24v-.08a4 4 0 0 0-.67.85c-.54.98-.5 1.73-.5 1.73s-.46-.2-.88-.52c0 0 .22.9.97 1.27 0 0 .43.57.24 1 0 0-1.32-.11-1.63-.36-.3-.26-1.28-.61-1.28-.61s.33-.05.68-.03c0 0-.36-.86-.7-1.16-.34-.28-1.02-.8-.87-1.48 0 0 .8.06 1.2.21 0 0-1.28-1.1-2.06-1.27l1.07-.06s-.15-.75 1.2-1.4c1.36-.67 1.78-1.09 2.07-1.5.28-.43.4-.87.75-1.12 0 0 .67.37 1.19.77 0 0-.3-.9-1.26-1.55l-.6-.04m-17.3 11.78q-.7-.02-1.41.03l-.58.06c.42 1.36 2.27 3.36 2.27 3.36-.88.06-2-.25-2-.25 1.62 2.2 6.14 4.96 9.66 5.65s6.7.56 6.7.56c-.5.25-1.3.56-1.3.56s1.37-.06 3.25.32q.37.07.8.19c1.24.32 2.79.83 3.7 1.15l.28.1-1.32-.85a54 54 0 0 0-3.36-1.95 56 56 0 0 0-5.47-2.56 73 73 0 0 1-3.44-1.87 58 58 0 0 1-4.49-2.84c-.68-.48-1.47-.89-2.07-1.48q-.07-.07-.12-.08a9 9 0 0 0-1.1-.1m13.53.95c.78.18 1.6.8 2.23 1.25.38.27.73.59 1.1.87.07.06 1.02.64 1.06.64q.2.08.41.08c.47 0 .82-.31.85-.84s-.64-.83-.64-.83l-1.57-.42a61 61 0 0 0-3.44-.75M77.05 50.3q1.39.36 2.77.77c1.31.39 2.7.74 3.92 1.35-1.43-.1-2.93-.24-4.37-.08.62.25 1.33.5 1.84.92q-3.66.04-7.34.18c-4.27.15-8.57.32-12.82.89 2.14.68 4.52 1.69 6.22 3.25q.36.34.68.7-2.54.16-5.08.44c.34.69.45 1.38.45 1.38-.44.76-1.66 1.46-1.66 1.46.57.13 1.34 0 1.34 0-.32 1.09-.06 1.6-.06 2.69s-1.35 1.54-3.46 1.86c-2.1.31-3-.39-3-.39l.32-.7c-.7.12-2.76.2-2.76.2 1.35-.6 3.08-1.8 3.08-1.8-.83.32-2.55.73-2.55.73s-.52-.37-1.03-.86c0 0-2.57.73-3.78 1.14a44 44 0 0 0-10.31 4.9q.62.12 1.22.27a30 30 0 0 1 1.82.48l1.14.38c.56-.63 1.56-1.09 1.56-1.09a2.7 2.7 0 0 0-.59 1.48h.02c1.12-1.77 3.02-1.63 3.02-1.63-.4.1-.88.4-.88.4s.83.29 1.66.53 2.69.39 3.77.39c1.07 0 3.07.4 3.07.4.88-.3 3.58-.98 3.58-.98-.93.58-2.6 1.41-2.6 1.41 3.38 1.86.5 5.68.5 5.68s-.6.15-1.82 1.08a4.3 4.3 0 0 0-1.52 2.15c.64-.59 1.52-1.13 1.52-1.13-.25.4-.14.6-.68 1.81-.54 1.22-1.86 1.18-2.79 1.27s-2.44-1.02-2.44-1.02a7 7 0 0 0-1.52 1.12c.44-1.46 2.05-3.03 2.05-3.03-.68.3-1.9 1.17-1.9 1.17-.69-.53-3.1-1.22-4.7-2.1-1.62-.88-1.42-2.59-1.42-2.59a7 7 0 0 1 .98-2.4 6 6 0 0 0-1.13.93 3 3 0 0 1 .01-.54v-.01h-.02s-1.16.63-1.67.97a23 23 0 0 0-2.49 1.93l.18.2a56 56 0 0 0 9.05 7.64 83 83 0 0 0 4.65 2.99 161 161 0 0 0 17.58 8.82A41 41 0 0 1 79 102.69a34 34 0 0 1 5.32 5.68c1.8 2.44 3.12 5.2 4.74 7.75a52 52 0 0 0 9.7 11.48 34 34 0 0 0 7.13 4.8 20 20 0 0 0 2.15.92c.28.1.6.24.9.27-.08.69-.8 1.27-1.32 1.66 4.3.85 8.76.73 13.05-.02l-2.32 2.48a34 34 0 0 0 12.76-3.35 32 32 0 0 0 10.03-7.35 30 30 0 0 0 4.2-6.01c.14-.27.17-.28-.08-.4a15 15 0 0 0-5.34-1.41c-5.45-.59-10.77 1.28-15.85 3.02-2.16.74-4.36 1.65-6.64 2-3.22.48-6.52.49-9.5-1.04-2.8-1.44-5.12-3.75-7.15-6.13a58 58 0 0 1-5.16-7.2 81 81 0 0 1-7.59-16.08c-1.64-4.73-2.92-9.74-2.74-14.8.15-4.05 1.17-8.35 3.33-11.83a13 13 0 0 1 4.22-4.31 12 12 0 0 1 3-1.28 14 14 0 0 1 1.66-.32 247 247 0 0 0-16.9-3.23 239 239 0 0 0-11.2-1.48q5.27.32 11.43.99c34.94 3.84 54.01 13.15 54.01 13.15s1.55 1.02.7 2.3c-.4.62-1.24.54-1.84.38a80 80 0 0 0-3.9-1.78c-2.2-.97-5.22-2.22-9.07-3.6a26 26 0 0 0 2.64 4.14 21 21 0 0 0 5 4.7 18 18 0 0 0 8.55 2.76c2.93.22 5.86-.23 8.64-1.16 1.96-.66 3.8-1.6 5.72-2.33 2.67-.99 5.28-2.05 8.08-2.6a23 23 0 0 1 4.77-.46l.6.02c.15 0 .07-2.2.04-2.42a9 9 0 0 0-.5-1.92 7.5 7.5 0 0 0-2.35-3.36l-.06-.06a14 14 0 0 0-1.74-1.39 55 55 0 0 0-9.08-4.7l-.85-.37c-3.73-1.6-7.53-3.1-11.37-4.4q.94.5 1.86 1.04l.33.2.46.27a41 41 0 0 1 1.6.97c1.42.89 2.92 1.84 4.12 3.04a3 3 0 0 0-.66.08l-.63.17a24 24 0 0 1 4.09 3.67c.16.18 1.51 1.94 1.55 1.94a27 27 0 0 1-2.52 1.03q-.64.21-1.28.39c-1.52.42-3.06.57-4.64.67l-.17-.02v.02q-.06.16-.19.33c-.41.61-1.25.52-1.85.34a79 79 0 0 0-3.86-1.86c-7.21-3.4-23.77-10.17-48.88-14.65a242 242 0 0 0-10.86-1.71h-.02l-.1-.02zm108.43 5.98s-2.23 5.56-8.06 8.39c-4.18 2.03-8.03 4.4-10.48 7.2q-.53.61-.96 1.25h.04c5.91.66 8.82 3.16 9.77 4.37l.17.23h.02c.36-.07 6.3-1.14 9.97-5.19h-.4c-.9-.03-4.37.06-3.5-1.68.3-.58 1.34-.42 1.85-.4.9.06 1.78.15 2.67.1 1.23-.06 1.45-1.17 1.76-2.2q.44-1.47.55-2.78c-1.36 1.73-3.8 2.31-4.6 2.45l-.14.03c-.54.08-1.6-.08-1.46-.86.08-.48.74-.88 1.15-1.05 1.17-.48 2.32-.92 3.38-1.63a7 7 0 0 0 1.07-.86c.09-.08.57-.47.56-.6a11 11 0 0 0-.84-3.12 7 7 0 0 1-.63 1.13 5 5 0 0 1-1.73 1.77c-.43.24-1.25.5-1.63-.24-.38-.73.67-1.35.67-1.35a6.3 6.3 0 0 0 2.43-3c-.83-1.28-1.63-1.96-1.63-1.96M170.7 77.56c-1.2-.03-2.53.7-3.32 1.2-.17-.36-.5-.67-1.1-.88-1.84-.62-4.1 1.13-4.1 1.13.18-1.34-1.64-.96-1.72-.95-.54.05-2.8.77-4.15 1.52-1.99.7-4.61 1.54-7.51 2.24.54 3.09.38 5.26.38 5.26 3.08-1.6 5.62-4.87 7.18-7.24.33 1.6 1.67 3.74 1.67 3.74 2.15-1.33 4.07-3.27 4.07-3.27.67 1.2.56 3.7.56 3.7a12 12 0 0 0 3.74-2.2c-.97 5.13-4.07 10.11-4.07 10.11 3.63-1.36 10.57-8.75 11.02-10.76s-.22-3.1-2.15-3.54a3 3 0 0 0-.5-.06m-22.05 4.3c-3.37.8-7.1 1.41-10.64 1.37.62 6.3-4.96 11.97-4.96 11.97 9.05-2.54 13.8-9.82 15.26-12.44q.24-.59.34-.9m-19.54 20.88s-2.89 7.09-6.22 10.55c-3.34 3.47-5.16 4.36-5.37 4.85s-.25 2.24 3.66 1.74 6.67-3.42 6.67-3.42 5.36-1 10.06-.36c0 0 1.3 1.42 3.17 1.3 1.86-.14 5.73-7.42 5.44-14.3 0 0-5.58 8.93-8.1 10.78 0 0-.6-1.46-1.33-2.18 0 0-3.06 2.06-3.67 3.2.06-.12-.55-.97-.61-1.08q-.5-.87-1.12-1.63c-1.22.72-2.63 1.77-3.27 3.06a16 16 0 0 0 1.18-3.22q.26-1.03.36-2.1c.25-2.42-.06-4.89-.85-7.2"/><path fill="#d7a22a" d="M111.72 4.43c-4.5 0-7.19.67-7.19.67s2.02.13 6.23 1.6c.26-.08.61-.23.93-.45.6-.44 1-.52 1.25-.52.26 0 1.38 1.33 1.38 1.33s-.12-1.03-.34-1.9c0 0 1.1-.1 1.52 0 .62.15 1.13.35 1.34.35s.31-.26.31-.26.39.26.39.56c0 0 .87.6.87 1.17s-.13 1.3 0 1.65c0 0-.22.13-.57-.43 0 0-.56.48-1.12.48a2 2 0 0 0-.7.13q2.92 1.29 6.6 3.25l.5.35s.2-.82.33-.95c0 0 .25.23.3.36 0 0 .05-.36-.02-.77 0 0 .69-.56 1.22-.6.54-.06.75-.06.93-.16 0 0 .12-.43-.06-.89 0 0 .9.53 1.08 1.2 0 0 .08-.41.05-.83 0 0 .95-.15 1.64.03q1.06.28 1.3.67c.16.25.59 1.11.35 1.3-.25.18-.68.26-.8.46-.14.2-.19.38-.37.51s-.4.16-.4.16-.05.71.13 1.07c0 0-.37-.05-.55-.48 0 0 .09.4-.17.69s-.44.46-.69.53c0 0-.63-.6-.68-.84 0 0 .07 1.42-.18 1.16 0 0-1.33-1.18-1.6-1.32 0 0-.56.08-.8.05-.22-.02-1.02-.32-1.17-.58 0 0-.03.3.4.61 0 0-.38-.06-.53-.13 0 0-.23.26-.64.36 0 0 .41.47.6.64 0 0-.82-.14-1.18-.53 0 0-.47.02-.98-.13s-.82-.1-1.28-.03-.54.03-.87-.05-1.25-.59-1.25-.59.15.4.3.54c0 0-.07.34-.81.13-.75-.2-.77-.44-1.16-.67s-.64-.56-.56-.84.31-.5.31-.5.23.22.64.4c0 0-.69-.87-.77-1.18l.54.1s.13-.49 1.2-.72q.55-.11.91-.16c-2.96-.92-7.1-2.08-11.88-3.04l-.2.28-.19.35c-.17.36-.3.73-.59.96 0 0-2.22-.7-2.93-1.04 0 0 1.12.92 1.9 1.34 0 0-.67 1.11-3.02.85 0 0-1.08.47-1.94.38-.84-.09-2.13-.64-2.4-1.08s-.23-1.36.68-1.89c0 0 1.24.76 1.86 1.1 0 0-1.1-1.36-1.01-1.8 0 0 .39-.32.85-.6l-1.65-.2a80 80 0 0 0-13.5-.43c.31.46.25.9.5 1.35.31.57-.14.82-.14.82-.33-.28-1.73-.87-1.73-.87.53.5.98 1.2.98 1.2-.34.2-1.23.38-2.19.42-.96.05-2.32.84-2.32.84-.57-.17-1.06-.75-1.54-1.2l-.24-.2-.06-.06-.04-.03-.05-.03c.02.02.05.1.06.15v.02l.01.02a5 5 0 0 0 .32.72q.39.69.83 1.34l.02.02.33.52.1.17.03.04.03.06.05.06.02.04.02.04c-.12-.15-.5-.23-.68-.29l-.04-.01a6 6 0 0 1-.92-.49c-.13-.09-.52-.44-.68-.39l-.1.04-.06.02-.12.03-.15.04-.16.03-.23.04-.4.05h-.03l-.55.01c-.98-.06-2.18-.9-3.02-1.74a1.3 1.3 0 0 1-.4-.93 78 78 0 0 0-2.57.65c-1.25.3-8.06 1.82-15 3.37.04.49-.16 1-.16 1.28 0 .48.38.85.38.85-.8.06-2.2-.47-2.2-.47.4.57 1.55 1.22 1.55 1.22s-.17.63-.7.85-.91.13-1.57.08c-.65-.04-1.22.27-2.05.31s-1.85-.47-1.85-.47c.91.08 1.6-.54 1.6-.54-1.18-.13-1.55-.57-1.68-.83-.1-.19-.38-.45-.65-.64l-9.05 2.03-5.85.76c-.16.2-.37.52-.1.62 0 0 .54.17 1.2.22.64.04 1.34 0 1.34 0s-2.58 1.2-2.89 1.29-.72.49-.72.49l-.02.02-.05.04-.02.02-.05.05q.29-.13.62-.18c.39-.06.85.3.85.3s.4.08.82-.07a4 4 0 0 1 1.22-.12c-.26.04-.52.22-.78.22.2 0 .49.14.65.26.76.51-.2 1.18-.7 1.42-.74-.08-1.21.21-1.21.21s.97 0 .92.28-.49.47-.95.57-.82.56-.82.56c.2.02.39.23.39.23s-.5.05-.56.1c-.08.05-.34.62-.54.87-.2.26-.92.44-.92.44.33.18 1.38.3 1.38.3a5 5 0 0 1-1.5.26l1.83 1.15h.01l1.02.25c3.85.88 7.8 1.78 11.74 2.01 2.38.14 4.8-.22 7.14-.63a61 61 0 0 0 4.28-.9c-.64.7-1.34 1.41-2.15 1.92l.12-.03q7.13-1.77 14.3-3.49c3-.7 6.03-.99 9.07-1.05a2.6 2.6 0 0 1 1.36-.42c1.1-.04 2.14.22 2.88.48q1.84.08 3.68.2a4.5 4.5 0 0 0-1.98-1.86q1.65 0 3.3.07c6.14.22 12.33.68 18.38 1.85q2.24.44 4.47.97c.01 0 .11-.03.18-.18.08-.17.04-.54.38-.62s.97.23 1.12.31 1.02.62 1.3.75c.16.08.23.34.25.57l2.44.7h-.01q-.02 0-.05-.03l-.07-.05-.05-.04-.14-.1h-.01l-.19-.14-.05-.03-.15-.1-.06-.04-.15-.1-.06-.04-.21-.13c2.5-1.8 6.03-1.41 6.03-1.41s.8.1 1.4.3c0 0 .8-.4 1.4-.33.6.06 1.68.63 1.78.97.1.35-.2 1.41-.4 1.84s-1.27 1.09-1.88 1.3l-.07-.14-.06-.08a3 3 0 0 0-.65-.67l.03.1.03.1.02.1.02.08.09.37.04.3-.31.2a46 46 0 0 1 9.95 5.98c1.8 1.39 3.66 2.87 5.7 3.9l.38.17q.51.21 1.02.38a9 9 0 0 0 6.15-.27l.12-.1.36-.4q.16-.2.3-.41l.15-.27c.65-1.2.69-2.62.48-3.92l-.12-.66a13 13 0 0 0-.4-1.34 16 16 0 0 0-.42-1.1l-.12-.28-.06-.13-.11-.23-.06-.1-.04-.1-.06-.09-.03-.06q.8.67 1.42 1.33a22 22 0 0 1 4.66 5.9c1.95 3.9 2.66 6.45 2.66 7.17s-1.64.51-2.87.4c-1.22-.1-7.47.52-9.62 1.54h.01c1.43-.33 2.87-.55 4.19-.57 3.82-.05 9.17 1.05 10.77 2.48l.07.03s1.15.85.89 1.88c-.22.87-1.07 1.55-2.55 1.64 0 0-.05.96.53 1.88.58.9 1.82 2.01 1.82 2.01q2.68.41 5.32 1.01l.06.02c.97.32 2.04.46 3.03.72l1.67.44a79 79 0 0 1 5.93 1.86c.2.07 1.16.56 1.3.46.38-.27 2.52-1.76 4.2-2.08 1.84-.36 3.56-1.05 3.56-3.13-.18-2.16-1.89-4.41-3.75-5.91 0 0-2.7 3.33-4.03 2.3-1.34-1.02.7-2.39.27-5.05s-9.15-11.62-20.17-18.23c0 0 5.1 2.1 10.02 4.72 6.02.99 7.43-.58 7.75-1.23a9 9 0 0 0-.66-.98 5 5 0 0 0-.9-.47c-.69-.27-1.34-.38-1.8-.61 0 0-1.07-1.07-1.42-1.58 0 0-.1.46.18 1.02 0 0-.81-.72-1.56-.87a7 7 0 0 1-1.88-.63c-.23-.18-.69-.58-.69-.58s.02.37.13.64c0 0-.76-.06-.9-.87-.13-.8.5-1.13.5-1.13s-.06-.23 0-.52c0 0 .7.77 1.02.96 0 0 .15-.48-.14-1.32l-.25-.15-.74-.37c-.2-.09-11.55-6.52-16.93-9.22a7 7 0 0 1-1.52-.32s-.9-.42-1.05-.85c0 0-.06.22.07.47.23.4.71.85.85 1.42 0 0-.9-.53-1.63-.91-.65-.33-2-.72-2.77-1.3a2 2 0 0 1-.37-.35 1 1 0 0 1-.23-.44l-.04-.13V12l-.01-.24.03.03.05.03.05.04c.32.28.66.58 1.07.7l.1.02-.04-.04-.14-.17a5 5 0 0 1-.73-1.06 64 64 0 0 0-16.75-5.88 51 51 0 0 0-9.9-1zM99.08 35.98l-1.17.15c-1.16.19-2.3.46-3.38.73l-.23.06-.16.04h-.04l-.02.03-.05.04h-.01l-.04.04-.06.05h-.01l-.18.16-.16.13-.13.11-.18.16c-.4.34-.81.82-1.04 1.35l-.04.1-.06.18-.02.04-.01.07-.04.2v.35c.05.56.47 1.02.86 1.38.77.73 1.7 1.31 2.59 1.86 2.59 1.6 5.23 3.08 7.72 4.85 25.26 5.2 38.72 12.3 38.72 12.3s1.52 1.09.63 2.34c-.43.6-1.26.5-1.85.32a75 75 0 0 0-3.85-1.9c-5.34-2.58-15.85-7.1-31.2-11.18 2.32 1.88 4.47 3.94 6.65 5.99q5 1.2 9.18 2.42l.8.22q2.48.7 4.95 1.5 4.11 1.32 8.1 2.9l.5.2.66.27q1.74.7 3.46 1.47l1.96.9.04.02.1.04.02.02s1 .7.91 1.64q0 .1-.03.2l-.04.13h.17a22 22 0 0 0 4.64-.66q.64-.18 1.28-.4 1.29-.44 2.52-1.02c-.04 0-1.4-1.76-1.56-1.94a24 24 0 0 0-4.09-3.67l.64-.17q.33-.08.66-.08c-1.2-1.2-2.7-2.15-4.12-3.04a42 42 0 0 0-1.6-.97l-.46-.28-.33-.2-1.86-1.03-.02-.01h.03-.03c-.76-1.03-3.6-5.09-7.52-4.94l-.05-.21a6 6 0 0 0-.56-1.35l-.12-.22a6 6 0 0 0-.9-1.16l-.15-.14-.27-.24-.25-.2-.12-.1-.22-.16-.24-.15-.25-.15a7 7 0 0 0-1.15-.52l-.32-.1a8 8 0 0 0-.93-.23l-.38-.06-.3-.04a10 10 0 0 0-.94-.08l.02.02c.42.13.75.68 1.03.98l1.01 1.13q.68.8 1.3 1.64a26 26 0 0 1 2 3.12q.44.81.8 1.67l.34.85.15.42c.02.07.03.31.08.36-.64-.6-1.22-1.24-1.87-1.83l-1.21-1.08a45 45 0 0 0-4.49-3.43l-.82-.55v-.01h-.02l-.3-.1c-.9-.32-2.44-.84-3.7-1.16q-.42-.12-.79-.2c-1.88-.37-3.26-.3-3.26-.3s.82-.32 1.32-.57c0 0-3.2.13-6.71-.56s-8.03-3.45-9.67-5.65c0 0 1.13.32 2.01.25 0 0-1.85-2-2.27-3.36"/><path d="M88.2 10.96c-.22.92-.04 3.52-.04 3.52-.42-.5-1-1.82-1-1.82s-.5-.22-1-.1-1.3.6-1.38.91c-.07.33-.5.65-.5.65 0 .7.5 1.84.5 1.84a6 6 0 0 1-1.28-1.24c-.14.25-.28 1 .07 1.88.36.9 2.52 1.35 2.52 1.35 1.32.1 2.17-1.1 2.88-1s.98.1.98.1c.21.29 1.22 1.19 1.22 1.19v-1.48s.18-.05.86-.33 1.03-1.57 1.1-2.07-.07-1.1-.57-1.6c-.5-.49-1.24-.56-2.1-.42-.85.14-1.44.2-1.44.2a14 14 0 0 1-.83-1.58zM68 13.33c-.8-.07-2.4.6-2.85.9a4.4 4.4 0 0 1-1.95.7c-.67.04-1.85.66-2.2 1.11s-.38.73-.38.73-.49.29-.53.8c-.03.53 0 .78.14 1.03 0 0 1.03-.15 1.93-.54 0 0-1.44 1.57-3.11 2.27 0 0 1.74.01 2.58-.37.01 0 .18.02.56.73.41.75 1.77.86 2.96.9 1.18.03 1.56 0 1.95.03s1.42-.21 1.74-.45l1.03-.84c-.1.04-.87.27-1.42.13 0 0 .52-.55.9-.58a1.5 1.5 0 0 0 1.2-1.01c.17-.6.76-1.01 1.07-1.22s1.5-1.02 1.6-1.94-.38-1.65-1.95-1.75c0 0-1.32.62-2.85.8 0 0 .83-.39 2.15-1.43 0 0-1 .18-1.45.2 0 0-.32-.13-1.12-.2m39.44.52c.14.17.7.48.7.48s-.62.06-1.2.25c-.6.2-.82.7-1.13.9s-1.4.16-1.4.16a9 9 0 0 0 1.93 1.65c-1.17-.28-3.19-1.22-3.19-1.22s-.72-.06-1.56.33c-.84.4-.93 1.26-.65 2.01.28.76 1.82 1.52 1.82 1.52-.68 0-1.73-.2-1.86-.22.13.1 1.26.9 2.4 1.17 1.2.28 2.26-.2 2.26-.2-.22-.33-.14-1-.14-1 .89.9 3.04 1.85 3.2 1.92-.63-.45-1.4-1.56-1.4-1.56s.86-.34 1.28-.65 1.12-1.2 1.18-1.42.53-.76.53-.76c.53.3 1.17.37 1.17.37-.33-.34-.41-.93-.41-.93s.7-.28 1.27-.75.85-1.4.15-1.63-1.54.06-1.99 0-1.45-.11-1.45-.11c-.36 0-1.51-.31-1.51-.31m29.96 1.78q-.44.01-.68.1c-.31.1-1.53.1-1.53.1.5.48 1.19 1.43 1.19 1.43-.78-.58-2.38-1.43-3.03-1.43h-.13c-.64.03-1.48.26-1.77.61-.3.38-.95.55-.95.55.03.3.88 1.25.88 1.25-.5-.13-1.46-.57-1.46-.57s.61.81 1.2 1.05c.56.25 1.11.54 1.93.88s2 .24 2 .24c-.17-.38-.89-1.3-.89-1.3.86.45 2.82 1.67 2.82 1.67.31-.07.62-.34.82-.61s.54-.04 1.12-.1c.58-.07.92-.45.96-.92s-.18-.78-1-1.36c-.8-.57-.8-.98-.8-.98.37.1.88.3.94.33-.03-.06-.3-.55-.78-.78a2 2 0 0 0-.84-.16m-13.59 1.46c.51.2.71.48.71.48s-.3.03-.61 0c-.32-.04-.37-.17-.85-.24a2 2 0 0 0-1.25.17c-.58.24-1.12.2-1.12.2-.68-.2-2.01-.34-2.01-.34.68.38 1.3.89 1.3.89-.24.17-1.2.54-1.4.64s-.65.51-.4.91c.23.41.3.79.3.79-.61-.2-1.63-.38-1.63-.38.51.38 1.97 1.74 1.97 1.74-.58-.1-1.56-.48-1.56-.48s-.28.34-.24.65c.03.3.47.54.95.68a9 9 0 0 0 1.6.13c1.22-.17 1.96-.54 1.96-.54a6 6 0 0 0-.9-1.09c.1.03 1.4.41 2.06.5a2 2 0 0 0 1.63-.57c.27-.3.41-.44.9-.55s1.14-.54 1.14-.54c-.1-.33-.52-.93-.57-1.01.27.1.98.27.98.27s.54-.68.03-1.18-1.4-.65-1.4-.65c-.5-.34-1.59-.48-1.59-.48m22.56.04c.1.34.36.68.36.68s-.17.18-.77-.05-1.08-.13-1.08-.13c0 .57.67 1.52.67 1.52a9 9 0 0 1-1.13-.68c.08.6.5 1.08.5 1.08s.33.4 1.1.8c.78.4 1.45.24 1.45.24a2.6 2.6 0 0 1 1.76.84l-.47-.05c-.21 0 .6.52 1.17.96s1.61.4 1.61.4c-.08-.27-.62-1.55-.62-1.55l1.49 1.31s.21-.23.21-.55-.62-1.12-.62-1.12.48-.47.4-.76a2 2 0 0 0-.75-.86l-.75-.46c.1.4.48.9.53.97a6 6 0 0 1-.66-.55 6 6 0 0 0-1.66-1.25c-.71-.3-1.65-.01-1.65-.01a8 8 0 0 1-1.1-.78M44.84 18.9c-.47.03-.88.11-1.02.27-.28.31-.87.87-1.57 1.43s-.48.98-.48.98c-.56.21-2.33.48-2.33.48.55.2 2.06.56 2.06.56s.1.1-.29.49a3 3 0 0 0-.57 1.24c.6.34 2.43.77 2.43.77-1 .13-2.42.39-2.42.39s.28.48 1.46.66c1.19.17 2.75-.77 2.75-.77 1.29.31 2.2-.45 2.2-.45a5 5 0 0 1-.91-.35c.84.07 1.68-.1 1.68-.1.83-.5 1.18-.9.97-1.5s0-.98-.04-1.85-.67-1.23-.67-1.23c1.16-.3 1.51-.85 1.51-.85s-1.78.17-2.2.17-.41 0-1.18-.21c-.38-.1-.91-.15-1.38-.13m95.56 3.17c.48.27 1.2.72 1.2.72-.02 0-.87 0-1.27.74-.4.75.17.68.34 1.7s1.19.74 1.19.74c-.3-.24-.2-.6-.2-.6.46.36.84.47 1.49.6.64.14.88.41.88.41-.54 0-1.22-.03-1.22-.03s.74.58 1.5.73 1.08-.32 1.08-.32c.71 0 1.53.34 1.53.34-.14-.28-.38-.89-.38-.89.34-.2.79-.98.04-1.5-.75-.5-.78-1.11-1.76-1.79-.99-.68-1.88-.4-1.88-.4.31.26.41.77.41.77a13 13 0 0 0-2.95-1.22m-62.64 1.04a2.6 2.6 0 0 0-1.36.42 4 4 0 0 0-.55.45c-.35.33-1.1.47-1.1.47l-1.51.09c1.57.44 2.02.98 2.98 1.34-.88-.13-2.43-.43-2.43-.43-.21.87-.82 1.14-1.28 1.49s-.5.61-.5.61c.82.18 2.91 1.35 2.91 1.35-.77-.2-2.9-.21-2.9-.21-.12.38-.22.38.4 1.09.6.7.55 1 .34 1.23s-.7.8.23 1.54c.92.72 2.65.59 3.2.51s1.1.05 1.1.05c-.42-.31-1.07-.97-1.07-.97.42.03 1.8.35 1.8.35s-.43-.43-.16-.74c.27-.3 1.12-.18 1.75-.68s.5-1.64.63-1.89c.14-.25.79-.63.79-.63.25-.02.63 0 .63 0a51 51 0 0 0-2.48-1.26c.7.01 1.87.1 1.87.1-.06-.3-.45-1.16-.58-1.55-.13-.38-.02-.72.04-.96.06-.22.02-.63.02-.63-.2-.2-.54-.4-.54-.4.7.02 1.7.17 1.7.17-.1-.04-.48-.24-1.05-.43a8 8 0 0 0-2.88-.48m76.48.51c.2.23.19.5.19.5a2 2 0 0 0-.83.1c-.44.11-.8.5-.8.5.32.3 1.36 1.55 1.36 1.55-.39-.17-1.15-.54-1.15-.54 0 .27.38.77.86 1.1a9 9 0 0 0 1.82.65c.31.42 1.5.6 1.5.6-.1-.26-.79-1.33-.79-1.33.37.17 1.75 1 1.75 1s.23 0 .38-.24c.16-.22-.21-1-.34-1.22-.14-.23-.37-.73-.83-1.17a4 4 0 0 0-1.46-.7l.16.55c-.58-.6-1.82-1.35-1.82-1.35m-21.32.14c-.4-.02-.8.06-1.08.28-.54.44-.77.48-.77.48-.58-.22-1.06-.18-1.06-.18a25 25 0 0 1 1.56 1.43c-.71-.1-1.9-.5-1.9-.5-.34.36-.24.67-.2 1.01s-.34.58-.34.58c.27.4 1.56 1.35 1.56 1.35-.38 0-1.83-.2-1.83-.2 1.01 1.02 2.37 1 2.7 1.02.35.02.7.13 1.2.1.5-.04.98-.65.98-.65.45-.17.84-.78.99-1.04.15-.27.6-.65.6-.65a8 8 0 0 0-1.12-1.25c.98.14 2.21.94 2.21.94-.47-.78-1.18-1.15-1.18-1.15s-.58-.82-1.2-1.21a2.4 2.4 0 0 0-1.12-.36m-23.87.26c-.34.08-.3.45-.38.62-.07.15-.17.18-.18.18.38.3.96.6 1.1.66-.39-.14-1.68-.18-1.68-.18-.19.15-.28.6-.09 1.37l.02.08c.17.74.06 1.5.06 1.5l-.38.1c.35.43 1 .73 1.26.97.26.2.47.74.5.8-.08-.05-.7-.46-.92-.5-.2-.03-.44-.34-.49-.4.03.09.29.85.68 1.21.43.38 1.84 1.08 2.61 1.42s1.2.84 1.2.84c.47-.11-.38-.98-.46-1.07.42.12 1.16.6 1.16.6-.06-.29.22-.95.06-1.37a7 7 0 0 0-1.42-1.57c-.3-.27-.47-.96-.42-1.27.16-.93.44-1.3.44-1.3.13-.16.44-.47.58-.6.46.06 1.46.2 1.94.31l-.02-.02h-.02l-.04-.04-2.44-.71c-.03-.23-.1-.5-.26-.57-.27-.13-1.14-.68-1.3-.75-.15-.08-.76-.39-1.1-.3m-15.8.08a1.3 1.3 0 0 0-.74.27c-.49.37-1.3.59-1.76.8-.47.22-.59.54-.59.54.36.15.92.97.92.97-.62-.14-2.04-.41-2.04-.41s-.03.4-.21.71c-.18.33-.66.35-1.1.58-.43.23-.79.63-.77 1.15.04.86 1.11 1.51 1.24 1.6-.36-.1-1.18-.24-1.18-.24.28.34 2.19 1.87 2.19 1.87l-1.24-.1c.4.12 1.7.66 2.28.78a2.3 2.3 0 0 0 1.16-.1c-.21-.24-.75-.7-.75-.7.41.08 1.45.4 1.45.4a2.1 2.1 0 0 0 1.72-.96 4 4 0 0 1 1.05-.91l1.8.22a13 13 0 0 0-1.34-.68c.5-.23.99-.55 1.15-.93.16-.37.36-.49.45-1.06s-.41-1.13-.41-1.13c.46.1.86.24.86.24-.27-.24-.9-.65-.88-.88.02-.24.29-.27.5-.61.21-.35-.02-.81-.46-1.01-.45-.2-1.35-.25-1.35-.25.14.3.57.66.57.66-.82-.25-1.52-.68-1.88-.75a3 3 0 0 0-.65-.07zm28.53 0c-.6-.06-1.4.33-1.4.33-.6-.2-1.4-.3-1.4-.3a3.4 3.4 0 0 1 1.25 1.55c-.52-.4-1.18-.77-1.18-.77-.36.25-.47.68-.75 1.1-.3.43-.71.85-2.07 1.5-1.35.67-1.2 1.42-1.2 1.42l-1.07.06c.78.17 2.05 1.27 2.05 1.27a5 5 0 0 0-1.2-.2c-.15.66.54 1.18.88 1.47s.7 1.16.7 1.16c-.36-.02-.69.03-.69.03s.98.35 1.29.61c.3.25 1.63.35 1.63.35.18-.43-.24-1-.24-1-.76-.37-.97-1.26-.97-1.26.42.32.88.52.88.52s-.04-.75.5-1.73q.25-.47.67-.85c.34-.33.7-.6.96-.78l.3-.2-.04-.31-.08-.37-.03-.09q0-.05-.02-.09l-.03-.1-.02-.1c.3.22.52.48.64.67l.06.08.08.13c.6-.2 1.68-.86 1.88-1.29s.5-1.5.4-1.84-1.18-.9-1.78-.97M60.3 30.3c.3.38 1.61 1.25 1.61 1.25-.97-.18-1.53-.44-1.53-.44s-.41 0-.9.1c-.48.11-.96.6-.96.6-1.05-.01-1.65.81-2.21 1.28s-1.18.46-1.18.46A6 6 0 0 0 56.38 35c-.71-.18-2.14-.87-2.14-.87-.24.41-.08 1.13.02 1.64s-.45.86-.45.86c.47.58 2.11 1.09 2.11 1.09-1.52.09-3.47-.1-3.47-.1.79.42 2.22.75 2.22.75s1.25.6 2.83.83 3-.84 3-.84 1.44.25 2.05-.46c.62-.72.13-1.75.03-2.03s0-.64.49-.66c.48-.03.92-.47.92-.47.7-.09 1.86 0 2.07.03-.27-.07-2.07-.52-2.33-.97-.28-.49.51-1.23.51-1.79s-.59-1.23-1.46-1.46-1.4-.08-1.4-.08c-.49.03-1.08-.17-1.08-.17m21.32 6.8a1 1 0 0 0-.37.11c-.4.25-.46.72-.69.9s-.92.07-1.25.07-.46.18-.57.41c0 0 1.39.54 2.08.97 0 0-2.13-.48-2.82-.53l.92.49s1.36.63 1.6 1.02c0 0-.6-.1-1.06-.13 0 0 1.1.59 1.82 1.23 0 0 .23 1.45.92 1.56.69.1 1.23.23 1.56-.03.33-.25.44-.67.44-.67s.43.08.76-.2.57-.8.88-.84c.3-.05.66.18.87.15s.35-.15.35-.15l-1.97-.77s1.5.13 2.38.31c0 0 .28-.26-.46-.54s-.39-.8-1.28-1.36a10 10 0 0 0-2.74-1.22s.8 0 1.56-.05c0 0-.81-.31-1.48-.5-.5-.12-1.04-.27-1.45-.23m-15.15 4a5 5 0 0 0-1.47.28c1.26.19 1.45.65 1.45.65s-2.02.35-2.44.49c-.42.13-.36.11-.36.4s-.19.74-.47 1.3-.23 1.96-.23 1.96c.75.32 2.08.28 2.08.28-.8.19-1.9.65-1.9.65.19.66 1.26 1.63 2.1 2.43a6 6 0 0 1 1.18 1.47c-.56.1-1.13.4-1.13.4s1.86.7 2.89.83c1.03.14 2.83-.67 2.83-.67.96.11 2.76-.12 3.2-.8s-.44-1.52-1.1-2.07c-.64-.56-1.03-1.98-1.03-1.98.77.06 2-1.15 2-1.15s-1.94.47-2.45.1a7 7 0 0 1-1.73-2.06c-.42-.8-1.26-2.28-2.51-2.47a5 5 0 0 0-.9-.04m-17.7.01a1 1 0 0 0-.36 0c-.33.11-.92.66-1.37.62s-1.56-.19-1.79.31-.34 1-.34 1 .99.19 1.85.47c0 0-1.87-.14-2.87-.05 0 0 .32.09.6.27 0 0-.6 1.05-.1 1.74s1 1.69 1.91 1.78 2.01-.09 2.01-.09l-1.82-.55s1.55 0 2.73.41c0 0 1.96-.09 2.29-.5.32-.41.35-.7.77-.97.42-.26.73-1.04.55-1.63-.18-.6-1.37-1.2-1.37-1.2l-1.78-.49s.73-.14 1.23-.1c0 0-.04-.4-.59-.59-.4-.13-1.1-.37-1.55-.43m28.22 3q5.14.73 11.14 1.85a244 244 0 0 1 17.53 3.97c15.35 4.08 25.85 8.6 31.2 11.17a77 77 0 0 1 3.84 1.9c.6.19 1.43.3 1.86-.31.88-1.25-.63-2.33-.63-2.33s-13.46-7.11-38.73-12.31A249 249 0 0 0 77 44.12zm67.04 1.21c-1.32.02-2.75.24-4.18.57h-.01a32 32 0 0 0-5.3 1.76 28 28 0 0 0-1.45.67q-.86.42-1.65.98l-.17.13s7.23-2.08 12.6-1.6c5.37.49 10.38 3.1 11.32 1.15.2-.4.03-.8-.39-1.18-1.6-1.42-6.95-2.53-10.77-2.48M39.42 48.31c-.49-.03-.89 0-1.11.16-.45.32-1.41 1.54-1.73 1.86s-.57 1.21-.44 1.85c0 0-.83.45-1.41.45 0 0 1.08.26 3.2-.06 0 0-1.1.57-1.54 1.02 0 0 .64 1.15.64 2.36 0 1.22-.07 2.74-.1 3.26 0 0 1.38-.24 2.47-.24 0 0-2.05.96-2.5 1.6 0 0 .26 2.49 1.99 2.93 1.73.45 2.55-.5 3.32-1.4s2.24-2.11 2.81-2.56c.58-.45 1.16-2.69.27-3.58l-.84-.81c-1.32.45-2.56.49-2.56.49a13 13 0 0 0 2.07-1.03 3 3 0 0 1-.6-1.08l-.76-2.82s-.7 0-1.54-.13c0 0 1.8-.57 2.5-1.09 0 0-.58.07-1.16-.06 0 0-.19-.7-1.34-.9-.57-.09-1.15-.18-1.64-.22m37.7 1.98.04.01.1.01h.02c3.37.45 6.95 1.02 10.86 1.72 25.1 4.47 41.67 11.25 48.88 14.64a79 79 0 0 1 3.87 1.87c.6.17 1.43.27 1.85-.34q.11-.17.18-.34l.04-.12.04-.21c.1-.94-.91-1.64-.91-1.64l-.04-.02-.09-.04-.03-.02-1.97-.9a104 104 0 0 0-3.45-1.48l-.67-.27-.5-.2a131 131 0 0 0-8.1-2.89q-2.46-.8-4.95-1.5l-.8-.23a195 195 0 0 0-5.16-1.37 254 254 0 0 0-12.36-2.86q-6.8-1.36-13.7-2.31-5.46-.74-10.95-1.3l-.3-.03zm-24.47 1.62a1 1 0 0 0-.4.1c-.48.32-.56.97-.57 1.04s1.11-.06 1.75-.18h.04s-1.22.89-3.65 1.2l.01.01c.09.02.4.11.78.16q.34.05.66.03h.02s-.25.9-.38 1.47c-.13.58.13 1.66.76 2.17h.01s1.07-.06 2.21-.3l.03-.01s-.39.63-.9 1.02c0 0 .58.32.25.83-.31.51-1.08 1.86-.63 2.75.18.37.53.76.9 1.1.5.48 1.03.85 1.03.85s1.72-.41 2.55-.74c0 0-1.73 1.22-3.08 1.8 0 0 2.05-.07 2.76-.2l-.32.71s.9.7 3 .39 3.46-.77 3.46-1.86-.26-1.6.06-2.69c0 0-.77.13-1.35 0 0 0 1.22-.7 1.67-1.47 0 0-.11-.69-.45-1.37a2.5 2.5 0 0 0-.96-1.13 2 2 0 0 0-.46-.19l-.28-.06-.58-.14a7 7 0 0 1-1.23-.44l-.3-.16a4 4 0 0 1-.71-.51l-.02-.01a4 4 0 0 1-1.15-1.88s-.45-1.28-1.4-1.6h-.03a25 25 0 0 0-1.68-.5l-.81-.15a4 4 0 0 0-.6-.04M72.62 67.8a4 4 0 0 0-1.27.31c-1.17.51-2.9 1-2.9 1s-1.6.77-1.82 1.08c.04-.08.33-.68.76-1.01 0 0-1.47 0-2.55.05-1.06.05-2.23.15-2.38 1.17-.15 1.01.15 1.52.6 1.88.46.35 2.2 1.42 2.55 1.77 0 0 1.17-.76 2.08-.96 0 0-1.98 1.42-2.43 2.18 0 0 .86-.45 1.47-.45 0 0 1.57.96 2.58.96 1.02 0 2.95-.3 2.95-.3s1.12-.76 2.34-.87c0 0-1.27.87-1.58 1.27 0 0 .51-.05.82.16.3.2 1.32.4 2.23.04.92-.35 1.83-.7 1.78-1.82s-.71-2.44-.71-2.44 1.2-1 1.86-1.31c-.16.02-1.46.21-2.27.55 0 0-1-2.04-2.08-2.7a3.5 3.5 0 0 0-2.03-.56m-25 1.43s-1.9-.14-3.02 1.64h-.01c0-.15.07-.84.59-1.49 0 0-1 .46-1.56 1.09 0 0-.27.3-.36.62q-.07.29-.15.48l-.06.13-.07.14-.07.1-.1.14q-.17.16-.33.24c-.24.14-.54.2-.73.44-.15.18-.32.48-.38 1v.02a3 3 0 0 0 0 .54s.57-.63 1.11-.93c0 0-.88 1.37-.98 2.4 0 0-.2 1.71 1.42 2.59s4.02 1.57 4.7 2.1c0 0 1.23-.87 1.91-1.17 0 0-1.62 1.57-2.06 3.03 0 0 .98-.92 1.53-1.12 0 0 1.51 1.12 2.44 1.02s2.25-.04 2.78-1.27c.54-1.22.44-1.41.7-1.8 0 0-.9.54-1.53 1.12 0 0 .3-1.22 1.52-2.15s1.81-1.08 1.81-1.08 2.9-3.82-.48-5.68c0 0 1.66-.83 2.59-1.41 0 0-2.7.68-3.58.97 0 0-2-.39-3.08-.39s-2.93-.14-3.76-.39c-.83-.24-1.66-.54-1.66-.54s.48-.29.88-.39zM61.6 80.85a3.7 3.7 0 0 0-2.08.66s-2.45.25-2.93 1.9c-.47 1.67.74 2.84 1.1 3.1 0 0 .5-.77 1.49-1.26 0 0-.57.92-.55 1.68 0 0 2.1 1.1 6.27 1.68s3.88.27 5.35 1.18c0 0 1.55-1.1 2.4-1.35 0 0-1.2 1.72-1.31 2.36 0 0 1.94 1.65 3.54 1.77s2.97-.5 2.8-2.14l.58-.71-1.02.07.3-.56s-.05-.84-.52-1.5c.08.05.88.49 1.64.28l-.22.42s.87-.1 1.52-1.21l-.53-.14s-.05-1.22-1.16-2.38c-1.12-1.15-2.2-1.53-2.85-.9 0 0-.33-1.22-1.08-1.55-.76-.34-1.27-.27-1.27-.27s-2.95.58-4.16 1.33c.24-.15 2.18-1.42 2.88-1.86l-1.64.38s-1.72 0-3.32-.12c-1.6-.13-5.28-.5-5.97-.38z"/><path fill="#006778" d="M109.44 36.37c-1.18 0-1.83.08-1.83.08s6.77 5.35 10.72 6.37c3.94 1.02 9.4-2.41 9.4-2.41s-1.86-.63-5.45-1.65a1.82 1.82 0 0 1-1.48 2.88 1.8 1.8 0 0 1-1.82-1.82l.02-.21c-.05 0-1-.59-1.07-.64-.37-.29-.71-.6-1.1-.88-.62-.44-1.45-1.07-2.23-1.24l-.11-.03a32 32 0 0 0-5.05-.45m47.65 21.18c-1.76.05-3.06.79-3.06.79s6.3 0 8.6 2 1.69 3.53 1.69 3.53 2.3 3.68 2.91 5.22c0 0 4.3-4 4.6-6.76 0 0-8.33-4.24-13.96-4.76a6 6 0 0 0-.78-.02M95.84 70.52c-2.43 0-3.61.69-3.61.69s4.87 1.16 7.62 6.17c4.15 7.54 1.2 20.87 4.3 27.99 3.82 8.8 10.83 11.18 10.83 11.18 9.2-4.94 11.17-12.62 11.17-12.62-7.87-4.08-4.1-15.4-6.44-22.8s-11.08-8.82-11.08-8.82 7.15 2.91 7.34 23.57c.06 6.95 2.2 9.9 2.2 9.9-3.62-1.93-4.57-9.02-4.89-14.51-.16-2.8-1.3-16.4-11.7-19.76-2.37-.77-4.28-1-5.74-1zm35.87 36.05.32 3.56 2.48 1.6c.71-2.86-2.8-5.16-2.8-5.16"/></svg>