<svg xmlns="http://www.w3.org/2000/svg" xml:space="preserve" viewBox="0 0 158.17 100.94"><path d="M152.5 44.59c-1.34-1.2-2.43-1.87-2.78-2.17-1.98-1.58-.32-.32-2.22-1.55-1.36-.85-1.74-1.55-3.13-2.32-2.49-1.42-2.75-1.82-4.76-4.23-1.74-3.18-4.44-3.64-7.15-4.25a9 9 0 0 1-4.95-3.4c-1.39-2.27-3.66-3.37-4.87-4.04-3.72-2.03-8-1.68-11.35-4.68-5.05-3.58-6.4-2.91-11.7-3.07-2.94-.08-6.75-1.96-8-3a10 10 0 0 0-3.34-1.79c-3.75-1.15-6.3.83-11.55-1.7-1.53-.76-2.92-1.77-4.42-2.66-.5-.38-1-.65-2.5-.97-3-.59-5.5-.21-8.5.08-2 .13-2.5-.7-4-1.47q-2.25-1.09-4.5-1.58c-2.45-.43-5.05-.13-7.7.4-5.25 1.05-10-1.6-15.1-1.12a5 5 0 0 0-3.1 2.35c-.75 1.6-.75 2.54-.64 4.15.16 2.16.4 2.32.83 3.72.91 3.05 1.4 4.7 2.12 6.75.85 2.38.83 5.3-1.2 6.25-.97.45-2.6.45-3.51-.24-1.42-1.1-2.2-2.6-3.8-2.92-2.14-.43-4.71 1.77-7 2.38-2.28.59-2.57-.64-4.15-1.36-1.04-.49-2.06.2-2.65.56-1.07.59-1.3 1.82-1.58 3.13-.18 1.04-.3 2-.02 3.15.37 1.66.93 2.65.96 3.8.1 2.89-.37 5.05-1.55 6.55-.75.96-1.76 3.66-2.06 4.65-1.04 3.32-.93 2.76-1.44 5.85-.27 1.58-.22 3.35-.35 4.82a54 54 0 0 0 .35 4.63c.4 2.49.85 4.07 1.39 6.15.75 3.03 1.07 4.9.99 7.2-.08 2.38-1.58 4.63-.16 6.3a4.8 4.8 0 0 0 5.1 1.15c1.92-.85 3.31-1.84 4.81-2.06 2.76-.37 4.55.8 5.75.67 1.07-.13 2.92-1.17 3.8-1.25.7-.06 2.22-.14 2.76.26.85.64 1.36 1.34 1.23 3.5l-.51 2.36c-.89 2.86-1.82 5.55-2.28 7.5-.48 2.06-2.73 6.55 1.85 8.35 1.92.78 3.96.62 6.5-.02 1.28-.33 1.82-.38 3.02-.6 0-.07 1.8-.05 1.8-.13l1.6-.08c2.83-.32 3.5-.13 6 .22 2.35.29 4.6.75 6.95.48 1.17-.14 2.32-.35 3.45-.72 3.26-1.05 4.79-2.46 8.7-3 3.26-.45 3.26.11 6.15-.02 3-.14 4.65-1.42 5.9-2.12 1.52-.83 1.92-.9 2.94-1.44 3.69-1.98 8.05-1.74 12.2-2.76 2.91-.72 4.06-2.08 7.35-2.97 1.3-.35 2.73-.32 4.12-.5a9 9 0 0 0 3.98-2.07c1.8-1.66 1.6-1.74 3-2.51 2.32-1.31 4.97-1.29 7.35-2.38 2.2-1.02 4.44-1.87 6.15-3.61 2.51-2.54 6.5-3.27 9.75-4.44 1.92-.7 4.46-1.96 6.6-5.6 2.08-3.59 3.93-4.12 7.6-5.2 2.46-.75 3.53-1.26 5.45-3.05 1.7-1.6 2.32-2.65 3.1-3.77.89-1.29 2.6-3.43.78-5.05-.8-.72-1.63-2.04-3.35-3.37"/><path fill="#fff" d="M150 47.69c-2.13-1.53-2.32-1.8-3.44-2.54-2.9-1.93-3.45-2.36-4.87-3.99-1.4-1.58-1.77-2.11-3.35-2.97-.59-.35-4.57-1.7-3.85-1.58-3.64-.64-3.77-1.42-5.2-2.75-1.2-1.74-2.62-3.83-3.85-4.63.49.29-2.22-1.47-2.2-1.42-2.05-.72-2.77-.54-5.4-.64.09 0-2.83-.4-3.58-.75-1.34-.6-2.06-1.29-2.97-1.98-2.03-1.53-1.47-1.18-3.48-2.65-2.73-1.98-3.07-1.5-6.55-1.85-2.94-.3-5.05-.99-7.35-2.65-4.1-2.97-8.1-1.92-10.6-2.3a19 19 0 0 1-7.5-2.86c-2.91-1.84-2.24-.99-5.35-2.43-3.72-1.77-7.2 1.17-11.55-.06-2.3-.64-3.15-1.84-4.63-2.38-4.45-1.3-5.95-.6-9.55-.55-4.3 0-8.15-1.15-12.25-1.1-1.15 0-2.03.97-1.87 2.28l.06 1.6c.21 1.31.7 2.7 1.1 4.15.5 1.76.77 2.35 1.5 5.15.26 2.24 0 2.86-.17 3.82-.13.78-.64 2.3-1.01 2.86-.43.64-1 .89-1.74 1.34a7.3 7.3 0 0 1-4.01 1.1c-1.45-.06-1.07-.06-3.35-.89-.83-.32-2.54-1.28-4.25-.56-3.3 1.4-3.67.24-5.45.38-.54.02-1.07.3-1.58.53-.83.35-1.2.89-1.74 1.98a5.3 5.3 0 0 0-.43 2.76c-.19 0 .32 1.55.32 1.6.4 2.12.5 3.77-.3 5.65-.77 1.77-.98 2.38-1.97 3.83a20 20 0 0 0-2.78 9.1c.13-.14-.03 4.38.5 7.05.6 2.94 1.45 3.18 1.64 8.05.08 1.84-.11 3.45-.16 5.1-.03 1.07.32 2.57 1.66 2.35 1.92-.3 4.09-1.36 5.6-1.42.75-.02 2.03.22 2.57.38 3.05 1.07 2.03.26 6.8-.56 1.58-.3 3.77.05 4.63.56 2.8 1.63 2.57 5.2 1.76 8.75-.13.56-.83 4.28-.99 4.84-.48 1.87-.43 1.98-.67 3.98a3.8 3.8 0 0 0 .48 2.6c.46.72.97 1.23 1.66 1.23 3.1.08 4.82 0 8-.56 4.12-.75 6.2-.75 9.05-.49 2.92.27 7.05.2 8.75-.45 1.55-.56 3.61-1.76 5.25-2.12 5.4-1.14 5.6-.61 10-1.17 3.5-.45 5.3-2.22 7.1-3.15a14.7 14.7 0 0 1 7.45-1.77c1.66 0 4.04-.56 5.2-1.1 4.66-2.11 2.92-1.97 9.4-3.18 3.3-.61 5.65-3.23 7.7-4.36a18 18 0 0 1 3.93-1.79c1.98-.59 4.2-.91 6.1-1.55 3.05-1.07 3.99-2.12 5.65-3.61 1.4-1.25 1.85-1.23 3.4-2.2a22 22 0 0 1 4.76-1.97c2-.62 4.95-3.99 7.7-6.75 3.23-3.32 6.25-2.76 9.85-4.68 2.2-1.15 3.6-1.93 2.6-4.01a8 8 0 0 0-2.39-2.46"/><path stroke="#000" stroke-width=".5" d="M77.06 64.19c-6.8-5.3-4.87-10.05-2-12.25l.85.93-1.45 1.53.11 5.5h19.6l2.52-2.41v-6h-1.5l-6.8-7.3c13.05-2.78 19.45 2.91 23.3 9.2h5.1l2.59-2.52v-14.5h-5.45l-3.26 2c-11.5-5.6-20.5-5-29.5-2.04l-1.47-1.5 8.3-4.95 5-.03 2.46-2.32V22.6h-20l-2.12 2.16v3.37L54.59 38.89v-8.25l3.03-3.05v-4.97H37.97l-2.68 3.13v3.93h3.21v21.25h-.99s-2.62 2.96-2.49 3.02v5.5h20.7l2.06-1.93v-6.6h-3.05v-1.68l11.4-6.55.97.99c-2.54 1.79-4.55 3.48-6.05 6.15-2.25 3.72-3.05 8.9-1.74 13.05a14.4 14.4 0 0 0 3.8 6.4c1.79 1.85 3.31 2.92 6.25 4.3 2.4 1.21 8.05 2.92 12.45 3.38 4.25.32 9.6.26 13.1-.2 3.85-.4 7.85-1.78 10.25-2.77 1.92-.94 4.06-1.8 5.7-3.08 4.12-2.97 8.5-7.45 8.55-13.05h-7.7c-2.41 8.6-25.7 12.5-35.05 5.85"/><path fill="#e31837" stroke="#e31837" stroke-width=".27" d="m94.87 23.95-18.51.03v3.2h2.16L54.05 41.16V27.21l3.05-.02v-3.21H39.15v3.2h3.05v25.66h-3.05v3.69H57.1v-3.69h-2.92v-4.33l13.91-7.98 11.53 12.28-2.57-.02v3.74h18.62v-3.72h-.59L78.2 34.6l12.55-7.39 4.12-.05zm.1 11.55c-5.82-.04-9.95 1.35-11.95 1.99l4.79 5.24c10.3-2.46 21.34.1 26.18 7.4l4.66-.04.05-12.87h-4.28l-3.05 2a41 41 0 0 0-16.4-3.72zm19.02 14.64h-.1zM68.84 45c-4.28 2.92-5.72 5.65-6.66 8.3-.72 2.19-1.74 6.66.32 10.83a18.6 18.6 0 0 0 9.31 7.84c4.47 1.87 11.7 3.58 19.88 3.26 5.86-.14 10.96-1.2 15.89-3.67 2.86-1.52 3.45-1.87 6.31-4.52 2.14-2.46 3.88-3.98 4.6-7.78h-4.92c-1.98 3.26-4.7 5.86-10.97 7.7l.05.03c-12.09 3.59-23.72 1.8-28.89-4.57-4.28-4.93-2.27-9.26.46-11.61z"/></svg>