<svg xmlns="http://www.w3.org/2000/svg" xmlns:xlink="http://www.w3.org/1999/xlink" xml:space="preserve" id="Layer_1" x="0" y="0" version="1.1" viewBox="0 0 228.5 349.25"><style>.st6{fill:#fff}</style><linearGradient id="SVGID_1_" x1=".634" x2=".634" y1="94.074" y2="94.074" gradientUnits="userSpaceOnUse"><stop offset="0" style="stop-color:#ed2527"/><stop offset=".33" style="stop-color:#ed2527"/><stop offset="1" style="stop-color:#8d1120"/></linearGradient><path d="M-.25 91.36h228.49v214.53H-.25z" style="fill:#06287d"/><linearGradient id="SVGID_2_" x1="141.428" x2="211.721" y1="325.64" y2="168.864" gradientTransform="matrix(-1.1132 -.4585 -.4608 1.1188 513.866 3.78)" gradientUnits="userSpaceOnUse"><stop offset="0" style="stop-color:#8f92c0"/><stop offset=".18" style="stop-color:#8388ba"/><stop offset=".506" style="stop-color:#636faa"/><stop offset=".939" style="stop-color:#2f4691"/><stop offset=".997" style="stop-color:#28408d"/></linearGradient><path d="m214.41 94.4 10.62 210.82-3.12-.01-40.19-210.73z" style="fill:url(#SVGID_2_)"/><linearGradient id="SVGID_3_" x1="143.474" x2="251.036" y1="325.499" y2="184.306" gradientTransform="matrix(-1.1132 -.4585 -.4608 1.1188 513.866 3.78)" gradientUnits="userSpaceOnUse"><stop offset="0" style="stop-color:#8f92c0"/><stop offset=".18" style="stop-color:#8388ba"/><stop offset=".506" style="stop-color:#636faa"/><stop offset=".939" style="stop-color:#2f4691"/><stop offset=".997" style="stop-color:#28408d"/></linearGradient><path d="m166.59 94.22 52.6 210.98-2.78.01L132.04 94.3z" style="fill:url(#SVGID_3_)"/><linearGradient id="SVGID_4_" x1="-40.519" x2="51.523" y1="248.746" y2="100.958" gradientTransform="matrix(1.1132 -.4585 .4608 1.1188 -73.22 3.78)" gradientUnits="userSpaceOnUse"><stop offset="0" style="stop-color:#8f92c0"/><stop offset=".18" style="stop-color:#8388ba"/><stop offset=".506" style="stop-color:#636faa"/><stop offset=".939" style="stop-color:#2f4691"/><stop offset=".997" style="stop-color:#28408d"/></linearGradient><path d="M13.72 94.4 3.11 305.22l3.12-.01L47.15 94.48z" style="fill:url(#SVGID_4_)"/><linearGradient id="SVGID_5_" x1="-12.313" x2="82.125" y1="266.933" y2="112.019" gradientTransform="matrix(1.1132 -.4585 .4608 1.1188 -73.22 3.78)" gradientUnits="userSpaceOnUse"><stop offset="0" style="stop-color:#8f92c0"/><stop offset=".18" style="stop-color:#8388ba"/><stop offset=".506" style="stop-color:#636faa"/><stop offset=".939" style="stop-color:#2f4691"/><stop offset=".997" style="stop-color:#28408d"/></linearGradient><path d="M64.26 94.22 8.95 305.2l2.77.01L96.95 94.3z" style="fill:url(#SVGID_5_)"/><defs><path id="SVGID_6_" d="M-.17 305.21h228.41v44.22H-.17z"/></defs><use xlink:href="#SVGID_6_" style="overflow:visible;fill:#ad0d24"/><clipPath id="SVGID_7_"><use xlink:href="#SVGID_6_" style="overflow:visible"/></clipPath><path d="M15.71 310.67h14.58q5.22 0 9.24 2.04c2.67 1.36 4.75 3.28 6.24 5.75q2.22 3.705 2.22 8.64c0 3.28-.74 6.16-2.22 8.63s-3.56 4.39-6.24 5.75q-4.005 2.04-9.24 2.04H15.71zm14.21 26.61c3.21 0 5.77-.92 7.68-2.75s2.87-4.31 2.87-7.44-.96-5.61-2.87-7.44-4.47-2.75-7.68-2.75h-6.79v20.37h6.79zm48.4.14v6.1H53.47v-32.85h24.26v6.1H60.85v7.13h14.9v5.91h-14.9v7.6h17.47zm35.49-26.75v32.85h-6.1l-16-19.95v19.95h-7.34v-32.85h6.14l15.96 19.95v-19.95zm38.53 0-13.89 32.85h-7.34l-13.85-32.85h8.02l9.77 23.46 9.9-23.46zm28.31 26.75v6.1H155.8v-32.85h24.25v6.1h-16.87v7.13h14.9v5.91h-14.9v7.6h17.47zm26.51 6.11-6.19-9.15h-6.83v9.15h-7.43v-32.85h13.89c2.84 0 5.31.49 7.4 1.46s3.71 2.35 4.84 4.13 1.7 3.89 1.7 6.33-.57 4.54-1.72 6.31-2.77 3.12-4.88 4.06l7.2 10.56zm-1.88-25.18c-1.16-.99-2.86-1.48-5.09-1.48h-6.05v11.45h6.05c2.23 0 3.93-.5 5.09-1.5s1.74-2.41 1.74-4.22c0-1.85-.58-3.27-1.74-4.25" class="st6"/><defs><path id="SVGID_8_" d="M-.25-.44h228.49v93.5H-.25z"/></defs><use xlink:href="#SVGID_8_" style="overflow:visible;fill:#ad0d24"/><clipPath id="SVGID_9_"><use xlink:href="#SVGID_8_" style="overflow:visible"/></clipPath><path d="M-.7-.41h228.54v87.13H-.7z" style="clip-path:url(#SVGID_9_);fill:#ad0d24"/><path d="M207.78 282.65V114.72h-39.47l-19.93 38.45h17.23v129.48zM83.68 112.73c16.88 0 30.16 3.83 39.85 11.47 9.68 7.65 14.53 18.03 14.53 31.16 0 8.37-2.22 15.46-6.66 21.3-4.46 5.85-10.94 10.09-19.45 12.72 10.32 1.89 18.34 6.38 24.08 13.52 5.74 7.12 8.58 16.22 8.58 27.32 0 16.04-5.69 29.08-17.12 39.11-11.41 10.03-26.32 15.04-44.72 15.04-19.3 0-34.59-5.19-45.85-15.55-11.28-10.36-16.9-24.4-16.9-42.11v-1.59h41.94v2.72c0 7.23 1.7 12.71 5.09 16.44 3.39 3.74 8.39 5.6 15.04 5.6 6.94 0 12.25-1.79 15.94-5.37 3.69-3.59 5.54-8.77 5.54-15.54 0-7.62-1.98-13.2-5.94-16.81-3.96-3.57-10.16-5.36-18.61-5.36-1.35 0-2.39.02-3.11.06-.7.04-1.37.06-1.98.06v-26.57h2.38c7.62 0 13.46-1.65 17.53-4.98 4.07-3.32 6.11-8.13 6.11-14.47 0-5.05-1.72-9.15-5.15-12.32-3.43-3.18-7.82-4.75-13.17-4.75-5.74 0-10.18 1.54-13.35 4.64-3.16 3.1-4.83 7.46-4.99 13.11H23.31c.29-15.45 5.71-27.45 16.22-36 10.5-8.58 25.22-12.85 44.15-12.85m35.08-49.66.15-32.49c0-3.71-3.3-7.03-7.07-7.03s-6.82 3.31-6.82 7.03l-.01 32.4c0 3.71 3.06 6.72 6.83 6.72 3.77-.01 6.92-2.92 6.92-6.63m-46.03-15.7c0-21.29 17.56-38.55 39.22-38.55 21.67 0 39.24 17.26 39.24 38.55s-17.56 38.55-39.24 38.55c-21.66 0-39.22-17.26-39.22-38.55m-48.17 37.8V8.71h47.82l1.46 20.9H47.08v9.98h21.8v20.86H46.9l-.01 24.72z" class="st6"/><path d="m211.09 85.06-23.76-39.67 21.38-36.57h-24.57l-9.19 15.9-9.52-15.9H140.8l22.01 36.83-22.83 39.41 24.16-.02 10.99-18.79 11.25 18.81z" class="st6"/></svg>