<svg xmlns="http://www.w3.org/2000/svg" width="714.96" height="294.96"><path fill="#FFF" d="M75.99 9.83a25 25 0 0 1 43.17 17.13 25.2 25.2 0 0 1-.73 6h-16.29s3.8-6.14 4.21-9.06a10.92 10.92 0 0 0-2.57-9.14c-4-4.86-8.54-4.92-12.66-4.92zm5.29 33.38s10.3-14.33 11.89-17.02c.65-1.1 1.77-2.23.88-4.23a3 3 0 0 0-2.78-1.71H70.12a24.6 24.6 0 0 0-.92 6.71 25 25 0 0 0 43.95 16.26Zm-72.76-.13H5.3l-2.62 3.1v-3.1H0v8.72h2.68v-2.27l.65-.73 2 3h3.25l-3.39-4.93zm11.36 2.39h2.51v6.33h2.67v-6.33h2.52v-2.39h-7.7zm24.57 2.57-1.78-5h-3l3.54 8.78h2.37l3.54-8.78h-2.89zm22.48-5v4.92a1.63 1.63 0 0 1-.35 1.19 1.48 1.48 0 0 1-2 0 1.73 1.73 0 0 1-.36-1.19v-4.88H61.5v4.88a5 5 0 0 0 .28 1.76c.172.467.445.89.8 1.24.367.34.81.59 1.29.73a5.4 5.4 0 0 0 1.71.27 5.5 5.5 0 0 0 1.67-.24 3.26 3.26 0 0 0 1.3-.73 3.4 3.4 0 0 0 .83-1.28 5 5 0 0 0 .29-1.81v-4.82z" style="fill:navy" transform="matrix(6 0 0 5.90391 0 -11.808)"/><path fill-rule="evenodd" d="m895.21 215.08 121.63 214.34-140.09.24-51.45-90.96-51.44 90.96-140.08-.24 121.63-214.34L633.78 0h139.38l52.14 91.9L877.46 0h139.38zM483.4.14c118.55 0 214.66 96.1 214.66 214.64S601.95 429.42 483.4 429.42c-118.56 0-214.66-96.1-214.66-214.64S364.84.14 483.4.14M521 126.53c0-20.11-17.43-38.12-37.01-38.12-19.6 0-35.44 18.01-35.44 38.12l-.04 175.83c0 20.13 15.88 36.43 35.47 36.43S521 323 521 302.88zM.02 429.42V0h267.03l7.87 117.13H130.01v56.2h118.18v117.5H130.01v138.59z" style="fill:navy" transform="matrix(.4073 0 0 .41215 1.844 56.558)"/></svg>