<svg xmlns="http://www.w3.org/2000/svg" xml:space="preserve" width="458" height="251"><path d="M0 .003h457.911v204.51H0z" style="fill:#333233"/><path d="M1.73 141.5h454.336v60.507H1.73z" style="fill:#fff"/><path d="M303.31 2.141h152.45v136.955H303.31zM.038 201.943H458v6.666H.038z" style="fill:#c03e44"/><path d="M377.889 535.55h8.456v1.908h-6.483l-.245 1.353c.644-.257 1.508-.425 2.758-.425 2.668 0 4.524.979 4.524 3.017 0 1.998-1.689 3.273-5.143 3.273-3.635 0-4.937-1.095-5.181-3.028h3.17c.168.785.98 1.044 1.973 1.044 1.507 0 2.113-.541 2.113-1.264 0-.683-.618-1.314-2.088-1.314-.734 0-1.366.142-1.804.464h-2.926z" clip-path="url(#SVGID_180_)" style="fill:#fff" transform="translate(-4476.718 -6802.043)scale(12.72221)"/><path d="M358.86 538.065h-3.091v1.197h2.519v2.505h-2.541l.007 2.964h-2.588v-9.173h5.525zm12.487-2.494-1.082 1.976-1.063-1.976h-2.928l2.56 4.418-2.711 4.729 2.845.005 1.261-2.319 1.277 2.314h2.924l-2.763-4.76 2.511-4.387z" style="fill:#fff" transform="translate(-4476.718 -6802.043)scale(12.72221)"/><path d="M363.125 542.734a.75.75 0 0 1-.742-.758l.001-3.654c0-.418.332-.792.741-.792.41 0 .774.374.774.792v3.665c-.001.418-.364.747-.774.747m-.012-7.039c-2.415 0-4.372 1.997-4.372 4.461s1.957 4.461 4.372 4.461 4.372-1.997 4.372-4.461-1.959-4.461-4.372-4.461" clip-path="url(#SVGID_182_)" style="fill:#fff" transform="translate(-4476.718 -6802.043)scale(12.72221)"/><path d="M353.099 552.36v-.948h.407v2.366h-.407v-1.099h-.748v1.099h-.407v-2.366h.407v.948z" style="fill:#231f20" transform="translate(-4476.718 -6802.043)scale(12.72221)"/><path d="M355.046 552.688v-.096c0-.226-.079-.398-.297-.398-.245 0-.32.226-.32.458v.036zm-.616.246v.103c0 .239.032.544.32.544.275 0 .307-.293.307-.397h.364c0 .395-.257.643-.674.643-.314 0-.702-.086-.702-.912 0-.467.107-.964.709-.964.535 0 .677.298.677.796v.188zm1.515-.938h.364v.208h.01a.56.56 0 0 1 .492-.254c.293 0 .478.122.478.483v1.346h-.385v-1.224c0-.231-.075-.322-.267-.322-.157 0-.307.116-.307.349v1.197h-.385zm2.542.238c-.221 0-.299.166-.299.646 0 .405.057.66.324.66.264 0 .324-.252.324-.633 0-.428-.053-.673-.349-.673m.349 1.327h-.006c-.051.116-.147.265-.421.265-.449 0-.627-.348-.627-.961 0-.792.299-.915.591-.915.207 0 .364.096.435.255h.007v-.792h.385v2.366h-.364zm1.88-.873v-.096c0-.226-.079-.398-.297-.398-.245 0-.32.226-.32.458v.036zm-.616.246v.103c0 .239.032.544.32.544.275 0 .307-.293.307-.397h.364c0 .395-.257.643-.674.643-.314 0-.702-.086-.702-.912 0-.467.107-.964.709-.964.534 0 .677.298.677.796v.188zm1.515-.938H362v.277h.007c.086-.198.228-.323.445-.323.043 0 .068.006.093.013v.365a.7.7 0 0 0-.16-.021c-.175 0-.385.072-.385.404v1.067h-.385zm2.147.521v-.047c0-.143-.054-.275-.253-.275-.154 0-.275.066-.275.232 0 .139.068.195.271.262l.246.079c.285.09.417.231.417.515 0 .38-.3.543-.688.543-.485 0-.631-.209-.631-.554v-.066h.343v.058c0 .205.078.317.299.317.21 0 .314-.1.314-.262 0-.133-.075-.219-.211-.262l-.313-.104c-.29-.093-.411-.229-.411-.514 0-.335.261-.49.657-.49.488 0 .598.265.598.487v.08h-.363zm1.526 1.044c.281 0 .331-.219.331-.673 0-.396-.05-.673-.331-.673-.278 0-.328.277-.328.673 0 .454.05.673.328.673m0-1.612c.56 0 .717.384.717.938s-.183.937-.717.937c-.532 0-.713-.384-.713-.937 0-.554.157-.938.713-.938m1.209.047h.364v.208h.011a.56.56 0 0 1 .492-.254c.292 0 .478.122.478.483v1.346h-.385v-1.224c0-.231-.075-.322-.268-.322-.157 0-.307.116-.307.349v1.197h-.385z" clip-path="url(#SVGID_184_)" style="fill:#231f20" transform="translate(-4476.718 -6802.043)scale(12.72221)"/><path d="M229.89 228.914h11.883v4.3H229.89z" style="fill:#231f20"/><path d="M374.365 553.46v.318h-1.39v-2.366h.406v2.048z" style="fill:#231f20" transform="translate(-4476.718 -6802.043)scale(12.72221)"/><path d="M375.67 552.838c-.1.072-.314.115-.428.165-.11.051-.157.155-.157.288 0 .149.078.27.239.27.232 0 .346-.163.346-.424zm.364.569c0 .066.043.126.1.126.025 0 .05-.004.065-.01v.232a.5.5 0 0 1-.189.043c-.172 0-.314-.063-.325-.235h-.007c-.104.176-.253.261-.478.261-.307 0-.499-.159-.499-.5 0-.396.185-.479.446-.56l.299-.076c.139-.036.225-.073.225-.229 0-.161-.061-.265-.264-.265-.257 0-.292.169-.292.341h-.364c0-.378.168-.586.674-.586.339 0 .609.123.609.438zm1.416-.89v-.047c0-.143-.054-.275-.253-.275-.153 0-.274.066-.274.232 0 .139.068.195.271.262l.245.079c.285.09.418.231.418.515 0 .38-.3.543-.688.543-.485 0-.631-.209-.631-.554v-.066h.342v.058c0 .205.078.317.299.317.211 0 .314-.1.314-.262 0-.133-.075-.219-.21-.262l-.314-.104c-.289-.093-.41-.229-.41-.514 0-.335.26-.49.656-.49.488 0 .599.265.599.487v.08h-.364z" clip-path="url(#SVGID_186_)" style="fill:#231f20" transform="translate(-4476.718 -6802.043)scale(12.72221)"/><path d="m379.454 553.778-.599-2.366h.431l.431 1.89h.008l.456-1.89h.431l-.641 2.366z" style="fill:#231f20" transform="translate(-4476.718 -6802.043)scale(12.72221)"/><path d="M381.858 552.688v-.096c0-.226-.078-.398-.296-.398-.246 0-.321.226-.321.458v.036zm-.617.246v.103c0 .239.033.544.321.544.274 0 .307-.293.307-.397h.363c0 .395-.256.643-.674.643-.313 0-.701-.086-.701-.912 0-.467.107-.964.708-.964.535 0 .678.298.678.796v.188zm2.172.546c.299 0 .331-.352.331-.633 0-.292-.039-.613-.306-.613-.278 0-.325.265-.325.597 0 .305.014.649.3.649m-.271.451c0 .109.107.212.278.212.199 0 .324-.13.324-.335v-.288h-.007c-.071.156-.25.245-.434.245-.45 0-.575-.41-.575-.896 0-.393.065-.918.61-.918.225 0 .385.135.421.264h.006v-.218h.364v1.697c0 .434-.199.694-.716.694-.57 0-.634-.311-.634-.457zm2.421-1.093c-.099.072-.313.115-.428.165-.11.051-.156.155-.156.288 0 .149.078.27.238.27.232 0 .346-.163.346-.424zm.364.569c0 .066.043.126.1.126.024 0 .05-.004.064-.01v.232a.5.5 0 0 1-.189.043c-.171 0-.313-.063-.325-.235h-.007c-.103.176-.252.261-.478.261-.306 0-.498-.159-.498-.5 0-.396.185-.479.445-.56l.3-.076c.139-.036.224-.073.224-.229 0-.161-.061-.265-.264-.265-.256 0-.292.169-.292.341h-.363c0-.378.167-.586.674-.586.338 0 .609.123.609.438zm1.415-.89v-.047c0-.143-.053-.275-.253-.275-.153 0-.274.066-.274.232 0 .139.067.195.27.262l.247.079c.285.09.417.231.417.515 0 .38-.3.543-.689.543-.484 0-.631-.209-.631-.554v-.066h.343v.058c0 .205.078.317.299.317.21 0 .314-.1.314-.262 0-.133-.075-.219-.21-.262l-.314-.104c-.289-.093-.41-.229-.41-.514 0-.335.26-.49.656-.49.488 0 .599.265.599.487v.08h-.364z" clip-path="url(#SVGID_188_)" style="fill:#231f20" transform="translate(-4476.718 -6802.043)scale(12.72221)"/><path d="M353.071 549.882v-3.457h1.47v1.22l1.364-1.22h1.948l-1.662 1.336 1.802 2.121h-1.953l-1.015-1.327-.484.397v.93zm6.836 0-1.667-3.457h1.614l.818 2.218h.01l.818-2.218h1.614l-1.666 3.457zm5.074 0-1.667-3.457h1.614l.818 2.218h.01l.818-2.218h1.614l-1.666 3.457z" style="fill:#231f20" transform="translate(-4476.718 -6802.043)scale(12.72221)"/><path d="M368.889 546.425h1.468v2.092c0 .445.276.586.756.586.479 0 .755-.141.755-.586v-2.092h1.468v2.145c0 1.1-.713 1.434-2.223 1.434-1.511 0-2.224-.334-2.224-1.434z" clip-path="url(#SVGID_190_)" style="fill:#231f20" transform="translate(-4476.718 -6802.043)scale(12.72221)"/><path d="M288.54 170.201h24.045v10.712H288.54z" style="fill:#231f20"/><path d="M378.735 549.881v-2.585h-1.359v-.872h4.187v.872h-1.36v2.585zm4.893.001-1.667-3.457h1.614l.818 2.218h.01l.818-2.218h1.614l-1.666 3.457z" style="fill:#231f20" transform="translate(-4476.718 -6802.043)scale(12.72221)"/></svg>