<svg xmlns="http://www.w3.org/2000/svg" xmlns:xlink="http://www.w3.org/1999/xlink" viewBox="0 0 872.05 585.14"><defs><linearGradient id="a"><stop offset="0" stop-color="#194395"/><stop offset="1" stop-color="#1749a6"/></linearGradient><linearGradient xlink:href="#a" id="b" x1="264.79" x2="264.79" y1="583.9" y2="630.27" gradientTransform="matrix(13.48158 0 0 12.33658 -2989.267 -7191.365)" gradientUnits="userSpaceOnUse"/></defs><path fill="url(#b)" d="M449.31 0 342.88 324.1c26.84-.42 89.42-.3 107.35-.3h111.46l47.07-86.14 20.57 87.26h127.81l-114.64 76.1 25.65 103.05-91.53-64.82-107.87 60.3 54.4-99.1-102.77-78.98-105.4 114.74c17.25 51.58 82.59 115.98 131.3 129.04 34.78 9.32 63.8 19.9 129.95 19.9 52.06 0 78.54-4.49 111.79-15.63 31.3-10.5 64.05-33.35 88.61-51.3 24.25-17.72 36.35-29.4 58.3-58.17 14.76-24.45 36.36-54.72 36.36-109.44.56-24.55-3.1-53.85-13.46-75.7-10.36-21.84-28.25-40.42-47.23-55.68-38.53-31.07-108.24-55.7-168.06-55.7q-38.86-.01-69.04 6.3c-20.13 4.2-32.14 7.03-49.41 16.16l22.9-65.94H849.5L872.05 1.13H449.88z" font-family="Helvetica-Black" font-size="64" font-weight="900" letter-spacing="0" style="line-height:125%;-inkscape-font-specification:Helvetica-Black Heavy" word-spacing="0"/><path fill="#fff" d="M198.89 576.72H58.06c-12.46 0-27.05-4.79-36.41-11.95C7.67 554.07.59 539.82.08 521.17a49 49 0 0 1 5.07-22.88c3.43-6.77 7.72-14.03 18.6-22.22a55.4 55.4 0 0 1 25.22-10.5 54.78 53.15 0 0 1-12.48-20.36c-3.95-11.82-4.12-30.67 7.24-48.1a53 53 0 0 1 17.08-16.1 59 59 0 0 1 29.88-7.93 61 61 0 0 1 26.27 5.91 54.5 54.5 0 0 1 1.05-23.5c4.29-16.27 15.21-28.92 31.58-36.54l.3-.14a59 59 0 0 1 22.8-4.65c21.91 0 40.63 10.2 50.53 27.07 9.73-16.44 28.99-27.07 50.29-27.07a59 59 0 0 1 22.76 4.99l.31.13c16.4 7.69 26.91 19.87 31.24 36.24 2.24 8.52 2.75 16.01 1.43 23.44 8-3.83 17.04-5.88 26.2-5.88a59 59 0 0 1 29.87 7.93 53 53 0 0 1 17.08 16.1c11.37 17.43 11.2 36.28 7.25 48.1a54.92 53.28 0 0 1-12.46 20.33 55.6 55.6 0 0 1 25.63 10.53c11.26 8.45 15.17 16.18 18.06 21.82l.2.4a49 49 0 0 1 5.08 22.88c-.51 18.61-7.56 32.9-21.57 43.6-9.33 7.13-23.96 11.95-36.41 11.95H246.97z" class="st0"/><path fill="#6e55dc" d="M313.6 359.05c-2.7-10.23-9.16-20.27-23.38-26.93-5-2.21-11.27-3.7-16.71-3.7-17.49 0-34 9.57-39.95 24.86a41 41 0 0 0-2.85 18.65h18.1c7.52 0 12.08 3.76 12.08 6.3-19.02 7.2-26.61 16.97-25.52 24.66l16.84 116.13 59.41-132.73c4.01-8.88 4.83-16.34 1.97-27.24" class="st1"/><path fill="#ef1541" d="M212.91 353.28c-6.23-15.22-21.64-24.86-40.25-24.86-5.41 0-11.7 1.19-16.71 3.4-14.26 6.67-21.03 17-23.72 27.23a40.6 40.6 0 0 0 2.28 27.57l59.58 132.4 21.37-144.29a41 41 0 0 0-2.55-21.45" class="st2"/><path fill="#ff7112" d="M130.23 411.74c-3.03-6.67-8.3-12.65-14.4-16.84-13.5-9.27-32.87-10.16-47.4-1.68a39 39 0 0 0-12.25 11.52c-8.13 12.48-8.77 26.87-5.68 36.08 3.27 9.8 9.7 16.67 17.73 21.88l120.59 78.4z" class="st3"/><path fill="#fccc12" d="M81.64 486.47a45 45 0 0 0-24-7.23 40.7 40.7 0 0 0-24.86 8.12c-8.78 6.6-11.85 12.15-14.43 17.23a35.4 35.4 0 0 0-3.57 16.18c.4 14.79 5.61 24.89 15.95 32.78 6.33 4.85 17.63 8.88 27.3 8.88h140.52z" class="st4"/><path fill="#069de0" d="M389.95 404.74a38 38 0 0 0-12.25-11.52c-14.53-8.49-33.9-7.63-47.4 1.68-6.13 4.2-11.4 10.17-14.4 16.84l-58.59 129.4 120.6-78.4c8.02-5.22 14.45-12.08 17.72-21.89 3.1-9.24 2.45-23.6-5.68-36.11" class="st5"/><path fill="#05ac3f" d="M427.89 504.63c-2.59-5.09-5.28-10.67-14.1-17.23a40.7 40.7 0 0 0-24.7-8.12 45.6 45.6 0 0 0-24.66 7.23L247.3 562.46h140.87c9.66 0 21-4.03 27.29-8.88 10.34-7.92 15.58-17.99 15.95-32.78a35 35 0 0 0-3.54-16.17" class="st6"/></svg>