<svg xmlns="http://www.w3.org/2000/svg" viewBox="0 0 409.74 181.8"><path fill="#fff" d="M408 180.92c-22.61-30.44-62.07-67.63-109.08-88.51l9.6 22.12C268.54 94.4 224.1 79.94 173.74 80.17l10.73 11.62C91.43 95.45 36.83 141.59 1.1 180.94c.83-53.28 39-101.4 89.3-130.77l-10.36-9.6c37.43-25.91 89.93-33.18 134.23-28.06l-6.3-11.37C354.74 12.03 416.91 121.58 408 180.93"/><path fill="#0080c6" d="m173.05 87.3-11.27-12.22c42.73-1.42 85.93 5.02 136.2 28.64l-9.26-21.34c37.83 14.66 79.75 42.03 114.9 84.47-3.09-64.27-68-147.54-186.04-159.45l6.57 11.84c-47.71-8.1-101.32.33-135.44 22.08l10.67 9.9C48.03 78.78 14.3 122.59 7.05 166.86c42.38-44.27 97.49-74.84 166-79.56"/><path fill="#ffc20e" d="M385.2 132.35c-20-53.85-80.16-100.27-147.7-111.38l7.93 14.14c-40.68-12.59-99.79-11.82-138.65 8.45l11.15 10.35c-35.62 15.26-73.2 47.94-88.07 77.97 24.4-22 77.46-47.47 121-52.88l-10.82-11.71c41.85-8.3 97.61-.09 137.37 16.05l-7.71-17.77c29.28 6 83.7 32.17 115.5 66.77"/></svg>