<svg xmlns="http://www.w3.org/2000/svg" viewBox="0 0 297.83 213.8"><defs><linearGradient id="a" x1="-236.22" x2="-236.22" y1="444.5" y2="443.86" gradientTransform="matrix(276.77249 0 0 -228.62732 65581.197 101632.757)" gradientUnits="userSpaceOnUse"><stop offset=".22" stop-color="#ffd100"/><stop offset=".3" stop-color="#ffd724"/><stop offset=".47" stop-color="#ffe87f"/><stop offset=".71" stop-color="#fff"/></linearGradient><linearGradient id="b" x1="-236.42" x2="-235.77" y1="444.37" y2="444.37" gradientTransform="matrix(266.10144 0 0 -265.8454 62974.332 118244.221)" gradientUnits="userSpaceOnUse"><stop offset="0" stop-color="#ffa300"/><stop offset=".13" stop-color="#ffa800"/><stop offset=".29" stop-color="#ffb600"/><stop offset=".45" stop-color="#ffcd00"/><stop offset=".48" stop-color="#ffd100"/></linearGradient></defs><path fill="#003594" d="M261.51 36.31a123.9 123.9 0 0 0-153.23-17.53 129 129 0 0 0-34.44 33.64l-.1.12H48.19L0 161.56h62.51a99.7 99.7 0 0 0 39.46 40.03 98.5 98.5 0 0 0 101.36-3.82 9.59 9.59 0 0 0-5.13-17.6 10 10 0 0 0-2.81.42 67 67 0 0 1-19.21 2.81 65.7 65.7 0 0 1-49.07-21.84h58.38l10.03-13.97h38.91s-1.18 3.02-1.83 4.5l-4.18 9.48h63.68l1.36-4.99a124 124 0 0 0-31.95-120.27m25.43 118.5h-48.16a98 98 0 0 0 4.93-13.98H192l-9.98 13.98h-46.36l69.32-97.1h-.01a75 75 0 0 0-28.79-5.57q-1.89 0-3.75.1c-37.6 1.89-67.59 32.07-67.59 68.9a67 67 0 0 0 .38 7.17h40.95l-12.2 17.15c-3.84 5.18-8.94 9.34-16.72 9.34h-3.33a71.8 71.8 0 0 0 62.26 35.35 73 73 0 0 0 21.16-3.1 3 3 0 0 1 .86-.13 2.83 2.83 0 0 1 1.44 5.2A91.76 91.76 0 0 1 66.67 154.8h-56.3L52.6 59.3h24.39a91.7 91.7 0 0 1 70.52-35.75l2-.02c39.03 0 71.78 23.36 85.03 57.72l-24 33.62h36.55a98.1 98.1 0 0 0-135.22-90.35A117.2 117.2 0 0 1 286.94 154.8M151.1 121.55h-39.5v-.4c0-33.13 26.86-60.44 61.17-62.17a67 67 0 0 1 3.4-.08 70 70 0 0 1 18 2.33Zm85.62-31.64a91 91 0 0 1 3.31 18.2h-16.29Z"/><path fill="url(#a)" d="M111.86 24.52A98.1 98.1 0 0 1 238.78 154.8h48.16A117.2 117.2 0 0 0 111.86 24.5"/><path fill="#d7d2cb" d="m234.52 81.26-9.27 13a47 47 0 0 0-33.84-14.28q-1.2 0-2.37.06l15.93-22.33a68 68 0 0 1 29.55 23.55m9.19 59.58a98 98 0 0 0 3.37-25.55v-.42h-10.03a47.4 47.4 0 0 1-.33 25.96Z"/><path fill="#ffd100" d="M199.63 192.12a91.8 91.8 0 0 1-94.4 3.55 89 89 0 0 1-15.91-31.21c10.26-.48 25.12.41 36.1 5.13a72.3 72.3 0 0 0 50.76 20.57 73 73 0 0 0 21.16-3.1 3 3 0 0 1 .86-.13 2.83 2.83 0 0 1 1.43 5.19m-94.41-63.8a67 67 0 0 1-.38-7.17c0-36.83 29.99-67.02 67.59-68.91-43.6 1.77-79.3 34.26-85.39 76.08Z"/><path fill="#ffa300" d="M113.91 154.8h-26.7a87 87 0 0 0 2.1 9.66c10.27-.47 25.12.41 36.1 5.13a70 70 0 0 1-11.5-14.78"/><path fill="#ff8200" d="M66.67 154.8a92 92 0 0 0 12.47 19.39 30.6 30.6 0 0 1 10.18-9.73 87 87 0 0 1-2.1-9.65Z"/><path fill="url(#b)" d="M204.97 57.7a75 75 0 0 0-28.79-5.56q-1.89 0-3.75.1C128.83 54 93.13 86.5 87.04 128.3H62.22l30.58-69H76.98a91.7 91.7 0 0 1 70.52-35.75l2-.02c39.03 0 71.78 23.35 85.03 57.72v.01a67.7 67.7 0 0 0-29.56-23.55M89.32 164.46a30.6 30.6 0 0 0-10.18 9.73 92 92 0 0 0 26.1 21.48 89 89 0 0 1-15.92-31.21"/><path fill="#fff" d="M238.7 127.27a47 47 0 0 1-1.98 13.57H192l-9.98 13.97h-46.36l53.38-74.77q1.18-.06 2.37-.06a47 47 0 0 1 33.84 14.27l-14.72 20.62h26.52a47 47 0 0 1 1.65 12.4M52.6 59.3l-42.21 95.5h106.87c7.77 0 12.88-4.16 16.72-9.33l12.2-17.16H62.21L92.8 59.3Z"/></svg>