<svg xmlns="http://www.w3.org/2000/svg" viewBox="0 0 250 197.98"><path fill="#fff" d="M249.07 48.9c-.04-.92-.22-1.47-.22-1.47-1.13-3.94-5.15-6.37-10.63-6.37q-.87 0-1.76.08c-4.2.42-11.65 2.95-13.86 3.72a81 81 0 0 0-19.9-2.61q-5 0-9.94.7l-1.35.18s-.53-1.73.85-5.75c.72-2.08 1.7-4 1.7-4s-15.14 7.87-17.03 5.36 6.58-22.49 6.58-22.49-14.6 16.22-17.47 15.5c-1.12-.28-1.23-6.15-1.28-12.47-.08-8.56.22-18.36.22-18.36s-12.02 29.89-14.95 29.73c-2.55-.13-6.25-16.08-6.25-16.08s-2.32 13.74-6.49 15.42-14.9-24.02-14.9-24.02-.5 25.73-3.48 26.3-12.49-9.03-12.49-9.03 4.45 12.81 2.95 14.5c-.9 1-10.04-4.64-19.55-11.46l-10.09-7.25s5.36 8.9 9.62 18.2C92.3 43.65 94.07 49.8 93.3 51c-1.88 2.93-16-1.25-16-1.25s8.03 7.73 7.5 9.72c-.24.96-8.22.27-16.33-.84-8.6-1.18-17.35-2.8-17.35-2.8s28.64 16.65 27.74 19.65c-.71 2.37-18.53.43-18.53.43s15.5 7.08 15.43 9.42-30.33 10-30.33 10 27.41 5.73 27.94 8.79-10.82 12.86-10.82 12.86 13.2 1.2 13.86 2.92c.65 1.73-3.21 8.56-6.56 9.64-4.15 1.34-7.92 2.2-12.51 2.2q-1 0-1.94-.06l.65-.89a17 17 0 0 0 2.43-5.1v-.04q.36-1.4.36-2.75v-.07a3.5 3.5 0 0 0-.96-2.47c-1.12-.98-2.17-.87-2.92-.53l-2.6 1.27a6 6 0 0 1-.68.25c-.5.15-1.55.33-3.73.33-2.06 0-4.52-.15-6.9-.3 0 0-1.46-.08-1.74-.08-2.83 0-4.72.9-5.87 1.72l-.62-.32c-5.8-3.08-12.54-4.33-16.76-5.1l-.93-.18a14 14 0 0 1-7.41-3.9c-.4-.43-.9-.98-1.58-1.37 0 0-1.21-.75-3-.2a3 3 0 0 0-1.67 1.33c-1 1.66-.05 4.11 1.22 6.88 1.43 3.13 5.94 10.97 16.72 15.97 3.53 1.64 8.17 2.8 13.8 3.47 4.23.5 7.81.56 9.24.56a88 88 0 0 0 11.87 4.58c6.9 2.16 17.68 4.72 30.02 4.78 0 0 4.38.05 6.75-.1.24.99-1.48 4.52-3.53 8.65-2.44 4.9-5.57 10.69-5.57 10.69s5.65-5 10.92-8.7c5.3-3.72 11.23-6.71 12.63-4.99 2.66 3.26-.17 16.71-.17 16.71s10.7-9.47 13.18-8.19c1.14.59 1.25 7.67 1.26 15.12 0 8.84-.22 18.22-.22 18.22s14.74-29.83 17.8-28.98 6.43 14.46 6.43 14.46 5.6-16.58 9.03-16.17c1.37-.17 4.3 5.2 6.92 10.7 2.86 6.02 5.32 11.9 5.32 11.9s.06-6.15.49-12.44c.38-5.68 1.1-11.22 2.35-11.53 2.63-.65 10.26 9.58 10.26 9.58s-2.7-14.25-.58-15.46 27.51 20.75 27.51 20.75-16.66-30.88-14.64-33.24c2.03-2.36 19.83 2.45 19.83 2.45s-2.65-3.13-4.92-6.67c-2.37-3.7-4.35-7.84-3.42-8.83.84-.9 10.12.04 19.71 1.9 11.06 2.14 18.25 3.67 18.25 3.67s-6.51-3.52-16.12-9.3c-8.3-5-15.62-10.64-15.31-11.55.67-1.97 20.53-3.86 20.53-3.86s-3.33-1.96-6.91-4.15c-3.9-2.37-8.04-5.33-8.04-6.42 0-.94 4.98-3.3 11.54-5.31 7.88-2.42 15.16-4.04 15.16-4.04s-27.07-2.18-28.76-6.04c-1.16-2.63.96-6.07 2.52-8.3 1.55-2.21 3.78-4.23 3.78-4.23 7.4-6.83 16.8-13.11 19.81-14.96l.62-.4s6.95-5.12 7.66-5.72a8 8 0 0 0 2.57-4.3s.13-.59.08-1.52"/><path fill="#fc4c02" d="M162.86 11.06c-2.53 7.32-9.5 23.52-13.14 22.95-2.96-.29-5.3-8.04-5.8-11.06-.62 2.81-2.14 9.41-6.59 10.06-4.44.64-10.49-10.01-13.03-17.85-.38 13.99-2.74 20.18-4.6 20.22-3.75.08-6.65-3.6-9.59-6.36 1.46 2.36 3.54 9.5.81 11.7-2.72 2.22-20.98-10.77-24.98-14.76 4.5 6.64 12.55 22.3 10.18 26.23s-10.66 2.22-12.1 1.52c.94.78 6.67 7.4 1.75 8.46-6.6 1.43-24.67-2.79-25.63-3.01 4.32 1.55 23.29 12.78 22.1 17.1-1.04 3.75-8.74 2.46-11.78 2.42 2.71 1.28 9.16 3.87 8.38 7.51-.78 3.66-18.92 7.75-24.52 8.93 6.35 1.41 22.4 3.92 22.64 8.8.24 4.9-9.84 11.68-9.84 11.68s8.95.4 10.87 1.45c2.82 1.52.65 7.23-1.84 10.2a59 59 0 0 0 10.2-6.2 61 61 0 0 1-4.45-22.94 61.04 61.04 0 0 1 94.5-51.05 79 79 0 0 1 12.36-3.51 9.2 9.2 0 0 1 .93-5.48c-3.5 2.88-12.49 5.45-15.08 3-2.6-2.45 1.76-12.7 4-16.94-3.69 4.38-10.17 12.2-14.09 10.65-3.93-1.54-1.27-20.1-1.66-23.72m47.07 73.15-6.45 6.11q.49 3.83.5 7.8a61.04 61.04 0 0 1-96.79 49.48 98 98 0 0 1-13.77 1.66c-.74 4.17-3.79 8.46-5.64 12.4 11.14-10.28 17.3-9.91 19.45-8.72 2.16 1.18 1.61 10.99.97 13.89 1.74-2.3 9.84-7.33 12.24-6.23s1.31 23.17 1.32 27.7c2.68-5.85 11.53-23.85 15.34-23.85 3.8 0 6.32 6.8 6.91 9.9.82-3.1 5.13-11.18 8.98-11.61 3.84-.43 8 11.45 10.55 17.35.2-5.02-.19-16.8 2.9-18.01 3.1-1.21 6.66 2.85 8.74 5.38-.56-3.48-1.09-10.34 1.06-11.75 2.14-1.4 17.3 10.9 22.82 16.39-1.36-3.43-13.35-21.75-11.19-26.74 1.97-4.54 14.24-1.05 16.6-.35-3.22-2.52-6.73-11-5.38-13.73s21.68 1.26 30.2 3.66c-6.85-2.68-25.56-14.08-24.22-17.48s13.34-4.65 17-4.65c-1.09-.53-8.75-4.75-11.38-7.82s11.2-8.81 19.11-9.88c-7.08-.58-20.4-1.67-20.55-6.82a10 10 0 0 1 .68-4.08"/><path fill="#008e97" d="M238.4 43.19q-.87 0-1.73.08c-4.65.46-13.98 3.82-13.98 3.82-17.03-4.42-37.24-4.92-62.04 10.17q-6.93 4.24-12.77 8.7c-5.84 4.46-7.5 6-10.86 9.04-1.45 1.3-3.3 2.98-4.9 4.6-8.05 2.68-11.62.16-22.68 1.62-8.75 1.15-12.15 4.14-14.08 6.48-.24.68-.22 1.27.24 1.63 1.04.84 2.66.42 5.72.2 3.06-.23 7.7-.15 10.76 1.76 1.97 1.23 2.87 4.19 3.2 5.83a269 269 0 0 1-6.82 7.02c-13.97 13.83-23.37 22.07-33.9 26.18-22.82 8.94-35.68-1.56-40.83-4.65-6.26-4-14.55-5.33-19-6.17s-6.87-2.98-7.82-3.79c-.95-.8-1.68-2.17-2.76-1.86.17 1.93 6.65 18.04 27.22 20.96 5.88.84 7.75.57 8.85.5-3.46-3.05-6.32-7.29-6.56-7.54a58 58 0 0 0 2.36 1.96A33 33 0 0 0 55 139.98c.38.12 6.17.37 6.17.37 6.74-.15 15.8-2.13 24.2-4.57 24.7-7.16 48.5-28.55 48.5-28.55s-1.33 5.78-1.84 7.82a80 80 0 0 1-3.83 12.67s-.68 1.7-1.67 3.79c-1.47 3.09-3.53 6.97-3.53 8.6l.02.2s.01.18.1.4a44 44 0 0 0 7.23-5.1c4.5-3.74 10.2-9.44 16.78-17.57 14.81-18.28 17.16-30.78 27.58-40.51 4.4-4.12 16-10.5 21.92-12.56l.14-.07h.01a232 232 0 0 1 21.43-10.8c5.86-2.35 26.5-9.2 28.66-5.8h.01c-.8-3.43-4.5-5.06-8.49-5.1m-20.27 6.47q.05 0 .07.06c.11.25-.92.83-4.15 2.15a55 55 0 0 1-8.02 2.43c-1.6.48-3.89 1.22-3.89 1.22q0-.03-.02-.05c-3.95 1.34-10.62 3.99-12.75 7.13.1-.18 1.44-2.95 2.55-4.52.92-1.41 2.98-4.09 6.04-5.42 4.27-1.87 7.05-1.57 9.02-1.57s6.57-.15 8.44-.6c1.64-.4 2.46-.88 2.71-.83M192.4 97.15a311 311 0 0 1-9.05 7.87 194 194 0 0 1-7.9 6.24c-.9 11.5-3.24 16.96-3.22 18.02.02.59.2 1.17.64 1.44 2.72-1.97 7.88-7.1 11.8-14.53 3.3-6.25 5.98-13.63 7.73-19.04m-136.76 24.6c-.89.12-1.28 1.03-3.36 1.65-2.41.72-7.58.35-12.25.06-3.4-.21-5.2 1.07-5.92 1.78 2.12 1.2 8.98 5.19 14.83 6.32v-.01c-.2-.26 9.27-6.67 6.7-9.8"/><path fill="#005778" d="M244.67 49.58c-1.69 0-4.79.78-9.72 2.45l-.08.03-2.1.73c-23.2 8.15-45.64 33.64-74.67 55.67l.21-.34c8.62-12.98 11.6-22.47 20.3-30.6 4.48-4.28 11.36-8.75 18.15-12.63l-.13.07c-5.93 2.07-17.52 8.44-21.93 12.56-10.4 9.73-12.76 22.23-27.57 40.5-6.59 8.14-12.29 13.84-16.78 17.58a43 43 0 0 1-7.25 5.1c.02.05.25.83.91 1 1.07.27 5.1-1.76 10.24-6.1.03-.01 9.9-4.7 14.62-7.27 5.55-3.02 14.7-8.73 16.7-10.05l.01-.01c3.57-2.37 9.88-7 9.88-7.02q4.4-3.32 7.9-6.24a311 311 0 0 0 9.05-7.87c-1.75 5.4-4.44 12.79-7.73 19.04-3.92 7.43-9.08 12.56-11.8 14.53.87.55 2.17-.27 2.31-.35 2.24-1.22 8.55-6.58 12.78-15.16 6.04-12.24 8.57-21.66 8.62-21.83.5-.45 19.97-18.84 20.24-19.09a151 151 0 0 1 20.2-15.25 53 53 0 0 0 6.97-4.96c1.28-1.11 1.66-1.67 1.66-1.67.2-.36.71-1.32.61-1.97-.09-.56-.59-.84-1.6-.85m-26.55.08c-.24-.05-1.06.44-2.7.83-1.87.45-6.48.6-8.44.6-1.97 0-4.75-.3-9.02 1.57-3.06 1.33-5.1 4.01-6.04 5.42.3-.41.57-.74.8-.91 0 0 3.11-3.6 9.47-3.12-.22.32-.39.77-.19 1.22l.01.02.1.18.03.04s2.28-.73 3.9-1.21c3.5-.87 5.66-1.46 8.01-2.43 3.23-1.32 4.26-1.9 4.15-2.15q-.01-.05-.08-.06M137.02 75a42 42 0 0 1-5.7 1.46c-3.77.74-6.5.55-14.32 1.57-12.28 1.62-18.02 5.47-19.63 6.96A9 9 0 0 0 96 86.53a6 6 0 0 0-.64 1.18c1.93-2.35 5.33-5.34 14.08-6.5 11.06-1.44 14.63 1.06 22.68-1.62a130 130 0 0 1 4.9-4.6m-3.15 32.24s-23.8 21.39-48.5 28.55c-8.4 2.44-17.46 4.42-24.2 4.57 1.2.02 16.88.63 34.1-5.82 14.07-5.14 27.91-13.54 36.76-19.5.51-2.04 1.84-7.8 1.84-7.8M4.15 113.86q-.32.08-.54.22l-.15.1c-.51.47-.43 1.58 1.17 5.08 2.15 4.7 7.09 10.94 15.68 14.93 7.85 3.65 19.8 3.83 22.23 3.83h.41s20.26 10.48 46.01 9.27c.06-.01 15.33.34 34.06-6.98l-.02-.21c0-1.63 2.06-5.51 3.52-8.6h.01c1-2.08 1.67-3.8 1.67-3.8-8.07 4.29-20.96 9.77-32.62 12.5-22.97 5.39-37.68.72-40.2-.1l-.33-.11-.02-.01-.03-.01a33 33 0 0 1-18.98-10.23 58 58 0 0 1-2.36-1.96c.25.25 3.1 4.49 6.56 7.53-1.1.08-2.97.35-8.85-.5C10.8 131.9 4.32 115.8 4.15 113.87m51.73 7.86-.22.02c2.56 3.13-6.9 9.54-6.7 9.8a13 13 0 0 0 3.54.28c.01 0 1.12-1.25 1.78-2.23a15 15 0 0 0 2.14-4.47q.3-1.14.3-2.23c-.04-1.02-.53-1.17-.84-1.17"/></svg>