<svg xmlns="http://www.w3.org/2000/svg" xml:space="preserve" viewBox="0 0 192.46 234.43"><path d="M171.84 93.21c-17.1-9.94-33.93-7.64-46.7-1.95a75 75 0 0 0-3.48-14.2c-2.71-8.01-5.68-15.67-8.3-22.44a264 264 0 0 1-7.48-21.58l-9.3-31.89-9.67 31.91a286 286 0 0 1-7.44 21.6 553 553 0 0 0-8.23 22.47 76 76 0 0 0-3.46 14.21c-12.77-5.66-29.62-7.93-46.7 2.05-13.96 8.16-21.43 22.35-19.5 37.03a32.35 32.35 0 0 0 23.82 27.4l9.63 2.64 2.36-9.7c.34-1.32 3.81-13.48 14.76-13.26 7.6.16 13.9 6.87 17.05 11.21a24 24 0 0 0-1.04 10.7l-4.29-5.7-7.75 5.77c-6.99 5.2-17.12 18.05-10.86 33.22 2.73 6.62 8.6 11.12 16.54 12.7 4.85.97 10.36.74 15.47-.38a54 54 0 0 0 12.33 21.22l7.03 7.35 7-7.36a54 54 0 0 0 12.3-21.26c5.1 1.1 10.61 1.32 15.46.34 7.93-1.59 13.8-6.11 16.51-12.73 6.23-15.19-3.94-28.02-10.93-33.2l-7.77-5.76-4.27 5.73a24 24 0 0 0-1.07-10.71c3.15-4.35 9.43-11.07 17.02-11.25 10.95-.24 14.45 11.9 14.82 13.3l2.37 9.7c-.01-.08 9.61-2.74 9.61-2.74a32.3 32.3 0 0 0 23.76-27.47c1.9-14.67-5.62-28.84-19.6-36.97"/><path fill="#fff" d="M93.36 34.43c-1.18 5.55-4.21 13.45-7.73 22.6a532 532 0 0 0-8.14 22.2c-2.54 7.56-3.57 13.2-3.57 18.47 0 1.68.19 3.33.39 4.98-9.75-6.69-28.95-15.84-49.9-3.6-11.63 6.8-17.87 18.48-16.3 30.48a25.9 25.9 0 0 0 19.03 21.9l3.07.85.76-3.1c.2-.76 4.8-18.62 21.31-18.29 13.29.27 21.97 13.18 24.32 17.15a17.4 17.4 0 0 0-2.05 8.18c0 3.5 1.2 7.48 4.24 11.48-1.22 1.64-3.2 3.66-5.52 3.85-3.3.27-6.65-3.21-8.87-6.18l-1.86-2.48-2.48 1.85c-5.08 3.79-13.44 13.97-8.71 25.42 1.9 4.58 5.95 7.6 11.73 8.75 5.98 1.19 13.52.1 18.88-2.34 1.04 6.05 3.98 16.28 12.4 25.09l2.26 2.35 2.24-2.36c8.4-8.83 11.32-19.07 12.34-25.12 5.37 2.43 12.93 3.5 18.9 2.29 5.77-1.16 9.82-4.2 11.7-8.78 4.7-11.46-3.67-21.62-8.76-25.4l-2.49-1.84-1.85 2.49c-2.22 2.97-5.56 6.46-8.86 6.2-2.32-.2-4.31-2.2-5.53-3.84 3.02-3.98 4.2-7.95 4.2-11.45 0-3.28-.93-6.14-2.06-8.2 2.34-3.98 11-16.93 24.28-17.22 16.5-.37 21.16 17.48 21.35 18.24l.77 3.09 3.07-.84a25.85 25.85 0 0 0 18.98-21.95c1.54-12-4.73-23.67-16.38-30.44-20.98-12.2-40.17-2.99-49.9 3.73.18-1.61.37-3.21.37-4.85 0-5.32-1.03-11.06-3.58-18.62-2.66-7.87-5.6-15.45-8.19-22.14-3.54-9.15-6.6-17.06-7.79-22.61l-3.05-14.24z"/><path d="M96.63 219.54c11.88-12.48 12.03-28.23 12.03-28.23 5.26 5.24 25.69 8.75 30.27-2.41 5.03-12.26-7.74-21.73-7.74-21.73-12.37 16.58-20.67.35-20.67.35 9.42-10.18 2.36-19.36 2.36-19.36.61-1.84 11.06-20.08 27.79-20.45 19.27-.44 24.43 20.6 24.43 20.6 20.21-5.6 24.12-33.79 1.87-46.72-28.23-16.41-52.83 8.6-52.83 8.6 2.3-9.37 2.94-16.36-1.67-30.03-6.26-18.53-13.93-35.08-16.07-45.1-2.12 10.02-9.76 26.6-15.97 45.14-4.58 13.68-3.9 20.68-1.6 30.03 0 0-24.66-24.95-52.85-8.47-22.22 12.99-18.24 41.15 1.99 46.71 0 0 5.1-21.04 24.38-20.65 16.73.33 27.21 18.54 27.83 20.38 0 0-7.04 9.2 2.4 19.36 0 0-8.26 16.25-20.67-.3 0 0-12.75 9.5-7.69 21.74 4.61 11.15 25.03 7.6 30.28 2.34 0 0 .18 15.75 12.09 28.2"/><path fill="#d3bc8d" d="m96.44 48.2-.05.25v-.25s-1.8 9.25-10.63 32.22c-8.83 22.98 1.04 42.17 1.86 46.43 0 0-18.9-26.04-41.87-26.01S3.65 127 24.88 142.44c0 0 6.22-19.29 27.63-19.33 15.74-.03 31.52 16.86 32.18 25.23 0 0-7.2 10.18 2.82 18.7 0 0-10.83 22.77-25.84 6.37 0 0-11.55 14.44 3.55 17.94 11.98 2.77 23.77-9.38 23.77-9.38s-1.28 19.19 7.59 29.68v-.1l.04.1c8.85-10.52 7.52-29.7 7.52-29.7s11.82 12.12 23.8 9.31c15.09-3.53 3.5-17.94 3.5-17.94-14.96 16.44-25.84-6.31-25.84-6.31 10-8.54 2.76-18.7 2.76-18.7.65-8.37 16.38-25.3 32.13-25.3 21.42 0 27.67 19.26 27.67 19.26 21.2-15.49 2-41.6-20.96-41.56-22.97.02-41.81 26.1-41.81 26.1.82-4.26 10.64-23.47 1.75-46.42s-10.7-32.2-10.7-32.2z"/></svg>