<svg xmlns="http://www.w3.org/2000/svg" xml:space="preserve" viewBox="0 0 192.9 150.01"><path fill="#a71930" d="M65.85.91c-7.05.15-13.83 2.33-18.95 6.25v-5H1.1v26.2h10.65a3.97 3.97 0 0 1 3.97 3.97v74.3h31.2V36.48c0-4.16 3.53-7.53 7.87-7.53 4.29 0 7.77 3.28 7.86 7.37v56.63q.02 2.48.86 4.68a13.5 13.5 0 0 0 12.62 8.8h29.27V81.31H98a3.97 3.97 0 0 1-3.96-3.97V22.4a20 20 0 0 0-.42-2.88 21 21 0 0 0-3.15-7.36C86.7 6.68 81.92 3.7 75.49 2.01a36 36 0 0 0-9.64-1.1m33.73 1.26V28.3h8.14a3.96 3.96 0 0 1 3.96 3.97v51.07c.52 8.4 5.51 16.1 11.86 19.7 6.4 5.05 21.9 7.37 30.26 4.41 0 0 3.87-1.21 6.04-2.66v6.48c0 1.54-.12 2.5-.54 3.71-1.06 2.3-3.39 3.5-7.1 3.59H15.7v30.36h147.96c4.5-.23 8.74-.74 12.3-1.75 4.88-1.49 16.03-6.71 16.03-23.23l-.01-6.56-.08-115.2h-31.95v67.06a47 47 0 0 1-.11 3.33 7.8 7.8 0 0 1-3.89 5.73 8.4 8.4 0 0 1-4.17 1.11c-4.4 0-8.13-3.36-8.11-7.53l.04-69.7z"/><path fill="#0b2265" d="M66.03 5.3c-6.13.1-12.01 1.97-16.45 5.36l-7.08 5.42v-9.5h-37v17.38h6.25a8.4 8.4 0 0 1 8.37 8.37v69.9h22.39V37.17l.01-.7c0-6.58 5.5-11.94 12.28-11.94a12.2 12.2 0 0 1 12.26 11.78v56.62q0 1.6.58 3.16a9.1 9.1 0 0 0 8.5 5.92h24.85v-16.3h-2.98a8.4 8.4 0 0 1-8.37-8.38v-54.7l-.31-2.16a17 17 0 0 0-2.5-5.81c-3-4.39-6.73-6.9-12.42-8.38a32 32 0 0 0-8.38-.97zm98.32 1.28v62.65l-.06 2.63-.07 1.13-.02.12a12.3 12.3 0 0 1-6.06 9 13 13 0 0 1-6.36 1.7 13 13 0 0 1-9.09-3.73 11.5 11.5 0 0 1-3.44-8.16l.05-65.34h-35.32v17.3h3.73a8.4 8.4 0 0 1 8.37 8.38v50.87c.43 6.58 4.3 13.04 9.64 16.07l.29.17.26.2c5.28 4.17 19.16 6.16 26.06 3.72l.14-.04c1.27-.4 3.73-1.34 4.92-2.14l6.86-4.59v14.74c0 1.8-.13 3.3-.79 5.17l-.07.2-.1.2c-1.25 2.7-4.17 5.97-11.09 6.14H20.1v21.55h143.4c4.14-.22 8.03-.68 11.16-1.55 4.82-1.48 12.91-5.92 12.91-19.03L187.5 6.58z"/></svg>