<svg xmlns="http://www.w3.org/2000/svg" viewBox="0 0 298 178.57"><path fill="#fff" d="m296.4 80.46-.09-.4c-5.6-19.04-28.3-40.2-62.31-58.08-29.17-15.33-63.56-20.75-84.31-20.75h-.96c-20.77 0-55.16 5.43-84.33 20.75-34 17.87-56.71 39.04-62.32 58.08l-.09.4a47 47 0 0 0-.78 9.05q-.05 4.6.78 9.06l.1.4c5.6 19.03 28.3 40.2 62.3 58.07 29.18 15.33 63.57 20.76 84.33 20.76h.95c20.77 0 55.16-5.43 84.33-20.76 34-17.87 56.71-39.03 62.31-58.07l.1-.4q.82-4.45.78-9.06a47 47 0 0 0-.78-9.05z"/><path fill="#115740" d="M148.73 9.23c-19.86 0-52.73 5.18-80.6 19.83-31.5 16.56-53.28 36.38-58.3 53.06a39 39 0 0 0-.62 7.35v.08q-.04 3.74.62 7.35c5.02 16.68 26.8 36.5 58.3 53.06 28.04 14.73 61.11 19.9 80.94 19.83h.6c19.86 0 52.73-5.18 80.61-19.83 31.5-16.56 53.27-36.37 58.3-53.06q.65-3.62.61-7.35v-.08a39 39 0 0 0-.6-7.35c-5.04-16.68-26.8-36.5-58.31-53.05-27.88-14.66-60.74-19.84-80.6-19.84zM178 47.1q4.8 0 7.02 1.05 2.05.99 2.05 3 0 1.48-1 3.52-1.49 3.01-3 4.52-2.72 2.72-9.46 2.72-4.8 0-6.99-1.05-2.08-.99-2.08-3 0-1.48 1-3.52 1.5-3.01 3-4.52 2.72-2.72 9.46-2.72m-106.2.37h7.72l1.32 6.03 3.11-6.03h6.86l-7.5 14.07h-7.36l-1.41-6.53-3.39 6.53H64.3zm22.3 0h16.74l-1.9 3.56h-8.56l-.96 1.72h7.97l-1.83 3.45H97.6l-.98 1.78h8.86l-1.9 3.56h-17zm18.28 0h8.1l-1.66 6.56 4.84-6.56h8l-1.87 6.6 5.07-6.6h7.66l-12.57 14.07h-8.46l1.3-5.46-4.61 5.46h-8.45zm35.91 0h8.57l-.11 4.36 4.32-4.36h7.88l-11.27 9.7-2.33 4.37h-8.9l2.46-4.61zm43.65 0h13.03q2.63 0 3.63 1 .73.73.73 2.08 0 2.06-1.46 3.52-.78.78-1.62 1.17-.76.32-2.13.54 2.01.64 2.01 1.95 0 .73-.52 1.69l-1.17 2.12h-8.5l1.46-2.74q.3-.55.3-.96 0-.89-1.16-.89h-1.21l-2.43 4.6h-8.45zm22.63 0h8.68l-3.4 6.37 7.02-6.37h7.88l-7.8 6.88.9 7.2h-8.37l-.4-6.24-3.32 6.23h-8.68zm-37 3.2q-.8 0-1.32.43-.51.43-1.01 1.38l-1.92 3.6q-.41.76-.41 1.31 0 .95 1.14.95.8 0 1.35-.45.48-.41.98-1.36l1.92-3.6q.41-.77.41-1.31 0-.95-1.14-.95m20.82.36-1.8 3.3h1.62q1.1 0 1.73-1.2l.34-.64q.23-.43.23-.77 0-.69-.87-.69zm36.05 21.44c15.65 0 21.36 2.48 21.36 8.44 0 2.05-.3 3.6-1.11 5.4h-18.82c.5-.93.8-1.73.8-2.85 0-1.37-1.55-2.36-4.28-2.36-3.41 0-5.15 1.43-5.15 2.98 0 1.37 1.55 1.86 9.68 3.79 8.14 1.92 11.06 3.72 11.06 8.14 0 3.6-1.62 7.26-4.72 10.37-3.91 3.9-9.75 6.33-24.22 6.33-17.14 0-22.1-2.8-22.1-8.7 0-1.73.37-3.53 1.36-5.52h19.19a7 7 0 0 0-.8 3.17c0 1.48 1.42 2.42 4.4 2.42 3.29 0 5.22-1.18 5.22-3.23 0-1.87-1.68-2.3-10.31-4.47-8.08-2.05-10.37-3.6-10.37-7.95 0-2.92 1.61-6.52 4.6-9.5 4.21-4.23 10.05-6.46 24.21-6.46m-151.49 1h23.6L95.84 93.9c-3.04 5.72-4.96 8.94-8 11.99-4.53 4.53-12.05 6.83-23.23 6.83-15.52 0-21.98-3.73-21.98-10.68 0-3.54.87-6.09 2.98-9.94l2.45-4.65h20.12l-5 9.56a9 9 0 0 0-1.11 3.47c0 1.37.68 2.36 2.42 2.36 2.6 0 3.91-1.74 5.65-4.96zm27.48 0h45.52l-5.15 9.68h-23.3l-2.6 4.66h23.53l-4.97 9.37h-23.47l-2.67 4.85h24.1l-.12.2a47 47 0 0 0-13.6 4.54 55 55 0 0 0-7.8 4.95H90.04zm49.49 0h48.93l-5.22 9.74H191.9l-14.68 27.5a57 57 0 0 0-6.52-3.98 47 47 0 0 0-13.21-4.43l10.19-19.09H154.7zm-10.81 30.35h.22c4.3 0 12.75 1.03 20.28 4.98 8.32 4.36 13.61 9.43 14.87 13.68l.06.42-1 1.2c-5.53-.39-11.07-.6-16.6-.75a308 308 0 0 0-5.15-.11 20 20 0 0 0-.4-2.7l-.57-.47-1.64-.06-.37.46q.75 4.34 0 8.69l.37.45 1.64-.06.57-.48q.3-1.35.4-2.69 2.57-.02 5.15-.11c5.53-.15 11.07-.36 16.6-.75l.94 1.13c-1.26 4.25-6.55 9.32-14.87 13.68-7.53 3.95-15.98 4.98-20.28 4.98h-.22c-4.28 0-12.77-1.04-20.33-5.02-8.26-4.35-13.53-9.41-14.8-13.65l.92-1.12c5.53.39 11.06.6 16.6.75q2.86.09 5.74.12.1 1.35.4 2.68l.57.48 1.64.06.37-.45q-.75-4.35 0-8.7l-.37-.44-1.64.05-.57.48q-.3 1.35-.4 2.68-2.88.04-5.74.12c-5.54.15-11.07.36-16.6.75l-1-1.21.05-.33c1.24-4.26 6.53-9.34 14.83-13.72 7.56-3.98 16.05-5.02 20.33-5.02m-.42 16.04-.46.48q-.1 4.47 0 8.94l.46.48h1.65l.47-.48q.1-4.47 0-8.94l-.47-.48zm-3.6.03-1.64.03-.51.48a37 37 0 0 0 0 8.82l.51.48 1.64.03.42-.47a61 61 0 0 1 0-8.9zm8.85 0-.42.47a61 61 0 0 1 0 8.9l.42.47 1.64-.03.52-.48q.53-4.4 0-8.82l-.52-.48zm-40 6.63.02.08-.01-.03z"/></svg>