<svg xmlns="http://www.w3.org/2000/svg" viewBox="0 0 250 172.74"><path fill="#fff" d="M145.29 13.44 133.2 26.11c19.8-8.23 62.98-22.35 62.98-22.35l-13.84 13.53C220.11 6.11 248.8.81 248.8.81s-8.31 19.36-20.74 38.73c2.4-.26 18.1-2.08 18.1-2.08s-14.13 23.4-30.44 40.26l9.12 2.27s-14.22 20.5-33 37.23c-26.99 24.06-40.88 20.36-40.88 20.36-20.04 14.52-36.1 7.16-36.1 7.16s6.94-17.51-.23-19.37c-6.46-1.68-16.3 3.37-17.52 5.4-1.28 4.42-6.65 15.64-12.2 22.43-10.65 13.03-22.45 18.35-22.45 18.35s-9.3-7.94-9.35-21.44c0 0-6.39 6.76-16.78 8.97-7.28 1.55-17.2.3-27.38-8.2-6.83-5.7-8.14-24.86-8.14-24.86s6.42-12.26 18.8-23c-2.74-2.35-4.42-5.31-4.95-7.14 32.9-14.36 32.93-28.07 59.09-44.74 25.77-16.42 41.97-23.97 71.53-37.7"/><path fill="#004851" d="m129.26 25.07-10.34 10.84c20.41-9.04 63.53-23.72 63.53-23.72l-12.51 12.24c44.2-13.68 72.24-18.32 72.24-18.32s-9.16 20.42-21.35 37.76c5.9-.56 18.21-2 18.21-2S226.73 62.52 208.54 80c2.01.3 10.27 2.18 10.27 2.18s-10.97 16.28-30.05 32.99c-24.35 21.32-35.15 18.8-35.15 18.8s.23-.84.2-2.14c0-.7-.16-1.36-.17-1.4-18.74 17.63-34.36 11.68-34.36 11.68s6.94-16.79-3.7-20.18c-8.24-2.62-20.86 4.13-21.86 7.74-1.1 3.92-6.33 14.82-11.52 21.21-9 11.09-18.96 16.14-18.96 16.14s-9.06-6.97-5.92-27.36c.69-4.45-.2-6.18-.68-6.93-1.49-2.28-13.08.2-15.9 6.67-2 4.57 9.52 8.43 9.52 8.43s-5.32 5.86-14.6 7.76c-5.85 1.2-14.9.81-24.4-7.41-5.61-4.87-6.77-21.33-6.77-21.33s6.94-12.71 20.46-23.7a16.5 16.5 0 0 1-5.2-5.86C46.98 85.54 50.71 68.95 81.47 50.4c14.33-8.65 29.43-17.15 47.78-25.34"/><path d="M232.25 13.37s-24.56 5.17-36.3 7.68c-22.08 4.71-39.6 10.71-39.6 10.71l10.58-10.23s-33.88 10.7-53.88 20.5c-2.21 1.1-7.29 3.26-7.29 3.26l6.07-7.63s-16.07 6.86-37.07 20.83c-19.05 12.67-27.83 29.73-50.21 40 0 0 1.44 2.4 6.09 4.18a87 87 0 0 0-22.97 24.88s1.52 14.77 5.61 18.27c16.67 14.25 31.08 2.75 31.08 2.75s-9.98-4.42-7.13-10.72c3.54-7.82 14.74-9.17 17.7-9.03 0 0 7.4-.36 5.44 11.34-2.65 15.88 3.54 22.93 3.54 22.93s19.36-11.1 26.99-34.68c2.94-9.08 41.25-21.68 32.22 11.4 7.43 1.72 25.35-4.86 31.21-15.59a11.6 11.6 0 0 1 2.42 6.38c15.64-1.22 43.6-31.03 52.96-46.2-2.49-1.04-6.97-1.85-8.06-2.08 19.37-18.48 27.96-35.73 27.96-35.73s-7.99.43-15.39.95c12.26-17.21 18.03-34.17 18.03-34.17M71.4 90.58a4.6 4.6 0 0 1 3.55 2.09c1.44 2.4.1 5.84-3 7.69s-6.78 1.4-8.22-1a4 4 0 0 1-.42-.95q.7-.39 1.34-.85.09.45.31.84c1.02 1.7 3.69 1.97 5.96.62 2.27-1.36 3.28-3.83 2.26-5.53-.58-.96-1.68-1.45-2.94-1.46z"/><path fill="#fff" d="M153.92 29.52s-20.59 4.92-48.47 18.16c-7.86 3.73-12.01 5.96-12.01 5.96 1.2-1.4 6.8-6.3 8.15-8.05-20.7 10.15-28.24 16.86-40.54 29.9C50.08 87.1 50.58 89.14 33.94 98.14c0 0 12.26 5.03 24.68-3.06a35 35 0 0 0 6.1-5.41c4.4-5.1 2.94-10.32 8.77-14.08-.83 1.94-2.2 4.4-2.32 6.93 2.8-3.86 8.34-8.94 14.5-12.61 15.67-9.35 26.07-10.96 26.07-10.96l-1.17.42c-21.43 8.91-24.92 20.55-25.03 21.77-.23 2.63 7.74-3.25 14.26-4.05-6.86 2.42-12.74 8.26-15.6 15-1.2 2.85-1.57 6.1-4.96 8.63-.95.87-2.2 1.73-3.88 2.49-4.5 2.03-7.61 1-8.67.3a4 4 0 0 1-1.02-1.13c2.18.61 5.15.08 7.86-1.63 2-1.26 3.48-2.93 4.28-4.62a5 5 0 0 0 .06-4.9c-.61-1.14-1.88-1.76-3.32-1.99.1-.24.84-2.15 3.2-4.96-3.2 2.3-5.27 5.05-6.34 6.3a4.6 4.6 0 0 1 3.54 2.1c1.44 2.4.1 5.84-3 7.68-3.1 1.85-6.78 1.4-8.22-1a4 4 0 0 1-.41-.95q-.25.16-.5.28a59 59 0 0 1-2.92 1.33c.92.22 2.16.31 2.93.17.26 3.39 2.38 8.85 14.34 5.76-3.42 3.36-11.64 3.14-16.62.53a34 34 0 0 0 2.39 1.62c14.98 9.31 32.24.55 36.45-1.88a33 33 0 0 1 3.13-1.77s-4.37 3.85-7.33 9.83c5.25-6.72 20.5-17.48 40.96-15 0 0-10.7-5.2-27.58.31 0 0 23.28-13.8 52.75-7.93a73.6 73.6 0 0 0-46.5.05c-5.96 2.3-9.5 4.2-9.5 4.2s1.5-1.09 4.28-2.74a128 128 0 0 1 25.75-14.44c6.51-2.68 19.48-6.14 24.75-6.44 0 0-13.56-2.3-25.93.81 0 0 19.59-7.63 38.59-8.06 6.36-.14 20.93.63 20.93.63-21-6.24-42.78-7.46-57.65-5.18-8.46 2.1-15.13 4.19-15.13 4.19s1.17-.6 3.4-1.54c5.36-3.2 27.37-15.01 68.26-21.4 0 0-5.23-.61-11.62-.61-6.54 0-19.4 2.2-19.4 2.2 9.32-4.25 26.87-8.37 48.57-10.46 0 0-33.16-3.94-73.3 8.64l-.53.23s4.24-3.06 9.02-6.24c3.52-2.33 8.62-5.98 8.62-5.98zM67.14 95.47a23 23 0 0 1-1.68 1.48c.1.25.3.69.8 1.05.88.65 2.23.54 2.23.54a3.4 3.4 0 0 1-1.35-3.07"/><path fill="#a2aaad" d="M214.91 25.22s-18.46 1.49-39.41 5.37c-21.79 4.05-35.87 9.73-38.68 10.92 40.14-12.58 73.3-8.64 73.3-8.64-21.7 2.1-39.25 6.21-48.56 10.47 0 0 12.85-2.21 19.39-2.21a110 110 0 0 1 11.62.62c-40.9 6.38-62.9 18.2-68.26 21.38 5.44-2.3 17.2-6.74 34.05-10.08 15.9-3.14 34.35-3.93 41.78-4.67a63 63 0 0 0 14.77-23.16m-38.44 30.25c-8.17.07-16.74.53-24.4 1.7a189 189 0 0 0-16.03 3.32c14.88-2.28 36.65-1.06 57.65 5.18 0 0-14.56-.77-20.93-.63-19 .42-38.59 8.06-38.59 8.06 12.37-3.11 25.93-.82 25.93-.82-5.27.3-18.23 3.77-24.74 6.45a128 128 0 0 0-25.75 14.44c11.05-6.56 42.47-21.96 82.35-13.46 0 0 2.61-2 9.55-9.62 7.36-8.07 8.93-13.05 8.93-13.05s-16-1.72-33.97-1.57m-65.9 3.9-.78.29C90.16 66.98 79.83 78.62 81.36 84.5c.57 2.21 4.42-.07 4.42-.07s-5.2 4.4-7.28 9.14c-.01.26 0 1.21-.68 2.55.5.12 1.03.2 1.48.15 1.34-.15 2.92-1.1 2.92-1.1s.03 2.82-2.97 5.55c3.38-2.54 3.75-5.8 4.96-8.65 2.85-6.73 8.74-12.57 15.6-14.99-6.52.8-14.5 6.68-14.26 4.05.1-1.22 3.6-12.86 25.02-21.77zm43.78 24.34c-16.12.17-30.55 4.54-39.52 8a73.6 73.6 0 0 1 46.5-.05c-29.47-5.87-52.75 7.93-52.75 7.93 16.88-5.51 27.58-.31 27.58-.31-20.46-2.49-35.71 8.28-40.96 15a28 28 0 0 0-1.13 2.57c4.74-4.46 9.8-8.08 21.49-10.98 27.67-6.87 46.91 1.46 49.22 10.2l.27-.14c1.12-.6 5.42-2.44 11.9-8.81 6.8-6.7 11.05-12.06 12.74-15.67-10.62-5.32-21.65-7.45-32.1-7.71a91 91 0 0 0-3.24-.03M52.13 104.23c-4.5 1.38-10.2.99-13.35.13-3.63 2.5-16.7 8.1-25 22.17.42 4.76.92 10.86 2.88 14.21 7.99 12.62 21.95 7.96 21.95 7.96s-21.21-9.41 1.46-23.13c7.24-4.38 27.26-7.67 39.2-3.83 1.02.38 2.28 1.27 2.2 1.5-1.24 6.08-6.25 23.1-14.56 27.94-4.6-6.7 7.53-22.12-4.84-22.7 0 0 3.07 4.77 1.75 11.18-.59 2.8-2.5 10.32.92 18.1 0 0 18.8-11.25 24.39-37.21.72-2.56 1.2-4.72 2.32-6.68-24.16 9.52-39.32-9.64-39.32-9.64m-5.7 3.87c1.3 1.06 2.64 1.8 6.16 2.14l-7.73 2.25c-1.73.52-5.47 1.05-3.7-1.61 0 0 2.26-1.22 5.27-2.78m75.58 1.78c-15.1.33-22.03 7.08-22.03 7.08s6.97-5.25 18.81-3.35c17.51 2.82 17.01 13.85 17.01 13.85s7.88-3.39 11.87-10.32c0 0-4.94-4.72-13.88-6.3a60 60 0 0 0-11.78-.96"/></svg>