<svg xmlns="http://www.w3.org/2000/svg" xml:space="preserve" viewBox="0 0 196.06 196.06"><path d="M2.5 98.39c0 52.67 42.85 95.53 95.53 95.53s95.53-42.86 95.53-95.53S150.7 2.86 98.03 2.86 2.5 45.7 2.5 98.39"/><path fill="#a5acaf" d="M98.02 191.82A93.44 93.44 0 1 0 98 4.94a93.44 93.44 0 0 0 .03 186.89"/><path fill="#fff" d="M98.02 176.56a77.95 77.95 0 1 0 0-155.88 77.95 77.95 0 0 0 0 155.88"/><path fill="#eead1e" d="M98.43 98.72C99.33 66.8 129.5 59.3 137.07 60c-18.68-1.01-37.11-8.9-38.54-38.44-2.25 27.47-13.27 35.27-38.67 38.53 18.14.92 36.5 8.1 38.57 38.64"/><path fill="#c60c30" d="M137.17 138.24c.9-31.93 30.53-39.8 38.11-39.12-18.74-.69-36.79-9.6-38.21-39.13-2.25 27.47-13.24 35.47-38.64 38.73 18.14.92 36.68 8.97 38.74 39.52"/><path fill="#00539b" d="M98.9 176.24c.9-31.93 30.7-38.69 38.28-38-18.68-1.02-37.32-9.98-38.74-39.52-2.25 27.48-12.95 35.73-38.35 38.98 18.14.93 36.75 8 38.81 38.54"/><path d="M35.45 86.9a6 6 0 0 0-2.19.48 4 4 0 0 0-1.84 1.77 5 5 0 0 0-.7 2.19 5.3 5.3 0 0 0 2.48 4.73c1.18.74 2.05.84 3.05 1.8.53.5.5 1.83.32 2.13-.49.86-1.76.55-2.07.22s-.45-1.51-.39-1.98l-3.34.02a6 6 0 0 0 .42 3.38c.45 1.02 1.09 1.4 1.91 1.8 1.8.84 4.21.77 5.95-.86.43-.4.59-.86.59-.86.4-.99.86-2.1.54-3.9a5 5 0 0 0-.7-1.8c-.62-.88-1.08-1.27-2.74-2.08.04 0-.53-.24-.49-.24-1.75-.57-2.45-1.64-1.9-2.78.3-.64 1.43-.9 1.94-.44.34.32.41.98.44 1.5l1.17-.01h2.16a5 5 0 0 0-.6-2.88 4.5 4.5 0 0 0-4-2.18m28.44.3v16.48h3.16V87.22zm-19 1.9-3.13 1.72v1.08l-1.24.04v2.7l1.18-.04.02 6.2c.02 3.3 2.84 2.79 4.33 2.82v-3.5c-1.26.02-1.15-.23-1.15-.86v-4.6l1.2.02v-2.77l-1.2.03zm41.67 2.65a4 4 0 0 0-1.56.36c-.48.23-.83.18-1.63 1.16a3 3 0 0 0-.52 1.76c-.07 1.27.34 2.94 2.07 3.38.97.24 2.06.37 2.58 1.14.28.43.2.6.07.93-.18.46-1.2.45-1.62.29a1 1 0 0 1-.6-1.04l-2.63.02c.05 1.01.06 1.63.45 2.38A3 3 0 0 0 85 103.6c1.4.43 2.96.35 4.1-.36.22-.13.8-.66 1.05-1.1.4-.72.63-1.64.27-2.85a3 3 0 0 0-.29-.86c-.62-1.2-1.42-1.42-2.26-1.7l-.74-.19c-1.47-.16-1.56-1-1.36-1.56.16-.46.53-.62 1.01-.62.4 0 .81.3.89.6q.06.31.04.74l2.72.01c-.03-1.06-.22-2.15-.8-2.75a4.3 4.3 0 0 0-3.06-1.2m-5.03.05c-1.03.24-1.3.72-1.77 1.52l-.01-1.46-3.04.03v11.69h3.1V96.8c.03-.7-.14-1.62 2.48-1.44V91.8zm-30.84.11a5 5 0 0 0-2.2.51c-1.02.68-1.62 1.61-1.56 2.68v5.7c.06 1.42.67 2.43 1.93 2.89.96.2 1.98.5 3.63 0 1.54-.54 1.92-1.53 1.9-2.45v-1.37l-2.58.01v.33c-.06 1.33-2.35 1.11-2.36.06v-1.6h4.94v-3.63c-.02-1.18-.58-2.03-1.85-2.72a6 6 0 0 0-1.85-.41m8.55 0c-.63-.01-1.3.13-2.19.51-1.03.68-1.63 1.61-1.57 2.68v5.7c.06 1.42.67 2.43 1.93 2.89.96.2 1.99.5 3.63 0 1.55-.54 1.92-1.53 1.9-2.45v-1.37l-2.58.01v.33c-.06 1.33-2.35 1.11-2.36.06v-1.6h4.94v-3.63c-.01-1.18-.58-2.03-1.84-2.72a6 6 0 0 0-1.86-.41m12.56 0a5 5 0 0 0-2.2.51c-1.03.68-1.62 1.61-1.56 2.68v5.7c.06 1.42.67 2.43 1.93 2.89.96.2 1.99.5 3.63 0 1.54-.54 1.92-1.53 1.9-2.45v-1.37l-2.58.01v.33c-.06 1.33-2.35 1.11-2.35.06l-.02-1.6h4.95v-3.63c-.01-1.18-.58-2.03-1.84-2.72a6 6 0 0 0-1.86-.41m-21.16 2.69c.73-.04 1.51.54 1.26 1.63l-2.34-.01c-.18-1.08.43-1.6 1.08-1.62m8.55 0c.73-.04 1.52.54 1.26 1.63l-2.33-.01c-.19-1.08.42-1.6 1.07-1.62m12.56 0c.73-.04 1.51.54 1.26 1.63l-2.34-.01c-.18-1.08.43-1.6 1.07-1.62"/></svg>