<svg xmlns="http://www.w3.org/2000/svg" viewBox="0 0 460 272"><ellipse cx="230" cy="136" fill="#fff" rx="230" ry="136"/><ellipse cx="229.5" cy="137" rx="223" ry="130"/><ellipse cx="230.5" cy="138.5" fill="#B3995D" rx="194.5" ry="120"/><ellipse cx="231" cy="136.5" fill="#A00" rx="179" ry="112"/><path d="M370.85 121.88h-.5v-4.07h-71c-1.52-8-6.12-15.4-12.67-21.2a47.6 47.6 0 0 0-26.52-15.12l-4.43-.91c-10.25-2.16-18.34-3.86-50.9-3.7 0 0-6.28-.21-12.35-1.02a27 27 0 0 1-4.05-1.35c.44-2.71 5.4-6.44 11-7.17.58-.1 35.82-6.59 72.1 16.9l.89.58h23.84V48.33h-4.08v-4.07h-32.72l-5.51 4.2c-9.42-2.35-55.56-12.45-95.4 5-16.74 6.91-27.13 19.97-26.4 33.23.38 6.69 3.59 12.52 9.12 17.04 4.07 5.08 10.47 9.05 18.8 11.45 11.8 3.4 21.78 4.8 31.47 5.35v16.64h4.08v4.07h12.44c5.15 0 6.47 2.86 6.79 3.92-15.88-1.04-40.02-5.56-57.8-22l-.66-.73h-.13a68 68 0 0 1-2.88-2.92l-1.07-1.15h-17.9v51.94h4.09v4.07h14.59c2.14.14 8.92-.61 13.6-14.28 7.59 2.64 26.3 8.28 49.33 8.9v32.3c-.8 10.86-24.7 14.26-33.03 14.58l-3.44.14v16.06h4.07v4.07h104.93v-15.37l-2.68-.7-1.4-.38v-3.52l-3.27-.28a57 57 0 0 1-13.96-2.8c-6.6-3.7-7.73-6.7-7.87-7.19v-17.22h30.76c3.24.49 6.02 1.91 8.38 3.76a41 41 0 0 1 6.48 11.8l.79 2.51 2.64.02h.08c.37.92.56 1.5.57 1.54l.78 2.53h16.53v-62.49h-4.08v-4.08h-16.45l-.6 2.86c-4.3 20.77-28.31 20.46-49.66 17.35a118 118 0 0 0 12.58-4.18c11.43-4.55 20-10.73 25.36-17.96h46.08q4.82.15 8.24 2.4c4.84 7.1 4.35 17.53 4.35 17.65l-.2 3.78h4.29l-.01.3-.2 3.78h18.36v-48.37z"/><path fill="#FFF" d="M297.34 134.67h38.2c21.81.7 20.23 27.92 20.23 27.92h11v-41.2h-65.92s-.16 9.22-3.51 13.28m-77.74 35.2v31.63c-1.14 16.58-36.47 17.96-36.47 17.96v9.02h97.76v-9.02c-29.05-2.52-29.18-17.32-29.18-17.32V181h34.72c15.88 2.27 21.99 22.17 21.99 22.17h10.3v-55.32h-9.95c-6.92 33.33-57.98 18.33-61.76 19.17 0 0-12.58 3.14-27.41 2.83m30.5-54.43c13.27 3.9 14.5 14.02 6.73 23.5-9.94 9.38-25.12 9.77-25.12 9.77s-51.13 5.53-80.96-26.75H138v44.76h11.16s6.8 1.04 11.17-15.36c0 0 52.5 21.36 102.43 1.54 48.36-19.21 29.96-61.29-3.32-67.88-12.8-2.54-17.89-4.73-54.61-4.54 0 0-6.63-.2-13.09-1.08-20.24-5.06-8.73-18.15 3.14-19.68 0 0 36.47-7.2 74.51 17.45h19.2V47.84h-27.93l-5.93 4.54S202.98 37.92 160 56.74c-28.89 11.94-34.55 41.82-3 50.92 27.8 8 45.5 4.65 73.67 5.73 7.87.3 14.7.6 19.44 2.04"/><path fill="#FFF" d="M208.39 133.58h-13.27V121.7c10.28 0 31.25.09 46.09 0 14.93 0 16.91 8.63 10.63 14.47-5.93 5.5-18.36 9.42-33.06 6.74 0 0-1.21-9.33-10.4-9.33"/></svg>