<svg xmlns="http://www.w3.org/2000/svg" viewBox="0 0 300 267.02"><g fill-rule="evenodd"><path fill="#b1babf" d="M287.1.98s.69 12.7-1.71 24.33c-2.32 11.24-3.6 15.52-3.6 15.52-4.9 2.88-12.85 6.42-24.46 8.35-21.67 3.62-41.34-2.2-62.81-10.63-21.48-8.43-50.22-17.51-76.88-14.45a119 119 0 0 0-54.18 20.27c-9.83 6.82-11.64 8.62-20.07 11.03 0 0 6.62 2.61 10.03 2.61 0 0-1.6 6.63-1 8.84 0 0 14.05-6.43 15.65-3.42 1.61 3.02-5.02 5.03-9.63 6.22-4.61 1.21-16.66 1-16.66 1s5.65 4.38 7.64 7.42c0 0-10.65 4.63-22.5 3.03 0 0-.39 4.38 9.35 11.57-2.07.74-4.7 1.94-6.32 3.68 0 0 10.2-2.1 16.6 5.03a8.4 8.4 0 0 1 2.06 6.4c-.35 4.35-2.01 6-6.1 8.7a50 50 0 0 0-7.22 3.6c-11.28 6.94-19.53 17.5-25.33 29.55a94 94 0 0 0-5.93 16.79c-1.41 5.53-1.94 10.45-2.27 13.51s-.78 12.72-.78 12.72 5.06-7.1 7.43-10.5c2.36-3.38 17.33-22.2 39.14-27.66a84 84 0 0 1 20.55-2.51c15.96-.01 30.21 4.32 38.65 8.45 12.24 5.92 32.36 19.9 58.73 24.28 6.21 1.03 12.9 1.54 19.84 1.54 6.66 0 13.55-.49 20.43-1.43a821 821 0 0 1-11.17 16.25c-3.6-3.42-8.47-3.78-8.47-3.78-5.91-.55-8.87 3.05-8.87 3.05a10 10 0 0 0-2.45 4.95c-.41 1.84.08 3.97.43 5.06 1.13 3.58 4.19 5.22 5.38 5.74-8.65 11.51-11.16 24.77-11.16 24.77l-3.94 3.48 1.42 5.77c-2.2 7.07 1.25 12.38 5.73 14.58 4.54 2.23 8.78.93 8.78.93a12 12 0 0 0 7.4-6.03 13 13 0 0 0 2.38-1.65c1.25.14 4.44.24 4.44.24 6.54-.06 12.93-1.91 17.8-6.05 3.84-3.44 8.07-9.3 8.22-17.3 0-1.5.27-7.57-4.73-12.85 31.59-46.38 52.1-76.23 65.19-106.61C316.8 34.84 287.23 1.27 287.1.98"/><path d="M289.65 14.84c-.35 16.8-4.95 28.5-4.95 28.5-6.57 3.94-15.55 8.14-25.8 9.66-21.42 3.17-31.94-.04-51.77-6.38-19.82-6.34-49.57-20.03-80.1-19.83-30.54.2-52.34 13.46-71.86 28.53.3-.09 5.09-1.59 6.82-2.16 0 0-4.56 5.35-5.94 8.33 0 0 9.08-6.8 21.55-6.07 0 0-4.33 1.09-6.14 3.8 0 0 5.06-1.1 5.96.9.9 1.99-2.17 6.51-7.77 9.04s-14.64 4.52-20.43 4.88c0 0 5.8 1.81 9.59 5.42 0 0-4.42.64-9.22 2.53-4 1.59-11.21 2.54-14.29 2.17 0 0 4.21 3.94 9.22 7.05 14.68 9.1 8.48 22.6 3.76 27.03-3.11.88-35.53 9.7-42.96 62.04 0 0 16.43-22.92 41.3-29.25 24.88-6.33 49 0 61.67 6.18 12.66 6.18 32.26 19.75 57.74 23.98 14.01 2.32 30.88 1.9 47.21-1.23-.26.4-12.72 18.94-18.08 26.41 0 0-3.97-4.99-9.35-5.49 0 0-2.26-.45-4.09.5a6.3 6.3 0 0 0-3.44 4.54 5.9 5.9 0 0 0 1.41 5.19 6.6 6.6 0 0 0 3.3 2.04c.91.22 2.18.78 2.42 2a121 121 0 0 0-8.24 14.5c-1.9 4.16-2.81 7.72-3.57 10.12-.72 2.46-1.36 3.42-1.57 3.55l-2.58 2.27s.99 4 1.27 4.67a8 8 0 0 0-.94 3.8v.07a8.4 8.4 0 0 0 3.76 6.97c1.9 1.31 4.64 1.39 4.64 1.39a8.4 8.4 0 0 0 6.96-3.74 8 8 0 0 0 .9-1.81 8 8 0 0 0 3.76-2.8c1.44.33 5.64.45 5.81.45 5.87-.04 11.42-1.72 15.5-5.19 3.26-2.92 6.83-7.93 6.95-14.63 0-1.2.36-7.5-5.7-12.51a1576 1576 0 0 0 18.43-27.22c12.57-19.05 22.85-35.6 30.67-49.42 8.19-14.05 33.8-52.65 33.74-105.5-.03-15.4-5.54-25.28-5.54-25.28z"/><path fill="#a71930" d="M129.24 32.27c-40.7-.22-60.53 21.15-60.54 21.16 0 0 9.67-3.52 14.54-.36 5.3 3.44.63 12.32-1.08 14.1-4.9 5.1-11.93 8.86-19.7 8.86 0 0 8.22 1.97 10.88 4.42 0 0-7.63 1-11.79 2.44-4.15 1.45-12.28 3.8-14.09 3.8 0 0 21.43 9.8 8.13 30.72 0 0 9.3-1.42 17.05 2.3 0 0-42.45-6.85-56.81 40 5.4-4.46 22.4-16.45 48.87-16.58 31.95-.14 45.66 7.2 58.35 14.9 19.35 11.73 33.98 15.2 45.1 17.27 31.94 5.96 64.02-4.78 77.92-11.26 40.34-61.82 44.99-96.74 45.67-121.67-13.03 13.12-34.88 16.34-44.78 16.28-29.46-.18-61.37-16.76-89.67-23.08a132 132 0 0 0-28.05-3.3m39.83 13.97c7.75-.2 15.52 2.57 15.6 2.6.13.04 14.08 4.43 19.13 12.94 5.08 8.56 4.4 16.35 1.33 22.04-3.07 5.7-6.03 8.9-5.95 10.8.07 1.9.89 3.45.89 3.45s-3.52 7.04-8.7 9.03c0 0-2.87 7.4-5.96 9.86s-7.68 4.98-11.84 8.3a13 13 0 0 1-5.52 2.54l.4.3c8.35-.23 20.84-1.24 33.9-4.76 23.03-6.2 44.9-27.21 44.9-27.21-5.47 17.9-7.91 23.82-22.19 33.93s-36.64 13.19-36.64 13.19c-.25.96-1.73 1.98-1.73 1.98s2.29.85 7.9 5.08c5.62 4.22 4.1 4.01 5.89 5.22 1.68 1.13 2.68.9 2.8.87h.01c.54 1.08.6 2.7.6 2.7.76.7 4.42 4.2 1.01 7.82-3.4 3.62-7.35.26-7.35.26-1.39.3-2.74-.17-2.74-.17s-7.3 4.59-14.53-.41c-5.9-4.06-5.53-8.88-5.2-10.54a32 32 0 0 1-6.3 2.72c-5.91 1.85-13.45 2.62-20.94.13a32 32 0 0 1-12.21-7.71 37 37 0 0 1-7.15-9.89l-.65-1.43c-.52 1.23-2.98 5.89-10.62 5.55-8.8-.38-11.84-8.43-11.84-8.43s-1.36-.46-2.3-1.52c0 0-5.15.3-5.7-4.64-.53-4.95 4.5-5.52 5.53-5.63 0 0 1.02-1.25 2.1-1.8 0 0 .62.9 2.77 1.01 2.16.12.82-.64 7.85-.62 7.03.01 9.36.73 9.36.73s-.56-1.7-.18-2.64c0 0-15.97-15.95-21.26-32.62s-3.68-22.86 2.75-40.44c0 0 4.77 29.96 19.4 48.78a149 149 0 0 0 24.28 24.33h.45a13 13 0 0 1-2.98-5.45c-1.31-5.16-3.45-9.95-4.43-13.77-.99-3.82 1.2-11.46 1.2-11.46-2.93-4.7-1.5-12.43-1.5-12.43s1.58-.75 2.8-2.22c1.2-1.47.78-5.82 1.76-12.2.98-6.4 5.14-13.02 14.35-16.78 2.3-.93 4.87-1.33 7.46-1.4z"/><path fill="#dc4405" d="M149.48 125.33c-8.97.15-16.94 4.22-19.11 6.97a4 4 0 0 0-.32.47l-.04.07a4 4 0 0 1 1.81-.84 2.15 2.15 0 0 0-1.18 2.76c2.2 5.36 9.04 14.17 19.35 17.63 10.5 3.53 21.41.68 26.3-2.4.57-.4 1.32-1.42.59-2.8 0 0 .57.58.87 1.52.13-.91-.07-2.2-.58-3.72-1.96-5.83-8.49-14.92-18.55-18.3a27 27 0 0 0-9.14-1.36m-10.16 5.99a53 53 0 0 1 5.77.37q-.54.68-1.04 1.4a72 72 0 0 0-11.83-1.16 33 33 0 0 1 7.1-.61m27 7.53c4.63 2.72 8.08 5.64 9.84 7.74a72 72 0 0 0-9.86-6.02q.04-.86.02-1.72"/><path fill="#fff" d="M172.32 50.47c-13.52-.17-16.29 10.86-16.34 13.74-.05 2.33.1 3.9.03 4.83a12 12 0 0 0 3.72-2.27c-.24.27-4.05 4.62-8.13 5.08 0 0-.9 3.93-2 5.92a11 11 0 0 1-3.19 3.35c-.2 2.81 1.32 6.88 3 7.72 1.68.85 6.18 2.34 7.93 4.33a6 6 0 0 1 1.38 5.61c-.12.62-.4 1.36-.6 1.9l.14.03c.37.13.57.38.56.51 0 0-.2.13-.34.35a10 10 0 0 0-.45.97 32 32 0 0 0-.64 1.7v.06c-.2.59.38.79.38.79l.07.02 1.51.3h.02c.12.02.71.07.92-.5.23-.67.43-1.22.68-1.89l.05-.12.02-.04s.15-.46.22-.74c.06-.26.33-.7.58-.7s.6.12.57.65c-.04.52-.15.86-.16.92l-.02.08-.7 2.55c-.23.66.5.87.5.87.44.12 1.1.23 1.57.37l.09.01s.55.18.75.1c.2-.06.33-.37.36-.47l.85-2.94a1.6 1.6 0 0 0-.08-.87c.04 0 .7.12 1.08.25.31.1.73.27.94.43-.32.16-.53.69-.55.76v.03l-.17.5-.78 2.32c-.03.19-.07.66.48.87l.09.03 1.47.55.03.01a1 1 0 0 0 .29.05c.21 0 .48-.08.6-.45l.58-1.77c.22-.67.41-1.28.42-1.36a1 1 0 0 1 .25-.45q.37-.02.6.1c.21.1.44.36.54.45a5 5 0 0 0-.4 1.15c-.05.28-.38 1.46-.53 2.02l-.05.15-.01.06v.04c-.1.57.46.86.46.86l1.46.7s.59.2.78-.4l.03-.03a39 39 0 0 0 .52-1.75l.14-.52.02-.13c.01-.04.1-.35.12-.54l.01-.26.71.3c.15-1.3.7-2.26.7-2.26q.2-.44.5-.77h-.02a6 6 0 0 1 4.12-2.85c2.6-.54 7.07.98 8.93 1.33 1.64.3 4.69-1.48 6.43-3.53l.54-.85s-.87-2.36-.53-4.6c.34-2.25 2-5.93 2-5.93l-.15-.15c-2.84-2.86-3.26-8.43-3.28-8.8v-.01a11 11 0 0 0 1.33 3.6c.54-.81 1.59-1.92 2.75-3.54.83-1.16 2.34-4.3 2.34-8.14 0-4.37-1.95-9.65-9.06-13.98l-.08-.05-.27-.15a33 33 0 0 0-2.67-1.45q-.6-.29-1.14-.53l-1.05-.44q-.38-.16-.72-.28l-.5-.2q-.82-.3-1.32-.45l-.2-.07a71 71 0 0 0-6.48-1.66 29 29 0 0 0-4.55-.43m-66.8 11.24s-1.95 12.2 7.53 29.57l.68 1.22 1.71 2.85c3.44 5.5 8 11.41 14.11 17.57l.02.01c.38.37 7.68 7.57 10.84 10.35a38 38 0 0 1 3.93-.85 134 134 0 0 1-13.02-12.21c-20.54-22.26-24.47-42.95-25.8-48.51m48.7 11.79a16 16 0 0 1 4.33 2.9q.3.28.58.57c2.13 2.32 4.15 4.44 6.13 5.1.64.22 1.32.27 1.94.24l.04-.01q.25 0 .5-.04c1-.13 1.82-.4 1.82-.4s-1.05 1.62-1.74 2.52c-.7.9-3.64 4.17-5.86 3.93l-.06-.02c-2.32-.11-5.89-2.03-7.26-3.36-.18-.19-.47-.59-.47-.59l-.14.1.14-.1c.02-.03-.44-.84-.48-.9-.73-1.78-.56-4-.1-5.78a13 13 0 0 1 .5-1.54s.8-1.72.34-2.42l-.18-.17q0-.02-.03-.03m22.72 10.84.04.05c.09.14.52.73 1.18 1.36q.17.18.37.34l.02.03c.48.4 1.04.76 1.7.98 1.97.67 4.86.2 7.96-.37l.8-.11c2.78-.32 5.22.3 5.22.3v.01h-.05l-.24.03c-.79.28-1.2 2.14-1.2 2.14a13 13 0 0 1-.57 1.64 11 11 0 0 1-2.16 3.32c-.68.72-1.44 1.08-2.28 1.55-.02 0-.49.14-.74.17-1.9.23-5.9-.38-7.82-1.7l-.04-.01c-1.93-1.15-2.32-5.54-2.32-6.67-.01-1.13.12-3.02.13-3.06m-28.3 14.54c-.66 0-1.44.12-1.92.52 0 0 .56 3.07 2.06 5.78 1.5 2.7 3.3 7.45 3.97 9.36.27.79.8 1.68 1.68 2.57 1.2-.66 4.13-.45 7.32.62 3.06 1.03 5.44 2.54 6.13 3.76 1.1-.2 1.97-.57 2.6-1 1.7-1.12 5.99-3.82 8.82-5.07a21 21 0 0 0 5.13-3.36c-.23-1.01-1.6-1.87-2.07-2.14-.28.05-1.4.27-1.96.69-.64.47-2.97 3.94-6.03 5.24.3-1.72-.82-2.6-1.1-2.58-.29.04-.51.71-.57.88s-.65 1.33-.85 1.88-.14.58-.14.58q-.74-.02-1.47-.07a45 45 0 0 0 1.28-2.63c.29-.73-.5-.9-.5-.9l-1.3-.22h-.05c-.54-.1-.87.24-.94.45l-.17.41-.62 1.45q0 .04-.03.08c-.25.6-.04 1.12-.04 1.12-.17-.01-.57 0-1.25-.14a5 5 0 0 1-.76-.25c.24-.2.39-.57.4-.57l1.1-2.71s.26-.71-.2-.85a41 41 0 0 1-1.87-.5c-.47-.1-.67.28-.72.4-.1.25-.27.64-.32.8l-.71 2.04v.02c-.15.44-.04.84-.04.84s-.6-.12-.91-.2-.8-.42-.8-.42c.08-.08.17-.3.24-.45.29-1 .56-2.26.8-3.32.02-.14.02-.58-.42-.77l-1.58-.6c-.46-.15-.66.23-.73.45l-.6 2.92c-.08.58.19.99.19.99-.25-.06-.74-.28-1.13-.44a8 8 0 0 1-.84-.49c.3-.03.46-.65.46-.65.33-.68.55-1.27.8-1.91l.04-.1.02-.05a.9.9 0 0 0-.3-1.1l-1.46-.75c-.4-.2-.66.07-.74.34-.27.77-.7 1.46-.84 2.3-.07.49-.03.82-.03.82-.93-.44-1.28-1.14-1.28-1.14a4 4 0 0 0 .53-2.1c.01-.88.07-1.7-.35-2-.4-.28-1.1.46-1.45.98s-.43.83-.43.83v.07c-1.66-2.88-1.43-7.07-1.65-7.84-.23-.76-1.2-1.78-1.2-1.78s-.54-.1-1.2-.09m91.53 8.02a122 122 0 0 1-3.75 3.07c-7.1 5.6-21.93 15.7-46.07 20.04a133 133 0 0 1-17.62 1.89q1.43 1.48 2.63 3.02s2.54-.2 2.89-.22a133 133 0 0 0 35.75-7.8 83 83 0 0 0 2.6-1.08c18.91-8.21 23.46-18.66 23.57-18.92m-125.05 20.42c-1.4 0-2.8.15-4.18.34-1.23.17-2.4.38-3.54.37q-.4 0-.79-.05l-.25-.04a4 4 0 0 1-.93-.28c0 .05.67 2.85 4.36 2.85l.19-.33a5 5 0 0 1 1.69-1.68l.02-.01a10 10 0 0 1 4.04-1.16zm.78 0c-1 .2-2.16.55-2.96 1.08a5 5 0 0 0-1.86 2.01c3.06-.36 8.87-.28 10.33-.03l.04-.03a5.5 5.5 0 0 1 3-2.24 76 76 0 0 0-4.82-.58 50 50 0 0 0-3.73-.2zm31.78 2.78a23 23 0 0 0-1.2 1.59q-.64-.1-1.26-.17l-.13.16a25 25 0 0 0-1.35 1.87l1.46.26a18 18 0 0 0-1.18 2.78q1.14.14 2.27.33.48-1.37 1.12-2.65 1.17.26 2.37.56a33 33 0 0 0-1.04 2.56 51 51 0 0 1 2.23.54q.46-1.28.97-2.52 1.14.33 2.3.7l-.88 2.5q1.1.35 2.17.74l.82-2.54q1.15.4 2.26.83-.34 1.3-.76 2.6 1.07.44 2.11.92.42-1.34.72-2.68 1.14.47 2.23.97a23 23 0 0 1-.71 2.8q1.02.54 2.01 1.11a18 18 0 0 0 .74-2.95l1.32.65.03-.5q.04-.86.02-1.71v-.3l-1.11-.63q.04-.97 0-1.94a53 53 0 0 0-1.86-1 29 29 0 0 1-.1 1.93 58 58 0 0 0-2.1-1q.15-.96.24-1.91a44 44 0 0 0-1.8-.8l-.37 1.9a56 56 0 0 0-2.1-.8l.53-1.85q-.9-.33-1.81-.6-.35.88-.69 1.79a54 54 0 0 0-2.16-.63q.41-.89.84-1.74-.94-.24-1.9-.45-.52.83-.99 1.69a56 56 0 0 0-2.28-.47q.52-.84 1.1-1.63a55 55 0 0 0-2.08-.31m37.35 18.33a5.7 5.7 0 0 1 1.06 3.65c1.32.69 6 4.12 8.22 6.26.13-.7.1-1.68-.27-2.72a9 9 0 0 0-1.7-2.65l-.28-.2q-1.05-.75-2.14-1.44a76 76 0 0 0-3.1-1.89l-1.49-.84zm7.42 4.62c.04.03 2.1 2.2 2.54 3.38.27.66.42 1.49.38 2.21l-.08.54.01.02.38.27q.3.2.64.37.52.27 1.08.41.42.1.85.1c.81 0 1.56-.3 2.2-.79l.03-.02a4 4 0 0 1-.89-.32 6 6 0 0 1-.9-.57 29 29 0 0 1-1.82-1.66l-1.14-1.13a29 29 0 0 0-1.94-1.75zm36.55 23-.24.07q-4.12 1.28-8.35 2.3c-.32.48-16.23 24.23-21.86 32.04l4.05 3.46c1.52-2.05 23.6-33.63 26.4-37.88m-38.58 41.77-.18.28a183 183 0 0 0-3.79 6.1c-1.17 1.97-3.45 6.39-3.54 6.56-.01.1-.57 3.39.04 5.94l.01-.01a78 78 0 0 1 8.03-13.86 13 13 0 0 1-.57-5m-7.61 13.14-.5 1.03c-3.36 7.35-3.25 12.64-6.55 15.56l.22.04c.89.12 4.23-.01 5.95-7.93a10 10 0 0 1-.28-1.4c-.29-2.29.41-5.43 1.14-7.26z"/><path fill="#b1babf" d="M170.3 50.2c-14.15.06-18.17 10.6-18.77 13-.63 2.57-.62 5.82-.77 7.3 0 0 2.72-.4 5.25-1.46.08-.93-.08-2.5-.03-4.82.06-3.19 3.43-16.3 20.9-13.32l-.1-.01q-.84-.19-1.76-.34a34 34 0 0 0-4.72-.35m17.98 4.33q1.29.62 2.67 1.45.14.07.27.16l.08.05c7.11 4.32 9.06 9.6 9.06 13.97 0 3.84-1.5 6.98-2.33 8.14-1.17 1.62-2.22 2.73-2.76 3.55a24 24 0 0 0 3.26 4.41c.83-1.34 2.72-3.7 3.67-6.08 1.05-2.66 5.08-16.55-13.21-25.35zm-82.75 7.18-.12.35a28 28 0 0 0-1.22 7.35c-.22 4.15.17 8.32 1.05 12.38a62 62 0 0 0 4.26 12.49c1.87 4.1 4.18 8 6.76 11.7 3.18 4.56 6.8 8.8 10.73 12.73a118 118 0 0 0 5.2 4.9c.23.2 2.01 1.97 2.19 1.89a36 36 0 0 1 3.63-1.47l-.54-.48C119.75 107.88 113 91.18 113 91.18l.03.04c-9.45-17.32-7.5-29.5-7.5-29.5m54.98 8.48a3 3 0 0 0-.6.08c0 .08 4.13 2.53 6.38 4.88 2.15 2.48 5.53 5.58 7.56 6.24 2.03.7 6.6.27 9.8-.4 3.24-.53 8.04 0 8.04-.06-1.98-2.45-8.73-1.75-12.54-1.58-3.29.26-4.28-.23-4.5-.31s-1.31-.27-3.8-2.47c-2.73-2.28-7.27-6.5-10.34-6.38m-6.3 3.3s-2.51 4.6-2.73 6.98-.39 4.6 2.21 6.36c-.08-.11-1.08-1.55.2-2.3l.15-.1q.07-.04.13-.1c.03-.02-.44-.83-.47-.9-.74-1.77-.56-3.99-.1-5.77a13 13 0 0 1 .5-1.54s.8-1.73.33-2.42l-.17-.18h-.01zm-7.8 7.63s-.15 1.56-.15 3.14c0 .63.02 1.27.08 1.8q.06.4.15.72c.48 1.67.54 2.73 4.15 4.32q1.85.8 3.62 1.78c1.76.99 3.65 2.16 4.38 4.16l.02.05c.2.5.21 1.13.08 1.65l-.08-.25c-.16-.31-.43-.54-.61-.83q0-.02-.02-.03a7 7 0 0 0-1.31-1.2v.02l-.01-.02s-.38 1.33-.98 2.31c-.34.57-.7 1.2-1.08 2.05l-.01.04c-.74 1.92.12 3.96.32 3.97.24.02.75-.21 1.72-2.92l.1-.33c.03-.13-.02-.36-.07-.55v-.03c.13-.44.7-.4 1.05-.36q.18.01.36.06c.21-.54.48-1.27.61-1.9.4-1.5.36-3.61-1.38-5.6-1.75-2-6.25-3.48-7.93-4.33-1.69-.85-3.2-4.92-3-7.73zm23.16.74s-1.06 1.61-1.75 2.51c-.69.91-3.63 4.17-5.86 3.93 0 .1-.05.8-1.54 1.8 0 0 2.56.81 4.48-.24 1.92-1.06 4.47-5.87 7.7-4.82 3.22 1.12 2.35 6.5 3.25 8.5.86 1.94 3.27 2.83 3.42 2.88-.62-1.79-.14-2.36-.14-2.36-1.92-1.15-2.31-5.53-2.32-6.67s.13-3.02.14-3.05c-1.45.74-6.72-1.03-7.38-2.48m24.62 5.06-.25.04c-.78.27-1.19 2.13-1.19 2.13a13 13 0 0 1-.57 1.64 11 11 0 0 1-2.16 3.32c-.69.72-1.44 1.08-2.28 1.55q.03.17.1.32c.58 1.43-1.24 1.96-1.24 1.96 3.14.17 4.35-1.71 5.61-3.75 1.26-2.03 2.03-7.2 2.03-7.2zm-23.99 1.5a2.5 2.5 0 0 0-2.26 1.6c-.26.8-.7 1.28-1.28 1.92l-.01.02c-.44.52-.78.72-1.2.99-.4.24-.97.68-1.2 1.4l-.32.97c-.44 1.3.42 2.77 1.91 3.27 0 0-.65-.81-.32-1.78v-.04c-.42-.45-.63-1.07-.43-1.65l.34-1.01c.34-1.04 1.24-.95 2.29-2.26.56-.65 1.13-1.28 1.47-2.28.27-.81 1.19-1.26 2.09-1.03a3 3 0 0 0-1.08-.12m1.4.23c.86.37 1.3 1.27 1.04 2.08-.34 1-.28 1.84-.22 2.7.05 1.68.81 2.15.47 3.18l-.34 1.01c-.2.6-.74.96-1.36 1.05l-.01.04c-.33.96-1.33 1.22-1.33 1.23 1.5.5 3.07-.15 3.5-1.46l.33-.97c.25-.7.05-1.4-.12-1.84-.16-.46-.31-.82-.34-1.5v-.02l-.01-.02c-.06-.85-.12-1.49.14-2.28.42-1.25-.35-2.65-1.74-3.2zm-23.43 3.16-.01.05c-.13.52-1.14 4.72-1.37 6.77a9 9 0 0 0 .49 4.5c.4 1.26 2.31 6.67 2.78 8.14l.2.68c.5 1.87 1.39 5.5 3.16 7.42a14 14 0 0 0 6.36 3.95h.02l.02.02a14 14 0 0 0 7.45.68c2.94-.52 6.3-3.54 7.56-4.43 1.27-.9 6.06-4.06 7.14-4.82 1.09-.77 2-1.41 3.1-3.3 1.12-1.88 3-6.27 3-6.27s-1.8-.35-2.4-.43l-.03.05c-.27.47-2.42 4.28-3.21 5.08h-.07c.47.28 1.84 1.14 2.08 2.15 0 0-2.3 2.11-5.13 3.36s-7.13 3.95-8.82 5.08a7 7 0 0 1-2.6 1c-.7-1.23-3.08-2.74-6.13-3.77-3.2-1.07-6.13-1.28-7.33-.61a7 7 0 0 1-1.68-2.58 73 73 0 0 0-3.96-9.36c-1.5-2.7-2.07-5.78-2.07-5.78.96-.8 3.13-.43 3.13-.43a4 4 0 0 1-.03-.6c.03-1.6.47-4.92.53-5.38v-.06a54 54 0 0 0-2.18-1.11m47.2 6.76c-1.75 2.05-4.8 3.83-6.43 3.53-1.86-.34-6.34-1.86-8.93-1.33a6 6 0 0 0-4.13 2.87l.02-.02q.02 0 .03-.02c1.43-1.66 4.04-1.59 6.01-1.34q2.31.32 4.58.88c3.84.9 4.52.1 5.91-.94a12 12 0 0 0 2.89-3.56zm-16.92 5.15c-1.94-.09-3.03.68-3.03.68v.02a7 7 0 0 0-.7 2.23l.9.42c.12.07.33.15.4.28.2.26.24.37.24.37l-.53.08c-.1 0-.54.16-.54.29-.86 2.75-.6 3.23-.4 3.36.18.11 2.1-.98 2.66-2.97 0-.01.32-1.67.39-2.33.12-1.06.56-2.27.61-2.42l-.01.01zm61.73 3.17c-.11.26-4.66 10.71-23.58 18.92l-.12.1s-15.72 9.35-39.61 11.06a34 34 0 0 1 2 3.37c7.44-.42 14.96-1.45 22.07-3.43a83 83 0 0 0 13.29-4.87c4.3-2.03 8.5-4.45 12.2-7.44a58 58 0 0 0 6.77-6.36c2.85-3.18 5.46-6.96 6.87-11.02zM128.7 122.05h-.11c-.2.06-.34.23-.29.54s.38 1.25-.1 2.66a4.7 4.7 0 0 1-2.58 2.8 4.6 4.6 0 0 0-2.7 3.2c-.35 1.7-1.27 3.93-1.02 5.4.1.56.66 1.34 1.94 1.28-.88.73-1.7.68-2.38.37-1.06 1.96-2.65 2.76-5.56 2.2-2.97-.58-6.74-3.43-7.52-8.24 0-.09 1-.1 1.4-.1h.19a1.7 1.7 0 0 1-.38-.92q.01-.31.2-.73c-3.68 0-4.34-2.8-4.36-2.85 0 0-1.17.94-1.22 2.55a1.63 1.63 0 0 0-3.21.06 1.64 1.64 0 0 0 1.37 1.86 1.63 1.63 0 0 0 1.86-1.37v-.07q.03.29.12.6.24.83.58 1.28c.52.73 1.08.84 1.08.84l.09-.11c.04-.05.37-.4.41-.37-.37-.24-1.96-1.44-1-4.08 0 0-.05 2.38 1.92 3.64.21.99 1.76 6.87 7.53 8.7 6.3 2 8.73-1 9.29-2.13.26-.52.9-2.12.9-2.12.55-1.57 1.93-7.65 2.45-8.36.52-.72 2.08-3.56 1.45-6.18 0 0-.1-.33-.35-.36zm-11.85 8.13c-2.01 0-4.23.06-5.76.24q-.26.51-.26.87c0 .35.17.67.33.9 0 0 5.62.3 9.15 1.27q.2-.75.56-1.86a5 5 0 0 1 .58-1.24l-.03.03c-.73-.13-2.55-.2-4.57-.21M185.22 141c-.2-.04-.4.1-.4.1-2.08 1.71-2.56 4.93-2.57 5.8-.01.89-2.58 6.58-3.09 8.15-.02.07-.46 1.42-.56 2.24-.16 1.26-.11 5.1 6.12 7.31 5.7 2.02 10.47-1.76 11.24-2.42a4.3 4.3 0 0 0 3.33-1.28c.26-.25.41-.45.41-.45-.61 2.02-1.9 2.52-2.68 2.63a3 3 0 0 1-.57.03l.03.13c.1.34.07.55.07.55s.19.08.5.1c.46.03 1.19-.08 2.11-.8q.23-.18.4-.37a1.6 1.6 0 0 0 .68 2.1 1.61 1.61 0 1 0 1.54-2.84 1.6 1.6 0 0 0-1.74.13c.47-.78.52-1.58.5-2.08l-.07-.48-.02.01c-.64.48-1.39.8-2.2.8q-.43 0-.85-.1a5 5 0 0 1-1.08-.41 7 7 0 0 1-1.02-.65l-.01-.01q-.1.46-.28.7a1.7 1.7 0 0 1-.86.52l.02.01c.41.33.83.62 1.19 1.02-3.53 3.36-8.25 3.37-10.97 2.04-2.66-1.31-3.44-2.92-3.1-5.13a2.1 2.1 0 0 1-1.68-1.7l.08.05c.61.5 1.62.67 2.23.09.56-.53 1-1.4 1.39-2.34.35-.86.66-1.74 1.06-2.59q.24-.52.33-1.08a4.8 4.8 0 0 0-.56-3.1 4.7 4.7 0 0 1-.37-3.79c.48-1.41 1.3-1.96 1.53-2.18.24-.21.22-.43.1-.6a.3.3 0 0 0-.18-.11m.87 11.09s-.12.8-.3 1.29l-.67 1.82a55 55 0 0 1 8.06 4.51c.28-.1.6-.24.82-.52a2 2 0 0 0 .3-.85 58 58 0 0 0-8.21-6.25m53.4 20.13q-2.98 1.26-6.07 2.37a2774 2774 0 0 1-27.84 41.8 92 92 0 0 1 2.8 2.41q.07.04.13.1a3118 3118 0 0 0 30.98-46.68m-54.88 34.16c-.23 0-.68.04-.76.49-.06.36.1.7.64.84s2.24.32 4.14 2.1a8.2 8.2 0 0 1 2.53 6.13 8 8 0 0 0 3.07 6.6c2.42 1.81 5.28 4.87 7.79 5.57l.45.08c1.67.14 3.24-1.35 3-2.2a4.1 4.1 0 0 1-.78 4.09c2.79 2.74 4.14 5.87 3.27 8.68-1.11 3.62-5.15 8.49-12.55 8.39-5.26-.07-8.35-1.53-9.7-2.37l.48-1.09c-3.08.74-4.21-3.83-4.26-4.03-1.73 7.92-5.06 8.05-5.95 7.93l-.22-.04s.66 2.59 3.24 3.83a2.8 2.8 0 0 0-3.18 1.15 2.86 2.86 0 0 0 .8 3.96 2.87 2.87 0 0 0 3.97-.81 2.85 2.85 0 0 0-.82-3.95q-.09-.06-.2-.1a6 6 0 0 0 1.13.3c3.44.58 4.57-1.08 4.57-1.08s-.24-.47-.4-1.14c0 0-3.4 2.4-7.15-1.4.13.04 1.37.47 3.5.12 3.19-.47 3.62-1.47 3.84-1.65l.02-.1c2.76 1.5 5.8 2.2 10.13 2.29 4.86.09 9.5-1.43 12.25-3.82 2.73-2.38 5.96-7.44 4.75-12.77-1.02-4.48-6.7-8.84-8.02-9.8-2.8-2.48-10.07-8.15-10.76-9.38-.74-1.34-4.1-5.9-8.7-6.82zm6.38 16.44s-4.26 5.56-8.04 13.88q.15.62.4 1.16c1.16 2.49 2.2 3.17 4.25 3.04 0 0 4.82-8.21 8.22-12.6a71 71 0 0 1-2.55-2.25 9 9 0 0 1-2.28-3.23m8.27 10.2a76 76 0 0 0-4.07 6.06l-1.44 2.4q.65.07 1.34.06c1.43 0 2.9-.22 4.02-.68 1.54-.57 3.28-2.74 3.19-4.22q0-.54-.24-1.03a6 6 0 0 0-2.8-2.6"/><path d="M169.19 89.57c.27-.8 1.18-1.25 2.08-1.03l.16.05.18.06c.84.37 1.3 1.27 1.02 2.08-.33 1-.27 1.84-.2 2.7.03 1.68.8 2.15.46 3.19l-.35 1c-.2.6-.73.97-1.35 1.06a2 2 0 0 1-.9-.06c-.95-.32-1.49-1.3-1.2-2.16.06-.14-.03-.3-.18-.36a.3.3 0 0 0-.37.17c-.28.87-1.3 1.32-2.25 1a2 2 0 0 1-.76-.5c-.43-.45-.64-1.06-.45-1.64l.35-1.02c.34-1.03 1.24-.94 2.29-2.25.56-.65 1.13-1.28 1.47-2.29"/><path fill="#c2242b" d="M176.29 149.99c-4.89 3.08-15.8 5.93-26.3 2.4-10.31-3.46-17.16-12.27-19.35-17.64a2.15 2.15 0 0 1 1.18-2.75s-.95.13-1.81.84c0 0-.08.1-.15.34-1.16 3.44 5.83 18.1 19.02 22.52 13.2 4.43 27.47-2.65 28.76-6.49.09-.28.1-.5.1-.5-.3-.94-.87-1.53-.87-1.53a2.1 2.1 0 0 1-.58 2.8"/></g></svg>