<svg xmlns="http://www.w3.org/2000/svg" viewBox="0 0 264.58 193.66"><g transform="translate(446.69 20.5)scale(.51282)"><circle cx="-543.24" cy="150.07" r="149.39" fill="#0058f6" fill-rule="evenodd" paint-order="markers stroke fill"/><path fill="#fff" d="M-543.08-39.97c-71.86 0-134.23 40.58-165.86 100.1a177 177 0 0 0-3.87 7.99c-32.94 72.64-17.64 131.4 11.64 182.57 1.32 2.3 3.04 4.59 4.49 6.83 34 48.45 90.1 80.14 153.6 80.14 103.8 0 187.97-84.54 187.97-188.8 0-104.24-84.12-188.83-187.97-188.83m1.35 46.02a142 142 0 0 1 105.96 47.3H-647.7c26.15-29.01 63.96-47.3 105.98-47.3m-129.92 94.57h165.7c-16.76 12.56-82.34 69.75-70.23 188.24a143 143 0 0 1-87.25-64.2c-25.5-39.1-26.53-86.97-8.22-124.04m264.3.04a144 144 0 0 1 8.5 48.94c0 74.34-56.3 135.49-128.46 142.77l-1.67-3.87s-26.5-143.6 121.63-187.84"/><path fill="#202033" d="M-644.68 162.28a113.2 113.2 0 1 1-226.38 0 113.2 113.2 0 0 1 226.38 0"/><path fill="#f2f2f2" d="M-789.13 115.73h17.37v19.84s5.47-4.58 13.9-4.58a31.27 31.27 0 1 1-31.27 31.27zm-35.26 15.26a31.27 31.27 0 0 1 31.26 31.27v30.78h-17.37v-5.4s-4.82 5.9-13.9 5.9a31.27 31.27 0 1 1 0-62.54m133.08 0a31.3 31.3 0 0 1 31.01 27.29h-17.7a13.9 13.9 0 1 0 0 7.96h17.7A31.27 31.27 0 1 1-691.33 131m-133.07 17.37a13.9 13.9 0 1 0 0 27.8 13.9 13.9 0 0 0 0-27.8m66.54 0a13.9 13.9 0 1 0 0 27.8 13.9 13.9 0 0 0 0-27.8"/></g></svg>