<svg xmlns="http://www.w3.org/2000/svg" viewBox="0 0 460 250.72"><path fill="#ffb612" d="m314.1 0 14.7 45.08-10.93 33.5L292.33 0H177.85L157.3 62.99 136.86 0H0l43 69.82 58.89 180.9H212.7l22.27-68.39 22.21 68.4h121.25L460 0ZM58.3 62.72 29.97 16.73h94.73l23.8 73.31-40.65 124.88zm142.19 171.64h-81.35l66.44-204.1 40.62 125.02zm-1.72-217.63h81.4l28.95 88.92-40.74 125.18zm167.36 217.53H284.8l61.54-189.07-9.26-28.46h99.82z"/><path fill="#5a1414" d="m309.06 105.67-40.74 125.18-69.55-214.12h81.4zm28.02-88.94 9.22 28.46-61.54 189.07h81.33l70.85-217.53zm-212.38 0H29.97l28.33 46 49.63 152.2L148.5 90.04zm-5.56 217.53h81.45l25.7-78.97-40.71-125.03z"/></svg>