<svg xmlns="http://www.w3.org/2000/svg" viewBox="0 0 135.47 158.87"><defs><linearGradient id="a" x1="0" x2="1" y1="0" y2="0" gradientTransform="matrix(0 235.109 235.109 0 104.481 149.681)" gradientUnits="userSpaceOnUse" spreadMethod="pad"><stop offset="0" stop-color="#c62127"/><stop offset=".36" stop-color="#ea1c24"/><stop offset=".5" stop-color="#ea1c24"/><stop offset=".71" stop-color="#ed1c24"/><stop offset="1" stop-color="#ed1c24"/></linearGradient></defs><path fill="url(#a)" d="M4.44 149.68h200.08V384.8H4.44Z" transform="matrix(.41725 0 0 -.41725 -1.674 160.553)"/><path fill="#fff" d="M76.88 46.5a45 45 0 0 0-11-17.1H49.2s14.46 10.93 16.11 22.53c1.74 10.96-2.65 19.54-12.95 24.87s-23.17 1.88-29.83-6.18c-5.24-6.33-5.66-14.25-5.63-17.36.02-.84 0-1.33 0-1.33h13.07v2.25s-.23 5.65 3.7 9.34a11.7 11.7 0 0 0 13.68 1.5s4.26-2.09 5.47-7.59-2.53-9.6-3.63-11.04-8.2-8.8-8.2-8.8v14.34H29.97V18.12h42.16V4.43h-55.2v47.5H3.9v.51c-.03 2.72.12 15.84 8 25.82 0 0 9.5 13.54 30 13.77 0 0 21.12.77 32.56-19.5a32.4 32.4 0 0 0 2.4-26.02"/><path d="M135.47 67.26a30.02 30.02 0 1 1-60.05 0 30.02 30.02 0 0 1 60.04 0"/><path fill="#f2f2f2" d="M131.32 68.32h-4.7a3.69 3.69 0 1 1 0-2.11h4.69a8.3 8.3 0 1 0-8.23 9.34 8.3 8.3 0 0 0 8.23-7.23m-43.53 2.62a3.69 3.69 0 1 1 0-7.37 3.69 3.69 0 0 1 0 7.37m0-11.98a8.3 8.3 0 0 0 0 16.6c2.42 0 3.7-1.57 3.7-1.57v1.42h4.62v-8.16a8.3 8.3 0 0 0-8.3-8.28"/><path fill="#f2f2f2" d="M105.44 70.94a3.69 3.69 0 1 1 0-7.37 3.69 3.69 0 0 1 0 7.37m0-11.98a6 6 0 0 0-3.68 1.22V54.9h-4.61v12.35a8.3 8.3 0 1 0 8.3-8.29"/><path fill="#9d9d9d" d="M4.58 149.23v7.3h3.26q3.42 0 3.42-3.6 0-1.92-1.12-2.86-1-.85-2.7-.85zm0-8.25v6.44h2.75q3.3 0 3.3-3.24 0-3.2-3.36-3.2zm-2.4 17.5v-19.46h5.97q2.15 0 3.43 1.06 1.56 1.28 1.56 3.93 0 1.36-.78 2.52t-2.06 1.54v.06q3.47.83 3.47 4.8 0 5.56-6.3 5.56zm20.15-17.87q-2.3 0-3.15 2.4-.62 1.77-.62 5.74t.62 5.76q.86 2.4 3.14 2.4 2.3 0 3.14-2.4.63-1.78.63-5.76t-.63-5.74q-.85-2.4-3.13-2.4m0-1.97q3.64 0 5.15 3.22 1.12 2.4 1.12 6.9t-1.13 6.89q-1.5 3.22-5.14 3.22-3.67 0-5.16-3.22-1.12-2.4-1.12-6.9t1.12-6.9q1.5-3.2 5.16-3.2m19.81 5.42h-2.4q0-3.46-3.02-3.46-3.21 0-3.21 3.15 0 2.25 2.36 3.28l4.45 1.69q2.37 1.36 2.37 4.37 0 3.07-2 4.57-1.6 1.2-4.05 1.2-3.27 0-4.66-1.7-1.23-1.49-1.23-4.79h2.4q0 2.16.51 3.08.8 1.44 3.15 1.44 1.44 0 2.41-.94.96-.96.96-2.49 0-2.24-2.37-3.32l-4.45-1.73Q31 147.04 31 144.01q0-1.99 1-3.36 1.45-2 4.69-2 5.38 0 5.45 5.42m8.9-2.92v17.34h-2.4v-17.34h-4.89v-2.13h12.18v2.13zm12.7-.55q-2.3 0-3.14 2.4-.62 1.78-.62 5.75t.62 5.75q.86 2.4 3.14 2.4 2.3 0 3.13-2.4.63-1.77.63-5.75t-.63-5.75q-.84-2.4-3.13-2.4m0-1.96q3.67 0 5.16 3.22 1.1 2.4 1.1 6.9t-1.1 6.89q-1.5 3.21-5.16 3.21t-5.15-3.21q-1.12-2.4-1.12-6.9t1.12-6.9q1.5-3.21 5.15-3.21m9.17 19.85v-19.47h3.12l6.47 16.25v-16.25h2.4v19.47h-3.31l-6.28-15.76v15.76z"/><path d="M4.55 134.25 0 108.5h6.07l2.23 18.34h.07l2.68-18.34h5.61l2.9 18.34h.06l2.17-18.34h5.85l-4.47 25.76h-6.72l-2.64-18.28h-.07l-2.48 18.28zm41.81-16.8h-5.85q0-2.96-.47-4.12-.55-1.3-2-1.3-1.72 0-2.23 1.99-.39 1.65-.39 7.07 0 5.98.43 7.69.5 1.94 2.35 1.94 1.54 0 2.08-1.78.4-1.32.44-4.79h5.84v.9q0 4.7-1.69 6.93-2.13 2.78-7.35 2.78-5.31 0-7.11-3.85-1.27-2.78-1.27-9.7 0-6.44 1.27-9.11 1.94-4.1 7.69-4.1 4.1 0 6.12 1.9 2.13 2.02 2.13 6.46zm6.6 16.8L47.3 108.5h6.5l3.07 19.92h.07l3.1-19.92h6.49l-5.84 25.76zm21.58-11.43v6.96h1.84q3.28 0 3.28-3.36 0-3.6-3.17-3.6zm0-9.84v5.8h1.65q2.96 0 2.96-3.04 0-2.78-2.91-2.78zm-6.06 21.29v-25.78h9.42q3.38 0 5.3 1.56 2.02 1.66 2.02 4.8 0 2.27-1.1 3.86t-2.94 1.94v.07q4.76.72 4.76 6.39 0 7.14-8.52 7.14z"/></svg>