<svg xmlns="http://www.w3.org/2000/svg" xmlns:xlink="http://www.w3.org/1999/xlink" width="1000" height="285.259" viewBox="0 0 264.583 75.475"><defs><linearGradient id="f"><stop offset="0" style="stop-color:#056daf;stop-opacity:1"/><stop offset=".057" style="stop-color:#056daf;stop-opacity:1"/><stop offset=".081" style="stop-color:#076bae;stop-opacity:1"/><stop offset=".128" style="stop-color:#0b68ad;stop-opacity:1"/><stop offset=".171" style="stop-color:#0f64ab;stop-opacity:1"/><stop offset=".256" style="stop-color:#165ea8;stop-opacity:1"/><stop offset=".333" style="stop-color:#1e58a6;stop-opacity:1"/><stop offset=".412" style="stop-color:#2552a3;stop-opacity:1"/><stop offset=".47" style="stop-color:#264b9b;stop-opacity:1"/><stop offset=".56" style="stop-color:#27418f;stop-opacity:1"/><stop offset=".624" style="stop-color:#283987;stop-opacity:1"/><stop offset=".702" style="stop-color:#29317e;stop-opacity:1"/><stop offset=".785" style="stop-color:#2a2975;stop-opacity:1"/><stop offset=".906" style="stop-color:#263281;stop-opacity:1"/><stop offset="1" style="stop-color:#24388a;stop-opacity:1"/></linearGradient><linearGradient id="e"><stop offset="0" style="stop-color:#263281;stop-opacity:1"/><stop offset=".453" style="stop-color:#283785;stop-opacity:1"/><stop offset=".489" style="stop-color:#292f7c;stop-opacity:1"/><stop offset=".524" style="stop-color:#2a2975;stop-opacity:1"/><stop offset=".544" style="stop-color:#2a2975;stop-opacity:1"/><stop offset=".583" style="stop-color:#282d7b;stop-opacity:1"/><stop offset=".633" style="stop-color:#263383;stop-opacity:1"/><stop offset=".684" style="stop-color:#233a8b;stop-opacity:1"/><stop offset=".728" style="stop-color:#213f92;stop-opacity:1"/><stop offset=".754" style="stop-color:#204296;stop-opacity:1"/><stop offset=".77" style="stop-color:#1f4398;stop-opacity:1"/><stop offset=".792" style="stop-color:#1e469c;stop-opacity:1"/><stop offset=".817" style="stop-color:#1f449a;stop-opacity:1"/><stop offset=".837" style="stop-color:#204297;stop-opacity:1"/><stop offset=".858" style="stop-color:#214094;stop-opacity:1"/><stop offset=".903" style="stop-color:#233a8c;stop-opacity:1"/><stop offset=".946" style="stop-color:#253484;stop-opacity:1"/><stop offset="1" style="stop-color:#263180;stop-opacity:1"/></linearGradient><linearGradient id="d"><stop offset="0" style="stop-color:#5e6bb1;stop-opacity:1"/><stop offset=".224" style="stop-color:#5e6db3;stop-opacity:1"/><stop offset=".792" style="stop-color:#5d73b7;stop-opacity:1"/><stop offset=".824" style="stop-color:#5d74b7;stop-opacity:1"/><stop offset="1" style="stop-color:#5d75b8;stop-opacity:1"/></linearGradient><linearGradient id="c"><stop offset="0" style="stop-color:#5e6bb1;stop-opacity:1"/><stop offset="1" style="stop-color:#5d75b8;stop-opacity:1"/></linearGradient><linearGradient id="b"><stop offset="0" style="stop-color:#5e6bb1;stop-opacity:1"/><stop offset="1" style="stop-color:#5d75b8;stop-opacity:1"/></linearGradient><linearGradient id="a"><stop offset="0" style="stop-color:#db1f26;stop-opacity:1"/><stop offset="1" style="stop-color:#9f1d21;stop-opacity:1"/></linearGradient><linearGradient xlink:href="#a" id="l" x1="-4771.554" x2="-1722.81" y1="127.667" y2="127.667" gradientTransform="matrix(.99983 0 0 1 -.299 0)" gradientUnits="userSpaceOnUse"/><linearGradient xlink:href="#b" id="i" x1="-1722.81" x2="-1402.096" y1="127.667" y2="127.667" gradientUnits="userSpaceOnUse"/><linearGradient xlink:href="#c" id="k" x1="-377.6" x2="-66.335" y1="127.667" y2="127.667" gradientTransform="translate(1013.986 115.497)scale(.21253)" gradientUnits="userSpaceOnUse"/><linearGradient xlink:href="#d" id="j" x1="-6385.486" x2="-314.412" y1="482.52" y2="482.52" gradientTransform="scale(.26458)" gradientUnits="userSpaceOnUse"/><radialGradient xlink:href="#e" id="g" cx="-105.943" cy="-821.985" r="828.238" fx="-105.943" fy="-821.985" gradientTransform="matrix(-2.7092 0 0 -2.49531 -392.966 -2692.925)" gradientUnits="userSpaceOnUse"/><radialGradient xlink:href="#f" id="h" cx="-130.589" cy="-355.903" r="438.786" fx="-130.589" fy="-355.903" gradientTransform="matrix(-3.45654 0 0 -3.15258 -581.974 -1733.943)" gradientUnits="userSpaceOnUse"/></defs><g style="stroke:none"><path d="M-1722.81-543.436H-65.806V798.77H-1722.81Z" style="opacity:1;fill:url(#g);fill-opacity:1;fill-rule:evenodd;stroke:none;stroke-width:.33523619;stroke-linecap:square;stroke-linejoin:miter;stroke-miterlimit:4;stroke-dasharray:none;stroke-opacity:1;paint-order:markers stroke fill" transform="translate(268.284 30.558)scale(.05623)"/><path d="M-943.907-543.436h878.101V798.77h-67.444z" style="opacity:1;fill:url(#h);fill-opacity:1;fill-rule:evenodd;stroke:none;stroke-width:.33523619;stroke-linecap:square;stroke-linejoin:miter;stroke-miterlimit:4;stroke-dasharray:none;stroke-opacity:1;paint-order:markers stroke fill" transform="translate(268.284 30.558)scale(.05623)"/><path d="m-1647.172-543.436-75.638 1235.8V798.77h33.449l287.054-1342.206z" style="fill:url(#i);fill-opacity:1;fill-rule:evenodd;stroke:none;stroke-width:.26458332px;stroke-linecap:butt;stroke-linejoin:miter;stroke-opacity:1" transform="translate(268.284 30.558)scale(.05623)"/><path d="m-1143.051-543.436-546.31 1342.205h44.05l745.506-1221.442h31.138L-133.25 798.77h50.062L-634.32-543.436h-309.588z" style="fill:url(#j);fill-opacity:1;fill-rule:evenodd;stroke:none;stroke-width:.26458332px;stroke-linecap:butt;stroke-linejoin:miter;stroke-opacity:1" transform="translate(268.284 30.558)scale(.05623)"/><path d="m933.65 0 62.656 285.259H1000v-44.644L985.963 0Z" style="fill:url(#k);fill-opacity:1;fill-rule:evenodd;stroke:none;stroke-width:.05623188px;stroke-linecap:butt;stroke-linejoin:miter;stroke-opacity:1" transform="scale(.26458)"/><path d="M-3391.13-1597.504-5706.743 721.44v1078.122h2481.135v670.422h1321.638l1.5-671.323h433.453l411.176-1017.152h-848.129v-2379.012zm152.329 1439.068v931.372h-928.357z" style="fill:#fff;fill-opacity:1;fill-rule:evenodd;stroke:none;stroke-width:.99999994px;stroke-linecap:butt;stroke-linejoin:miter;stroke-opacity:1" transform="translate(268.284 30.558)scale(.01488)"/></g><g style="stroke:none"><path d="M-4771.025-543.436h3048.215V798.77h-3048.215z" style="opacity:1;fill:url(#l);fill-opacity:1;fill-rule:evenodd;stroke:none;stroke-width:.45475888;stroke-linecap:square;stroke-linejoin:miter;stroke-miterlimit:4;stroke-dasharray:none;stroke-opacity:1;paint-order:markers stroke fill" transform="translate(268.284 30.558)scale(.05623)"/><path d="M-4526.311-399.384V674.109h313.315l.344-350.067h307.724V33.906h-310.6v-144.479l374.032-1.396-13.9-287.415z" style="opacity:1;fill:#fff;fill-opacity:1;fill-rule:nonzero;stroke:none;stroke-width:75.41504669" transform="translate(268.284 30.558)scale(.05623)"/><path d="M-12491.309-726.02c195.17 0 364.628 166.342 370.592 368.44-30.29-168.671-178.605-298.108-361.34-298.108-206.398 0-352.972 167.868-352.972 336.762v1675.56c0 167.242 142.317 329.554 340.736 329.554 172.47 0 319.601-113.922 360.207-265.747-30.045 169.758-179.232 297.899-357.318 297.899-198.405 0-356.483-169.664-356.483-344.053V-373.615c0-176.112 158.173-352.405 356.578-352.405" style="opacity:1;fill:#d24243;fill-opacity:1;fill-rule:nonzero;stroke:none;stroke-width:285.48156738" transform="translate(268.284 30.558)scale(.01488)"/><path d="M-12485.102-1560.652c-1141.8 0-2067.351 925.441-2067.351 2066.838 0 734.148 367.094 1361.948 926.746 1730.619 323.159 212.88 710.521 336.504 1128.484 336.504 685.289 0 1280.64-318.129 1661.578-822.006 155.085-205.135 273.294-441.055 344.592-698.83 48.131-174.015 73.664-357.185 73.664-546.287 0-1141.397-925.638-2066.838-2067.713-2066.838m-6.207 834.632c199.265 0 371.737 173.394 370.759 381.206l-8.02 1703.919c-.938 199.26-163.85 359.236-362.834 359.236-198.405 0-356.482-169.665-356.482-344.053V-373.614c0-176.112 158.172-352.406 356.577-352.406" style="opacity:1;fill:#fff;fill-opacity:1;fill-rule:nonzero;stroke:none;stroke-width:285.48156738" transform="translate(268.284 30.558)scale(.01488)"/><path d="m-2292.186-399.919-129.154 223.237-133.464-223.237-332.23-1.466 299.603 518.909-326.676 558.078 341.32-.536 154.29-264.104 157.634 264.64h348.866L-2246.23 115.88l300.845-515.456z" style="opacity:1;fill:#fff;fill-opacity:1;fill-rule:nonzero;stroke:none;stroke-width:75.60770416" transform="translate(268.284 30.558)scale(.05623)"/></g></svg>