<svg xmlns="http://www.w3.org/2000/svg" width="1900" height="493" version="1.2" viewBox="0 0 320 83"><defs><linearGradient id="g1" x1="9" x2="5.8" y1="110.9" y2="-4.8" gradientUnits="userSpaceOnUse"><stop offset="0" stop-color="#364bb2"/><stop offset=".6" stop-color="#374db3"/><stop offset="1" stop-color="#374db3" stop-opacity="0"/></linearGradient><linearGradient id="g2" x1="9" x2="5.8" y1="110.9" y2="-4.8" gradientUnits="userSpaceOnUse"><stop offset="0" stop-color="#364bb2"/><stop offset=".6" stop-color="#374db3"/><stop offset="1" stop-color="#374db3" stop-opacity="0"/></linearGradient><linearGradient id="g3" x1="9" x2="5.8" y1="110.9" y2="-4.8" gradientUnits="userSpaceOnUse"><stop offset="0" stop-color="#364bb2"/><stop offset=".6" stop-color="#374db3"/><stop offset="1" stop-color="#374db3" stop-opacity="0"/></linearGradient><linearGradient id="g4" x1="51.1" x2="48.8" y1="82.3" y2="-3.1" gradientUnits="userSpaceOnUse"><stop offset="0" stop-color="#364bb2"/><stop offset=".6" stop-color="#374db3"/><stop offset="1" stop-color="#374db3" stop-opacity="0"/></linearGradient><clipPath id="cp1" clipPathUnits="userSpaceOnUse"><path d="M353.49 16.88c-1.33 23.16-99.8 38.04-219.95 33.25C13.4 45.33-76.89 8.79-75.56-14.37s198.45-20.41 318.6-15.61c120.14 4.79 111.78 23.71 110.45 46.86"/></clipPath></defs><style>.s0{fill:#0b24a2}</style><g id="g122765"><path id="path119978" d="M23.3 23.9v9.9h20.9v20.7H23.3v24.6H1.8v-76h45.7L49 23.9z" class="s0"/><path id="path119980" fill-rule="evenodd" d="M113.8 14.8q10.7 10.9 10.7 26.3 0 15.6-10.7 26.5-10.7 11-25.9 11T62 67.6Q51.3 56.7 51.3 41.1q0-15.4 10.7-26.3 10.7-11 25.9-11t25.9 11m-32 41.6q0 2.5 1.8 4.4 1.9 1.9 4.6 1.9 2.6 0 4.4-1.9 1.9-1.9 1.9-4.4V25.6q0-2.7-1.9-4.5-1.8-1.9-4.4-1.9-2.7 0-4.6 1.9-1.8 1.8-1.8 4.5z" class="s0"/><path id="path119982" d="m160.7 79.3-10.8-19.2-10.5 19.2h-23.7l22.6-39.4L117 3.1h24.3l8.9 16.4 9-16.4h23.5l-20.8 36.6 23 39.6z" class="s0"/><path id="path119998" fill-rule="evenodd" d="M245.7 7q6.3 4.5 7.7 11.4 1.8-3.8 4.4-6.8 8.9-10.5 26.1-10.5 17.1 0 26.2 10.5 8.9 10.7 8.9 30 0 19.5-8.9 30-9 10.5-26.2 10.5t-26.1-10.5q-2-2.3-3.5-5-2.1 5-6.7 8.7-8.6 6.8-23.9 6.8-17.2 0-25.9-7.8T189 51.9h20.9q0 6.7 3.1 9.7 3.1 2.8 9.8 2.8 5.1 0 7.9-2.2t2.8-5.9q0-4.5-2.8-6.5-2.8-2.1-8.6-2.1h-5.8V32.8h6.4q5.3 0 7.9-1.8 2.5-1.9 2.5-6 0-3.4-2.6-5.2-2.6-2-7.3-2-5.4 0-8 2.1-2.5 2-2.8 6.9h-21q.6-12.9 8.3-19.2 7.9-6.5 23.7-6.5 14.2 0 22.3 5.9m29 17q-3.1 5.1-3.1 17.6 0 12.6 3.1 17.6 3.1 5.2 9.2 5.2 6.4 0 9.3-5.2 3-5.3 3-17.6 0-12.1-3-17.4-2.9-5.3-9.3-5.3-6 0-9.2 5.1m-32.3 15q3.7 1.1 6.4 3.2v-.6q0-3.8.4-7.3-2.8 3-6.8 4.7" class="s0"/></g><g id="Clip-Path: g126162" clip-path="url(#cp1)"><g id="g126162"><path id="path126140" d="M23.3 23.9v9.9h20.9v20.7H23.3v24.6H1.8v-76h45.7L49 23.9z" style="fill:url(#g1)"/><path id="path126142" fill-rule="evenodd" d="M113.8 14.8q10.7 10.9 10.7 26.3 0 15.6-10.7 26.5-10.7 11-25.9 11T62 67.6Q51.3 56.7 51.3 41.1q0-15.4 10.7-26.3 10.7-11 25.9-11t25.9 11m-32 41.6q0 2.5 1.8 4.4 1.9 1.9 4.6 1.9 2.6 0 4.4-1.9 1.9-1.9 1.9-4.4V25.6q0-2.7-1.9-4.5-1.8-1.9-4.4-1.9-2.7 0-4.6 1.9-1.8 1.8-1.8 4.5z" style="fill:url(#g2)"/><path id="path126144" d="m160.7 79.3-10.8-19.2-10.5 19.2h-23.7l22.6-39.4L117 3.1h24.3l8.9 16.4 9-16.4h23.5l-20.8 36.6 23 39.6z" style="fill:url(#g3)"/><path id="path126160" fill-rule="evenodd" d="M245.7 7q6.3 4.5 7.7 11.4 1.8-3.8 4.4-6.8 8.9-10.5 26.1-10.5 17.1 0 26.2 10.5 8.9 10.7 8.9 30 0 19.5-8.9 30-9 10.5-26.2 10.5t-26.1-10.5q-2-2.3-3.5-5-2.1 5-6.7 8.7-8.6 6.8-23.9 6.8-17.2 0-25.9-7.8T189 51.9h20.9q0 6.7 3.1 9.7 3.1 2.8 9.8 2.8 5.1 0 7.9-2.2t2.8-5.9q0-4.5-2.8-6.5-2.8-2.1-8.6-2.1h-5.8V32.8h6.4q5.3 0 7.9-1.8 2.5-1.9 2.5-6 0-3.4-2.6-5.2-2.6-2-7.3-2-5.4 0-8 2.1-2.5 2-2.8 6.9h-21q.6-12.9 8.3-19.2 7.9-6.5 23.7-6.5 14.2 0 22.3 5.9m29 17q-3.1 5.1-3.1 17.6 0 12.6 3.1 17.6 3.1 5.2 9.2 5.2 6.4 0 9.3-5.2 3-5.3 3-17.6 0-12.1-3-17.4-2.9-5.3-9.3-5.3-6 0-9.2 5.1m-32.3 15q3.7 1.1 6.4 3.2v-.6q0-3.8.4-7.3-2.8 3-6.8 4.7" style="fill:url(#g4)"/></g></g></svg>