<svg xmlns="http://www.w3.org/2000/svg" xml:space="preserve" id="Layer_1" x="0" y="0" version="1.1" viewBox="0 0 412.4 631.9"><style>.st1{fill:#fff}.st5{fill:#f7f8fa}</style><path d="M0 0h412.4v631.9H0z" style="fill:#da0231"/><path d="M46.9 35.6v128.9H85l-.1-41.6h37.4V87.6h-37V70.8h45.5l-2.5-35.2zm198.5.2 37.7 62.1-39.9 66.3 41 .2 19.5-32.6 19.7 32.4h42.1l-40.7-66.7 37-61.7h-40.7l-16.9 27.7-16.6-27.7z" class="st1"/><path d="M196.8 35.4c-36.8 0-66.6 29.1-66.6 64.8S160 165 196.8 165s66.6-29 66.6-64.8-29.8-64.8-66.6-64.8M197 62c6.2 0 11.7 5.5 11.7 11.5l.2 53.2c0 6.1-5.6 10.9-11.9 10.9s-11.3-4.9-11.3-11V73.5c0-6 5-11.5 11.3-11.5" class="st1"/><path d="M0 199.3h412.4v332.5H0z" style="fill:#022f73"/><linearGradient id="SVGID_1_" x1="103.37" x2="103.37" y1="521.77" y2="209.219" gradientUnits="userSpaceOnUse"><stop offset=".25" style="stop-color:#fff"/><stop offset=".9" style="stop-color:#fff;stop-opacity:0"/></linearGradient><path d="M34 209.2 17.7 521.8l171.4-312.6h-50.9L36 464.6l61.1-255.4z" style="fill:url(#SVGID_1_)"/><linearGradient id="SVGID_00000180348991728683494860000009752545645987235995_" x1="309.045" x2="309.045" y1="522.145" y2="209.594" gradientUnits="userSpaceOnUse"><stop offset=".25" style="stop-color:#fff"/><stop offset=".9" style="stop-color:#fff;stop-opacity:0"/></linearGradient><path d="m378.4 209.6 16.4 312.5-171.5-312.5h51L376.5 465l-61.2-255.4z" style="fill:url(#SVGID_00000180348991728683494860000009752545645987235995_)"/><path d="M207 518.8c-62.9 0-124.6-23.6-125.8-84.9-.8-49.5 57.8-79 57.8-79s-44.8-21.6-43.3-64.5c1.6-52.7 58.9-76.2 113.2-75.1 48.4.8 103 19.6 104.5 67.6 2 40.5-49.1 69.6-50.3 70 .4 0 68 26 68 81 .1 57.8-61.6 84.5-124.1 84.9m-7.8-136.7s-27.5 11-29.1 49.5c-.4 23.5 11.4 49.5 36.6 49.1 22 0 35.7-22 35.7-44.4-.8-39.7-43.2-54.2-43.2-54.2m6.6-130.9c-17.7 0-30.6 15-31.1 33.4-1.2 29.1 31.1 43.3 31.8 43.3 0 0 28.3-11.4 29.1-41.3.5-18.6-12.1-35.4-29.8-35.4" class="st1"/><path d="M15.3 561.4H23l4.5 29.6h.1l4.7-29.6H40l4.7 29.6h.1l4.4-29.6H57l-7.3 40h-9l-4.5-29h-.1l-4.5 29h-9zm65.6 0v28.8c0 8.5-3.9 12-12 12-8.5 0-10.6-5.4-10.6-11.7v-1.7h7.4v1.2c0 4.3.7 6.3 3.6 6.3s3.6-2 3.6-6.3v-28.6zm2.9 0h7.7l4.4 29.6h.2l4.7-29.6h7.7l4.7 29.6h.1l4.4-29.6h7.8l-7.3 40h-9l-4.5-29h-.1l-4.5 29h-9z" class="st5"/><circle cx="132.6" cy="585.6" r="5.4" class="st5"/><path d="M159.2 574.9c0-5.8-1.2-8.3-4.8-8.3-4.1 0-5 4.1-5 15.4 0 12.1 1.7 14.3 5.2 14.3 2.9 0 5-1.5 5-10.1h8.1c0 8.6-2.1 16.1-12.7 16.1-12.1 0-13.6-8.6-13.6-20.8s1.5-20.8 13.6-20.8c11.5 0 12.4 8.5 12.4 14.3h-8.2zm13 26.5v-40h8.1v33.4h14.3v6.6zm48.3-40v6.6h-14.3v9.4h13.4v6.6h-13.4v10.8H221v6.6h-22.9v-40zm10.6 0 5.6 29.6h.2l5.9-29.6h8.4l-9.2 40h-10.4l-9.2-40zm45.4 0v6.6h-14.3v9.4h13.4v6.6h-13.4v10.8H277v6.6h-22.9v-40zm4.6 40v-40h8v33.4h14.3v6.6zm33.7-40h10l10.6 40H327l-1.8-8.5h-10.6l-1.8 8.5h-8.4zm1.1 24.9h7.8l-3.9-18h-.1zm31.5-24.9 9.8 27.4h.1v-27.4h7.4v40h-9.2l-9.9-28h-.1v28h-7.4v-40zm23.3 0h13.2c11.2 0 13.2 7.7 13.2 19.4 0 14.2-3 20.6-13.7 20.6h-12.7zm8 34h3.6c5.6 0 6.7-3.5 6.7-14.4 0-9.1-.7-13.7-6.9-13.7h-3.4z" class="st5"/></svg>