<svg xmlns="http://www.w3.org/2000/svg" viewBox="0 0 2318.63 1501.89"><defs><path id="a" d="M34.74 1162.77h3210.25v90.07H34.74z"/><path id="b" d="M34.74 1162.77h3210.25v90.07H34.74z"/><path id="c" d="M34.74 1162.77h3210.25v90.07H34.74z"/><path id="d" d="M34.74 1162.77h3210.25v90.07H34.74z"/><path id="e" d="M34.74 1162.77h3210.25v90.07H34.74z"/><path id="f" d="M34.74 1162.77h3210.25v90.07H34.74z"/><path id="g" d="M34.74 1162.77h3210.25v90.07H34.74z"/><path id="h" d="M34.74 1162.77h3210.25v90.07H34.74z"/><path id="i" d="M34.74 1162.77h3210.25v90.07H34.74z"/></defs><g style="line-height:125%;-inkscape-font-specification:&quot;Helvetica Neue LT Std&quot;;white-space:pre;shape-inside:url(#a)" word-spacing="0"><path d="M173.75 1140.73c-.96-33.02-33.03-51.84-62.6-51.84-41.47 0-68.35 31.68-68.35 71.43s26.88 71.42 68.36 71.42c34.75 0 60.67-20.74 62.59-56.06h-35.71c-1.35 15.74-10.95 25.34-27.65 25.34-23.04 0-31.87-20.35-31.87-40.7s8.83-40.7 31.87-40.7c14.97 0 25.73 7.29 27.65 21.11z" aria-label="C" font-family="Helvetica Neue LT Std" font-size="192" font-weight="400" letter-spacing="14.4" style="-inkscape-font-specification:&quot;Helvetica Neue LT Std&quot;" transform="translate(-63.968 -575.49)scale(1.68654)"/></g><path d="m1978.74 1.4-114.3 197.56L1747.12 1.4l-306.04.25 273.1 456.9-282.64 489.28h299.01l136.4-232.47 139.16 232.72 306.04-.25-293.44-492.55L2283.03 1.65Z"/><path fill-rule="evenodd" d="m1167.8 677.73 1.92-396.93c.32-64.6-46.58-96.4-86.23-96.4-44.06 0-85.48 31.13-85.59 96.4l-.65 396.93c-.07 44.66 43.21 80.87 88.51 80.87 34.24 0 82.03-33.63 82.03-80.87m401.46-198.47c0 264.51-217.48 478.94-485.76 478.94S597.73 743.77 597.73 479.26 815.21.33 1083.48.33s485.76 214.42 485.76 478.93M0 949.53V0h592.38l18.27 259H279.31l-.97 124.26h271.02V643.1H278.01l-1.3 306.45z"/><path fill="#2e9be5" stroke="#2e9be5" stroke-width="4.59" d="M5.36 1077.35h2310.97v58.45H5.36z"/><g style="line-height:125%;-inkscape-font-specification:&quot;Helvetica Neue LT Std&quot;;white-space:pre;shape-inside:url(#b)" word-spacing="0"><path d="M46.64 1228.86h35.72v-56.45h47.04v56.45h35.7v-137.09h-35.7v49.92H82.36v-49.92H46.64z" aria-label="H" font-family="Helvetica Neue LT Std" font-size="192" font-weight="400" letter-spacing="14.4" style="-inkscape-font-specification:&quot;Helvetica Neue LT Std&quot;" transform="translate(207.933 -575.68)scale(1.68654)"/></g><g style="line-height:125%;-inkscape-font-specification:&quot;Helvetica Neue LT Std&quot;;white-space:pre;shape-inside:url(#c)" word-spacing="0"><path d="M102.13 1129.79h.39l15.16 48h-31.1Zm-69.12 99.07h36.67l8.64-24.58h47.81l8.45 24.58h37.25l-51.27-137.09H84.28Z" aria-label="A" font-family="Helvetica Neue LT Std" font-size="192" font-weight="400" letter-spacing="14.4" style="-inkscape-font-specification:&quot;Helvetica Neue LT Std&quot;" transform="translate(487.437 -575.546)scale(1.68654)"/></g><g style="line-height:125%;-inkscape-font-specification:&quot;Helvetica Neue LT Std&quot;;white-space:pre;shape-inside:url(#d)" word-spacing="0"><path d="M47.03 1228.86h35.71v-49.92h27.07c16.7 0 19.01 14.2 19.97 28.03.38 3.84.96 17.28 4.03 21.9h35.33c-4.8-5-5.38-25.16-5.76-30.92-1.15-13.06-5.38-29.38-19.97-32.83v-.39c14.4-5.57 21.5-19.58 21.5-34.37 0-27.64-23.8-38.59-48-38.59H47.04Zm35.71-108.48h28.42c9.98 0 18.04 4.6 18.04 14.78 0 10.37-5.76 16.13-16.5 16.13H82.73Z" aria-label="R" font-family="Helvetica Neue LT Std" font-size="192" font-weight="400" letter-spacing="14.4" style="-inkscape-font-specification:&quot;Helvetica Neue LT Std&quot;" transform="translate(754.635 -575.412)scale(1.68654)"/></g><g style="line-height:125%;-inkscape-font-specification:&quot;Helvetica Neue LT Std&quot;;white-space:pre;shape-inside:url(#e)" word-spacing="0"><path d="M47.03 1228.86h99.65v-30.72H82.74v-106.37H47.03z" aria-label="L" font-family="Helvetica Neue LT Std" font-size="192" font-weight="400" letter-spacing="14.4" style="-inkscape-font-specification:&quot;Helvetica Neue LT Std&quot;" transform="translate(1021.116 -576.105)scale(1.68654)"/></g><g style="line-height:125%;-inkscape-font-specification:&quot;Helvetica Neue LT Std&quot;;white-space:pre;shape-inside:url(#f)" word-spacing="0"><path d="M41.84 1160.32c0 39.74 24.39 71.42 67.59 71.42s67.58-31.68 67.58-71.42-24.38-71.43-67.58-71.43-67.59 31.68-67.59 71.43m35.72 0c0-20.35 8.83-40.7 31.87-40.7s31.87 20.35 31.87 40.7-8.83 40.7-31.87 40.7-31.87-20.35-31.87-40.7" aria-label="O" font-family="Helvetica Neue LT Std" font-size="192" font-weight="400" letter-spacing="14.4" style="-inkscape-font-specification:&quot;Helvetica Neue LT Std&quot;" transform="translate(1238.348 -575.826)scale(1.68654)"/></g><g style="line-height:125%;-inkscape-font-specification:&quot;Helvetica Neue LT Std&quot;;white-space:pre;shape-inside:url(#g)" word-spacing="0"><path d="M155.7 1091.77H38.2v30.72h40.9v106.37h35.7V1122.5h40.9z" aria-label="T" font-family="Helvetica Neue LT Std" font-size="192" font-weight="400" letter-spacing="14.4" style="-inkscape-font-specification:&quot;Helvetica Neue LT Std&quot;" transform="translate(1522.712 -575.546)scale(1.68654)"/></g><g style="line-height:125%;-inkscape-font-specification:&quot;Helvetica Neue LT Std&quot;;white-space:pre;shape-inside:url(#h)" word-spacing="0"><path d="M47.03 1228.86H158.2v-30.72H82.74v-26.11h67.2v-27.65h-67.2v-24h73.54v-28.6H47.03Z" aria-label="E" font-family="Helvetica Neue LT Std" font-size="192" font-weight="400" letter-spacing="14.4" style="-inkscape-font-specification:&quot;Helvetica Neue LT Std&quot;" transform="translate(2046.513 -575.52)scale(1.68654)"/></g><g style="line-height:125%;-inkscape-font-specification:&quot;Helvetica Neue LT Std&quot;;white-space:pre;shape-inside:url(#i)" word-spacing="0"><path d="M155.7 1091.77H38.2v30.72h40.9v106.37h35.7V1122.5h40.9z" aria-label="T" font-family="Helvetica Neue LT Std" font-size="192" font-weight="400" letter-spacing="14.4" style="-inkscape-font-specification:&quot;Helvetica Neue LT Std&quot;" transform="translate(1797.76 -575.782)scale(1.68654)"/></g></svg>