<svg xmlns="http://www.w3.org/2000/svg" xml:space="preserve" id="Layer_1" x="0" y="0" version="1.1" viewBox="0 0 1434 556.1"><style>.st1{fill:#fff}</style><path d="M0 0h1434v556.1H0z"/><path fill="#f33634" d="M1419 14.98v418.6H15V14.98z"/><path d="M936.25 15.03v401.5H15.05V15.02zM975 116.5l54.6-73.4h109.2v348.1h-102.4V116.5zm370.3 273h-102.4v-273h-61.4l54.6-73.4h109.2z" class="st1"/><path d="m283.9 131.9-5.1-90.5H70.6v349.8h92.2v-116h99v-88.7h-97.3v-54.6zm590.4-88.8H771.9l-44.3 80.2-42.7-80.2H579.1l97.3 167.3L574 391.2h100.7l52.9-95.5 51.2 95.5h104.1L778.8 208.6z"/><path d="M451.6 385.3c-92.1 0-166.8-75.8-166.8-169.4S359.5 46.5 451.6 46.5s166.8 75.8 166.8 169.4-74.7 169.4-166.8 169.4m3-273.9h-1.8a32.4 32.4 0 0 0-32.4 32.4v144.9a32.4 32.4 0 0 0 32.4 32.4h1.8a32.4 32.4 0 0 0 32.4-32.4v-145c0-17.8-14.5-32.3-32.4-32.3"/><path d="m137.6 471.4-13.1 49.2h-8.1l-9-29.8-9 29.8h-8l-13.2-49.2h10.1l7.5 31 9.1-31h7.1l9 31 7.6-31zm27.6 0V512h22.2v8.6h-31.8v-49.2zm75.2 0v32.3c0 10.4-8 17.2-18.1 17.2s-18-6.8-18-17.2v-32.3h9.6v31.9c0 5.6 3.2 9 8.4 9s8.6-3.4 8.6-9v-31.9zm61.2 0L285.3 491l17.4 29.6h-11.2l-12.6-22.4-6.5 7.6v14.8h-9.5v-49.2h9.5v21.4l17.4-21.4zm81.7 15.4h-9.7c-1.1-4.7-3.9-7.2-8.8-7.2-2.6 0-4.7 1-6.1 2.6-1.9 2.1-2.4 4.4-2.4 13.8s.6 11.8 2.4 13.9c1.4 1.6 3.4 2.6 6.1 2.6 5.7 0 9-3.7 9-9.3v-1.8h-9v-8.1h18.6v7.2c0 7.1-1.2 11.3-4.7 15-3.9 4.1-8.6 5.6-13.9 5.6-5.6 0-9.7-1.9-13.1-5.2-4.9-4.9-5-10.4-5-19.8s.1-14.9 5-19.8c3.4-3.3 7.5-5.2 13.1-5.2 11.5-.1 17.3 7.4 18.5 15.7m21.7-15.4h19.3c10.1 0 15.9 6.8 15.9 15 0 6.9-4.2 11.2-9 12.9l11 21.2h-11.1l-9.6-19.6h-6.9v19.6H405zm9.6 8.6v12.9h9.1c4.2 0 6.9-2.6 6.9-6.5 0-3.8-2.7-6.4-6.9-6.4zm79.7-8.6v8.6h-22.8v11.5H491v8.6h-19.5V512h22.8v8.6h-32.4v-49.2zm53.5 0v8.6h-22.7v11.5h19.4v8.6h-19.4V512h22.7v8.6h-32.3v-49.2zm58.8 0v49.2h-8.5l-19.5-30v30H569v-49.2h8.6l19.4 30.1v-30.1zm51.1 0h19.7c9.7 0 15.2 5.5 15.2 13.8 0 5.5-3.6 8.9-6.1 10.1 3 1.4 6.8 4.5 6.8 11 0 9.2-6.3 14.1-15.1 14.1h-20.6v-49zm9.6 8.6v11.4h9.5c4.1 0 6.3-2.3 6.3-5.7s-2.2-5.7-6.3-5.7zm0 19.9V512h10.1c4.3 0 6.4-2.6 6.4-6.1 0-3.4-2.1-6-6.4-6zm67-28.5 17.9 49.1h-10.1l-2.9-8.7h-17.4l-3 8.7h-10.1l17.9-49.1zm-3.8 14.6-6.1 17.8h12.1zm69.9-14.6-14.7 29.1v20.1h-9.6v-20.1l-14.7-29.1h10.4l9.2 19.8 9-19.8zm67-4.2L848 525.7h-8.4l19.3-58.5zm77.7 4.2v8.6h-22.8v12.1h19.4v8.5h-19.4v20h-9.6v-49.2zm48.4 4.8c4.9 4.8 5 10.4 5 19.8s-.1 15-5 19.8c-3.4 3.3-7.5 5.2-13.2 5.2s-9.8-1.9-13.2-5.2c-4.9-4.9-5-10.4-5-19.8s.1-14.9 5-19.8c3.4-3.3 7.5-5.2 13.2-5.2s9.8 1.9 13.2 5.2m-19.3 6c-1.9 2.1-2.4 4.4-2.4 13.8s.6 11.7 2.4 13.7c1.4 1.6 3.5 2.7 6.1 2.7s4.8-1.1 6.1-2.7c1.9-2.1 2.4-4.3 2.4-13.7s-.6-11.7-2.4-13.8c-1.4-1.6-3.5-2.6-6.1-2.6s-4.7 1-6.1 2.6m79-10.8-14.2 24 15.2 25.2h-11l-9.4-17.1-9.5 17.1h-11l15.2-25.2-14.2-24h10.9l8.6 15.9 8.5-15.9zm81.2 15.2h-9.7c-1-4-3.5-7-8.3-7-2.6 0-4.8 1-6.1 2.6-1.8 2.1-2.4 4.5-2.4 13.9s.6 11.8 2.4 13.9c1.4 1.6 3.5 2.6 6.1 2.6 4.8 0 7.3-3 8.3-7h9.7c-1.7 10.3-8.8 15.5-18 15.5-5.7 0-9.8-1.9-13.2-5.2-4.9-4.9-5-10.4-5-19.8s.1-14.9 5-19.8c3.4-3.3 7.5-5.2 13.2-5.2 9.2-.1 16.3 5.2 18 15.5m20.1-15.2h9.6v49.1h-9.6zm64.5 0v8.6h-12.8v40.6h-9.6V480h-12.9v-8.6zm19.6 0h9.6v49.1h-9.6zm65.3 0v8.6h-22.8v11.5h19.4v8.6h-19.4V512h22.8v8.6h-32.4v-49.2zm51.6 5.4-6.1 6c-2.6-2.6-5.6-3.4-10.1-3.4-5.1 0-7.6 2.8-7.6 6.2s2.9 5 5.9 5.4l5.9.9c8.4 1.2 13.2 5.3 13.2 14.2 0 9.5-7.9 14.9-18.2 14.9-7.5 0-13.1-1.6-17.9-6.5l6.2-6.2c3.1 3.1 7.3 4.1 11.8 4.1 5.7 0 8.8-2.2 8.8-6.1 0-4-2.4-5.2-5.9-5.7l-5.9-.9c-8.1-1.2-13-5.2-13-13.7 0-8.8 6.5-14.9 17.1-14.9 6.7-.1 11.6 1.6 15.8 5.7" class="st1"/></svg>