<svg xmlns="http://www.w3.org/2000/svg" width="1000" height="332.848" viewBox="0 0 264.583 88.066"><path d="M-65.534-218.41h31.772v134.626h-31.772zm-3.5-45.504q0-8.616 5.654-14.27 5.654-5.655 13.732-5.655 8.616 0 14.27 5.654 5.654 5.655 5.654 14.27 0 8.078-5.654 13.733-5.654 5.654-14.27 5.654-8.078 0-13.732-5.654-5.655-5.655-5.655-13.732m451.624 45.504h31.772v134.626h-31.772zm-3.5-45.504q0-8.616 5.654-14.27 5.654-5.655 13.732-5.655 8.616 0 14.27 5.654 5.654 5.655 5.654 14.27 0 8.078-5.654 13.733-5.654 5.654-14.27 5.654-8.078 0-13.732-5.654-5.655-5.655-5.655-13.732" style="font-style:normal;font-variant:normal;font-weight:700;font-stretch:normal;font-size:medium;line-height:1.25;font-family:Opificio;-inkscape-font-specification:&quot;Opificio Bold&quot;;font-variant-ligatures:normal;font-variant-caps:normal;font-variant-numeric:normal;font-feature-settings:normal;text-align:start;letter-spacing:0;word-spacing:-19.4893322px;writing-mode:lr-tb;text-anchor:start;fill:#202033;fill-opacity:1;stroke:none;stroke-width:2.61953354px;stroke-linecap:butt;stroke-linejoin:miter;stroke-opacity:1" transform="translate(168.428 77.992)scale(.22982)"/><path d="M-294.772-218.41h31.783v7.539q6.195-7.27 13.198-10.501 7.002-3.231 16.16-3.231c9.158 0 17.587 1.727 24.95 5.497 7.541 3.59 13.963 8.667 19.53 14.95 5.745-6.283 12.531-11.303 20.432-14.893 8.08-3.77 16.7-5.554 25.857-5.554 8.44 0 16.44 1.515 23.802 4.746 7.542 3.23 14.106 7.729 19.492 13.294C-94-201-89.7-194.447-86.469-186.908c3.232 7.36 4.747 15.258 4.747 23.694v79.43h-31.817v-79.43c0-3.949-.708-7.718-2.324-11.308-1.437-3.59-3.601-6.732-6.295-9.424q-4.04-4.04-9.426-6.462a27.1 27.1 0 0 0-11.278-2.423c-4.13 0-7.99.907-11.582 2.523-3.412 1.615-6.364 3.67-9.057 6.362s-4.762 5.842-6.465 9.624c-1.436 3.59-2.255 7.16-2.255 11.108v79.43h-31.782v-79.43c0-4.128-.708-7.987-2.325-11.578-1.436-3.59-3.64-6.73-6.334-9.423s-5.796-4.795-9.387-6.231c-3.591-1.616-7.452-2.385-11.582-2.385s-7.99.93-11.581 2.545c-3.412 1.615-6.465 3.737-9.158 6.61-2.694 2.692-4.748 5.933-6.365 9.523-1.436 3.59-2.254 7.17-2.254 10.94v79.429h-31.783z" style="font-style:normal;font-variant:normal;font-weight:700;font-stretch:normal;font-size:medium;line-height:1.25;font-family:Opificio;-inkscape-font-specification:&quot;Opificio Bold&quot;;font-variant-ligatures:normal;font-variant-caps:normal;font-variant-numeric:normal;font-feature-settings:normal;text-align:start;letter-spacing:0;word-spacing:-19.4893322px;writing-mode:lr-tb;text-anchor:start;fill:#202033;fill-opacity:1;stroke:none;stroke-width:2.61996889px;stroke-linecap:butt;stroke-linejoin:miter;stroke-opacity:1" transform="translate(168.428 77.992)scale(.22982)"/><path d="M-19.039-151.367q0-15.347 5.659-28.54c3.951-8.975 9.25-16.794 15.896-23.256 6.647-6.642 14.47-11.948 23.271-15.717 8.982-3.95 18.492-5.723 28.73-5.723 10.24 0 19.96 1.874 28.761 5.823 8.981 3.77 17.178 9.458 23.271 15.717 6.647 6.462 12.045 14.868 15.528 23.156 3.952 8.795 5.727 18.309 5.727 28.54v67.583H96.55v-7.44C84.335-82.427 70.325-78.13 54.518-78.13q-16.705 0-30.447-5.654Q10.6-89.438.9-99.401c-6.287-6.641-11.127-14.36-14.72-23.155-3.412-8.976-5.219-18.579-5.219-28.81m31.33.022c0 5.741 1.279 11.213 3.436 16.416 2.338 5.024 5.285 9.42 9.061 13.187 3.777 3.767 8.193 6.717 13.228 9.05 5.215 2.153 10.7 3.329 16.454 3.329s11.15-1.087 16.185-3.06c5.215-2.153 9.71-5.014 13.487-8.781q5.664-5.651 8.901-13.187 3.507-7.804 3.507-16.954c0-5.741-1.069-11.123-3.407-16.147a41.2 41.2 0 0 0-9.001-13.456 41.3 41.3 0 0 0-13.487-8.98c-5.035-2.333-10.43-3.399-16.185-3.399q-8.631 0-16.454 3.499c-5.035 2.153-9.44 5.094-13.217 8.862-3.776 3.767-6.833 8.271-9.171 13.474-2.158 5.024-3.337 10.406-3.337 16.147" style="font-style:normal;font-variant:normal;font-weight:700;font-stretch:normal;font-size:medium;line-height:1.25;font-family:Opificio;-inkscape-font-specification:&quot;Opificio Bold&quot;;font-variant-ligatures:normal;font-variant-caps:normal;font-variant-numeric:normal;font-feature-settings:normal;text-align:start;letter-spacing:0;word-spacing:-19.4893322px;writing-mode:lr-tb;text-anchor:start;fill:#202033;fill-opacity:1;stroke:none;stroke-width:2.62042642px;stroke-linecap:butt;stroke-linejoin:miter;stroke-opacity:1" transform="translate(168.428 77.992)scale(.22982)"/><path d="M147.978-218.41h31.783v7.539q6.195-7.27 13.198-10.501 7.002-3.231 16.16-3.231c9.158 0 17.587 1.727 24.95 5.497 7.541 3.59 13.963 8.667 19.53 14.95 5.745-6.283 12.531-11.303 20.432-14.893 8.08-3.77 16.7-5.554 25.857-5.554 8.44 0 16.44 1.515 23.802 4.746 7.542 3.23 14.106 7.729 19.492 13.294 5.567 5.564 9.867 12.116 13.099 19.655 3.232 7.36 4.747 15.258 4.747 23.694v79.43h-31.817v-79.43c0-3.949-.708-7.718-2.324-11.308-1.437-3.59-3.601-6.732-6.295-9.424q-4.04-4.04-9.426-6.462a27.1 27.1 0 0 0-11.278-2.423c-4.13 0-7.99.907-11.582 2.523-3.412 1.615-6.364 3.67-9.057 6.362s-4.762 5.842-6.465 9.624c-1.436 3.59-2.255 7.16-2.255 11.108v79.43h-31.782v-79.43c0-4.128-.708-7.987-2.325-11.578-1.436-3.59-3.64-6.73-6.334-9.423s-5.796-4.795-9.387-6.231c-3.591-1.616-7.452-2.385-11.582-2.385s-7.99.93-11.581 2.545c-3.412 1.615-6.465 3.737-9.158 6.61-2.694 2.692-4.748 5.933-6.365 9.523-1.436 3.59-2.254 7.17-2.254 10.94v79.429h-31.783z" style="font-style:normal;font-variant:normal;font-weight:700;font-stretch:normal;font-size:medium;line-height:1.25;font-family:Opificio;-inkscape-font-specification:&quot;Opificio Bold&quot;;font-variant-ligatures:normal;font-variant-caps:normal;font-variant-numeric:normal;font-feature-settings:normal;text-align:start;letter-spacing:0;word-spacing:-19.4893322px;writing-mode:lr-tb;text-anchor:start;fill:#202033;fill-opacity:1;stroke:none;stroke-width:2.61996889px;stroke-linecap:butt;stroke-linejoin:miter;stroke-opacity:1" transform="translate(168.428 77.992)scale(.22982)"/><g style="opacity:1"><path d="M-106.176 123.635c0 26.69-21.636 48.326-48.325 48.326s-48.325-21.636-48.325-48.326 21.636-48.325 48.325-48.325 48.325 21.636 48.325 48.325" style="fill:#202033;fill-opacity:1;stroke-width:.01961168" transform="translate(184.811 -68.62)scale(.91118)"/><path d="M-634.402 392.176h28.035v32.021s8.832-7.375 22.428-7.375c27.868 0 50.46 22.592 50.46 50.461 0 27.87-22.594 50.462-50.462 50.461-27.87 0-50.461-22.591-50.461-50.46zm-56.905 24.646c27.87 0 50.461 22.592 50.461 50.461h.002v49.643h-28.035v-8.69s-7.778 9.508-22.428 9.508c-27.869 0-50.46-22.591-50.46-50.46 0-27.87 22.591-50.462 50.46-50.462m214.733 0c25.692 0 46.883 19.204 50.04 44.037h-28.558c-2.763-9.253-11.33-16.004-21.482-16.004-12.386 0-22.428 10.042-22.428 22.428s10.041 22.428 22.428 22.428c10.152 0 18.719-6.75 21.482-16.004h28.559c-3.158 24.834-24.35 44.038-50.041 44.037-27.869 0-50.461-22.591-50.461-50.46 0-27.87 22.591-50.462 50.46-50.462m-214.733 28.033c-12.386 0-22.427 10.042-22.427 22.428s10.04 22.428 22.427 22.428 22.428-10.041 22.428-22.428c0-12.386-10.041-22.428-22.428-22.428m107.366 0c-12.387 0-22.428 10.042-22.428 22.428s10.041 22.428 22.428 22.428c12.386 0 22.427-10.042 22.427-22.428s-10.04-22.428-22.427-22.428" style="fill:#fff;stroke-width:.07412289" transform="translate(184.811 -68.62)scale(.24108)"/></g></svg>