<svg xmlns="http://www.w3.org/2000/svg" width="517.238" height="200.115"><path fill="#0e2b8f" d="M146.221 131.553c35.754 0 64.733-28.727 64.733-64.171S181.975 3.21 146.221 3.21 81.487 31.937 81.487 67.381c0 35.437 28.979 64.171 64.733 64.171zm-10.507-90.556c0-6.012 4.779-11.395 10.687-11.395s11.158 5.382 11.158 11.395v52.725c0 6.02-5.257 10.735-11.165 10.735S135.7 99.586 135.7 93.567zM75.288 90.111V54.986H39.653V38.18H83.35L80.979 3.166H.451v128.387h39.202V90.111zm220.194-40.863-.052 2.862h34.625l.075-2.736c.179-6.301 1.825-11.009 4.868-14.019 3.029-2.98 7.718-4.478 13.932-4.478 5.601 0 9.834.993 12.586 2.951 2.49 1.772 3.702 4.329 3.702 7.814 0 4.241-4.996 9.245-14.426 14.427a72 72 0 0 0-2.161 1.208l-2.131 1.186c-28.553 15.991-34.505 20.965-36.457 23.271-5.16 5.805-8.989 12.284-11.352 19.223a45 45 0 0 0-.613 1.957l14.59 25.488 1.75 3.04h84.274V99.719h-59.027c2.842-2.328 8.181-5.998 18.285-11.535l14.291-7.918c10.058-5.783 17.402-11.78 21.822-17.822 4.532-6.213 6.835-13.493 6.835-21.655 0-12.855-4.711-23.034-14-30.21C377.819 3.566 364.986 0 348.781 0c-16.467 0-29.54 4.367-38.865 12.988a46 46 0 0 0-2.468 2.484c-4.21 4.596-7.336 10.06-9.311 16.325-1.675 5.249-2.565 11.068-2.655 17.451m159.589 41.167c6.05 0 11.711-.867 16.811-2.565a43.8 43.8 0 0 0 9.101-4.241c-.486 6.376-2.288 11.372-5.384 14.871-3.612 4.092-8.78 6.086-15.802 6.086-4.868 0-8.563-.875-10.963-2.602-2.266-1.631-3.575-4.107-4.001-7.577l-.307-2.476h-34.408l.082 2.899c.337 12.002 4.943 21.788 13.685 29.091 8.623 7.206 20.042 10.853 33.944 10.853 19.1 0 33.892-5.953 43.958-17.681 9.954-11.602 15.002-28.661 15.002-50.708 0-21.306-4.779-37.801-14.194-49.033C493.047 5.946 478.965.178 460.74.178c-16.991 0-30.467 4.1-40.054 12.18-9.729 8.199-14.658 19.683-14.658 34.132 0 13.574 4.465 24.427 13.267 32.256 8.697 7.74 20.738 11.669 35.777 11.669zm-9.221-55.876c3.672-2.773 8.997-4.181 15.832-4.181 5.915 0 10.53 1.409 13.7 4.181 3.111 2.721 4.622 6.457 4.622 11.432 0 4.722-1.63 8.399-4.981 11.231-3.44 2.906-8.196 4.381-14.134 4.381-6.529 0-11.629-1.453-15.159-4.329-3.403-2.773-5.063-6.576-5.063-11.624.007-4.826 1.705-8.459 5.183-11.091M233.598 3.166H191.57l36.674 64.305-36.674 64.082h42.246l15.51-27.126 15.518 27.126h42.246L270.407 67.47l36.682-64.305h-42.036L249.325 30.64z"/><path fill="#e93244" stroke="#e93244" d="M.5 143.304v20.029l516.238-14.669v-5.36z"/><path fill="#0e2b8f" d="M420.593 195.764q-4.437-4.395-4.437-10.88t4.565-10.965q4.608-4.523 11.349-4.523t11.179 4.395q4.48 4.352 4.48 10.837t-4.608 11.008q-4.565 4.48-11.307 4.48-6.741 0-11.221-4.352m5.845-16.64q-2.176 2.261-2.176 5.632t2.176 5.632 5.504 2.261 5.504-2.261 2.176-5.632-2.176-5.632-5.504-2.261-5.504 2.261m-14.563 20.565h-21.76v-29.867h8.107v22.613h13.653zm-39.48-29.867 11.733 29.867h-8.96l-1.749-5.12h-10.581l-1.749 5.12h-8.533l11.733-29.867zm-1.195 18.347-3.072-9.003-3.115 9.003zm-22.499 1.067h-11.947v10.453h-8.107v-29.867h22.187v7.04h-14.08v5.547h11.947zm-29.027 0h-11.947v10.453h-8.107v-29.867h22.187v7.04h-14.08v5.547h11.947zm-36.579-19.413h7.979v17.365q0 5.845-3.712 9.387-3.669 3.541-9.643 3.541-5.973 0-9.557-3.413-3.541-3.413-3.541-9.259v-17.621h8.235v17.28q0 2.56 1.365 4.053 1.408 1.493 3.755 1.493t3.712-1.493q1.408-1.493 1.408-4.053zm-50.488 0h13.995q4.395 0 7.04 2.176 2.645 2.133 2.645 5.589 0 4.224-3.883 6.528 2.432.939 3.797 2.859 1.365 1.877 1.365 4.352 0 3.584-2.859 5.973-2.816 2.389-7.296 2.389h-14.805zm13.227 17.493h-5.12v6.187h5.12q1.749 0 2.688-.896t.939-2.219-.939-2.176q-.939-.896-2.688-.896m-5.12-5.76h4.053q1.621 0 2.517-.768.896-.811.896-2.005 0-1.195-.896-1.963-.896-.811-2.517-.811h-4.053zm-49.929 18.133-11.52-29.867h9.173l6.613 19.285 6.613-19.285h8.747l-11.52 29.867zm-15.8-22.827h-8.107v22.827h-8.107v-22.827h-8.107v-7.04h24.32zm-38.285-7.04h7.979v17.365q0 5.845-3.712 9.387-3.669 3.541-9.643 3.541-5.973 0-9.557-3.413-3.541-3.413-3.541-9.259v-17.621h8.235v17.28q0 2.56 1.365 4.053 1.408 1.493 3.755 1.493t3.712-1.493q1.408-1.493 1.408-4.053zm-57.74 29.867-10.027-29.867h8.96l5.248 17.493 4.992-17.493h5.76l4.992 17.493 5.248-17.493h8.533l-10.027 29.867H95.6l-4.821-16.384L86 199.689z"/></svg>