<svg xmlns="http://www.w3.org/2000/svg" id="Layer_1" data-name="Layer 1" viewBox="0 0 1258 291.56"><defs><style>.cls-1{fill:#0751a3}.cls-2{fill:#be1e2d}.cls-3{fill:#fff}</style></defs><path id="Layer_4" d="M0 .77h846.26v290.79H0z" class="cls-1" data-name="Layer 4"/><g id="plate_copy" data-name="plate copy"><path id="plate" d="M571.59 28.7h225.47v227.64H571.59z" class="cls-2"/></g><path id="line_copy" d="M46.28 252.34h750.77v9.71H46.28z" class="cls-2" data-name="line copy"/><g id="fox8"><path d="M289.41 33.06c-59 0-106.85 48.8-106.85 109s47.84 109 106.85 109 106.87-48.83 106.87-109-47.83-109-106.87-109m47 127.89c10.63-19.13-27.37-16.65-26.31 4.69l7.06.31v7.82l-7.38.31c4.64 19.24 19.11 15.67 21.11 3.14 17.5 13.47-1.1 31.14-16.33 21.71-6-3.7-13.23-10.38-14.86-24.85h-3c.95 14.47 7.43 19.17 7.64 26.67.33 11.72-6.65 18.51-15.09 24.56-8.44-6.05-15.42-12.84-15.09-24.56.21-7.5 6.69-12.2 7.64-26.67h-3c-1.64 14.47-8.91 21.16-14.88 24.85-15.21 9.43-33.8-8.24-16.33-21.71 2 12.53 16.49 16.1 21.13-3.14l-7.38-.31v-7.8l7.05-.31c1.06-21.34-37-23.82-26.31-4.69-29.25-1.61-28.05-27.57-16.54-37.56 13.48-11.7 48.16-12.49 53.91 42.55h2c3.34-33.23-44.56-65 .43-102.12 3.19-2.62 7.33-6.32 7.33-6.32s4.23 3.75 7.47 6.44c44.7 37.05-3.08 68.8.29 102h2c5.76-55 40.41-54.26 53.89-42.55 11.63 9.97 12.81 35.94-16.42 37.54ZM109.4 181.43h62.1v-61.17h-61.6V90.99h75.59l-4.17-61.3h-135v222.65h63.21z" class="cls-3"/><path d="m463.4 197.06 30.51 55.28h71.39l-66.75-115.08 61.34-107.22h-69.18l-26.46 48.31-25.97-48.31h-71.55l62.59 108-65.59 114.3h69.64z" class="cls-3"/></g><path id="_8" d="M698.38 278.43c-88 0-89.75-26.64-89.75-46.28v-52.59c0-10.17 11.44-21.74 33.73-26.65-22.29-4.55-33.73-16.13-33.73-26.29V86.31c0-19.63 1.8-46.28 89.75-46.28s89.75 26.64 89.75 46.28v40.31c0 10.17-11.45 21.74-33.73 26.29 22.29 4.91 33.73 16.48 33.73 26.65v52.59c.01 19.63-1.8 46.28-89.75 46.28m15.06-201.94c0-5.26-6.63-9.12-15.06-9.12s-15.06 3.86-15.06 9.12v54c0 4.91 6.63 8.76 15.06 8.76s15.06-3.86 15.06-8.76Zm0 100.27c0-4.91-6.63-8.77-15.06-8.77s-15.06 3.86-15.06 8.77v65.56c0 4.9 6.63 8.76 15.06 8.76s15.06-3.85 15.06-8.76Z" class="cls-3" data-name="8" transform="translate(-15 -15.23)"/><path id="white_board" d="M846.26 0H1258v291.55H846.26z" class="cls-3" data-name="white board"/><path id="local_first" d="M901.25 12.91v100.18h19.8v25.06h-52.37V12.91Zm100.2 73.34q0 18.87-.89 26.73a29.9 29.9 0 0 1-18.22 24.33 46 46 0 0 1-18.57 3.46 47 47 0 0 1-18.06-3.29A30.1 30.1 0 0 1 927 113.33q-.93-7.74-.93-27.08V64.82q0-18.87.89-26.73a29.9 29.9 0 0 1 18.25-24.32 46 46 0 0 1 18.57-3.48 47 47 0 0 1 18.06 3.29 30.1 30.1 0 0 1 18.68 24.19q.93 7.74.93 27.08Zm-32.57-41.16q0-8.74-1-11.18a3.85 3.85 0 0 0-4-2.44 4.5 4.5 0 0 0-3.91 2q-1.35 2-1.35 11.64v58.46q0 10.9.89 13.46t4.14 2.55a4 4 0 0 0 4.25-2.94q.93-2.94.93-14V45.09Zm121.24 22.36h-32.57V45.68q0-9.49-1-11.85t-4.6-2.36q-4 0-5.11 2.86t-1.08 12.38v58.18q0 9.13 1.08 11.91 1.09 2.79 4.87 2.79c3.78 0 4-.93 4.76-2.79s1.12-6.23 1.12-13.11V87.95h32.57v4.88q0 19.44-2.75 27.58t-12.15 14.26-23.17 6.12q-14.31 0-23.6-5.18t-12.3-14.35-3-27.58V57.09a163 163 0 0 1 .93-20.31 28.5 28.5 0 0 1 5.53-13 31 31 0 0 1 12.77-9.86 46 46 0 0 1 18.76-3.6q14.39 0 23.75 5.56t12.3 13.87 2.94 25.84v11.9Zm68.45-54.54 18.63 125.25h-33.29l-1.75-22.51h-11.65l-2 22.51h-33.67l16.61-125.25Zm-17.26 80.53q-2.47-21.28-5-52.61-5 36-6.25 52.61Zm74.46-80.53v100.18h19.8v25.06h-52.37V12.91ZM869.42 148.58h58.72v26.69h-24v25.28h21.36v25.37h-21.41v56h-34.67zm102.3 0v133.34h-34.67V148.58Zm14.43 0h24.54q24.54 0 33.23 1.89a23 23 0 0 1 14.17 9.68q5.48 7.78 5.48 24.83 0 15.57-3.87 20.92t-15.24 6.42q10.29 2.55 13.84 6.84a20.5 20.5 0 0 1 4.41 7.87q.87 3.59.87 19.73v35.17h-32.2v-44.31q0-10.71-1.69-13.26t-8.85-2.55v60.12h-34.67V148.58Zm34.67 22.81v29.65q5.85 0 8.19-1.61t2.35-10.42v-7.33q0-6.34-2.27-8.32t-8.27-1.97M1151 188.93h-32.2v-9.88q0-6.92-1.24-8.81a4.6 4.6 0 0 0-4.12-1.89 5.2 5.2 0 0 0-4.74 2.56q-1.6 2.55-1.61 7.75 0 6.68 1.81 10.05t9.8 8.15q23.16 13.74 29.16 22.55t6 28.41q0 14.25-3.34 21t-12.89 11.32-22.24 4.57q-13.92 0-23.76-5.27t-12.89-13.43q-3-8.16-3-23.14v-8.73h32.2v16.22q0 7.5 1.36 9.64t4.82 2.14a5.7 5.7 0 0 0 5.15-2.72q1.68-2.71 1.69-8.07 0-11.77-3.21-15.4t-16.22-12.11q-12.93-8.56-17.13-12.44a29 29 0 0 1-7-10.71q-2.76-6.84-2.76-17.46 0-15.32 3.91-22.4t12.6-11.06q8.73-4 21.09-4 13.5 0 23 4.37t12.6 11q3.16 6.63 3.16 22.52zm84.07-40.35v26.69h-20.59v106.66h-34.67V175.26h-20.51v-26.69h75.77Z" class="cls-1" data-name="local first"/></svg>