<svg xmlns="http://www.w3.org/2000/svg" xmlns:xlink="http://www.w3.org/1999/xlink" width="1280" height="302.4" viewBox="0 0 338.667 80.01"><defs><linearGradient id="z"><stop offset="0" style="stop-color:#0b5dd0;stop-opacity:1"/><stop offset=".335" style="stop-color:#0744b0;stop-opacity:1"/><stop offset="1" style="stop-color:#0b5bce;stop-opacity:0"/></linearGradient><linearGradient id="y"><stop offset="0" style="stop-color:#3a3a3a;stop-opacity:1"/><stop offset="1" style="stop-color:#f6f6f6;stop-opacity:1"/></linearGradient><linearGradient id="x"><stop offset="0" style="stop-color:#8d0003;stop-opacity:1"/><stop offset="1" style="stop-color:#cb0005;stop-opacity:1"/></linearGradient><linearGradient id="w"><stop offset="0" style="stop-color:#484d58;stop-opacity:1"/><stop offset="1" style="stop-color:#f5f5f5;stop-opacity:1"/></linearGradient><linearGradient id="v"><stop offset="0" style="stop-color:#363941;stop-opacity:1"/><stop offset="1" style="stop-color:#f6f6f6;stop-opacity:1"/></linearGradient><linearGradient id="u"><stop offset="0" style="stop-color:#414651;stop-opacity:1"/><stop offset=".548" style="stop-color:#cdcad2;stop-opacity:1"/><stop offset=".787" style="stop-color:#bbbbcb;stop-opacity:1"/><stop offset="1" style="stop-color:#6c6e7a;stop-opacity:1"/></linearGradient><linearGradient id="t"><stop offset="0" style="stop-color:#9c999c;stop-opacity:1"/><stop offset="1" style="stop-color:#090a0c;stop-opacity:1"/></linearGradient><linearGradient id="s"><stop offset="0" style="stop-color:#181f2e;stop-opacity:1"/><stop offset="1" style="stop-color:#f9f9f9;stop-opacity:1"/></linearGradient><linearGradient id="r"><stop offset="0" style="stop-color:#181d29;stop-opacity:1"/><stop offset=".303" style="stop-color:#192235;stop-opacity:1"/><stop offset="1" style="stop-color:#f0f0f0;stop-opacity:1"/></linearGradient><linearGradient id="q"><stop offset="0" style="stop-color:#787a80;stop-opacity:1"/><stop offset=".144" style="stop-color:#bdb9bb;stop-opacity:1"/><stop offset="1" style="stop-color:#bfbcc0;stop-opacity:1"/></linearGradient><linearGradient id="p"><stop offset="0" style="stop-color:#d9d9d9;stop-opacity:1"/><stop offset="1" style="stop-color:#c6c2c9;stop-opacity:1"/></linearGradient><linearGradient id="o"><stop offset="0" style="stop-color:#585758;stop-opacity:1"/><stop offset=".498" style="stop-color:#afabae;stop-opacity:1"/><stop offset="1" style="stop-color:#403939;stop-opacity:1"/></linearGradient><linearGradient id="n"><stop offset="0" style="stop-color:#2e2e2e;stop-opacity:1"/><stop offset="1" style="stop-color:#ccc7ca;stop-opacity:1"/></linearGradient><linearGradient id="m"><stop offset="0" style="stop-color:#7c787a;stop-opacity:1"/><stop offset="1" style="stop-color:#222;stop-opacity:1"/></linearGradient><linearGradient id="l"><stop offset="0" style="stop-color:#ededed;stop-opacity:1"/><stop offset=".632" style="stop-color:#979091;stop-opacity:1"/><stop offset="1" style="stop-color:#ccc6ca;stop-opacity:1"/></linearGradient><linearGradient id="k"><stop offset="0" style="stop-color:#676565;stop-opacity:1"/><stop offset="1" style="stop-color:#e5e5e5;stop-opacity:1"/></linearGradient><linearGradient id="j"><stop offset="0" style="stop-color:#787678;stop-opacity:1"/><stop offset="1" style="stop-color:#eae9e9;stop-opacity:1"/></linearGradient><linearGradient id="i"><stop offset="0" style="stop-color:#cec9cc;stop-opacity:1"/><stop offset="1" style="stop-color:#4d4c4d;stop-opacity:1"/></linearGradient><linearGradient id="h"><stop offset="0" style="stop-color:#fff;stop-opacity:0"/><stop offset=".507" style="stop-color:#fff;stop-opacity:1"/><stop offset="1" style="stop-color:#fff;stop-opacity:0"/></linearGradient><linearGradient id="g"><stop offset="0" style="stop-color:#474747;stop-opacity:1"/><stop offset="1" style="stop-color:#fcfcfc;stop-opacity:1"/></linearGradient><linearGradient id="f"><stop offset="0" style="stop-color:#f7f7f7;stop-opacity:1"/><stop offset="1" style="stop-color:#393838;stop-opacity:1"/></linearGradient><linearGradient id="e"><stop offset="0" style="stop-color:#f0f0f0;stop-opacity:1"/><stop offset="1" style="stop-color:#a2a2a2;stop-opacity:1"/></linearGradient><linearGradient id="d"><stop offset="0" style="stop-color:#313131;stop-opacity:1"/><stop offset="1" style="stop-color:#b4adb1;stop-opacity:1"/></linearGradient><linearGradient id="c"><stop offset="0" style="stop-color:#252525;stop-opacity:1"/><stop offset="1" style="stop-color:#3b3b3b;stop-opacity:1"/></linearGradient><linearGradient id="b"><stop offset="0" style="stop-color:#969396;stop-opacity:1"/><stop offset=".383" style="stop-color:#f0f0f0;stop-opacity:1"/><stop offset="1" style="stop-color:#d6d0d4;stop-opacity:1"/></linearGradient><linearGradient id="a"><stop offset="0" style="stop-color:#f0f0f0;stop-opacity:1"/><stop offset="1" style="stop-color:#d4ced2;stop-opacity:1"/></linearGradient><linearGradient xlink:href="#a" id="G" x1="-36.773" x2="-35.98" y1="177.745" y2="189.896" gradientUnits="userSpaceOnUse"/><linearGradient xlink:href="#b" id="F" x1="-52.508" x2="-52.508" y1="188.932" y2="207.869" gradientUnits="userSpaceOnUse"/><linearGradient xlink:href="#c" id="E" x1="-52.533" x2="-38.939" y1="207.4" y2="207.4" gradientUnits="userSpaceOnUse"/><linearGradient xlink:href="#d" id="D" x1="-52.533" x2="-52.533" y1="206.918" y2="222.439" gradientUnits="userSpaceOnUse"/><linearGradient xlink:href="#e" id="H" x1="-64.256" x2="-64.256" y1="195.842" y2="178.069" gradientUnits="userSpaceOnUse"/><linearGradient xlink:href="#e" id="L" x1="-64.256" x2="-64.256" y1="195.842" y2="178.069" gradientUnits="userSpaceOnUse"/><linearGradient xlink:href="#f" id="K" x1="-13.324" x2="-13.324" y1="177.743" y2="222.876" gradientUnits="userSpaceOnUse"/><linearGradient xlink:href="#g" id="J" x1="-13.631" x2="-13.631" y1="185.687" y2="213.698" gradientUnits="userSpaceOnUse"/><linearGradient xlink:href="#h" id="M" x1="-23.921" x2="-24.99" y1="210.074" y2="197.111" gradientUnits="userSpaceOnUse"/><linearGradient xlink:href="#h" id="I" x1="-23.921" x2="-24.99" y1="210.074" y2="197.111" gradientUnits="userSpaceOnUse"/><linearGradient xlink:href="#e" id="V" x1="-242.857" x2="-242.857" y1="740.189" y2="673.018" gradientTransform="scale(.26458)" gradientUnits="userSpaceOnUse"/><linearGradient xlink:href="#h" id="W" x1="-90.409" x2="-94.449" y1="793.98" y2="744.988" gradientTransform="scale(.26458)" gradientUnits="userSpaceOnUse"/><linearGradient xlink:href="#i" id="T" x1="17.6" x2="23.162" y1="177.66" y2="186.981" gradientUnits="userSpaceOnUse"/><linearGradient xlink:href="#j" id="U" x1="23.162" x2="28.573" y1="186.981" y2="177.66" gradientUnits="userSpaceOnUse"/><linearGradient xlink:href="#k" id="R" x1="3.243" x2="16.082" y1="177.66" y2="199.175" gradientUnits="userSpaceOnUse"/><linearGradient xlink:href="#l" id="Q" x1="16.082" x2="2.659" y1="199.175" y2="222.294" gradientUnits="userSpaceOnUse"/><linearGradient xlink:href="#m" id="P" x1="16.805" x2="23.277" y1="222.294" y2="211.234" gradientUnits="userSpaceOnUse"/><linearGradient xlink:href="#n" id="O" x1="23.277" x2="29.878" y1="211.234" y2="222.294" gradientUnits="userSpaceOnUse"/><linearGradient xlink:href="#o" id="N" x1="30.386" x2="44.235" y1="199.087" y2="222.294" gradientUnits="userSpaceOnUse"/><linearGradient xlink:href="#e" id="ad" x1="-64.256" x2="-64.256" y1="195.842" y2="178.069" gradientUnits="userSpaceOnUse"/><linearGradient xlink:href="#p" id="ac" x1="92.785" x2="92.785" y1="178.393" y2="187.816" gradientUnits="userSpaceOnUse"/><linearGradient xlink:href="#q" id="ab" x1="73.498" x2="73.498" y1="203.713" y2="178.499" gradientUnits="userSpaceOnUse"/><linearGradient xlink:href="#r" id="aa" x1="298.753" x2="298.753" y1="757.741" y2="805.597" gradientUnits="userSpaceOnUse"/><linearGradient xlink:href="#s" id="Z" x1="299.51" x2="299.51" y1="837.416" y2="729.835" gradientUnits="userSpaceOnUse"/><linearGradient xlink:href="#t" id="Y" x1="74.952" x2="75.804" y1="194.305" y2="187.389" gradientUnits="userSpaceOnUse"/><linearGradient xlink:href="#h" id="ae" x1="-23.921" x2="-24.99" y1="210.074" y2="197.111" gradientUnits="userSpaceOnUse"/><linearGradient xlink:href="#e" id="aj" x1="-242.857" x2="-242.857" y1="740.189" y2="673.018" gradientTransform="scale(.26458)" gradientUnits="userSpaceOnUse"/><linearGradient xlink:href="#u" id="ai" x1="111.096" x2="99.634" y1="207.254" y2="220.626" gradientUnits="userSpaceOnUse"/><linearGradient xlink:href="#v" id="ag" x1="111.268" x2="111.268" y1="220.626" y2="177.545" gradientUnits="userSpaceOnUse"/><linearGradient xlink:href="#w" id="ah" x1="111.268" x2="111.268" y1="207.229" y2="177.545" gradientUnits="userSpaceOnUse"/><linearGradient xlink:href="#x" id="B" x1="-75.595" x2="57.663" y1="199.571" y2="199.571" gradientTransform="translate(-7.56 -49.893)scale(1.25)" gradientUnits="userSpaceOnUse"/><linearGradient xlink:href="#y" id="af" x1="707.797" x2="707.797" y1="42.879" y2="91.166" gradientUnits="userSpaceOnUse"/><linearGradient xlink:href="#h" id="ak" x1="-23.921" x2="-24.99" y1="210.074" y2="197.111" gradientUnits="userSpaceOnUse"/><filter id="C" width="1.014" height="1.033" x="-.007" y="-.017" style="color-interpolation-filters:sRGB"><feGaussianBlur stdDeviation="1.486"/></filter><filter id="X" width="1.016" height="1.024" x="-.008" y="-.012" style="color-interpolation-filters:sRGB"><feGaussianBlur stdDeviation="1.042"/></filter><radialGradient xlink:href="#z" id="A" cx="57.662" cy="238.776" r="39.204" fx="57.662" fy="238.776" gradientTransform="matrix(1.94697 .00014 0 1.55368 -54.604 -146.414)" gradientUnits="userSpaceOnUse"/></defs><path d="M57.663 174.568h78.408v50.007H57.663Z" style="fill:#031e57;fill-opacity:1;stroke:none;stroke-width:.853001;stroke-miterlimit:4;stroke-dasharray:none;stroke-opacity:1;paint-order:stroke fill markers" transform="matrix(1.6 0 0 1.6 120.952 -279.31)"/><path d="M57.663 174.568h78.408v50.007H57.663Z" style="fill:url(#A);fill-opacity:1;stroke:none;stroke-width:.853001;stroke-miterlimit:4;stroke-dasharray:none;stroke-opacity:1;paint-order:stroke fill markers" transform="matrix(1.6 0 0 1.6 120.952 -279.31)"/><path d="M-102.054 168.318H64.52v62.507h-166.573Z" style="fill:url(#B);fill-opacity:1;stroke-width:.0765182;paint-order:stroke fill markers" transform="translate(130.629 -215.446)scale(1.28)"/><path d="M-48.707-9.37v210.376h62.22v-67.24h59.665v-56.84H13.643V48.79h73.513l-3.83-58.16Zm321.172.354L333.119 92.63l-63.416 109.225h66.832l30.578-52.256 31.184 52.256h67.83L400.699 92.209 459.936-9.016H392.21l1.68 2.96h-.051l-1.705-2.96-25.563 44.034-26.277-44.034Zm-79.719.139c-59.82 0-108.427 47.746-108.428 106.629 0 58.882 48.607 106.627 108.428 106.627s108.427-47.745 108.428-106.627c0-58.883-48.607-106.629-108.428-106.629m-.002 40.746c10.523 0 18.899 8.374 18.899 18.897v88.177c0 10.523-8.376 18.897-18.899 18.897-10.522 0-18.896-8.374-18.896-18.897V50.766c0-10.523 8.374-18.897 18.896-18.897" style="fill:#000;fill-opacity:1;stroke:none;stroke-width:1.25px;stroke-linecap:butt;stroke-linejoin:miter;stroke-opacity:1;filter:url(#C)" transform="translate(33.867 8.001)scale(.33867)"/><path d="m-64.738 177.586.965.967h26.078l.904-.967z" style="fill:#f0f0f0;fill-opacity:1;stroke:none;stroke-width:.264583px;stroke-linecap:butt;stroke-linejoin:miter;stroke-opacity:1" transform="matrix(1.6 0 0 1.6 120.952 -279.31)"/><path d="M-52.533 206.918v14.232l.965.965v-14.232z" style="fill:url(#D);fill-opacity:1;stroke:none;stroke-width:.264583px;stroke-linecap:butt;stroke-linejoin:miter;stroke-opacity:1" transform="matrix(1.6 0 0 1.6 120.952 -279.31)"/><path d="M-38.94 207.883h-12.628l-.965-.965h12.629z" style="fill:url(#E);fill-opacity:1;stroke:none;stroke-width:.264583px;stroke-linecap:butt;stroke-linejoin:miter;stroke-opacity:1" transform="matrix(1.6 0 0 1.6 120.952 -279.31)"/><path d="M-51.541 189.896v5.956h12.602v12.03l-.965-.964v-10.1h-12.604v-7.886z" style="fill:url(#F);fill-opacity:1;stroke:none;stroke-width:.264583px;stroke-linecap:butt;stroke-linejoin:miter;stroke-opacity:1" transform="matrix(1.6 0 0 1.6 120.952 -279.31)"/><path d="m-36.791 177.586.81 12.31-1.029-.964-.685-10.38z" style="fill:url(#G);fill-opacity:1;stroke:none;stroke-width:.264583px;stroke-linecap:butt;stroke-linejoin:miter;stroke-opacity:1" transform="matrix(1.6 0 0 1.6 120.952 -279.31)"/><path d="M-35.98 189.896h-15.561l-.967-.964h15.498z" style="fill:#393838;fill-opacity:1;stroke:none;stroke-width:.264583px;stroke-linecap:butt;stroke-linejoin:miter;stroke-opacity:1" transform="matrix(1.6 0 0 1.6 120.952 -279.31)"/><path d="M-52.533 221.15h-11.24l-.965.965h13.17z" style="fill:#393535;fill-opacity:1;stroke:none;stroke-width:.264583px;stroke-linecap:butt;stroke-linejoin:miter;stroke-opacity:1" transform="matrix(1.6 0 0 1.6 120.952 -279.31)"/><path d="M-64.738 222.115v-44.53l.965.968v42.597z" style="fill:#7f7b7d;fill-opacity:1;stroke:none;stroke-width:.264583px;stroke-linecap:butt;stroke-linejoin:miter;stroke-opacity:1" transform="matrix(1.6 0 0 1.6 120.952 -279.31)"/><path d="M-64.256 178.07h27.013l.748 11.343h-15.53v6.922h12.603v11.066h-12.629v14.232h-12.205z" style="color:#000;font-style:normal;font-variant:normal;font-weight:400;font-stretch:normal;font-size:medium;line-height:normal;font-family:sans-serif;font-variant-ligatures:normal;font-variant-position:normal;font-variant-caps:normal;font-variant-numeric:normal;font-variant-alternates:normal;font-variant-east-asian:normal;font-feature-settings:normal;font-variation-settings:normal;text-indent:0;text-align:start;text-decoration:none;text-decoration-line:none;text-decoration-style:solid;text-decoration-color:#000;letter-spacing:normal;word-spacing:normal;text-transform:none;writing-mode:lr-tb;direction:ltr;text-orientation:mixed;dominant-baseline:auto;baseline-shift:baseline;text-anchor:start;white-space:normal;shape-padding:0;shape-margin:0;inline-size:0;clip-rule:nonzero;display:inline;overflow:visible;visibility:visible;isolation:auto;mix-blend-mode:normal;color-interpolation:sRGB;color-interpolation-filters:linearRGB;solid-color:#000;solid-opacity:1;vector-effect:none;fill:url(#H);fill-opacity:1;fill-rule:nonzero;stroke:none;stroke-width:.965;stroke-linecap:butt;stroke-linejoin:miter;stroke-miterlimit:4;stroke-dasharray:none;stroke-dashoffset:0;stroke-opacity:1;color-rendering:auto;image-rendering:auto;shape-rendering:auto;text-rendering:auto;enable-background:accumulate;stop-color:#000" transform="matrix(1.6 0 0 1.6 120.952 -279.31)"/><path d="M-64.256 178.07h27.013l.748 11.343h-15.53v6.922h12.603v11.066h-12.629v14.232h-12.205z" style="color:#000;font-style:normal;font-variant:normal;font-weight:400;font-stretch:normal;font-size:medium;line-height:normal;font-family:sans-serif;font-variant-ligatures:normal;font-variant-position:normal;font-variant-caps:normal;font-variant-numeric:normal;font-variant-alternates:normal;font-variant-east-asian:normal;font-feature-settings:normal;font-variation-settings:normal;text-indent:0;text-align:start;text-decoration:none;text-decoration-line:none;text-decoration-style:solid;text-decoration-color:#000;letter-spacing:normal;word-spacing:normal;text-transform:none;writing-mode:lr-tb;direction:ltr;text-orientation:mixed;dominant-baseline:auto;baseline-shift:baseline;text-anchor:start;white-space:normal;shape-padding:0;shape-margin:0;inline-size:0;clip-rule:nonzero;display:inline;overflow:visible;visibility:visible;isolation:auto;mix-blend-mode:normal;color-interpolation:sRGB;color-interpolation-filters:linearRGB;solid-color:#000;solid-opacity:1;vector-effect:none;fill:url(#I);fill-opacity:1;fill-rule:nonzero;stroke:none;stroke-width:.965;stroke-linecap:butt;stroke-linejoin:miter;stroke-miterlimit:4;stroke-dasharray:none;stroke-dashoffset:0;stroke-opacity:1;color-rendering:auto;image-rendering:auto;shape-rendering:auto;text-rendering:auto;enable-background:accumulate;stop-color:#000" transform="matrix(1.6 0 0 1.6 120.952 -279.31)"/><path d="M-13.63 185.06a5.256 5.256 0 0 0-5.255 5.254v18.665c0 2.9 2.354 5.253 5.254 5.253s5.254-2.354 5.254-5.253v-18.665c0-2.9-2.354-5.253-5.254-5.253m0 1.254c2.226 0 4 1.773 4 4v18.665c0 2.227-1.774 4-4 4-2.228 0-4-1.773-4-4v-18.665c0-2.227 1.772-4 4-4" style="color:#000;font-style:normal;font-variant:normal;font-weight:400;font-stretch:normal;font-size:medium;line-height:normal;font-family:sans-serif;font-variant-ligatures:normal;font-variant-position:normal;font-variant-caps:normal;font-variant-numeric:normal;font-variant-alternates:normal;font-variant-east-asian:normal;font-feature-settings:normal;font-variation-settings:normal;text-indent:0;text-align:start;text-decoration:none;text-decoration-line:none;text-decoration-style:solid;text-decoration-color:#000;letter-spacing:normal;word-spacing:normal;text-transform:none;writing-mode:lr-tb;direction:ltr;text-orientation:mixed;dominant-baseline:auto;baseline-shift:baseline;text-anchor:start;white-space:normal;shape-padding:0;shape-margin:0;inline-size:0;clip-rule:nonzero;display:inline;overflow:visible;visibility:visible;isolation:auto;mix-blend-mode:normal;color-interpolation:sRGB;color-interpolation-filters:linearRGB;solid-color:#000;solid-opacity:1;vector-effect:none;fill:url(#J);fill-opacity:1;fill-rule:nonzero;stroke:none;stroke-width:1.253;stroke-linecap:butt;stroke-linejoin:miter;stroke-miterlimit:4;stroke-dasharray:none;stroke-dashoffset:0;stroke-opacity:1;paint-order:stroke fill markers;color-rendering:auto;image-rendering:auto;shape-rendering:auto;text-rendering:auto;enable-background:accumulate;stop-color:#000" transform="matrix(1.6 0 0 1.6 120.952 -279.31)"/><path d="M-13.63 177.69c-12.663 0-22.951 10.106-22.951 22.57 0 12.463 10.288 22.57 22.95 22.57s22.95-10.107 22.95-22.57-10.288-22.57-22.95-22.57m0 1.253c11.996 0 21.697 9.542 21.697 21.317 0 11.774-9.701 21.317-21.698 21.317s-21.698-9.543-21.698-21.317 9.702-21.317 21.698-21.317" style="color:#000;font-style:normal;font-variant:normal;font-weight:400;font-stretch:normal;font-size:medium;line-height:normal;font-family:sans-serif;font-variant-ligatures:normal;font-variant-position:normal;font-variant-caps:normal;font-variant-numeric:normal;font-variant-alternates:normal;font-variant-east-asian:normal;font-feature-settings:normal;font-variation-settings:normal;text-indent:0;text-align:start;text-decoration:none;text-decoration-line:none;text-decoration-style:solid;text-decoration-color:#000;letter-spacing:normal;word-spacing:normal;text-transform:none;writing-mode:lr-tb;direction:ltr;text-orientation:mixed;dominant-baseline:auto;baseline-shift:baseline;text-anchor:start;white-space:normal;shape-padding:0;shape-margin:0;inline-size:0;clip-rule:nonzero;display:inline;overflow:visible;visibility:visible;isolation:auto;mix-blend-mode:normal;color-interpolation:sRGB;color-interpolation-filters:linearRGB;solid-color:#000;solid-opacity:1;vector-effect:none;fill:url(#K);fill-opacity:1;fill-rule:nonzero;stroke:none;stroke-width:1.253;stroke-linecap:butt;stroke-linejoin:miter;stroke-miterlimit:4;stroke-dasharray:none;stroke-dashoffset:0;stroke-opacity:1;paint-order:stroke fill markers;color-rendering:auto;image-rendering:auto;shape-rendering:auto;text-rendering:auto;enable-background:accumulate;stop-color:#000" transform="matrix(1.6 0 0 1.6 120.952 -279.31)"/><path d="M-13.63 178.316c-12.33 0-22.325 9.825-22.325 21.944s9.995 21.943 22.324 21.943 22.324-9.824 22.325-21.943-9.995-21.944-22.325-21.944m-.001 7.37a4.62 4.62 0 0 1 4.627 4.628v18.664a4.617 4.617 0 0 1-4.627 4.627 4.617 4.617 0 0 1-4.627-4.627v-18.664a4.617 4.617 0 0 1 4.627-4.627" style="color:#000;font-style:normal;font-variant:normal;font-weight:400;font-stretch:normal;font-size:medium;line-height:normal;font-family:sans-serif;font-variant-ligatures:normal;font-variant-position:normal;font-variant-caps:normal;font-variant-numeric:normal;font-variant-alternates:normal;font-variant-east-asian:normal;font-feature-settings:normal;font-variation-settings:normal;text-indent:0;text-align:start;text-decoration:none;text-decoration-line:none;text-decoration-style:solid;text-decoration-color:#000;letter-spacing:normal;word-spacing:normal;text-transform:none;writing-mode:lr-tb;direction:ltr;text-orientation:mixed;dominant-baseline:auto;baseline-shift:baseline;text-anchor:start;white-space:normal;shape-padding:0;shape-margin:0;inline-size:0;clip-rule:nonzero;display:inline;overflow:visible;visibility:visible;isolation:auto;mix-blend-mode:normal;color-interpolation:sRGB;color-interpolation-filters:linearRGB;solid-color:#000;solid-opacity:1;vector-effect:none;fill:url(#L);fill-opacity:1;fill-rule:nonzero;stroke:none;stroke-width:1.253;stroke-linecap:butt;stroke-linejoin:miter;stroke-miterlimit:4;stroke-dasharray:none;stroke-dashoffset:0;stroke-opacity:1;paint-order:stroke fill markers;color-rendering:auto;image-rendering:auto;shape-rendering:auto;text-rendering:auto;enable-background:accumulate;stop-color:#000" transform="matrix(1.6 0 0 1.6 120.952 -279.31)"/><path d="M-13.63 178.316c-12.33 0-22.325 9.825-22.325 21.944s9.995 21.943 22.324 21.943 22.324-9.824 22.325-21.943-9.995-21.944-22.325-21.944m-.001 7.37a4.62 4.62 0 0 1 4.627 4.628v18.664a4.617 4.617 0 0 1-4.627 4.627 4.617 4.617 0 0 1-4.627-4.627v-18.664a4.617 4.617 0 0 1 4.627-4.627" style="color:#000;font-style:normal;font-variant:normal;font-weight:400;font-stretch:normal;font-size:medium;line-height:normal;font-family:sans-serif;font-variant-ligatures:normal;font-variant-position:normal;font-variant-caps:normal;font-variant-numeric:normal;font-variant-alternates:normal;font-variant-east-asian:normal;font-feature-settings:normal;font-variation-settings:normal;text-indent:0;text-align:start;text-decoration:none;text-decoration-line:none;text-decoration-style:solid;text-decoration-color:#000;letter-spacing:normal;word-spacing:normal;text-transform:none;writing-mode:lr-tb;direction:ltr;text-orientation:mixed;dominant-baseline:auto;baseline-shift:baseline;text-anchor:start;white-space:normal;shape-padding:0;shape-margin:0;inline-size:0;clip-rule:nonzero;display:inline;overflow:visible;visibility:visible;isolation:auto;mix-blend-mode:normal;color-interpolation:sRGB;color-interpolation-filters:linearRGB;solid-color:#000;solid-opacity:1;vector-effect:none;fill:url(#M);fill-opacity:1;fill-rule:nonzero;stroke:none;stroke-width:1.253;stroke-linecap:butt;stroke-linejoin:miter;stroke-miterlimit:4;stroke-dasharray:none;stroke-dashoffset:0;stroke-opacity:1;paint-order:stroke fill markers;color-rendering:auto;image-rendering:auto;shape-rendering:auto;text-rendering:auto;enable-background:accumulate;stop-color:#000" transform="matrix(1.6 0 0 1.6 120.952 -279.31)"/><path d="m30.386 199.087-1.455.006 13.097 21.949 2.207 1.252z" style="fill:url(#N);fill-opacity:1;stroke:none;stroke-width:.264583px;stroke-linecap:butt;stroke-linejoin:miter;stroke-opacity:1" transform="matrix(1.6 0 0 1.6 120.952 -279.31)"/><path d="m42.925 177.66-12.539 21.427-1.455.006 11.81-20.18z" style="fill:#393535;fill-opacity:1;stroke:none;stroke-width:.264583px;stroke-linecap:butt;stroke-linejoin:miter;stroke-opacity:1" transform="matrix(1.6 0 0 1.6 120.952 -279.31)"/><path d="m23.277 211.234 6.6 11.06.712-1.252-7.322-12.27z" style="fill:url(#O);fill-opacity:1;stroke:none;stroke-width:.264583px;stroke-linecap:butt;stroke-linejoin:miter;stroke-opacity:1" transform="matrix(1.6 0 0 1.6 120.952 -279.31)"/><path d="m16.805 222.294 6.472-11.06-.01-2.463-7.18 12.27z" style="fill:url(#P);fill-opacity:1;stroke:none;stroke-width:.264583px;stroke-linecap:butt;stroke-linejoin:miter;stroke-opacity:1" transform="matrix(1.6 0 0 1.6 120.952 -279.31)"/><path d="m16.082 199.175-13.423 23.12 2.176-1.253 12.7-21.875Z" style="fill:url(#Q);fill-opacity:1;stroke:none;stroke-width:.264583px;stroke-linecap:butt;stroke-linejoin:miter;stroke-opacity:1" transform="matrix(1.6 0 0 1.6 120.952 -279.31)"/><path d="m3.243 177.66 12.839 21.515 1.454-.008L5.45 178.913z" style="fill:url(#R);fill-opacity:1;stroke:none;stroke-width:.264583px;stroke-linecap:butt;stroke-linejoin:miter;stroke-opacity:1" transform="matrix(1.6 0 0 1.6 120.952 -279.31)"/><path d="m17.6 177.66-.71 1.253 6.287 10.537-.015-2.47z" style="fill:url(#T);fill-opacity:1;stroke:none;stroke-width:.264583px;stroke-linecap:butt;stroke-linejoin:miter;stroke-opacity:1" transform="matrix(1.6 0 0 1.6 120.952 -279.31)"/><path d="m23.162 186.98.015 2.47 6.118-10.537-.722-1.253z" style="fill:url(#U);fill-opacity:1;stroke:none;stroke-width:.264583px;stroke-linecap:butt;stroke-linejoin:miter;stroke-opacity:1" transform="matrix(1.6 0 0 1.6 120.952 -279.31)"/><path d="M28.59 177.66h14.335l-2.185 1.253H29.3Zm-10.99 0H3.243l2.207 1.253h11.44Z" style="fill:#f0f0f0;fill-opacity:1;stroke:none;stroke-width:.264583px;stroke-linecap:butt;stroke-linejoin:miter;stroke-opacity:1" transform="matrix(1.6 0 0 1.6 120.952 -279.31)"/><path d="M2.659 222.294h14.146l-.719-1.252H4.835Zm27.219 0h14.357l-2.207-1.252h-11.44Z" style="fill:#3b3b3b;fill-opacity:1;stroke:none;stroke-width:.264583px;stroke-linecap:butt;stroke-linejoin:miter;stroke-opacity:1" transform="matrix(1.6 0 0 1.6 120.952 -279.31)"/><path d="m4.347 178.287 12.462 20.884-13.062 22.497h12.699l6.826-11.665 6.961 11.665h12.899L29.659 199.09l12.173-20.803H28.934l-5.764 9.928-5.925-9.928z" style="color:#000;font-style:normal;font-variant:normal;font-weight:400;font-stretch:normal;font-size:medium;line-height:normal;font-family:sans-serif;font-variant-ligatures:normal;font-variant-position:normal;font-variant-caps:normal;font-variant-numeric:normal;font-variant-alternates:normal;font-variant-east-asian:normal;font-feature-settings:normal;font-variation-settings:normal;text-indent:0;text-align:start;text-decoration:none;text-decoration-line:none;text-decoration-style:solid;text-decoration-color:#000;letter-spacing:normal;word-spacing:normal;text-transform:none;writing-mode:lr-tb;direction:ltr;text-orientation:mixed;dominant-baseline:auto;baseline-shift:baseline;text-anchor:start;white-space:normal;shape-padding:0;shape-margin:0;inline-size:0;clip-rule:nonzero;display:inline;overflow:visible;visibility:visible;isolation:auto;mix-blend-mode:normal;color-interpolation:sRGB;color-interpolation-filters:linearRGB;solid-color:#000;solid-opacity:1;vector-effect:none;fill:url(#V);fill-opacity:1;fill-rule:nonzero;stroke:none;stroke-width:1.253;stroke-linecap:butt;stroke-linejoin:miter;stroke-miterlimit:4;stroke-dasharray:none;stroke-dashoffset:0;stroke-opacity:1;paint-order:stroke fill markers;color-rendering:auto;image-rendering:auto;shape-rendering:auto;text-rendering:auto;enable-background:accumulate;stop-color:#000" transform="matrix(1.6 0 0 1.6 120.952 -279.31)"/><path d="m4.347 178.287 12.462 20.884-13.062 22.497h12.699l6.826-11.665 6.961 11.665h12.899L29.659 199.09l12.173-20.803H28.934l-5.764 9.928-5.925-9.928z" style="fill:url(#W);fill-opacity:1;stroke:none;stroke-width:1.253;stroke-linecap:butt;stroke-linejoin:miter;stroke-miterlimit:4;stroke-dasharray:none;stroke-opacity:1" transform="matrix(1.6 0 0 1.6 120.952 -279.31)"/><path d="M783.928-9.746c-28.453 0-48.084 9.231-60.479 22.432s-17.525 30.222-17.525 45.654c0 12.868 3.103 27.352 10.472 39.953 8.772 14.998 28.391 31.138 59.497 31.133 1.96 0 4.06-.12 5.412.047.593.072.908.204 1.05.271-.022.421-.1.76-.351 1.05l-.002.003-54.149 63.172h54.965l41.883-48.84c22.5-26.236 39.072-51.527 39.072-85.004 0-40.575-34.71-69.87-79.845-69.87zm-202.96 4.19-17.939 108.53 41.348 11.092.72-1.523c4.253-8.988 12.07-13.03 25.09-13.03 18.423 0 29.084 14.127 29.084 29.06 0 14.216-11.747 28.179-28.605 28.179-12.384 0-23.905-5.698-29.463-19.691l-.664-1.67-43.783 11.902 2.668 1.36-.002.001-2.668-1.359.648 2.012c11.238 34.603 45.61 48.506 75.387 48.506 44.864 0 74.861-32.306 74.861-70.266 0-38.497-34.187-64.84-74.464-64.84-6.565 0-13.342.888-19.534 3.856l-.002.002 3.407-27.6h78.441V-5.557Zm203.778 37.544c8.373 0 15.27 2.615 20.108 7.328 4.837 4.714 7.712 11.59 7.712 20.54 0 17.819-12.287 28.345-27.82 28.345-15.46 0-27.82-11.467-27.82-28.346 0-8.48 2.87-15.383 7.726-20.218 4.857-4.835 11.755-7.649 20.094-7.649" style="fill:#000;fill-opacity:1;stroke:none;stroke-width:1.25px;stroke-linecap:butt;stroke-linejoin:miter;stroke-opacity:1;filter:url(#X)" transform="translate(33.867 8.001)scale(.33867)"/><path d="m75.46 193.658.722-5.842-.754-.853-1.014 8.23.83-1.217z" style="fill:url(#Y);fill-opacity:1;stroke:none;stroke-width:.264583px;stroke-linecap:butt;stroke-linejoin:miter;stroke-opacity:1" transform="matrix(1.6 0 0 1.6 120.952 -279.31)"/><path d="M300.834 728.852c-5.251 0-10.674.71-15.627 3.084l-1.922 2.445-2.035 3.358c1.005-.424 1.986-1.369 2.945-2.03 4.661-3.206 10.54-3.633 16.639-3.633 30.83 0 56.346 19.752 56.346 48.647 0 28.683-22.306 52.988-56.662 52.988-22.333 0-47.535-10.147-56.553-35.012l-4.276-2.178.518 1.61c8.99 27.682 36.489 38.805 60.31 38.805 35.892 0 59.89-25.845 59.89-56.213 0-30.798-27.351-51.871-59.573-51.871" style="color:#000;font-style:normal;font-variant:normal;font-weight:400;font-stretch:normal;font-size:medium;line-height:normal;font-family:sans-serif;font-variant-ligatures:normal;font-variant-position:normal;font-variant-caps:normal;font-variant-numeric:normal;font-variant-alternates:normal;font-variant-east-asian:normal;font-feature-settings:normal;font-variation-settings:normal;text-indent:0;text-align:start;text-decoration:none;text-decoration-line:none;text-decoration-style:solid;text-decoration-color:#000;letter-spacing:normal;word-spacing:normal;text-transform:none;writing-mode:lr-tb;direction:ltr;text-orientation:mixed;dominant-baseline:auto;baseline-shift:baseline;text-anchor:start;white-space:normal;shape-padding:0;shape-margin:0;inline-size:0;clip-rule:nonzero;display:inline;overflow:visible;visibility:visible;isolation:auto;mix-blend-mode:normal;color-interpolation:sRGB;color-interpolation-filters:linearRGB;solid-color:#000;solid-opacity:1;vector-effect:none;fill:url(#Z);fill-opacity:1;fill-rule:nonzero;stroke:none;stroke-width:3.22394;stroke-linecap:butt;stroke-linejoin:miter;stroke-miterlimit:4;stroke-dasharray:none;stroke-dashoffset:0;stroke-opacity:1;paint-order:stroke fill markers;color-rendering:auto;image-rendering:auto;shape-rendering:auto;text-rendering:auto;enable-background:accumulate;stop-color:#000" transform="translate(120.952 -279.31)scale(.42333)"/><path d="m72.685 208.227-9.267 2.52 1.13.575 7.682-2.09z" style="fill:#f0f0f0;fill-opacity:1;stroke:none;stroke-width:.264583px;stroke-linecap:butt;stroke-linejoin:miter;stroke-opacity:1" transform="matrix(1.6 0 0 1.6 120.952 -279.31)"/><path d="M298.436 755.072c-10.54 0-18.08 3.701-22.198 11.116l1.55 3.751.575-1.218c3.402-7.19 9.656-10.424 20.073-10.424 14.737 0 23.267 11.3 23.267 23.246 0 11.373-9.399 22.545-22.885 22.545-9.907 0-19.124-4.559-23.57-15.754l-.531-1.336-1.72 3.8c5.15 11.342 15.32 16.515 25.821 16.515 15.265 0 26.104-12.623 26.104-25.77 0-13.516-10.075-26.47-26.486-26.47" style="color:#000;font-style:normal;font-variant:normal;font-weight:400;font-stretch:normal;font-size:medium;line-height:normal;font-family:sans-serif;font-variant-ligatures:normal;font-variant-position:normal;font-variant-caps:normal;font-variant-numeric:normal;font-variant-alternates:normal;font-variant-east-asian:normal;font-feature-settings:normal;font-variation-settings:normal;text-indent:0;text-align:start;text-decoration:none;text-decoration-line:none;text-decoration-style:solid;text-decoration-color:#000;letter-spacing:normal;word-spacing:normal;text-transform:none;writing-mode:lr-tb;direction:ltr;text-orientation:mixed;dominant-baseline:auto;baseline-shift:baseline;text-anchor:start;white-space:normal;shape-padding:0;shape-margin:0;inline-size:0;clip-rule:nonzero;display:inline;overflow:visible;visibility:visible;isolation:auto;mix-blend-mode:normal;color-interpolation:sRGB;color-interpolation-filters:linearRGB;solid-color:#000;solid-opacity:1;vector-effect:none;fill:url(#aa);fill-opacity:1;fill-rule:nonzero;stroke:none;stroke-width:3.22394;stroke-linecap:butt;stroke-linejoin:miter;stroke-miterlimit:4;stroke-dasharray:none;stroke-dashoffset:0;stroke-opacity:1;paint-order:stroke fill markers;color-rendering:auto;image-rendering:auto;shape-rendering:auto;text-rendering:auto;enable-background:accumulate;stop-color:#000" transform="translate(120.952 -279.31)scale(.42333)"/><path d="m69.268 179.246-3.553 21.496 7.373 1.979.41.992-8.752-2.348 3.797-22.972z" style="fill:url(#ab);fill-opacity:1;stroke:none;stroke-width:.264583px;stroke-linecap:butt;stroke-linejoin:miter;stroke-opacity:1" transform="matrix(1.6 0 0 1.6 120.952 -279.31)"/><path d="M92.785 178.393v9.423l-.853-.853v-7.717z" style="fill:url(#ac);fill-opacity:1;stroke:none;stroke-width:.264583px;stroke-linecap:butt;stroke-linejoin:miter;stroke-opacity:1" transform="matrix(1.6 0 0 1.6 120.952 -279.31)"/><path d="m68.543 178.393.725.853h22.664l.853-.853z" style="fill:#ccc;fill-opacity:1;stroke:none;stroke-width:.264583px;stroke-linecap:butt;stroke-linejoin:miter;stroke-opacity:1" transform="matrix(1.6 0 0 1.6 120.952 -279.31)"/><path d="M75.428 186.963h16.504l.853.853H76.182Z" style="fill:#5d5f63;fill-opacity:1;stroke:none;stroke-width:.264583px;stroke-linecap:butt;stroke-linejoin:miter;stroke-opacity:1" transform="matrix(1.6 0 0 1.6 120.952 -279.31)"/><path d="M68.905 178.82h23.453v8.57H75.804l-.852 6.915c1.355-.932 3.013-1.036 4.644-1.036 8.341 0 15.335 5.4 15.335 13.297 0 7.812-6.125 14.447-15.418 14.447-6.171 0-13.242-2.86-15.552-9.973l8.469-2.302c1.238 3.116 3.874 4.437 6.632 4.437 3.803 0 6.481-3.148 6.481-6.392 0-3.368-2.46-6.577-6.582-6.577-2.85 0-4.727.954-5.696 3.003l-8.035-2.156z" style="color:#000;font-style:normal;font-variant:normal;font-weight:400;font-stretch:normal;font-size:medium;line-height:normal;font-family:sans-serif;font-variant-ligatures:normal;font-variant-position:normal;font-variant-caps:normal;font-variant-numeric:normal;font-variant-alternates:normal;font-variant-east-asian:normal;font-feature-settings:normal;font-variation-settings:normal;text-indent:0;text-align:start;text-decoration:none;text-decoration-line:none;text-decoration-style:solid;text-decoration-color:#000;letter-spacing:normal;word-spacing:normal;text-transform:none;writing-mode:lr-tb;direction:ltr;text-orientation:mixed;dominant-baseline:auto;baseline-shift:baseline;text-anchor:start;white-space:normal;shape-padding:0;shape-margin:0;inline-size:0;clip-rule:nonzero;display:inline;overflow:visible;visibility:visible;isolation:auto;mix-blend-mode:normal;color-interpolation:sRGB;color-interpolation-filters:linearRGB;solid-color:#000;solid-opacity:1;vector-effect:none;fill:url(#ad);fill-opacity:1;fill-rule:nonzero;stroke:none;stroke-width:.853;stroke-linecap:butt;stroke-linejoin:miter;stroke-miterlimit:4;stroke-dasharray:none;stroke-dashoffset:0;stroke-opacity:1;paint-order:stroke fill markers;color-rendering:auto;image-rendering:auto;shape-rendering:auto;text-rendering:auto;enable-background:accumulate;stop-color:#000" transform="matrix(1.6 0 0 1.6 120.952 -279.31)"/><path d="M68.905 178.82h23.453v8.57H75.804l-.852 6.915c1.355-.932 3.013-1.036 4.644-1.036 8.341 0 15.335 5.4 15.335 13.297 0 7.812-6.125 14.447-15.418 14.447-6.171 0-13.242-2.86-15.552-9.973l8.469-2.302c1.238 3.116 3.874 4.437 6.632 4.437 3.803 0 6.481-3.148 6.481-6.392 0-3.368-2.46-6.577-6.582-6.577-2.85 0-4.727.954-5.696 3.003l-8.035-2.156z" style="color:#000;font-style:normal;font-variant:normal;font-weight:400;font-stretch:normal;font-size:medium;line-height:normal;font-family:sans-serif;font-variant-ligatures:normal;font-variant-position:normal;font-variant-caps:normal;font-variant-numeric:normal;font-variant-alternates:normal;font-variant-east-asian:normal;font-feature-settings:normal;font-variation-settings:normal;text-indent:0;text-align:start;text-decoration:none;text-decoration-line:none;text-decoration-style:solid;text-decoration-color:#000;letter-spacing:normal;word-spacing:normal;text-transform:none;writing-mode:lr-tb;direction:ltr;text-orientation:mixed;dominant-baseline:auto;baseline-shift:baseline;text-anchor:start;white-space:normal;shape-padding:0;shape-margin:0;inline-size:0;clip-rule:nonzero;display:inline;overflow:visible;visibility:visible;isolation:auto;mix-blend-mode:normal;color-interpolation:sRGB;color-interpolation-filters:linearRGB;solid-color:#000;solid-opacity:1;vector-effect:none;fill:url(#ae);fill-opacity:1;fill-rule:nonzero;stroke:none;stroke-width:.853;stroke-linecap:butt;stroke-linejoin:miter;stroke-miterlimit:4;stroke-dasharray:none;stroke-dashoffset:0;stroke-opacity:1;paint-order:stroke fill markers;color-rendering:auto;image-rendering:auto;shape-rendering:auto;text-rendering:auto;enable-background:accumulate;stop-color:#000" transform="matrix(1.6 0 0 1.6 120.952 -279.31)"/><path d="M707.797 41.268c-7.404 0-13.82 2.548-18.35 7.056-4.529 4.509-7.129 10.94-7.129 18.461 0 15.108 11.483 25.899 25.479 25.899 13.937 0 25.478-10.115 25.478-25.899 0-7.86-2.598-14.313-7.142-18.74-4.545-4.428-10.96-6.777-18.336-6.777m0 3.222c6.698 0 12.215 2.093 16.086 5.864s6.17 9.272 6.17 16.431c0 14.255-9.83 22.676-22.256 22.676-12.368 0-22.256-9.173-22.256-22.676 0-6.785 2.296-12.308 6.182-16.176 3.885-3.868 9.403-6.119 16.074-6.119" style="color:#000;font-style:normal;font-variant:normal;font-weight:400;font-stretch:normal;font-size:medium;line-height:normal;font-family:sans-serif;font-variant-ligatures:normal;font-variant-position:normal;font-variant-caps:normal;font-variant-numeric:normal;font-variant-alternates:normal;font-variant-east-asian:normal;font-feature-settings:normal;font-variation-settings:normal;text-indent:0;text-align:start;text-decoration:none;text-decoration-line:none;text-decoration-style:solid;text-decoration-color:#000;letter-spacing:normal;word-spacing:normal;text-transform:none;writing-mode:lr-tb;direction:ltr;text-orientation:mixed;dominant-baseline:auto;baseline-shift:baseline;text-anchor:start;white-space:normal;shape-padding:0;shape-margin:0;inline-size:0;clip-rule:nonzero;display:inline;overflow:visible;visibility:visible;isolation:auto;mix-blend-mode:normal;color-interpolation:sRGB;color-interpolation-filters:linearRGB;solid-color:#000;solid-opacity:1;vector-effect:none;fill:url(#af);fill-opacity:1;fill-rule:nonzero;stroke:none;stroke-width:3.22394;stroke-linecap:butt;stroke-linejoin:miter;stroke-miterlimit:4;stroke-dasharray:none;stroke-dashoffset:0;stroke-opacity:1;paint-order:stroke fill markers;color-rendering:auto;image-rendering:auto;shape-rendering:auto;text-rendering:auto;enable-background:accumulate;stop-color:#000" transform="scale(.42333)"/><path d="M111.503 177.506c-6.023 0-10.178 1.954-12.802 4.748s-3.709 6.397-3.709 9.663c0 2.724.657 5.79 2.217 8.457 1.856 3.175 6.01 6.591 12.593 6.59.415 0 .86-.025 1.146.01a.7.7 0 0 1 .222.058c-.005.089-.021.16-.074.222h-.001l2.238 4.198-2.457 8.32.392.854 8.865-10.338c4.763-5.554 8.27-10.907 8.27-17.993 0-8.588-7.346-14.789-16.9-14.789m0 .853c9.188 0 16.048 5.832 16.048 13.936 0 6.806-3.344 11.932-8.065 17.437l-3.918-.295-3.827-1.626c.206-.238.292-.537.292-.81a.85.85 0 0 0-.363-.675c-.2-.131-.41-.173-.619-.199-.42-.05-.877-.016-1.249-.016-6.29.001-10.145-3.24-11.858-6.168-1.468-2.51-2.1-5.44-2.1-8.025 0-3.078 1.026-6.467 3.48-9.08 2.452-2.613 6.34-4.48 12.179-4.48" style="color:#000;font-style:normal;font-variant:normal;font-weight:400;font-stretch:normal;font-size:medium;line-height:normal;font-family:sans-serif;font-variant-ligatures:normal;font-variant-position:normal;font-variant-caps:normal;font-variant-numeric:normal;font-variant-alternates:normal;font-variant-east-asian:normal;font-feature-settings:normal;font-variation-settings:normal;text-indent:0;text-align:start;text-decoration:none;text-decoration-line:none;text-decoration-style:solid;text-decoration-color:#000;letter-spacing:normal;word-spacing:normal;text-transform:none;writing-mode:lr-tb;direction:ltr;text-orientation:mixed;dominant-baseline:auto;baseline-shift:baseline;text-anchor:start;white-space:normal;shape-padding:0;shape-margin:0;inline-size:0;clip-rule:nonzero;display:inline;overflow:visible;visibility:visible;isolation:auto;mix-blend-mode:normal;color-interpolation:sRGB;color-interpolation-filters:linearRGB;solid-color:#000;solid-opacity:1;vector-effect:none;fill:url(#ag);fill-opacity:1;fill-rule:nonzero;stroke:none;stroke-width:.853001;stroke-linecap:butt;stroke-linejoin:miter;stroke-miterlimit:4;stroke-dasharray:none;stroke-dashoffset:0;stroke-opacity:1;paint-order:stroke fill markers;color-rendering:auto;image-rendering:auto;shape-rendering:auto;text-rendering:auto;enable-background:accumulate;stop-color:#000" transform="matrix(1.6 0 0 1.6 120.952 -279.31)"/><path d="M111.503 177.506c-6.023 0-10.178 1.954-12.802 4.748s-3.709 6.397-3.709 9.663c0 2.724.657 5.79 2.217 8.457 1.856 3.175 6.01 6.591 12.593 6.59.415 0 .86-.025 1.146.01a.7.7 0 0 1 .222.058c-.005.089-.021.16-.074.222h-.001l.646.557 10.044-17.739zm0 .853 11.015 16.82-10.777 12.632c.206-.238.292-.537.292-.81a.85.85 0 0 0-.363-.675c-.2-.131-.41-.173-.619-.199-.42-.05-.877-.016-1.249-.016-6.29.001-10.145-3.24-11.858-6.168-1.468-2.51-2.1-5.44-2.1-8.025 0-3.078 1.026-6.467 3.48-9.08 2.452-2.613 6.34-4.48 12.179-4.48" style="color:#000;font-style:normal;font-variant:normal;font-weight:400;font-stretch:normal;font-size:medium;line-height:normal;font-family:sans-serif;font-variant-ligatures:normal;font-variant-position:normal;font-variant-caps:normal;font-variant-numeric:normal;font-variant-alternates:normal;font-variant-east-asian:normal;font-feature-settings:normal;font-variation-settings:normal;text-indent:0;text-align:start;text-decoration:none;text-decoration-line:none;text-decoration-style:solid;text-decoration-color:#000;letter-spacing:normal;word-spacing:normal;text-transform:none;writing-mode:lr-tb;direction:ltr;text-orientation:mixed;dominant-baseline:auto;baseline-shift:baseline;text-anchor:start;white-space:normal;shape-padding:0;shape-margin:0;inline-size:0;clip-rule:nonzero;display:inline;overflow:visible;visibility:visible;isolation:auto;mix-blend-mode:normal;color-interpolation:sRGB;color-interpolation-filters:linearRGB;solid-color:#000;solid-opacity:1;vector-effect:none;fill:url(#ah);fill-opacity:1;fill-rule:nonzero;stroke:none;stroke-width:.853001;stroke-linecap:butt;stroke-linejoin:miter;stroke-miterlimit:4;stroke-dasharray:none;stroke-dashoffset:0;stroke-opacity:1;paint-order:stroke fill markers;color-rendering:auto;image-rendering:auto;shape-rendering:auto;text-rendering:auto;enable-background:accumulate;stop-color:#000" transform="matrix(1.6 0 0 1.6 120.952 -279.31)"/><path d="m101.489 219.772-1.855.854h11.634l-.392-.854z" style="fill:#373b42;fill-opacity:1;stroke:none;stroke-width:.264583px;stroke-linecap:butt;stroke-linejoin:miter;stroke-opacity:1" transform="matrix(1.6 0 0 1.6 120.952 -279.31)"/><path d="m111.096 207.254-11.462 13.372 1.855-.854 10.252-11.96z" style="fill:url(#ai);fill-opacity:1;stroke:none;stroke-width:.264583px;stroke-linecap:butt;stroke-linejoin:miter;stroke-opacity:1" transform="matrix(1.6 0 0 1.6 120.952 -279.31)"/><path d="M111.503 177.932c-11.862 0-16.084 7.642-16.084 13.986 0 2.654.643 5.652 2.158 8.241 1.784 3.051 5.788 6.38 12.225 6.378.787 0 1.805-.118 1.805.464a.8.8 0 0 1-.189.532l-10.857 12.666h10.51l8.739-10.189c4.742-5.53 8.167-10.769 8.167-17.715 0-8.346-7.103-14.363-16.474-14.363m.173 7.981c3.724 0 6.315 2.352 6.315 6.326s-2.827 6.425-6.315 6.425-6.315-2.64-6.315-6.425 2.591-6.326 6.315-6.326" style="color:#000;font-style:normal;font-variant:normal;font-weight:400;font-stretch:normal;font-size:medium;line-height:normal;font-family:sans-serif;font-variant-ligatures:normal;font-variant-position:normal;font-variant-caps:normal;font-variant-numeric:normal;font-variant-alternates:normal;font-variant-east-asian:normal;font-feature-settings:normal;font-variation-settings:normal;text-indent:0;text-align:start;text-decoration:none;text-decoration-line:none;text-decoration-style:solid;text-decoration-color:#000;letter-spacing:normal;word-spacing:normal;text-transform:none;writing-mode:lr-tb;direction:ltr;text-orientation:mixed;dominant-baseline:auto;baseline-shift:baseline;text-anchor:start;white-space:normal;shape-padding:0;shape-margin:0;inline-size:0;clip-rule:nonzero;display:inline;overflow:visible;visibility:visible;isolation:auto;mix-blend-mode:normal;color-interpolation:sRGB;color-interpolation-filters:linearRGB;solid-color:#000;solid-opacity:1;vector-effect:none;fill:url(#aj);fill-opacity:1;fill-rule:nonzero;stroke:none;stroke-width:.853001;stroke-linecap:butt;stroke-linejoin:miter;stroke-miterlimit:4;stroke-dasharray:none;stroke-dashoffset:0;stroke-opacity:1;paint-order:stroke fill markers;color-rendering:auto;image-rendering:auto;shape-rendering:auto;text-rendering:auto;enable-background:accumulate;stop-color:#000" transform="matrix(1.6 0 0 1.6 120.952 -279.31)"/><path d="M111.503 177.932c-11.862 0-16.084 7.642-16.084 13.986 0 2.654.643 5.652 2.158 8.241 1.784 3.051 5.788 6.38 12.225 6.378.787 0 1.805-.118 1.805.464a.8.8 0 0 1-.189.532l-10.857 12.666h10.51l8.739-10.189c4.742-5.53 8.167-10.769 8.167-17.715 0-8.346-7.103-14.363-16.474-14.363m.173 7.981c3.724 0 6.315 2.352 6.315 6.326s-2.827 6.425-6.315 6.425-6.315-2.64-6.315-6.425 2.591-6.326 6.315-6.326" style="color:#000;font-style:normal;font-variant:normal;font-weight:400;font-stretch:normal;font-size:medium;line-height:normal;font-family:sans-serif;font-variant-ligatures:normal;font-variant-position:normal;font-variant-caps:normal;font-variant-numeric:normal;font-variant-alternates:normal;font-variant-east-asian:normal;font-feature-settings:normal;font-variation-settings:normal;text-indent:0;text-align:start;text-decoration:none;text-decoration-line:none;text-decoration-style:solid;text-decoration-color:#000;letter-spacing:normal;word-spacing:normal;text-transform:none;writing-mode:lr-tb;direction:ltr;text-orientation:mixed;dominant-baseline:auto;baseline-shift:baseline;text-anchor:start;white-space:normal;shape-padding:0;shape-margin:0;inline-size:0;clip-rule:nonzero;display:inline;overflow:visible;visibility:visible;isolation:auto;mix-blend-mode:normal;color-interpolation:sRGB;color-interpolation-filters:linearRGB;solid-color:#000;solid-opacity:1;vector-effect:none;fill:url(#ak);fill-opacity:1;fill-rule:nonzero;stroke:none;stroke-width:.853001;stroke-linecap:butt;stroke-linejoin:miter;stroke-miterlimit:4;stroke-dasharray:none;stroke-dashoffset:0;stroke-opacity:1;paint-order:stroke fill markers;color-rendering:auto;image-rendering:auto;shape-rendering:auto;text-rendering:auto;enable-background:accumulate;stop-color:#000" transform="matrix(1.6 0 0 1.6 120.952 -279.31)"/></svg>