<svg xmlns="http://www.w3.org/2000/svg" xmlns:xlink="http://www.w3.org/1999/xlink" width="407.192" height="245.585" viewBox="0 0 235.496 142.01"><linearGradient id="p" x1="63.97" x2="86.72" y1="28.58" y2="5.83" gradientTransform="matrix(2.5112 0 0 2.80298 -204.976 123.968)" gradientUnits="userSpaceOnUse"><stop offset=".09" stop-color="#d70109"/><stop offset=".33" stop-color="#bd0106"/><stop offset=".87" stop-color="#880101"/></linearGradient><linearGradient id="a" x1="76.73" x2="76.73" y1="21.36" y2="27.65" gradientUnits="userSpaceOnUse"><stop offset="0" stop-color="#c6d2da"/><stop offset="1" stop-color="#919ca7"/></linearGradient><linearGradient xlink:href="#a" id="r" x1="73.76" x2="76.85" y1="26.66" y2="26.66" gradientTransform="matrix(2.5112 0 0 2.80298 -204.976 123.968)"/><linearGradient id="s" x1="64.19" x2="73.96" y1="24.54" y2="24.54" gradientTransform="matrix(2.5112 0 0 2.80298 -204.976 123.968)" gradientUnits="userSpaceOnUse"><stop offset="0" stop-color="#dbdbdb"/><stop offset="1" stop-color="#c6d2da"/></linearGradient><linearGradient id="t" x1="75.85" x2="75.85" y1="21.56" y2="28.7" gradientTransform="matrix(2.5112 0 0 2.80298 -204.976 123.968)" gradientUnits="userSpaceOnUse"><stop offset="0" stop-color="#464b50"/><stop offset=".24" stop-color="#494e53"/><stop offset=".39" stop-color="#51565b"/><stop offset=".53" stop-color="#5f646a"/><stop offset=".64" stop-color="#73797f"/><stop offset=".73" stop-color="#878d94"/><stop offset=".83" stop-color="#60666d"/><stop offset=".94" stop-color="#3a4047"/><stop offset="1" stop-color="#2c3139"/></linearGradient><linearGradient id="v" x1="75.13" x2="77.98" y1="23.8" y2="23.8" gradientTransform="matrix(2.5112 0 0 2.80298 -204.976 123.968)" gradientUnits="userSpaceOnUse"><stop offset="0" stop-color="#d50109"/><stop offset=".24" stop-color="#d20109"/><stop offset=".45" stop-color="#c70108"/><stop offset=".54" stop-color="#c00107"/><stop offset="1" stop-color="#c80108"/></linearGradient><linearGradient id="w" x1="76.53" x2="76.53" y1="19.73" y2="28.98" gradientTransform="matrix(2.5112 0 0 2.80298 -204.976 123.968)" gradientUnits="userSpaceOnUse"><stop offset="0" stop-color="#c5c2c2"/><stop offset=".22" stop-color="#c2bfbf"/><stop offset=".42" stop-color="#b7b4b4"/><stop offset=".6" stop-color="#a5a2a2"/><stop offset=".78" stop-color="#8c8989"/><stop offset=".95" stop-color="#6c6968"/><stop offset="1" stop-color="#615e5d"/></linearGradient><linearGradient id="x" x1="67.23" x2="67.23" y1="24.43" y2="34.05" gradientTransform="matrix(2.5112 0 0 2.80298 -204.976 123.968)" gradientUnits="userSpaceOnUse"><stop offset="0" stop-color="#5c6269"/><stop offset=".3" stop-color="#9aa5af"/><stop offset=".48" stop-color="#7d8793"/><stop offset=".83" stop-color="#495363"/><stop offset="1" stop-color="#353f50"/></linearGradient><linearGradient id="y" x1="64.83" x2="79.75" y1="29.56" y2="29.56" gradientTransform="matrix(2.5112 0 0 2.80298 -204.976 123.968)" gradientUnits="userSpaceOnUse"><stop offset="0" stop-color="#860101"/><stop offset="1" stop-color="#870101"/></linearGradient><linearGradient id="z" x1="68.38" x2="68.38" y1="24.79" y2="33.85" gradientTransform="matrix(2.5112 0 0 2.80298 -204.976 123.968)" gradientUnits="userSpaceOnUse"><stop offset="0" stop-color="#878d94"/><stop offset="1" stop-color="#453d40"/></linearGradient><linearGradient id="A" x1="75.51" x2="75.51" y1="5.93" y2="17.51" gradientTransform="matrix(2.5112 0 0 2.80298 -204.976 123.968)" gradientUnits="userSpaceOnUse"><stop offset="0" stop-color="#343a46"/><stop offset=".1" stop-color="#707982"/><stop offset=".15" stop-color="#89939b"/><stop offset=".17" stop-color="#7d878e"/><stop offset=".24" stop-color="#60686d"/><stop offset=".3" stop-color="#484e53"/><stop offset=".38" stop-color="#353b3e"/><stop offset=".46" stop-color="#282d2f"/><stop offset=".56" stop-color="#202427"/><stop offset=".71" stop-color="#1e2224"/><stop offset="1" stop-color="#2e353f"/></linearGradient><linearGradient id="B" x1="74.52" x2="74.52" y1="15.43" y2="18.16" gradientTransform="matrix(2.5112 0 0 2.80298 -204.976 123.968)" gradientUnits="userSpaceOnUse"><stop offset="0" stop-color="#8a0101"/><stop offset=".38" stop-color="#920101"/><stop offset="1" stop-color="#950101"/></linearGradient><linearGradient id="b" x1="70.99" x2="70.99" y1=".37" y2="22.72" gradientUnits="userSpaceOnUse"><stop offset="0" stop-color="#615e5d"/><stop offset=".05" stop-color="#6c6968"/><stop offset=".22" stop-color="#8c8989"/><stop offset=".4" stop-color="#a5a2a2"/><stop offset=".58" stop-color="#b7b4b4"/><stop offset=".78" stop-color="#c2bfbf"/><stop offset="1" stop-color="#c5c2c2"/></linearGradient><linearGradient id="D" x1="68.19" x2="68.19" y1="2.92" y2="23.36" gradientTransform="matrix(2.5112 0 0 2.80298 -204.976 123.968)" gradientUnits="userSpaceOnUse"><stop offset="0" stop-color="#303540"/><stop offset=".33" stop-color="#323742"/><stop offset=".46" stop-color="#383e49"/><stop offset=".56" stop-color="#444a55"/><stop offset=".63" stop-color="#545b66"/><stop offset=".7" stop-color="#69727c"/><stop offset=".76" stop-color="#828d97"/><stop offset=".77" stop-color="#8a959f"/><stop offset=".81" stop-color="#7b8690"/><stop offset=".94" stop-color="#505864"/><stop offset="1" stop-color="#3f4753"/></linearGradient><linearGradient id="E" x1="77.58" x2="77.58" y1="7.46" y2="8.25" gradientTransform="matrix(2.5112 0 0 2.80298 -204.976 123.968)" gradientUnits="userSpaceOnUse"><stop offset="0" stop-color="#8a0101"/><stop offset=".6" stop-color="#8e0101"/><stop offset="1" stop-color="#950101"/></linearGradient><linearGradient id="G" x1="74.68" x2="76.35" y1=".26" y2=".26" gradientTransform="matrix(2.5112 0 0 2.80298 -204.976 123.968)" gradientUnits="userSpaceOnUse"><stop offset="0" stop-color="#151617"/><stop offset=".49" stop-color="#2e3134"/><stop offset="1" stop-color="#45494e"/></linearGradient><linearGradient id="H" x1="74.85" x2="76.37" y1="34.32" y2="34.32" gradientTransform="matrix(2.5112 0 0 2.80298 -204.976 123.968)" gradientUnits="userSpaceOnUse"><stop offset="0" stop-color="#0f1111"/><stop offset="1" stop-color="#45494e"/></linearGradient><linearGradient id="I" x1="68.34" x2="68.34" y1="24.54" y2="34.32" gradientTransform="matrix(2.5112 0 0 2.80298 -204.976 123.968)" gradientUnits="userSpaceOnUse"><stop offset="0" stop-color="#dbdbdb"/><stop offset="1" stop-color="#777e85"/></linearGradient><linearGradient xlink:href="#b" id="J" x1="70.5" x2="70.5" y1=".2" y2="23.23" gradientTransform="matrix(2.5112 0 0 2.80298 -204.976 123.968)"/><linearGradient id="L" x1="53.17" x2="53.17" y1="13.64" y2="33.87" gradientTransform="matrix(2.5112 0 0 2.80298 -204.976 123.968)" gradientUnits="userSpaceOnUse"><stop offset="0" stop-color="#252e39"/><stop offset="1" stop-color="#8b949c"/></linearGradient><linearGradient id="c" x1="62.97" x2="62.83" y1="17.27" y2="17.27" gradientUnits="userSpaceOnUse"><stop offset="0" stop-color="#2e3033"/><stop offset=".15" stop-color="#313437"/><stop offset=".53" stop-color="#36393c"/><stop offset="1" stop-color="#5c6267"/></linearGradient><linearGradient xlink:href="#c" id="O" x1="58.27" x2="58.27" y1="33.72" y2="33.4" gradientTransform="matrix(2.5112 0 0 2.80298 -204.976 123.968)"/><linearGradient id="d" x1="62.65" x2="62.65" y1="1.03" y2="33.41" gradientUnits="userSpaceOnUse"><stop offset="0" stop-color="#9d0404"/><stop offset=".02" stop-color="#9c0404"/><stop offset=".56" stop-color="#8d0202"/><stop offset="1" stop-color="#880101"/></linearGradient><linearGradient xlink:href="#d" id="R" x1="60.19" x2="60.19" y1="1.03" y2="1.31" gradientTransform="matrix(2.5112 0 0 2.80298 -204.976 123.968)"/><linearGradient id="S" x1="47.15" x2="57.38" y1="3.37" y2="3.37" gradientTransform="matrix(2.5112 0 0 2.80298 -204.976 123.968)" gradientUnits="userSpaceOnUse"><stop offset="0" stop-color="#5f666c"/><stop offset="1" stop-color="#919ca7"/></linearGradient><linearGradient id="T" x1="47.17" x2="53.58" y1="12.32" y2="12.32" gradientTransform="matrix(2.5112 0 0 2.80298 -204.976 123.968)" gradientUnits="userSpaceOnUse"><stop offset="0" stop-color="#5f666c"/><stop offset="1" stop-color="#929ba2"/></linearGradient><linearGradient id="U" x1="43.69" x2="43.69" y1="10.2" y2="33.61" gradientTransform="matrix(2.5112 0 0 2.80298 -204.976 123.968)" gradientUnits="userSpaceOnUse"><stop offset="0" stop-color="#bec0c1"/><stop offset="1" stop-color="#eef5fa"/></linearGradient><linearGradient id="V" x1="46.06" x2="55.18" y1="33.91" y2="33.91" gradientTransform="matrix(2.5112 0 0 2.80298 -204.976 123.968)" gradientUnits="userSpaceOnUse"><stop offset="0" stop-color="#7e858c"/><stop offset="1" stop-color="#6f777d"/></linearGradient><linearGradient id="W" x1="32.08" x2="40.87" y1="33.91" y2="33.91" gradientTransform="matrix(2.5112 0 0 2.80298 -204.976 123.968)" gradientUnits="userSpaceOnUse"><stop offset="0" stop-color="#b5c0c8"/><stop offset="1" stop-color="#939da4"/></linearGradient><linearGradient id="Y" x1="35.79" x2="35.79" y1="34.04" y2="21.54" gradientTransform="matrix(2.5112 0 0 2.80298 -204.976 123.968)" gradientUnits="userSpaceOnUse"><stop offset="0" stop-color="#b5c0c8"/><stop offset="1" stop-color="#6e747a"/></linearGradient><linearGradient id="e" x1="32.57" x2="41.34" y1="9.95" y2="9.95" gradientUnits="userSpaceOnUse"><stop offset="0" stop-color="#5d6368"/><stop offset="1" stop-color="#494e54"/></linearGradient><linearGradient xlink:href="#e" id="ab" x1="33.32" x2="41.16" y1="10.21" y2="10.21" gradientTransform="matrix(2.5112 0 0 2.80298 -204.976 123.968)"/><linearGradient id="f" x1="45.87" x2="54.57" y1="9.95" y2="9.95" gradientUnits="userSpaceOnUse"><stop offset="0" stop-color="#494f54"/><stop offset="1" stop-color="#7c848a"/></linearGradient><linearGradient xlink:href="#e" id="ae" x1="46.23" x2="53.87" y1="10.21" y2="10.21" gradientTransform="matrix(2.5112 0 0 2.80298 -204.976 123.968)"/><linearGradient xlink:href="#f" id="af" x1="47.67" x2="54.57" y1="15.7" y2="15.7" gradientTransform="matrix(2.5112 0 0 2.80298 -204.976 123.968)"/><linearGradient id="ag" x1="51.43" x2="51.43" y1="21.58" y2="34.04" gradientTransform="matrix(2.5112 0 0 2.80298 -204.976 123.968)" gradientUnits="userSpaceOnUse"><stop offset="0" stop-color="#494f54"/><stop offset="1" stop-color="#6f777d"/></linearGradient><linearGradient id="g" x1="37.23" x2="37.23" y1="10.27" y2="10.94" gradientUnits="userSpaceOnUse"><stop offset="0" stop-color="#aabee4"/><stop offset=".47" stop-color="#c9e9ff"/><stop offset=".62" stop-color="#ddf3ff"/><stop offset=".75" stop-color="#f4ffff"/><stop offset=".95" stop-color="#e4ebf6"/><stop offset="1" stop-color="#e0e5f3"/></linearGradient><linearGradient xlink:href="#g" id="aj" x1="50.01" x2="50.01" y1="10.27" y2="10.94" gradientTransform="matrix(2.5112 0 0 2.80298 -204.976 123.968)"/><linearGradient xlink:href="#g" id="ak" x1="42.51" x2="42.22" y1="12.76" y2="12.93" gradientTransform="matrix(2.5112 0 0 2.80298 -204.976 123.968)"/><linearGradient id="al" x1="37.57" x2="37.57" y1="10.94" y2="21.49" gradientTransform="matrix(2.5112 0 0 2.80298 -204.976 123.968)" gradientUnits="userSpaceOnUse"><stop offset=".06" stop-color="#d2dae3"/><stop offset=".15" stop-color="#c9e9ff"/><stop offset=".16" stop-color="#c9e8fd"/><stop offset=".26" stop-color="#cee0ec"/><stop offset=".37" stop-color="#d1dae1"/><stop offset=".54" stop-color="#d3d7da"/><stop offset="1" stop-color="#d3d6d8"/></linearGradient><linearGradient id="am" x1="50.78" x2="50.78" y1="21.49" y2="33.52" gradientTransform="matrix(2.5112 0 0 2.80298 -204.976 123.968)" gradientUnits="userSpaceOnUse"><stop offset="0" stop-color="#cdf2ff"/><stop offset="1" stop-color="#d8fdff"/></linearGradient><linearGradient id="h" x1="14" x2="37.32" y1="21.93" y2="21.93" gradientUnits="userSpaceOnUse"><stop offset="0" stop-color="#645f5b"/><stop offset="1" stop-color="#5f6060"/></linearGradient><linearGradient id="ao" x1="25.66" x2="25.66" y1="10.45" y2="33.31" gradientTransform="matrix(2.5112 0 0 2.80298 -204.976 123.968)" gradientUnits="userSpaceOnUse"><stop offset="0" stop-color="#c5c7c9"/><stop offset=".38" stop-color="#dce0e3"/><stop offset=".53" stop-color="#e2e7eb"/><stop offset="1" stop-color="#feffff"/></linearGradient><linearGradient id="ap" x1="26.89" x2="26.89" y1="26.79" y2="16.81" gradientTransform="matrix(2.5112 0 0 2.80298 -204.976 123.968)" gradientUnits="userSpaceOnUse"><stop offset="0" stop-color="#a5afb6"/><stop offset="1" stop-color="#72787c"/></linearGradient><linearGradient id="aq" x1="25.57" x2="25.57" y1="26.6" y2="28.82" gradientTransform="matrix(2.5112 0 0 2.80298 -204.976 123.968)" gradientUnits="userSpaceOnUse"><stop offset="0" stop-color="#b6d0fc"/><stop offset=".3" stop-color="#c6e7ff"/><stop offset=".39" stop-color="#d2f0ff"/><stop offset=".47" stop-color="#e1fcff"/><stop offset=".7" stop-color="#e2fdff"/><stop offset=".86" stop-color="#f4fdff"/></linearGradient><linearGradient id="ar" x1="24.14" x2="25.92" y1="27.3" y2="27.3" gradientTransform="matrix(2.5112 0 0 2.80298 -204.976 123.968)" gradientUnits="userSpaceOnUse"><stop offset="0" stop-color="#1a1b1b"/><stop offset=".21" stop-color="#191d1f"/><stop offset=".44" stop-color="#16222c"/><stop offset=".5" stop-color="#152431"/><stop offset=".6" stop-color="#172028"/><stop offset=".78" stop-color="#191c1d"/><stop offset="1" stop-color="#1a1b1a"/></linearGradient><linearGradient id="as" x1="23.43" x2="24.28" y1="21.13" y2="21.13" gradientTransform="matrix(2.5112 0 0 2.80298 -204.976 123.968)" gradientUnits="userSpaceOnUse"><stop offset="0" stop-color="#c7c7c8"/><stop offset=".12" stop-color="#cbcbcc"/><stop offset=".25" stop-color="#d6d8d9"/><stop offset=".38" stop-color="#e9edef"/><stop offset=".46" stop-color="#f7fdff"/><stop offset="1" stop-color="#d2d8de"/></linearGradient><linearGradient id="at" x1="25.06" x2="25.06" y1="15.6" y2="27.01" gradientTransform="matrix(2.5112 0 0 2.80298 -204.976 123.968)" gradientUnits="userSpaceOnUse"><stop offset="0" stop-color="#c7c7c8"/><stop offset=".49" stop-color="#c3c3c5"/><stop offset="1" stop-color="#b6b8bc"/></linearGradient><linearGradient id="au" x1="25.43" x2="26.07" y1="17.54" y2="16.17" gradientTransform="matrix(2.5112 0 0 2.80298 -204.976 123.968)" gradientUnits="userSpaceOnUse"><stop offset=".06" stop-color="#1a1b1a"/><stop offset=".11" stop-color="#1f2120"/><stop offset=".18" stop-color="#2e3132"/><stop offset=".25" stop-color="#474c4e"/><stop offset=".34" stop-color="#6a7176"/><stop offset=".43" stop-color="#96a0a9"/><stop offset=".51" stop-color="#c4d1de"/><stop offset=".68" stop-color="#c2cfdc"/><stop offset=".75" stop-color="#bcc8d5"/><stop offset=".81" stop-color="#b1bdc8"/><stop offset=".84" stop-color="#a8b4be"/><stop offset=".87" stop-color="#a0abb5"/><stop offset=".92" stop-color="#8a949c"/><stop offset=".99" stop-color="#666d73"/><stop offset="1" stop-color="#62696f"/></linearGradient><linearGradient id="av" x1="24.57" x2="24.57" y1="16.84" y2="26.89" gradientTransform="matrix(2.5112 0 0 2.80298 -204.976 123.968)" gradientUnits="userSpaceOnUse"><stop offset="0" stop-color="#72787c"/><stop offset=".8" stop-color="#9aa3aa"/><stop offset="1" stop-color="#a5afb6"/></linearGradient><linearGradient id="aw" x1="25.96" x2="25.96" y1="21.49" y2="10.45" gradientTransform="matrix(2.5112 0 0 2.80298 -204.976 123.968)" gradientUnits="userSpaceOnUse"><stop offset=".13" stop-color="#f6feff"/><stop offset=".53" stop-color="#ddf8ff"/><stop offset=".7" stop-color="#d3ecfa"/><stop offset=".99" stop-color="#b8cdee"/><stop offset="1" stop-color="#b7ccee"/></linearGradient><linearGradient id="ax" x1="23.25" x2="27.9" y1="27.83" y2="27.83" gradientTransform="matrix(2.5112 0 0 2.80298 -204.976 123.968)" gradientUnits="userSpaceOnUse"><stop offset="0" stop-color="#b6b8bc"/><stop offset="1" stop-color="#c5c2bf"/></linearGradient><linearGradient id="ay" x1="7.79" x2="7.79" y1="10.1" y2="33.61" gradientTransform="matrix(2.5112 0 0 2.80298 -204.976 123.968)" gradientUnits="userSpaceOnUse"><stop offset="0" stop-color="#ccc6c1"/><stop offset="1" stop-color="#d7dadc"/></linearGradient><linearGradient id="az" x2="15.39" y1="9.86" y2="9.86" gradientTransform="matrix(2.5112 0 0 2.80298 -204.976 123.968)" gradientUnits="userSpaceOnUse"><stop offset="0" stop-color="#645f5b"/><stop offset="1" stop-color="#595652"/></linearGradient><linearGradient id="aA" x1="8.46" x2="8.46" y1="26.7" y2="34.07" gradientTransform="matrix(2.5112 0 0 2.80298 -204.976 123.968)" gradientUnits="userSpaceOnUse"><stop offset="0" stop-color="#2c2f33"/><stop offset="1" stop-color="#4b5259"/></linearGradient><linearGradient id="aC" x1="14.28" x2="14.28" y1="18.95" y2="26.62" gradientTransform="matrix(2.5112 0 0 2.80298 -204.976 123.968)" gradientUnits="userSpaceOnUse"><stop offset=".64" stop-color="#615f5d"/><stop offset=".77" stop-color="#636160"/><stop offset=".87" stop-color="#68696a"/><stop offset=".96" stop-color="#72767a"/><stop offset="1" stop-color="#777d84"/></linearGradient><linearGradient id="aD" x1="8.06" x2="14.87" y1="17.64" y2="17.64" gradientTransform="matrix(2.5112 0 0 2.80298 -204.976 123.968)" gradientUnits="userSpaceOnUse"><stop offset="0" stop-color="#5f666f"/><stop offset="1" stop-color="#87919c"/></linearGradient><linearGradient id="aE" x1=".17" x2=".17" y1="9.75" y2="34.07" gradientTransform="matrix(2.5112 0 0 2.80298 -204.976 123.968)" gradientUnits="userSpaceOnUse"><stop offset="0" stop-color="#645f5b"/><stop offset="1" stop-color="#777d84"/></linearGradient><linearGradient id="aG" x1="15.59" x2="14.88" y1="13.56" y2="13.56" gradientTransform="matrix(2.5112 0 0 2.80298 -204.976 123.968)" gradientUnits="userSpaceOnUse"><stop offset="0" stop-color="#252d35"/><stop offset="1" stop-color="#101112"/></linearGradient><linearGradient xlink:href="#h" id="aH" x1="15.14" x2="15.8" y1="13.1" y2="13.1" gradientTransform="matrix(2.5112 0 0 2.80298 -204.976 123.968)"/><linearGradient id="i" x1="7.6" x2="7.6" y1="10.1" y2="10.87" gradientUnits="userSpaceOnUse"><stop offset="0" stop-color="#dbf7ff"/><stop offset="1" stop-color="#fff"/></linearGradient><linearGradient xlink:href="#i" id="aJ" x1="10.07" x2="10.07" y1="19.38" y2="20.15" gradientTransform="matrix(2.5112 0 0 2.80298 -204.976 123.968)"/><linearGradient id="aK" x1="6.9" x2="7.47" y1="18.13" y2="18.13" gradientTransform="matrix(2.5112 0 0 2.80298 -204.976 123.968)" gradientUnits="userSpaceOnUse"><stop offset=".39" stop-color="#babfc6"/><stop offset=".46" stop-color="#dcdad9"/><stop offset=".75" stop-color="#dad8d7"/><stop offset=".86" stop-color="#d3d1d1"/><stop offset=".93" stop-color="#c8c6c6"/><stop offset=".94" stop-color="#c6c4c4"/><stop offset=".96" stop-color="#b8b7b7"/><stop offset=".99" stop-color="#949595"/><stop offset="1" stop-color="#878889"/></linearGradient><linearGradient id="aM" x1="6.32" x2="6.71" y1="18.06" y2="18.06" gradientTransform="matrix(2.5112 0 0 2.80298 -204.976 123.968)" gradientUnits="userSpaceOnUse"><stop offset=".52" stop-color="#c8cbcd"/><stop offset=".58" stop-color="#c4c6c8"/><stop offset=".73" stop-color="#bdbfbf"/><stop offset="1" stop-color="#bbbdbd"/></linearGradient><linearGradient id="j" x1="6.1" x2="7.37" y1="29.41" y2="29.41" gradientUnits="userSpaceOnUse"><stop offset="0" stop-color="#d0d2d3"/><stop offset=".1" stop-color="#e1e8ee"/><stop offset=".22" stop-color="#bbbdbe"/><stop offset=".23" stop-color="#c1c3c4"/><stop offset=".32" stop-color="#e3e6e8"/><stop offset=".37" stop-color="#f0f3f5"/><stop offset=".58" stop-color="#b5b8bb"/><stop offset="1" stop-color="#bdbdbe"/></linearGradient><linearGradient id="aO" x1=".8" x2="6.1" y1="32.91" y2="32.91" gradientTransform="matrix(2.5112 0 0 2.80298 -204.976 123.968)" gradientUnits="userSpaceOnUse"><stop offset="0" stop-color="#e4ebf3"/><stop offset="1" stop-color="#d0d3d6"/></linearGradient><linearGradient xlink:href="#j" id="aP" x1="12.56" x2="13.81" y1="22.76" y2="22.76" gradientTransform="matrix(2.5112 0 0 2.80298 -204.976 123.968)"/><linearGradient xlink:href="#j" id="aQ" x1="13.79" x2="15.09" y1="13.6" y2="13.52" gradientTransform="matrix(2.5112 0 0 2.80298 -204.976 123.968)"/><linearGradient id="aS" x1=".89" x2=".89" y1="10.65" y2="33.03" gradientTransform="matrix(2.5112 0 0 2.80298 -204.976 123.968)" gradientUnits="userSpaceOnUse"><stop offset="0" stop-color="#f6f4f1"/><stop offset=".04" stop-color="#f4f1ee"/><stop offset=".06" stop-color="#ede9e4"/><stop offset=".09" stop-color="#e2dcd5"/><stop offset=".16" stop-color="#d7d3cf"/><stop offset=".29" stop-color="#ccc9c7"/><stop offset=".48" stop-color="#c5c4c3"/><stop offset="1" stop-color="#c3c2c2"/></linearGradient><linearGradient id="aT" x1="98.15" x2="121.09" y1="13.41" y2="13.41" gradientTransform="matrix(2.5112 0 0 2.80298 -390.563 230.18)" gradientUnits="userSpaceOnUse"><stop offset="0" stop-color="#0f1011"/><stop offset=".32" stop-color="#121415"/><stop offset=".62" stop-color="#1d1f20"/><stop offset=".91" stop-color="#2f3133"/><stop offset="1" stop-color="#36393b"/></linearGradient><linearGradient id="k" x1="101.4" x2="101.4" y1="1.94" y2="2.53" gradientUnits="userSpaceOnUse"><stop offset="0" stop-color="#192a3b"/><stop offset=".35" stop-color="#32475d"/><stop offset=".74" stop-color="#667a8e"/><stop offset="1" stop-color="#dbe0e6"/></linearGradient><linearGradient id="aW" x1="110.53" x2="108.67" y1="7.21" y2="9.07" gradientTransform="matrix(2.5112 0 0 2.80298 -390.563 230.18)" gradientUnits="userSpaceOnUse"><stop offset="0" stop-color="#dbe0e6"/><stop offset=".26" stop-color="#667a8e"/><stop offset=".65" stop-color="#32475d"/><stop offset="1" stop-color="#192a3b"/></linearGradient><linearGradient xlink:href="#k" id="aX" x1="117.64" x2="117.64" y1="1.92" y2="2.53" gradientTransform="matrix(2.5112 0 0 2.80298 -390.563 230.18)"/><linearGradient id="aY" x1="109.64" x2="109.64" y1="13.9" y2="25.14" gradientTransform="matrix(2.5112 0 0 2.80298 -390.563 230.18)" gradientUnits="userSpaceOnUse"><stop offset="0" stop-color="#b6c1ca"/><stop offset="1" stop-color="#6c777c"/></linearGradient><linearGradient id="aZ" x1="96.43" x2="96.43" y1=".81" y2="25.33" gradientTransform="matrix(2.5112 0 0 2.80298 -390.563 230.18)" gradientUnits="userSpaceOnUse"><stop offset="0" stop-color="#ddebf6"/><stop offset=".31" stop-color="#dae7f2"/><stop offset=".6" stop-color="#d0dde7"/><stop offset=".89" stop-color="#bfcad4"/><stop offset="1" stop-color="#b6c1ca"/></linearGradient><linearGradient id="ba" x1="147.4" x2="177.09" y1="19.49" y2="2.35" gradientTransform="matrix(2.5112 0 0 2.80298 -390.563 230.18)" gradientUnits="userSpaceOnUse"><stop offset="0" stop-color="#36393b"/><stop offset=".09" stop-color="#2f3133"/><stop offset=".38" stop-color="#1d1f20"/><stop offset=".68" stop-color="#121415"/><stop offset="1" stop-color="#0f1011"/></linearGradient><linearGradient id="l" x1="166.94" x2="166.94" y1=".89" y2="11.88" gradientUnits="userSpaceOnUse"><stop offset=".01" stop-color="#8e969c"/><stop offset="1" stop-color="#ccd8e1"/></linearGradient><linearGradient xlink:href="#l" id="bc" x1="154.63" x2="154.63" y1=".89" y2="12.2" gradientTransform="matrix(2.5112 0 0 2.80298 -390.563 230.18)"/><linearGradient xlink:href="#l" id="bd" x1="142.11" x2="142.11" y1=".85" y2="3.83" gradientTransform="matrix(2.5112 0 0 2.80298 -390.563 230.18)"/><linearGradient id="m" x1="160.86" x2="160.86" y1="14.86" y2="25.09" gradientUnits="userSpaceOnUse"><stop offset=".01" stop-color="#6f777e"/><stop offset="1" stop-color="#535960"/></linearGradient><linearGradient xlink:href="#m" id="bf" x1="147.42" x2="147.42" y1="17.26" y2="25.14" gradientTransform="matrix(2.5112 0 0 2.80298 -390.563 230.18)"/><linearGradient id="bg" x1="155.18" x2="155.18" y1=".91" y2="13.15" gradientTransform="matrix(2.5112 0 0 2.80298 -390.563 230.18)" gradientUnits="userSpaceOnUse"><stop offset=".01" stop-color="#5a6167"/><stop offset="1" stop-color="#373f49"/></linearGradient><linearGradient xlink:href="#k" id="bh" x1="147.63" x2="147.63" y1="2.06" y2="2.65" gradientTransform="matrix(2.5112 0 0 2.80298 -390.563 230.18)"/><linearGradient xlink:href="#k" id="bi" x1="160.59" x2="160.59" y1="2.06" y2="2.5" gradientTransform="matrix(2.5112 0 0 2.80298 -390.563 230.18)"/><linearGradient id="o" x1="154.31" x2="157.57" y1="9.45" y2="9.45" gradientUnits="userSpaceOnUse"><stop offset="0" stop-color="#2c2d32"/><stop offset="1" stop-color="#64676a"/></linearGradient><linearGradient id="n" x1="161.41" x2="161.41" y1="13.48" y2="25.09" gradientUnits="userSpaceOnUse"><stop offset="0" stop-color="#222f38"/><stop offset="1" stop-color="#283943"/></linearGradient><linearGradient id="bl" x1="166.86" x2="166.86" y1="24.69" y2="25.09" gradientTransform="matrix(2.5112 0 0 2.80298 -390.563 230.18)" gradientUnits="userSpaceOnUse"><stop offset="0" stop-color="#283943"/><stop offset="1" stop-color="#222f38"/></linearGradient><linearGradient xlink:href="#n" id="bm" x1="157.88" x2="160.37" y1="19.4" y2="19.4" gradientTransform="matrix(2.5112 0 0 2.80298 -390.563 230.18)"/><linearGradient id="bn" x1="165.28" x2="169.81" y1="3.1" y2="10.94" gradientTransform="matrix(2.5112 0 0 2.80298 -390.563 230.18)" gradientUnits="userSpaceOnUse"><stop offset="0" stop-color="#343a40"/><stop offset=".34" stop-color="#3a3e44"/><stop offset=".78" stop-color="#4a4b4e"/><stop offset="1" stop-color="#545354"/></linearGradient><linearGradient xlink:href="#k" id="bo" x1="173.72" x2="173.72" y1="1.94" y2="2.41" gradientTransform="matrix(2.5112 0 0 2.80298 -390.563 230.18)"/><linearGradient xlink:href="#o" id="bp" x1="166.72" x2="170.02" y1="9.31" y2="9.31" gradientTransform="matrix(2.5112 0 0 2.80298 -390.563 230.18)"/><linearGradient id="bq" x1="122.26" x2="146.86" y1="12.84" y2="12.84" gradientTransform="matrix(2.5112 0 0 2.80298 -390.563 230.18)" gradientUnits="userSpaceOnUse"><stop offset=".14" stop-color="#4e555c"/><stop offset=".58" stop-color="#161513"/></linearGradient><linearGradient id="br" x1="121.95" x2="145.81" y1="6.29" y2="20.07" gradientTransform="matrix(2.5112 0 0 2.80298 -390.563 230.18)" gradientUnits="userSpaceOnUse"><stop offset="0" stop-color="#818a91"/><stop offset=".93" stop-color="#37464e"/><stop offset="1" stop-color="#324149"/></linearGradient><linearGradient id="bu" x1="146.97" x2="121.09" y1="13.11" y2="13.11" gradientTransform="matrix(2.5112 0 0 2.80298 -390.563 230.18)" gradientUnits="userSpaceOnUse"><stop offset="0" stop-color="#7e8790"/><stop offset=".07" stop-color="#7a848d"/><stop offset=".12" stop-color="#6f7982"/><stop offset=".17" stop-color="#616c75"/><stop offset=".2" stop-color="#656f78"/><stop offset=".24" stop-color="#707a82"/><stop offset=".27" stop-color="#838c93"/><stop offset=".3" stop-color="#9ea5aa"/><stop offset=".33" stop-color="#c1c5c9"/><stop offset=".37" stop-color="#ebeced"/><stop offset=".38" stop-color="#fff"/><stop offset=".4" stop-color="#c8ced5"/><stop offset=".43" stop-color="#98a4b0"/><stop offset=".45" stop-color="#708192"/><stop offset=".48" stop-color="#52667a"/><stop offset=".5" stop-color="#3c536a"/><stop offset=".53" stop-color="#2e475f"/><stop offset=".55" stop-color="#2a435c"/><stop offset=".88" stop-color="#3b434d"/><stop offset="1" stop-color="#1e1d1c"/></linearGradient><linearGradient id="bv" x1="146.97" x2="120.9" y1="13.32" y2="13.32" gradientTransform="matrix(2.5112 0 0 2.80298 -390.563 230.18)" gradientUnits="userSpaceOnUse"><stop offset="0" stop-color="#2d3031"/><stop offset=".48" stop-color="#0f1011"/><stop offset=".64" stop-color="#121415"/><stop offset=".79" stop-color="#1d1f20"/><stop offset=".94" stop-color="#2f3133"/><stop offset=".99" stop-color="#36393b"/></linearGradient><linearGradient id="bw" x1="137.26" x2="132.14" y1="9.32" y2="18.19" gradientTransform="matrix(2.5112 0 0 2.80298 -390.563 230.18)" gradientUnits="userSpaceOnUse"><stop offset=".29" stop-color="#76787d"/><stop offset=".34" stop-color="#7a7c81"/><stop offset=".4" stop-color="#85878b"/><stop offset=".45" stop-color="#989a9e"/><stop offset=".5" stop-color="#b3b4b7"/><stop offset=".56" stop-color="#d5d6d7"/><stop offset=".61" stop-color="#fff"/><stop offset=".62" stop-color="#ebeced"/><stop offset=".65" stop-color="#c4c7ca"/><stop offset=".69" stop-color="#a6a9af"/><stop offset=".72" stop-color="#90949b"/><stop offset=".75" stop-color="#82878f"/><stop offset=".78" stop-color="#7e838b"/><stop offset="1" stop-color="#808891"/></linearGradient><linearGradient id="bx" x1="128.77" x2="139.14" y1="13.35" y2="13.35" gradientTransform="matrix(2.5112 0 0 2.80298 -390.563 230.18)" gradientUnits="userSpaceOnUse"><stop offset="0" stop-color="#7e8790"/><stop offset=".08" stop-color="#7a848d"/><stop offset=".15" stop-color="#6f7982"/><stop offset=".2" stop-color="#616c75"/><stop offset=".25" stop-color="#656f78"/><stop offset=".3" stop-color="#707a82"/><stop offset=".35" stop-color="#838c93"/><stop offset=".39" stop-color="#9ea5aa"/><stop offset=".44" stop-color="#c1c5c9"/><stop offset=".48" stop-color="#ebeced"/><stop offset=".5" stop-color="#fff"/><stop offset=".54" stop-color="#c8ced5"/><stop offset=".57" stop-color="#98a4b0"/><stop offset=".61" stop-color="#708192"/><stop offset=".65" stop-color="#52667a"/><stop offset=".68" stop-color="#3c536a"/><stop offset=".71" stop-color="#2e475f"/><stop offset=".74" stop-color="#2a435c"/><stop offset=".88" stop-color="#3b434d"/><stop offset="1" stop-color="#1e1d1c"/></linearGradient><linearGradient xlink:href="#a" id="q" x1="76.73" x2="76.73" y1="21.36" y2="27.65" gradientTransform="matrix(2.5112 0 0 2.80298 -204.976 123.968)" gradientUnits="userSpaceOnUse"/><linearGradient xlink:href="#b" id="C" x1="70.99" x2="70.99" y1=".37" y2="22.72" gradientTransform="matrix(2.5112 0 0 2.80298 -204.976 123.968)" gradientUnits="userSpaceOnUse"/><linearGradient id="K" x1="47.4" x2="68.69" y1="6.26" y2="27.56" gradientTransform="matrix(2.5112 0 0 2.80298 -204.976 123.968)" gradientUnits="userSpaceOnUse"><stop offset="0" stop-color="#880101"/><stop offset=".23" stop-color="#970102"/><stop offset=".66" stop-color="#bd0106"/><stop offset=".91" stop-color="#d70109"/></linearGradient><linearGradient xlink:href="#c" id="M" x1="62.97" x2="62.83" y1="17.27" y2="17.27" gradientTransform="matrix(2.5112 0 0 2.80298 -204.976 123.968)" gradientUnits="userSpaceOnUse"/><linearGradient xlink:href="#d" id="Q" x1="62.65" x2="62.65" y1="1.03" y2="33.41" gradientTransform="matrix(2.5112 0 0 2.80298 -204.976 123.968)" gradientUnits="userSpaceOnUse"/><linearGradient xlink:href="#e" id="aa" x1="32.57" x2="41.34" y1="9.95" y2="9.95" gradientTransform="matrix(2.5112 0 0 2.80298 -204.976 123.968)" gradientUnits="userSpaceOnUse"/><linearGradient xlink:href="#f" id="ac" x1="45.87" x2="54.57" y1="9.95" y2="9.95" gradientTransform="matrix(2.5112 0 0 2.80298 -204.976 123.968)" gradientUnits="userSpaceOnUse"/><linearGradient xlink:href="#g" id="ah" x1="37.23" x2="37.23" y1="10.27" y2="10.94" gradientTransform="matrix(2.5112 0 0 2.80298 -204.976 123.968)" gradientUnits="userSpaceOnUse"/><linearGradient xlink:href="#h" id="an" x1="14" x2="37.32" y1="21.93" y2="21.93" gradientTransform="matrix(2.5112 0 0 2.80298 -204.976 123.968)" gradientUnits="userSpaceOnUse"/><linearGradient xlink:href="#i" id="aI" x1="7.6" x2="7.6" y1="10.1" y2="10.87" gradientTransform="matrix(2.5112 0 0 2.80298 -204.976 123.968)" gradientUnits="userSpaceOnUse"/><linearGradient xlink:href="#j" id="aN" x1="6.1" x2="7.37" y1="29.41" y2="29.41" gradientTransform="matrix(2.5112 0 0 2.80298 -204.976 123.968)" gradientUnits="userSpaceOnUse"/><linearGradient xlink:href="#k" id="aV" x1="101.4" x2="101.4" y1="1.94" y2="2.53" gradientTransform="matrix(2.5112 0 0 2.80298 -390.563 230.18)" gradientUnits="userSpaceOnUse"/><linearGradient xlink:href="#l" id="bb" x1="166.94" x2="166.94" y1=".89" y2="11.88" gradientTransform="matrix(2.5112 0 0 2.80298 -390.563 230.18)" gradientUnits="userSpaceOnUse"/><linearGradient xlink:href="#m" id="be" x1="160.86" x2="160.86" y1="14.86" y2="25.09" gradientTransform="matrix(2.5112 0 0 2.80298 -390.563 230.18)" gradientUnits="userSpaceOnUse"/><linearGradient xlink:href="#o" id="bj" x1="154.31" x2="157.57" y1="9.45" y2="9.45" gradientTransform="matrix(2.5112 0 0 2.80298 -390.563 230.18)" gradientUnits="userSpaceOnUse"/><linearGradient xlink:href="#n" id="bk" x1="161.41" x2="161.41" y1="13.48" y2="25.09" gradientTransform="matrix(2.5112 0 0 2.80298 -390.563 230.18)" gradientUnits="userSpaceOnUse"/><g stroke-width="2.653"><path fill="url(#p)" d="M-42.778 193.566H-20c0 4.233 0 6.923.176 8.017a3.49 3.896 0 0 0 1.38 2.803 5.022 5.606 0 0 0 3.29 1.12 4.143 4.625 0 0 0 2.863-1.064 3.54 3.952 0 0 0 1.281-2.803c0-1.122.15-3.392.15-6.784v-14.49a11.074 12.361 0 0 1-5.022 5.605 19.462 21.723 0 0 1-8.412 1.822 20.316 22.676 0 0 1-11.05-3.364 13.335 14.884 0 0 1-6.077-8.1 39.752 44.371 0 0 1-1.305-12.754v-7.372a78.35 87.453 0 0 1 .753-14.21 15.62 17.435 0 0 1 3.917-8.606 20.391 22.76 0 0 1 8.74-6.166 39.1 43.642 0 0 1 12.932-2.187 42.264 47.174 0 0 1 15.067 2.523 20.09 22.424 0 0 1 9.066 7.288 17.578 19.62 0 0 1 3.716 9.978q.528 5.214.528 20.21v12.641c0 10.82-.151 18.08-.452 21.723a17.578 19.62 0 0 1-3.918 10.371 20.918 23.349 0 0 1-9.392 7.316 39.451 44.035 0 0 1-13.71 2.467 38.12 42.55 0 0 1-15.821-3.084 17.73 19.789 0 0 1-8.79-8.689 26.619 29.712 0 0 1-2.687-14.21M-20 165.2c0 3.812.502 6.195 1.482 7.091a5.022 5.606 0 0 0 3.088 1.346 3.993 4.457 0 0 0 3.466-1.71 11.35 12.67 0 0 0 1.105-6.727v-16.454a15.218 16.986 0 0 0-1.055-7.96 3.792 4.232 0 0 0-3.465-1.85 5.022 5.606 0 0 0-3.039 1.43Q-20 141.796-20 148.102z" transform="matrix(1.0774 0 0 1 220.842 -124.298)"/><path fill="#860101" d="m199.374 70.474-23.918-.028v-.813l23.918.028z"/><path fill="#878d94" d="M199.374 69.661h-23.972l-.54-.533L199.4 69.1z"/><path fill="#0f1112" d="M174.401 68.82h25.27v.336h-25.27zm33.495 8.577a2.95 3.055 0 0 1-.92 1.99 4.654 4.821 0 0 1-1.434.87 7.17 7.428 0 0 1-3.814-.337 3.896 4.036 0 0 1-2.03-2.803 4.572 4.737 0 0 1 0-.673c0-.224-.243 0-.189.757a3.544 3.672 0 0 0 2.056 3.055 8.496 8.801 0 0 0 2.706.841 4.627 4.793 0 0 0 3.328-1.205 4.194 4.345 0 0 0 1.19-2.803V56.095l-.893 1.43z"/><path fill="url(#q)" d="M-11.965 201.47h-.603l-.05-17.042.577-.588z" transform="matrix(1.0774 0 0 1 220.842 -124.298)"/><path fill="url(#r)" d="M-19.75 193.118v7.287a3.968 4.429 0 0 0 4.018 4.57 4.068 4.54 0 0 0 2.938-1.01 3.39 3.784 0 0 0 .804-2.579h-.578a2.913 3.251 0 0 1-.728 2.13 3.817 4.26 0 0 1-2.511.87c-.277 0-3.466-.337-3.49-3.448v-8.409z" transform="matrix(1.0774 0 0 1 220.842 -124.298)"/><path fill="url(#s)" d="m-19.75 193.118-24.032-.028v-.645l24.534-.028z" transform="matrix(1.0774 0 0 1 220.842 -124.298)"/><path fill="#0f1112" d="M199.347 77.37h.216v-8.55l-.19.308z"/><path fill="url(#t)" d="M-12.543 201.274c0 3.98-3.892 3.027-3.892 3.027a2.888 3.223 0 0 0 2.11-2.999v-15.388l1.757-1.514s0 13.399.025 16.874" transform="matrix(1.0774 0 0 1 220.842 -124.298)"/><path fill="#860101" d="M210.52 77.257a5.411 5.606 0 0 1-5.952 5.158 5.411 5.606 0 0 1-5.979-4.934V70.39l.812-.701v6.447c0 2.523 1.46 4.765 5.411 4.765 1.326 0 4.518-1.121 4.491-3.644 0 0-.27-21.78 0-22.284s1.353-3.307 1.353-3.307-.135 24.61-.135 25.591"/><path fill="url(#v)" d="M-16.234 206.684c.929.196 6.68 0 6.705-5.382v-25.226l.401-1.346v26.684c.026 6.896-8.06 5.046-7.106 5.27" transform="matrix(1.0774 0 0 1 220.842 -124.298)"/><path fill="url(#w)" d="M-11.212 201.61a3.892 4.345 0 0 1-3.566 3.644s3.993-.168 3.993-3.643v-22.34l-.377 1.121s-.025 20.854-.05 21.219" transform="matrix(1.0774 0 0 1 220.842 -124.298)"/><path fill="#45494e" d="M233.951 69.745c0 27.75-28.733 26.544-28.733 26.544v-1.233s28.002 1.177 27.921-25.227V23.916a20.021 20.742 0 0 0-6.71-16.397c-1.38-1.317-7.846-6.307-21.563-6.755a1.705 1.766 0 0 1 0-.757c19.697.729 28.814 9.642 28.977 23.937z"/><path fill="#0f1111" d="M175.05 73.445a25.757 26.684 0 0 0 2.706 10.371 23.376 24.218 0 0 0 5.411 6.25c7.495 5.607 21.943 5.102 21.943 5.102v1.233s-14.502 1.178-22.592-5.886a24.35 25.227 0 0 1-5.168-6.054 17.749 18.388 0 0 1-2.3-5.606 31.628 32.767 0 0 1-.811-5.382v-4.597h.703z"/><path fill="url(#x)" d="M-26.957 219.41a21.27 23.741 0 0 1-14.49-9.194c-4.294-6.475-3.842-17.379-3.842-17.379l1.532-.392s-1.155 10.988 3.792 17.995a23.38 26.096 0 0 0 13.008 8.97" transform="matrix(1.0774 0 0 1 220.842 -124.298)"/><path fill="url(#y)" d="M-4.708 217.98s-15.067 5.27-28.301-2.803a16.926 18.892 0 0 1-8.187-11.212 28.427 31.73 0 0 1-.954-10.09h1.03a22.3 24.89 0 0 0 3.164 14.771c8.287 14.744 33.248 9.334 33.248 9.334" transform="matrix(1.0774 0 0 1 220.842 -124.298)"/><path fill="url(#z)" d="M-23.994 218.849a20.843 23.265 0 0 1-16.448-11.52 20.491 22.872 0 0 1-1.683-5.606 26.77 29.88 0 0 1-.351-2.971v-5.242l.401.477a43.645 48.716 0 0 0 .327 7.287 23.003 25.675 0 0 0 .628 2.803 20.617 23.012 0 0 0 1.933 4.765 18.231 20.35 0 0 0 4.094 4.821 28.829 32.178 0 0 0 11.1 5.186" transform="matrix(1.0774 0 0 1 220.842 -124.298)"/><path fill="url(#A)" d="M-15.556 172.992c-.15 0 1.18.365 1.13-4.849v-21.751c0-5.298-3.792-4.457-3.792-4.457.527-1.57 5.75-2.999 5.826 3.14v23.124c0 5.746-3.164 4.793-3.164 4.793" transform="matrix(1.0774 0 0 1 220.842 -124.298)"/><path fill="#101213" d="M208.79 43.621a8.712 9.026 0 0 1-.785 3.252 3.869 4.008 0 0 1-2.49 2.13 8.117 8.409 0 0 0 1.813-2.018 9.09 9.418 0 0 0 .46-3.364V20.805s0-4.905-3.68-4.933-4.68 3.868-4.734 5.073c0 0 0-6.363 5.194-6.054 4.383.28 4.221 5.886 4.221 5.886z"/><path fill="#3f4142" d="M209.25 43.79a5.005 5.186 0 0 1-5.033 5.858 4.004 4.148 0 0 1-1.759-.449c-2.164-1.065-2.164-2.13-2.164-2.13a4.464 4.625 0 0 0 2.949 1.878c4.437.869 5.41-3.364 5.41-5.158v-22.9s0-5.858-4.328-5.914c-5.032 0-5.06 5.914-5.06 5.914s-.46-6.307 5.06-6.25c4.87 0 4.843 5.605 4.843 5.605s.054 22.116.081 23.545"/><path fill="#950101" d="M210.575 42.92v2.271a5.763 5.97 0 0 1-2.246 4.176 6.602 6.84 0 0 1-3.706 1.178l-1.218-1.178c4.572.393 5.79-3.027 5.736-6.446V20.076h1.326z"/><path fill="#8a0101" d="M199.4 43.425h-1.108v-21.33a14.312 14.828 0 0 1 1.352-6.335 5.411 5.606 0 0 1 5.168-2.467 5.763 5.97 0 0 1 4.356 2.186 14.718 15.248 0 0 1 1.407 6.11h-1.353s0-6.754-4.762-6.81a4.627 4.793 0 0 0-4.248 1.962 10.038 10.399 0 0 0-.811 5.353z"/><path fill="#b3bcbd" d="M207.842 44.014c0 3.616-1.407 5.381-4.085 5.381-4.14 0-4.41-5.101-4.41-7.231h.568c0 4.232 1.704 6.39 4.031 6.447 2.327.056 3.22-1.346 3.382-4.513V20.385s0-4.093-3.571-4.037-3.788 4.12-3.788 4.513v2.55h-.541V20.61c0-.42.622-4.821 4.383-4.793 3.76.028 4.058 4.625 4.058 4.625z"/><path fill="#b3bcbd" d="m199.915 42.248-.568-.084V22.907h.568z"/><path fill="#880101" d="M176.81 44.518a19.128 19.817 0 0 0 3.03 10.54 25.54 26.46 0 0 0 9.767 7.4 17.343 17.967 0 0 1-10.823-6.616 17.153 17.77 0 0 1-3.463-11.492V23.216c0-24.162 27.922-22.424 27.922-22.424s-26.407-1.738-26.38 22.676z"/><path fill="#bc0107" d="M211.035 44.518a5.573 5.774 0 0 1-6.277 6.167 5.898 6.11 0 0 0 5.79-6.167V20.581c0-7.512-5.411-7.344-5.411-7.344s5.681-1.093 5.898 7.344z"/><path fill="#151617" d="M175.267 45.667a17.18 17.799 0 0 0 11.147 15.837c15.34 5.606 22.294-4.961 22.294-4.961l-.379 1.99s-8.117 9.334-22.158 3.896a17.505 18.135 0 0 1-11.77-17.686V23.524C174.293-1.927 205.083.035 205.083.035v.757s-30.06-2.27-29.762 22.424z"/><path fill="url(#B)" d="m-15.23 173.693.502 1.15a6.002 6.7 0 0 1-4.796-2.103 8.739 9.754 0 0 1-1.406-5.101l.98-.42c.401 7.427 5.222 6.446 4.72 6.474" transform="matrix(1.0774 0 0 1 220.842 -124.298)"/><path fill="url(#C)" d="M-42.175 165.592c0 9.278 2.511 14.015 5.675 17.042a20.918 23.349 0 0 0 15.82 4.037 17.578 19.62 0 0 0 9.87-7.4l-.276 1.373a17.051 19.032 0 0 1-18.759 6.083 16.197 18.08 0 0 1-12.757-18.64v-20.013c0-25.48 27.975-22.985 27.975-22.985s-27.623-1.878-27.623 23.069z" transform="matrix(1.0774 0 0 1 220.842 -124.298)"/><path fill="url(#D)" d="M-45.163 170.33c.276 10.79 5.5 14.014 6.78 14.827a21.27 23.741 0 0 0 16.072 3.868 26.142 29.179 0 0 1-14.69-4.625c-6.078-4.288-6.656-13.734-6.68-16.145-.026-2.41 0-11.856 0-20.125a19.788 22.087 0 0 1 5.248-15.977 20.592 22.984 0 0 0-6.705 16.089z" transform="matrix(1.0774 0 0 1 220.842 -124.298)"/><path fill="url(#E)" d="M-9.554 147.093h-1.23v-2.187l1.23-.028z" transform="matrix(1.0774 0 0 1 220.842 -124.298)"/><path fill="url(#G)" d="M-13.321 125.117h-4.043c.175 0 0-.728 0-.728h4.193z" transform="matrix(1.0774 0 0 1 220.842 -124.298)"/><path fill="url(#H)" d="M-13.196 220.699s-2.134.14-3.817 0v-1.093h3.692z" transform="matrix(1.0774 0 0 1 220.842 -124.298)"/><path fill="url(#I)" d="M-22.864 220.166s-22.425-.756-20.918-27.076l.678-.337c-1.432 25.704 20.24 27.413 20.24 27.413" transform="matrix(1.0774 0 0 1 220.842 -124.298)"/><path fill="url(#J)" d="M-12.066 183.167v.673a15.067 16.818 0 0 1-10.27 5.185c-6.756.56-19.688-2.354-21.37-17.602-.277-2.495 0-25.087 0-25.087a18.834 21.022 0 0 1 5.222-14.183c6.153-7.54 18.207-7.624 18.207-7.624a31.44 35.093 0 0 0-16.223 6.503 19.135 21.359 0 0 0-6.68 15.36s-.15 22.564 0 24.75c1.432 14.015 13.385 18.248 21.32 17.154a16.448 18.36 0 0 0 9.794-5.129" transform="matrix(1.0774 0 0 1 220.842 -124.298)"/><path fill="url(#K)" d="M-47.172 126.771v90.817H-69.95v-48.772a67.4 75.232 0 0 0-.502-12.698 4.344 4.85 0 0 0-2.788-3.223 32.219 35.962 0 0 0-10.17-1.093h-2.26v-10.596q16.549-3.56 25.087-14.435z" transform="matrix(1.0774 0 0 1 220.842 -124.298)"/><path fill="url(#L)" d="M-70.979 162.2h-1.03l.076 56.705h1.03z" transform="matrix(1.0774 0 0 1 220.842 -124.298)"/><path fill="#919ca7" d="M154.84 1.605h15.882v.392H154.84z"/><path fill="#919ca7" d="M170.37 94.607h.514l-.081-93.002h-.46z"/><path fill="#919ca7" d="M143.341 94.159h27.57v.448h-27.57z"/><path fill="#0e1011" d="M145.506 39.08h-.568v55.08l.595-.869z"/><path fill="#929ba2" d="m144.965 40.258-.596.028v53.929l.596-.028z"/><path fill="url(#M)" d="m-47.197 126.855.351-.588v92.19l-.326-.87z" transform="matrix(1.0774 0 0 1 220.842 -124.298)"/><path fill="url(#O)" d="m-46.846 218.457-23.58.028.527-.897h22.702z" transform="matrix(1.0774 0 0 1 220.842 -124.298)"/><path fill="url(#Q)" d="M-48.101 126.855h.904v90.76h-.904z" transform="matrix(1.0774 0 0 1 220.842 -124.298)"/><path fill="#860101" d="M147.21 92.14h21.834l.92 1.15h-24.08z"/><path fill="#0e1011" d="M145.722 39.865h.163V93.29h-.163z"/><path fill="#423130" d="M145.533 39.837h.243V93.29h-.243z"/><path fill="#860101" d="M146.75 33.082a12.851 13.314 0 0 0-.514-2.27 5.411 5.606 0 0 0-1.812-2.523 9.334 9.67 0 0 0-5.763-2.018h-9.632v1.29s8.604.252 9.605.364c4.301.616 5.41 2.186 5.41 2.186s1.191.925 1.354 4.176v1.542l.514 16.454V93.29h1.488V52.17l-.541-16.817v-2.355z"/><path fill="#860101" d="M129.976 27.476h-1.001V17.05l.974.869z"/><path fill="#860101" d="M156.193 3.315a40.34 41.792 0 0 1-10.687 8.66 97.969 101.496 0 0 1-16.531 6.251v-1.12a65.313 67.664 0 0 0 15.313-5.298 41.07 42.55 0 0 0 11.445-9.334z"/><path fill="url(#R)" d="m-48.101 127.64-11.929-.028-.427-.757h13.26z" transform="matrix(1.0774 0 0 1 220.842 -124.298)"/><path fill="#515d6a" d="m155.408 2.193 14.8.028.108-.168h-15.124z"/><path fill="#293240" d="m170.127 2.361-14.665-.028-.054-.14 14.8.028z"/><path fill="#97a4ae" d="M155.192 2.053h15.124l.054-.084h-15.314z"/><path fill="#5a454e" d="m169.991 2.558-14.312.028-.136-.253h14.584z"/><path fill="#5f666c" d="m128.055 28.12-.487.73V16.264l.487.393z"/><path fill="#242c36" d="m127.622 28.766-.704.672-.054-11.744.704-1.43z"/><path fill="#101212" d="M128.055 16.657h.487V28.12h-.487z"/><path fill="#3f4142" d="M128.542 16.853h.433v10.651h-.433z"/><path fill="url(#S)" d="M-61.26 125.874a31.641 35.318 0 0 1-11.05 9.586 62.228 69.458 0 0 1-14.263 5.102l.452.392a67.627 75.484 0 0 0 14.038-5.073 38.095 42.521 0 0 0 11.2-9.53z" transform="matrix(1.0774 0 0 1 220.842 -124.298)"/><path fill="#3f4142" d="M155.733 2.474a38.88 40.279 0 0 1-10.579 8.773 67.044 69.458 0 0 1-16.233 5.774l-.406-.28a64.934 67.271 0 0 0 14.88-4.85 38.5 39.886 0 0 0 12.04-9.67z"/><path fill="#101212" d="M144.938 39.165a26.325 27.273 0 0 0-.947-8.41c-1.028-2.214-4.627-2.802-5.682-2.802h-9.93v-.505h9.632c7.251.673 7.332 5.466 7.387 6.475.054 1.01 0 5.242 0 5.242z"/><path fill="#242c36" d="M126.891 29.41h12.094a4.058 4.204 0 0 1 3.004 1.374 14.123 14.632 0 0 1 1.406 7.147h1.11a12.743 13.202 0 0 0-1.137-7.147 6.331 6.559 0 0 0-4.572-1.99H127.73z"/><path fill="url(#T)" d="M-70.979 164.583v-5.101a6.856 7.652 0 0 0-1.456-4.681 6.404 7.148 0 0 0-4.144-1.598h-10.044l.401-.672h9.493a5.776 6.447 0 0 1 6.177 7.4v4.792z" transform="matrix(1.0774 0 0 1 220.842 -124.298)"/><path fill="#101212" d="M155.192 1.97a35.551 36.831 0 0 1-10.823 8.885 67.64 70.074 0 0 1-16.45 5.802l.433.252a62.796 65.057 0 0 0 15.91-5.606 37.878 39.242 0 0 0 11.227-9.026z"/><path fill="url(#U)" d="m-68.216 218.036-17.68-33.748 16.073-31.59h-19.06l-6.504 13.035-6.504-13.174-19.362.14 16.147 31.59-17.176 33.887h19.085l7.634-15.472 7.358 15.304z" transform="matrix(1.0774 0 0 1 220.842 -124.298)"/><path fill="#7e858c" d="m110.171 94.355.406.729 7.44-14.043v-1.15z"/><path fill="#7e858c" d="m124.619 95.084.784-.729-7.386-14.463-.297 1.766z"/><path fill="#101112" d="m125.89 93.626-.487.73-7.44-14.576v-1.458z"/><path fill="#101112" d="m110.171 94.355-.433-.56 8.225-15.473.108 1.514z"/><path fill="url(#V)" d="M-67.061 218.653h-22.25v.729h22.903z" transform="matrix(1.0774 0 0 1 220.842 -124.298)"/><path fill="#101112" d="m109.82 93.626.351.73H88.066l1.19-.73z"/><path fill="url(#W)" d="M-102.72 218.653h-20.517l-1.18.729h22.074z" transform="matrix(1.0774 0 0 1 220.842 -124.298)"/><path fill="url(#Y)" d="m-123.237 218.653-1.18.729 17.754-34.673.88-.365z" transform="matrix(1.0774 0 0 1 220.842 -124.298)"/><path fill="#101112" d="m89.04 94.075-.974.28 18.804-34.56.785.112z"/><path fill="#101112" d="m107.655 59.907-.92.336-17.586-32.29h.92z"/><path fill="#5d6368" d="m106.68 60.103-.865.476-17.694-33.383h.676z"/><path fill="url(#aa)" d="M-101.49 152.25h-21.069l-.628-.757h22.024z" transform="matrix(1.0774 0 0 1 220.842 -124.298)"/><path fill="#101112" d="M111.497 27.953H89.852v.14l21.51.028z"/><path fill="url(#ab)" d="M-101.841 152.755h-19.286l-.176-.365 19.688.028z" transform="matrix(1.0774 0 0 1 220.842 -124.298)"/><path fill="#252a31" d="m105.815 60.58-.433.7-17.207-32.767-.054-1.317z"/><path fill="#494f54" d="m118.125 39.08-.189 1.066-6.44-12.193.352-.757z"/><path fill="#12171b" d="m118.125 40.426-.08 1.065-6.927-13.034.379-.504z"/><path fill="#494f54" d="M117.936 40.146v-1.402l6.169-11.548.514.645z"/><path fill="#12171b" d="m118.044 41.491-.27-1.065 6.79-12.473h.785z"/><path fill="url(#ac)" d="M-68.769 152.25h-20.968l-.05-.757h21.847z" transform="matrix(1.0774 0 0 1 220.842 -124.298)"/><path fill="#12171b" d="M124.565 27.953h21.915v.168h-21.915z"/><path fill="url(#ae)" d="M-69.874 152.755h-19.01l.126-.337h19.06z" transform="matrix(1.0774 0 0 1 220.842 -124.298)"/><path fill="#12171b" d="m128.38 59.907.514.392 17.748-32.346h-.784z"/><path fill="url(#af)" d="M-84.564 184.456h-.703l16.775-32.963h.552z" transform="matrix(1.0774 0 0 1 220.842 -124.298)"/><path fill="url(#ag)" d="M-66.408 219.382h-.502l-18.357-34.926h.703z" transform="matrix(1.0774 0 0 1 220.842 -124.298)"/><path fill="#12171b" d="m147.616 93.99.73.365-19.371-34.196-.596-.252z"/><path fill="#12171b" d="M148.347 94.355h-22.944l.487-.729h21.51z"/><path fill="url(#ah)" d="M-103.097 154.633h-15.57l-2.46-1.878h19.286z" transform="matrix(1.0774 0 0 1 220.842 -124.298)"/><path fill="url(#aj)" d="M-72.385 154.633h-15.318l-1.18-1.878H-69.9z" transform="matrix(1.0774 0 0 1 220.842 -124.298)"/><path fill="url(#ak)" d="m-95.337 167.19-6.956-13.763.452-.672 6.428 13.034z" transform="matrix(1.0774 0 0 1 220.842 -124.298)"/><path fill="#d1d8df" d="M118.125 42.893v1.205l-7.819-14.52.325-.448z"/><path fill="#b3b3b4" d="M118.125 44.098v-1.205l7.414-13.763.405.589z"/><path fill="#f4fdff" d="m118.125 42.893-.08-1.402 7.034-13.034.46.673zm-.08 2.83v-1.681l7.9-14.323.405.616z"/><path fill="#f4fdff" d="m118.125 44.098-.08 1.626-8.28-15.389.541-.757z"/><path fill="#fff" d="M126.81 59.907H126l15.719-29.572h.676z"/><path fill="url(#al)" d="M-102.595 184.204h-1.23l-14.841-29.571h1.004z" transform="matrix(1.0774 0 0 1 220.842 -124.298)"/><path fill="#f8f9f8" d="M92.017 92.253h-.487l17.83-32.346h.567zm-1.84 1.373h-.92l18.398-33.72h1.082z"/><path fill="#b8b8bc" d="M108.98 59.907h-1.325l-17.316-31.45 2.652 1.878z"/><path fill="#b3b3b3" d="m91.53 92.253-1.353 1.373 18.56-33.72h.622z"/><path fill="#bababd" d="M109.846 93.626H89.473l2.814-1.878h16.044z"/><path fill="#bababd" d="m109.82 93.626-.84-1.093 9.037-17.154-.027 2.915z"/><path fill="#b3b3b3" d="M92.287 91.748h.352l17.694-31.841h-.406z"/><path fill="#bababd" d="m108.304 91.748.27.337 9.47-17.687-.027-.785zm18.723.87-1.137 1.008-7.927-15.304.054-2.943z"/><path fill="#fff" d="m145.235 92.421-1.407-.673-17.83-31.841h.812z"/><path fill="#fafeff" d="m127.92 91.776-.893.841-8.956-17.21v-2.074z"/><path fill="url(#am)" d="m-68.166 217.924-1.456-.925-17.102-32.795h.904z" transform="matrix(1.0774 0 0 1 220.842 -124.298)"/><path fill="#bac1c8" d="m145.939 92.73-.704-.309-18.425-32.514h.595z"/><path fill="#b8b9be" d="M128.38 59.907h-1.57l15.53-29.516 3.22-1.934z"/><path fill="#babbbe" d="M147.4 93.626h-21.51l2.03-1.85 15.908-.028z"/><path fill="#d7dfe6" d="m108.98 92.533-.405-.448 9.47-17.687-.028.981z"/><path fill="url(#an)" d="M-140.539 151.998a29.582 33.02 0 0 0-29.28 33.44 29.28 32.683 0 1 0 58.56 0 29.582 33.02 0 0 0-29.28-33.44m0 52.64a5.022 5.606 0 0 1-5.022-5.606v-27.413a5.223 5.83 0 0 1 5.022-5.943 5.424 6.054 0 0 1 5.274 5.943v27.413a5.148 5.746 0 0 1-5.199 5.69z" transform="matrix(1.0774 0 0 1 220.842 -124.298)"/><path fill="#1a1b1a" d="M69.425 28.457A31.25 32.374 0 0 0 38.5 61.14a30.925 32.038 0 1 0 61.85 0 31.25 32.374 0 0 0-30.925-32.683m0 51.575a5.411 5.606 0 0 1-5.249-5.606V47.714a5.411 5.606 0 0 1 5.222-5.802 5.709 5.914 0 0 1 5.411 5.802v26.852a5.411 5.606 0 0 1-5.303 5.466z"/><path fill="url(#ao)" d="M-140.539 153.26a28.427 31.73 0 0 0-28.125 32.037 28.126 31.393 0 1 0 56.25 0 28.427 31.73 0 0 0-28.125-32.038m0 50.453a4.822 5.382 0 0 1-4.771-5.438v-26.152a5.022 5.606 0 0 1 4.771-5.606 5.198 5.802 0 0 1 5.022 5.606v26.32a5.022 5.606 0 0 1-4.947 5.382z" transform="matrix(1.0774 0 0 1 220.842 -124.298)"/><path fill="#1a1b1a" d="M67.802 75.043h-1.055v-27.89l1.055.589z"/><path fill="url(#ap)" d="m-137.048 199.032-.804.028.05-27.974.754.449z" transform="matrix(1.0774 0 0 1 220.842 -124.298)"/><path fill="#1a1b1a" d="m73.186 74.846.46-.476-.054-27.189-.406-.7z"/><path fill="url(#aq)" d="M-135.34 199.649a6.88 7.68 0 0 1-1.03 3.167 5.349 5.97 0 0 1-3.767 1.822 5.65 6.307 0 0 1-5.173-2.186 6.203 6.923 0 0 1-.88-3.869l1.86.645a2.335 2.607 0 0 0 1.48 2.803 7.534 8.409 0 0 0 2.838.813 4.42 4.933 0 0 0 2.034-.757 3.892 4.345 0 0 0 1.357-2.803z" transform="matrix(1.0774 0 0 1 220.842 -124.298)"/><path fill="#a5afb6" d="M66.043 73.922a4.464 4.625 0 0 0 .217 1.765 3.977 4.12 0 0 0 3.76 2.075 2.976 3.083 0 0 0 2.706-1.57 4.004 4.148 0 0 0 .433-1.458h-.866a2.354 2.439 0 0 1-.46 1.514 1.975 2.046 0 0 1-1.786.813 3.68 3.812 0 0 1-2.705-.981 2.38 2.467 0 0 1-.46-1.514z"/><path fill="#1a1b1a" d="m66.07 75.38-.784-.393V46.76h.757z"/><path fill="url(#ar)" d="M-139.886 202.06v.644a5.625 6.279 0 0 1-3.013-.813 2.511 2.803 0 0 1-1.457-2.803c0-.729.678-.925.703-.533a2.662 2.971 0 0 0 1.13 2.803 6.052 6.755 0 0 0 2.637.701" transform="matrix(1.0774 0 0 1 220.842 -124.298)"/><path fill="#1a1b1a" d="M70.074 77.005a4.356 4.513 0 0 1-2.38-.701 2.192 2.27 0 0 1-.758-1.794h.866a2.706 2.803 0 0 0 .433 1.29 3.247 3.364 0 0 0 1.84 1.205m.054 1.401v-.644a3.382 3.504 0 0 0 2.138-.841 3.653 3.784 0 0 0 1.028-2.187.541.56 0 0 1 .46-.504 3.842 3.98 0 0 1-1.001 2.999 4.058 4.204 0 0 1-2.625 1.177"/><path fill="#b6b8bc" d="M64.69 75.351a4.004 4.148 0 0 0 .541 1.934 6.223 6.447 0 0 0 1.597 1.71 6.737 6.98 0 0 1-1.894-1.402 4.897 5.073 0 0 1-.595-.98 2.95 3.055 0 0 1-.217-1.234V46.23l.677.167z"/><path fill="#b6b8bc" d="M63.392 75.743h-.487V46.032a5.249 5.438 0 0 1 2.38-3.364 8.117 8.409 0 0 1 3.653-.953l-5.546 4.962z"/><path fill="#b5b5b6" d="M74.917 75.351a4.085 4.232 0 0 1-.947 2.326 5.411 5.606 0 0 1-2.083 1.626 10.822 11.212 0 0 0 1.678-1.878 6.06 6.279 0 0 0 .676-2.074 7.25 7.512 0 0 1-.433 1.065 6.791 7.035 0 0 1-.947 1.177 3.463 3.588 0 0 0 .622-1.205 4.735 4.905 0 0 0 .163-1.682V47.125l-3.301-1.654-6.142.981a4.87 5.045 0 0 1 5.411-4.737 5.411 5.606 0 0 1 5.412 5.438z"/><path fill="url(#as)" d="M-145.561 199.144h-.578v-27.693a4.57 5.101 0 0 1 .352-2.019 6.027 6.727 0 0 1 1.783-2.158 6.604 7.372 0 0 0-1.356 2.495 6.655 7.428 0 0 0-.201 1.317z" transform="matrix(1.0774 0 0 1 220.842 -124.298)"/><path fill="#fdffff" d="M74.863 47.153a5.709 5.914 0 0 0-5.41-5.438 7.332 7.596 0 0 0-6.63 4.317 6.033 6.25 0 0 1 6.791-5.298 5.79 5.998 0 0 1 5.817 5.774z"/><path fill="url(#at)" d="M-144.33 199.649h-.604V171.17a3.089 3.448 0 0 1 1.457-2.634 4.746 5.298 0 0 1 4.294-.477 7.935 8.857 0 0 0-3.993.897 3.265 3.644 0 0 0-1.205 2.102z" transform="matrix(1.0774 0 0 1 220.842 -124.298)"/><path fill="#c5c2bf" d="M75.486 74.846h-.623v-28.45a5.573 5.774 0 0 0-.324-1.738 5.925 6.139 0 0 0-.947-1.765s.947 1.149 1.325 1.765a4.329 4.485 0 0 1 .569 1.738z"/><path fill="#1a1b1a" d="M73.186 47.321a3.68 3.812 0 0 0-7.143-.168s-.757 0-.757-.308a3.869 4.008 0 0 1 4.247-3.168 3.734 3.868 0 0 1 4.059 3.644c0 .168-.406 0-.406 0"/><path fill="#72787c" d="M72.374 47.321s0-2.242-2.705-2.242-2.706 2.074-2.706 2.074-.866.28-.866.168v-.308c0-.673.73-2.803 3.626-2.803a3.247 3.364 0 0 1 3.463 3.111c0 .196-.812 0-.812 0"/><path fill="url(#au)" d="M-137.802 171.619s.126-1.177-2.184-1.037a2.511 2.803 0 0 0-2.035 2.158 8.212 9.166 0 0 1-.828-.897c0-.168-.302-2.55 2.511-2.495a2.26 2.523 0 0 1 2.536 2.27" transform="matrix(1.0774 0 0 1 220.842 -124.298)"/><path fill="url(#av)" d="m-142.85 199.34-.803-.196-.025-.7v-27.19l.829-.084z" transform="matrix(1.0774 0 0 1 220.842 -124.298)"/><path fill="#b8b9bb" d="M98.158 50.91a51.65 53.509 0 0 1 1.461 14.014 28.22 29.235 0 0 1-3.842 11.492s-8.116 16.818-26.352 16.818a29.761 30.833 0 0 1-22.05-10.063 33.062 34.252 0 0 1-6.656-11.688A29.355 30.412 0 0 1 39.123 61a29.572 30.637 0 0 1 2.949-13.679 13.23 13.707 0 0 1 3.923-4.232 36.552 37.868 0 0 0-5.411 18.023 33.847 35.065 0 0 0 5.032 16.65 29.761 30.833 0 0 0 24.54 13.454 27.326 28.31 0 0 0 23.646-14.688 30.573 31.674 0 0 0 3.599-12.697 33.387 34.589 0 0 0-4.546-19.621z"/><path fill="url(#aw)" d="M-122.107 164.303a27.422 30.609 0 0 0-17.98-8.998 26.619 29.712 0 0 0-15.595 5.382 35.71 39.858 0 0 0-11.426 14.015 27.9 31.141 0 0 1 47.713-10.287 27.473 30.665 0 0 1 6.83 19.873 32.646 36.439 0 0 0-9.542-19.985" transform="matrix(1.0774 0 0 1 220.842 -124.298)"/><path fill="url(#ax)" d="M-134.914 198.864a5.424 6.054 0 0 1-1.381 4.372 6.002 6.7 0 0 1-3.867 1.85 7.534 8.409 0 0 1-4.119-1.205 4.57 5.101 0 0 1-2.31-3.84c0-.477.402-1.01.427-.477a4.646 5.186 0 0 0 2.11 4.093 6.479 7.232 0 0 0 3.867.98 8.488 9.474 0 0 0 2.812-.924 4.696 5.242 0 0 0 1.858-4.653z" transform="matrix(1.0774 0 0 1 220.842 -124.298)"/><path fill="#1f1c1a" d="M38.906 68.512v5.998h1.975z"/><path fill="url(#ay)" d="M-204.148 218.148v-65.87h36.538l.93 19.285-19.538-.084v6.81l15.921.057v18.976l-16.172-.056.05 20.882z" transform="matrix(1.0774 0 0 1 220.842 -124.298)"/><path fill="url(#az)" d="M-204.976 151.297h38.647v.645h-38.647z" transform="matrix(1.0774 0 0 1 220.842 -124.298)"/><path fill="#252d35" d="M41.098 27.644H.893v.337h39.772z"/><path fill="url(#aA)" d="m-182.501 218.849-2.436.617v-20.658h2.436z" transform="matrix(1.0774 0 0 1 220.842 -124.298)"/><path fill="#777d84" d="M0 94.355h21.59v.813H0z"/><path fill="#777d84" d="M21.076 73.781h.487v21.387h-.487z"/><path fill="#777d84" d="M21.455 73.781h17.451v.73h-17.45z"/><path fill="url(#aC)" d="M-169.393 177.225h.528v1.71a51.354 57.32 0 0 0 0 13.005v6.784l-.528-.309z" transform="matrix(1.0774 0 0 1 220.842 -124.298)"/><path fill="#62615f" d="M21.212 52.787h17.342v.813H21.212z"/><path fill="url(#aD)" d="M-167.961 173.917h-14.364l-2.411-1.009h17.126z" transform="matrix(1.0774 0 0 1 220.842 -124.298)"/><path fill="#1d1e21" d="m21.807 48.61 2.597 1.01v3.167h-2.597z"/><path fill="#62615f" d="M21.401 48.106H40.72v.505H21.4z"/><path fill="#62615f" d="M21.212 48.106h.595v5.101h-.595z"/><g fill="#1d1e21"><path d="M20.21 47.153h1.083v6.811H20.21z"/><path d="M20.914 53.6h17.424v.392H20.914z"/><path d="M37.364 53.796h.974v19.649h-.974z"/><path d="M19.94 72.968h18.398v.813H19.94z"/><path d="M19.94 73.277h1.136v21.05H19.94z"/><path d="M.893 93.879h19.561v.476H.893z"/></g><path fill="url(#aE)" d="M-204.976 151.297h.828v68.169h-.828z" transform="matrix(1.0774 0 0 1 220.842 -124.298)"/><path fill="url(#aG)" d="m-166.68 172.04.853-1.963-1.004-18.135-.779.336z" transform="matrix(1.0774 0 0 1 220.842 -124.298)"/><path fill="#1d1e21" d="M20.752 47.153H41.26v.925H20.752z"/><path fill="url(#aH)" d="m-165.3 168.76-.527 1.317-1.13-18.163.653-.617z" transform="matrix(1.0774 0 0 1 220.842 -124.298)"/><path fill="#1f1c1a" d="m44.453 41.07-1.732 2.663L41.639 27l1.975 1.71z"/><path fill="#b5b5b7" d="m2.192 92.225-1.3 1.626V27.98H2.11z"/><path fill="url(#aI)" d="M-169.995 154.465h-32.47l-1.683-2.187h36.538z" transform="matrix(1.0774 0 0 1 220.842 -124.298)"/><path fill="url(#aJ)" d="M-172.657 180.448h-16.449l2.888-2.158h15.921z" transform="matrix(1.0774 0 0 1 220.842 -124.298)"/><path fill="#fff" d="m18.668 55.085-.514.337v-9.895l.514.393z"/><path fill="#babbbd" d="m41.26 47.181-21.05-.028-2.056-1.626h21.023z"/><path fill="#e6edf2" d="M39.177 45.527H18.154L17.1 44.434h20.698z"/><path fill="url(#aK)" d="m-186.218 178.29-1.431 1.093v-9.166l1.431 1.234z" transform="matrix(1.0774 0 0 1 220.842 -124.298)"/><path fill="url(#aM)" d="m-188.126 179.72-.98.728v-11.716l.98 1.093z" transform="matrix(1.0774 0 0 1 220.842 -124.298)"/><path fill="#b9babc" d="M37.364 72.968H19.913l-2.327-1.681H35.2z"/><path fill="#e1e8ee" d="M16.504 70.334h17.478l1.218.953H17.56z"/><path fill="url(#aN)" d="m-186.469 218.148-3.19-1.57v-21.947l3.19 2.607z" transform="matrix(1.0774 0 0 1 220.842 -124.298)"/><path fill="#babbbd" d="m16.504 92.281-14.34-.028-1.271 1.598H19.94z"/><path fill="url(#aO)" d="M-189.658 215.85h-13.31v.7l13.31.028z" transform="matrix(1.0774 0 0 1 220.842 -124.298)"/><path fill="url(#aP)" d="m-170.297 197.266-3.139-2.635v-14.183l3.14-2.158z" transform="matrix(1.0774 0 0 1 220.842 -124.298)"/><path fill="url(#aQ)" d="m-166.68 171.479-3.215-2.747-.879-14.295 3.164-2.159z" transform="matrix(1.0774 0 0 1 220.842 -124.298)"/><path fill="url(#aS)" d="m-202.54 215.85-.428.7-.05-62.73.553.645z" transform="matrix(1.0774 0 0 1 220.842 -124.298)"/><path fill="url(#aT)" d="M-103.858 271.271v-34h17.327v60.712h-17.302l-22.325-35.037v35.234h-17.93v-60.91h17.579z" transform="matrix(.59795 0 0 .5776 201.752 -32.536)"/><path fill="#0a0b0b" d="m115.28 139.727-1.322.842V102.91h1.322z"/><path fill="#aab4bc" d="M113.958 102.91h12.539l.465-.501h-13.59z"/><path fill="url(#aV)" d="M-126.409 237.271h-17.704l-1.507-1.654h19.387z" transform="matrix(.59795 0 0 .5776 201.752 -32.536)"/><path fill="#0a0b0b" d="m126.271 103.558-11.577.016-.736-.664h12.539z"/><path fill="#7f8082" d="M115.28 139.727h.3v-35.214l-.285-.324z"/><path fill="#ddebf6" d="m136.722 116.98.751 1.182v-15.753l-.75-.697z"/><path fill="#8d979e" d="m137.848 118.582.42 1.83-11.771-17.502.465-.501z"/><path fill="#8d979e" d="m138.269 120.428-.796-1.198v-16.82l.796.501z"/><path fill="#0a0b0b" d="m138.269 120.412.87 1.991-12.868-18.845.226-.648z"/><path fill="url(#aW)" d="m-104.436 270.374-22.073-33.103.276-1.654 21.797 32.627z" transform="matrix(.59795 0 0 .5776 201.752 -32.536)"/><path fill="#0a0b0b" d="m139.305 122.403-1.036-1.49-.03-18.003h1.02z"/><path fill="url(#aX)" d="M-86.48 237.271h-17.328l-1.532-1.71h20.391z" transform="matrix(.59795 0 0 .5776 201.752 -32.536)"/><path fill="#818a91" d="M151.798 102.409h-14.325l.796.501h12.943z"/><path fill="#818a91" d="m151.167 111.232.631-.858v-7.965h-.63z"/><path fill="#0a0b0b" d="M150.957 103.558h-12.193l-.495-.648h12.898z"/><path fill="#b6c1ca" d="m113.343 141.427.615-.858V102.91l-.585-.501zm.615-.858h13.86v.858h-14.475z"/><path fill="#b6c1ca" d="m126.962 122.921.856 2.526v15.98h-.856z"/><path fill="#3f4345" d="m139.65 139.614-.375.307-13.004-19.509-.03-1.117z"/><path fill="url(#aY)" d="m-105.39 299.693-.603.953-17.654-27.133-1.431-4.372z" transform="matrix(.59795 0 0 .5776 201.752 -32.536)"/><path fill="#687278" d="M138.734 140.569h12.493l.676.55h-13.529z"/><path fill="#0a0b0b" d="M151.227 140.569h-12.493l.54-.648h11.218z"/><path fill="#0a0b0b" d="m151.227 140.569-.75-.648v-12.936l.75 4.258z"/><path fill="#21292c" d="m139.62 139.549 10.872.016v.356h-11.217z"/><path fill="#0a0b0b" d="M126.932 140.569h-12.974l1.322-1.02h11.051zm11.802 0-11.772-17.648-.69-2.509 13.003 19.51z"/><path fill="#0a0b0b" d="m126.932 140.569-.69-1.02.03-19.105.69 2.316z"/><path fill="#232b30" d="m149.996 104.513.496-.955v36.363l-.496-.34z"/><path fill="#0a0b0b" d="m150.492 139.921.735.648-.06-37.659h-.675z"/><path fill="#3f4345" d="m139.275 123.585.405.632v-19.704l-.42-.453z"/><path fill="#2c2d32" d="M151.798 102.409h-14.325l-.75-.697h13.393zm-24.836 0h-13.59l-.69-.68 13.56-.017z"/><path fill="url(#aZ)" d="m-148.985 298.124 1.13 3.055.05-67.552-1.155-1.177z" transform="matrix(.59795 0 0 .5776 201.752 -32.536)"/><path fill="#687278" d="M151.227 132.684h.676v8.435l-.676-.55z"/><path fill="url(#ba)" d="m28.809 276.204 7.533-39.241h17.83l-15.067 61.665H20.873l-7.71-38.429-7.533 38.738h-18.809l-15.067-61.414h17.73l7.86 39.578 7.784-39.914h15.444z" transform="matrix(.59795 0 0 .5776 201.752 -32.536)"/><path fill="#191d20" d="m225.886 141.038-.646-1.117 9.07-36.201 1.186-.712zm-6.937-17.793-.03 4.177-4.866-22.957.541-2.154z"/><path fill="url(#bb)" d="m27.352 263.479-2.386-12.586 3.591-18.219 3.792 1.065z" transform="matrix(.59795 0 0 .5776 201.752 -32.536)"/><path fill="url(#bc)" d="m-4.038 264.404-1.883-11.212 3.917-20.518 3.44.757z" transform="matrix(.59795 0 0 .5776 201.752 -32.536)"/><path fill="url(#bd)" d="m-31.26 240.915-3.816-3.448-1.055-4.905 2.737 1.065z" transform="matrix(.59795 0 0 .5776 201.752 -32.536)"/><path fill="url(#be)" d="m16.78 300.506-3.566-2.27L10 280.886l1.632-9.054z" transform="matrix(.59795 0 0 .5776 201.752 -32.536)"/><path fill="url(#bf)" d="m-16.87 300.646-3.566-2.27-3.415-15.22 1.732-4.597z" transform="matrix(.59795 0 0 .5776 201.752 -32.536)"/><path fill="#5a6167" d="M214.594 102.975H202.58l.03-.68 11.983.016z"/><path fill="url(#bg)" d="m-4.038 264.404.552 2.635 5.776-33.132-.854-1.177z" transform="matrix(.59795 0 0 .5776 201.752 -32.536)"/><path fill="#5a6167" d="M196.08 103.008h-14.07l-.27-.68 14.34.097z"/><path fill="#2c2d32" d="m196.08 102.425-14.295-.016-1.637-.616 14.31-.016zm18.514-.114-11.983-.016-2.072-.42 12.118-.033zm20.902.21H221.08l-2.268-.663 14.37-.032z"/><path fill="#64676a" d="m193.932 140.034-.675.065-9.16-36.347.81.956z"/><path fill="#5a6167" d="m184.262 108.755-1.006-1.247-1.471-5.1.946.6z"/><path fill="#0f1012" d="m186.47 112.964-2.208-4.209-1.531-5.747h1.186z"/><path fill="#0f1012" d="M183.616 103.752h12.163l.075-.744h-13.123z"/><path fill="url(#bh)" d="M-10.442 237.607H-28.17l-1.356-1.653h19.412z" transform="matrix(.59795 0 0 .5776 201.752 -32.536)"/><path fill="#5a6167" d="m199.698 121.545-.135.81-3.709-19.347.226-.583z"/><path fill="#0f1012" d="M214.414 103.752h-10.136l-1.231-.777h11.547zm-14.28 21.582-.57-3.157 3.483-19.202 1.231.777z"/><path fill="url(#bi)" d="M20.572 237.187H5.128l-.904-1.233h16.95z" transform="matrix(.59795 0 0 .5776 201.752 -32.536)"/><path fill="#0f1012" d="M192.31 140.569h12.974l-.105-.6h-12.868z"/><path fill="#324149" d="M192.31 140.569h13.275v.55h-13.92zm0 0-.645.55-3.349-13.567.196-2.461z"/><path fill="#101112" d="m193.227 139.97-.916.599-3.83-15.624-.24-4.76z"/><path fill="#0f1012" d="m200.149 125.204-.15 1.441-4.49-21.937.345-1.7z"/><path fill="url(#bj)" d="M-2.556 277.41-3.06 275l7.283-39.046.904 1.233z" transform="matrix(.59795 0 0 .5776 201.752 -32.536)"/><path fill="url(#bk)" d="m17.91 299.665-1.13.841-5.148-28.674.603-3.868z" transform="matrix(.59795 0 0 .5776 201.752 -32.536)"/><path fill="url(#bl)" d="M17.558 299.385h22.576v1.121H16.78z" transform="matrix(.59795 0 0 .5776 201.752 -32.536)"/><path fill="#0f1012" d="M225.39 139.921h-13.154l.136.632H225.6z"/><path fill="#101112" d="m205.284 140.569-.105-.6 4.235-21.111.255.793z"/><path fill="url(#bm)" d="m6.409 300.646-.503-.953 6.253-31.253-.527 4.036z" transform="matrix(.59795 0 0 .5776 201.752 -32.536)"/><path fill="#33393f" d="M235.496 103.008H221.59l-.51-.486h14.415z"/><path fill="url(#bn)" d="m27.277 263.03.402 3.084 5.5-31.506-.855-.785z" transform="matrix(.59795 0 0 .5776 201.752 -32.536)"/><path fill="#0f1012" d="m218.603 125.334-.315-4.161 3.288-18.165 1.322.55zm16.638-21.776h-12.343l-1.307-.55h13.905z"/><path fill="url(#bo)" d="M54.222 236.935h-17.83l-1.03-1.318h20.643z" transform="matrix(.59795 0 0 .5776 201.752 -32.536)"/><path fill="url(#bp)" d="m28.708 276.933-.603-3.952 7.258-37.364 1.03 1.318z" transform="matrix(.59795 0 0 .5776 201.752 -32.536)"/><path fill="#64676a" d="M214.339 139.921h-.48l-4.355-21.063.225-1.117z"/><path fill="#101112" d="m213.888 139.97-1.546.42-3.319-18.068.48-3.464z"/><path fill="url(#bq)" d="M-21.767 279.372c-4.822 14.715-17.754 22.816-33.474 22.816-12.104 0-21.923-4.345-28.126-12.361l-.176-46.922c6.228-8.073 16.147-12.726 28.302-12.726a38.597 43.082 0 0 1 22.902 7.316s10.923 41.176 10.572 41.877m-47.361-13.539c0 8.746 3.314 20.63 13.937 20.63 9.567 0 14.59-9.754 14.59-21.05 0-9.306-4.822-19.621-14.59-19.48s-13.937 11.267-13.937 19.9" transform="matrix(.59795 0 0 .5776 201.752 -32.536)"/><path fill="url(#br)" d="M-20.964 277.83c-4.143 15.725-17.251 24.358-33.323 24.358-13.787 0-24.535-5.606-30.135-16.23v-37.755c5.676-10.315 16.524-16.398 30.285-16.398a37.668 42.045 0 0 1 22.4 7.148l2.085 3.447zm-46.884-11.212c0 8.55 3.215 20.182 13.611 20.182 9.367 0 14.264-9.559 14.264-20.602 0-9.11-4.721-19.313-14.264-19.032s-13.61 11.043-13.61 19.592z" transform="matrix(.59795 0 0 .5776 201.752 -32.536)"/><path fill="#0a0b0b" d="M188.857 126.516c-1.997 9.568-9.85 14.878-19.596 14.878-9.19 0-16.051-4.258-18.77-11.948v-15.559c2.734-7.382 9.64-11.85 18.77-11.85 7.658 0 13.034 3.027 16.292 7.398l3.109 12.386zm-27.449-5.052c0 4.857 1.877 11.333 7.883 11.333 5.421 0 8.26-5.326 8.26-11.51 0-5.084-2.734-10.8-8.26-10.638s-7.883 6.153-7.883 10.815"/><path fill="url(#bu)" d="M-21.416 266.45v2.27c-1.004 19.93-15.494 31.226-33.499 31.226-14.866 0-26.016-8.83-30.687-20.742l-.753-6.531V262.02l.753-7.091a33.625 37.532 0 0 1 30.687-21.023c15.494 0 25.539 7.568 30.31 17.66zm-46.582.168c0 8.017 3.088 18.92 13.008 18.92 8.94 0 13.334-8.745 13.334-19.116 0-8.409-4.219-17.435-13.334-17.154-9.116.28-13.008 9.418-13.008 17.35" transform="matrix(.59795 0 0 .5776 201.752 -32.536)"/><path fill="url(#bv)" d="M-21.416 267.039c0 20.966-14.615 32.907-32.972 32.907-19.487 0-32.495-15.473-32.495-32.963 0-14.968 13.184-31.926 32.495-31.926 22.074 0 32.972 15.724 32.972 31.982m-45.703.168c0 7.876 3.038 18.584 12.782 18.584 8.789 0 13.108-8.606 13.108-18.78 0-8.41-4.143-17.127-13.108-16.818s-12.858 9.222-12.858 17.014z" transform="matrix(.59795 0 0 .5776 201.752 -32.536)"/><path fill="url(#bw)" d="M-61.444 278.895s12.556 5.606 13.36-11.632c.477-11.885-5.274-14.968-5.274-14.968s8.638.476 8.111 15.556c-.452 13.203-6.58 15.193-11.275 14.184a10.045 11.212 0 0 1-4.922-3.14" transform="matrix(.59795 0 0 .5776 201.752 -32.536)"/><path fill="url(#bx)" d="M-54.563 286.239s-12.908 1.15-12.556-20.153c0-.953 2.234 0 2.234 0 .151 12.136 6.178 16.481 10.548 16.2 6.378-.42 9.04-7.511 8.94-15.22 0-9.866-3.893-14.8-9.367-14.911-10.698-.196-10.045 14.015-10.045 14.015h-2.235s0-16.818 12.556-16.818c1.18 0 13.41-.7 13.41 19.2-.076 18.248-13.485 17.687-13.485 17.687" transform="matrix(.59795 0 0 .5776 201.752 -32.536)"/><path fill="#101112" d="M169.051 132.538s-7.508.664-7.282-11.478c0-.535.615.08.615.08-.3 6.978 3.439 9.569 5.346 9.925 6.006 1.117 7.373-4.857 7.508-8.694.345-6.654-2.523-9.973-6.337-9.973-6.922 0-6.592 8.743-6.592 8.743l-.616-.081s0-9.634 7.283-9.617c.676 0 7.748-.405 7.748 10.928.075 10.556-7.673 10.167-7.673 10.167"/></g></svg>