<svg xmlns="http://www.w3.org/2000/svg" width="710.08" height="324.16"><path d="M1.431 1.431H709.86V324.16H1.431z" style="fill:#1d22a8;fill-opacity:1;stroke-width:0"/><path d="M11.449 228.987h691.255v83.008H11.449z" style="fill:#ff071b;fill-opacity:1;stroke-width:0"/><path d="M14.312 14.312h422.195v204.657H14.312z" style="fill:#fff;fill-opacity:1;stroke-width:0"/><path d="M25.786 114.106v-83.52h50.24c49.737 0 50.24.006 50.24.63 0 .346.648 10.143 1.44 21.77.792 11.628 1.44 21.641 1.44 22.251v1.11h-56v21.76h45.76v45.44h-46.08v54.08h-47.04zm239.474 82.727c.1-.26 11.14-19.588 24.533-42.95 20.457-35.684 24.303-42.584 24.049-43.143-.207-.454-42.228-73.111-46.032-79.594-.078-.132 11.584-.24 25.915-.24h26.056l10.242 17.933 10.241 17.932 10.168-17.532c5.592-9.643 10.333-17.713 10.535-17.934.29-.318 5.63-.385 25.388-.32l25.02.082-22.43 39.2c-12.338 21.56-22.574 39.504-22.747 39.875-.268.577 3.346 6.984 24.677 43.745 13.745 23.687 24.991 43.148 24.991 43.246s-11.686.14-25.97.095l-25.972-.081-11.709-20.181c-6.44-11.1-11.925-20.494-12.189-20.878-.458-.665-1.028.263-12.466 20.26l-11.986 20.959h-25.248c-22.158 0-25.226-.058-25.066-.474m-63.794-1.636c-12.277-1.418-20.61-3.807-30.09-8.628-17.97-9.138-31.916-24.599-39.488-43.779-1.892-4.793-3.494-10.577-4.576-16.524-.784-4.308-.846-5.314-.865-14.08-.023-10.696.263-13.3 2.379-21.62 1.558-6.126 2.979-9.966 5.915-15.98 5.056-10.357 11.85-19.243 20.182-26.398 11.799-10.131 24.91-16.293 40.303-18.942 3.608-.62 5.307-.715 12.8-.714 7.567 0 9.175.092 12.941.739 23.73 4.076 43.983 17.796 56.538 38.302 5.797 9.469 9.387 19.134 11.344 30.543.97 5.658 1.21 17.288.486 23.51-1.617 13.89-6.013 25.824-13.793 37.44-8.015 11.968-18.438 21.214-31.16 27.642a82.4 82.4 0 0 1-24.675 7.892c-3.19.486-15.67.894-18.24.597m12.451-34.337c5.426-1.688 9.203-6.206 9.94-11.891.182-1.401.312-16.422.314-36.463.005-36.808.017-36.524-1.694-39.9-3.418-6.745-10.593-9.983-16.983-7.664-5.06 1.837-8.595 6.374-9.508 12.204-.178 1.139-.263 16.377-.21 37.44l.09 35.52.724 1.92c2.74 7.278 10.165 11.063 17.327 8.834" style="fill:#000"/><path d="M399.36 300.315c2.933-.725 6.932-2.785 9.022-4.648 3.662-3.264 5.123-6.74 5.18-12.325.02-2.042-.15-4.258-.405-5.28-1.416-5.67-5.283-9.497-11.127-11.011-1.055-.274-4.356-.861-7.334-1.306-6.287-.94-8.313-1.716-9.62-3.691-2.106-3.183-.791-7.433 2.894-9.352.996-.518 2.062-.715 4.449-.819 4.88-.213 8.523.721 11.214 2.876l1.233.987 3.647-3.637c2.006-2 3.639-3.71 3.629-3.801-.048-.433-3.502-2.975-5.392-3.968-3.616-1.9-6.24-2.48-12.03-2.66-6.169-.19-8.676.237-12.535 2.14-4.488 2.212-7.678 6.062-8.895 10.736-.573 2.2-.64 6.751-.136 9.17 1.157 5.55 5.35 9.708 11.352 11.26 1.042.27 4.342.856 7.334 1.303 8.468 1.265 10.24 2.513 10.24 7.213 0 2.69-.765 4.27-2.648 5.464-1.836 1.164-3.86 1.578-7.688 1.57-5.244-.01-9.074-1.143-12.348-3.656l-1.563-1.2-3.637 3.626c-2 1.994-3.636 3.778-3.636 3.963s.62.857 1.38 1.49c3.604 3.014 7.84 4.962 12.38 5.694 1.32.213 2.616.439 2.88.502 1.266.302 10.264-.172 12.16-.64M57.757 285.182c2.605-8.58 4.95-16.356 5.214-17.28.263-.924.568-1.68.678-1.68s1.54 4.428 3.176 9.84c1.638 5.412 3.998 13.188 5.246 17.28l2.268 7.44h9.691l7.768-28.993c4.272-15.947 7.846-29.198 7.942-29.447.147-.384-.78-.44-6.016-.367l-6.19.087-4.47 18.056-4.47 18.055-.714-2.375c-.392-1.307-2.763-9.468-5.268-18.136l-4.554-15.76H59.3l-3.552 12.24c-1.953 6.732-4.312 14.87-5.242 18.084-1.025 3.542-1.768 5.621-1.887 5.28-.109-.31-2.12-8.448-4.472-18.084l-4.274-17.52h-6.017c-4.539 0-6.017.097-6.017.393 0 .216 3.484 13.464 7.741 29.44l7.742 29.047h9.698zm84.003 10.324v-5.276l-12.339-.084-12.339-.084 12.34-19.347 12.338-19.347v-9.466h-37.44v10.56H116c6.424 0 11.68.091 11.68.202s-5.544 8.881-12.32 19.488l-12.32 19.285v4.46c0 2.452.096 4.554.213 4.672.118.117 8.83.213 19.36.213h19.147Zm32.562-18.964.082-24.08h15.036v-10.56H147.2v10.56h15.36v48.335l5.84-.087 5.84-.087zm55.191-4.72c5.242-15.84 9.613-29.055 9.713-29.367.17-.531-.206-.561-5.968-.48l-6.149.087-5.705 18.524c-3.138 10.188-5.75 18.57-5.806 18.625-.056.056-2.688-8.314-5.85-18.599l-5.748-18.7-6-.005c-4.173-.003-6 .103-6 .35 0 .194 4.329 13.446 9.62 29.448l9.619 29.095 4.372-.089 4.371-.089zm47.364 11.303.083-17.657 11.36 17.649 11.36 17.648 5.2.01 5.2.01v-58.88h-11.835l-.082 17.471-.083 17.472-11.305-17.472-11.305-17.47h-10.51v29.226c0 16.075.096 29.323.213 29.44.118.117 2.78.213 5.918.213h5.704zm54.003 12.377 1.76-5.12 10.25-.084 10.249-.084 1.74 5.285 1.74 5.284h6.01c4.326 0 6.011-.103 6.011-.37 0-.202-4.779-13.454-10.62-29.447l-10.619-29.08-4.61.089-4.61.088-10.53 28.958c-5.792 15.927-10.531 29.143-10.531 29.367 0 .32 1.3.39 6 .322l6-.087zm7.723-22.64a6732 6732 0 0 0 3.35-9.68c.425-1.232.86-2.456.966-2.72.158-.388 6.841 18.757 6.841 19.596 0 .135-3.09.244-6.868.244h-6.869zm97.237 15.6v-12.32h19.52v24.64h11.52v-58.88h-11.52v24h-19.52v-24H424v29.227c0 16.075.096 29.323.213 29.44.118.117 2.782.213 5.92.213h5.707zm75.553-16.88c5.308-16.06 9.713-29.308 9.788-29.44s-2.644-.24-6.042-.24l-6.179.001-5.746 18.707c-3.16 10.29-5.8 18.652-5.869 18.584s-2.686-8.45-5.817-18.628l-5.694-18.504-6.154-.087c-5.242-.074-6.128-.019-5.977.373.097.253 4.45 13.396 9.674 29.207s9.561 28.855 9.639 28.987 2.073.24 4.434.24h4.292zm28.127-.24v-29.44H528v58.88h11.52zm51.52 24.16v-5.28h-26.56v-48.32h-11.52v58.88h38.08zm47.04 0v-5.28h-26.24v-48.32H600v58.88h38.08zm47.68 0v-5.28h-26.88v-14.08h23.04v-10.24h-23.04v-13.44h26.88v-10.56h-38.72v29.227c0 16.075.096 29.323.213 29.44.118.117 8.83.213 19.36.213h19.147z" style="fill:#fff"/><path d="M525.94 112.785V20.868l-34.703.09-34.704.09v36.483l10.472.094 10.471.094v146.984h48.465zm122.942 1.652c24.344-50.329 44.26-91.651 44.26-91.829 0-.193-27.16-.286-67.59-.233l-67.59.09V57.53l35.489.177 35.489.177-32.816 65.174c-18.048 35.845-34.84 69.2-37.316 74.12l-4.5 8.945 25.157-.09 25.157-.091z" style="fill:#fff;stroke-width:1.09427"/></svg>